<?xml version="1.0" encoding="UTF-8" standalone="no"?>
<svg width="263px" height="263px" viewBox="0 0 263 263" version="1.1" xmlns="http://www.w3.org/2000/svg" xmlns:xlink="http://www.w3.org/1999/xlink" xmlns:sketch="http://www.bohemiancoding.com/sketch/ns">
    <!-- Generator: Sketch 3.1.1 (8761) - http://www.bohemiancoding.com/sketch -->
    <title>Imported Layers</title>
    <desc>Created with Sketch.</desc>
    <defs></defs>
    <g id="Page-1" stroke="none" stroke-width="1" fill="none" fill-rule="evenodd" sketch:type="MSPage">
        <g id="Desktop-HD" sketch:type="MSArtboardGroup" transform="translate(-345.000000, -2294.000000)">
            <g id="Imported-Layers" sketch:type="MSLayerGroup" transform="translate(346.000000, 2294.000000)">
                <path d="M94.8986083,143.752115 C90.561621,143.752952 86.8553312,136.483599 85.8150573,131.08121 C84.8535159,126.08421 86.0051879,122.681124 88.9735701,121.743035 C89.8538662,121.464121 90.7961433,121.953268 91.0758949,122.835239 C91.3539713,123.71721 90.8648248,124.65865 89.9828535,124.937564 C88.8898121,125.282646 88.5371911,127.497207 89.1050701,130.447162 C90.161258,135.934146 93.3691879,140.402634 94.8826943,140.402634 C94.901121,140.402634 94.9195478,140.401796 94.9379745,140.400959 C95.8517739,140.332277 96.6633885,141.024118 96.7329076,141.947131 C96.8015892,142.869306 96.1089108,143.673382 95.1858981,143.742064 C95.090414,143.748764 94.9940924,143.752115 94.8986083,143.752115" id="Fill-1" fill="#444444" sketch:type="MSShapeGroup"></path>
                <path d="M95.0627739,143.810745 C94.4253758,143.810745 93.8156178,143.444723 93.5358662,142.825752 C93.1547675,141.983146 93.528328,140.990615 94.3709331,140.608678 C94.638121,140.488067 94.869293,140.366618 95.0837134,140.25522 C95.805707,139.877471 96.6248599,139.450306 97.8544268,139.450306 C98.7791146,139.450306 99.529586,140.200777 99.529586,141.125465 C99.529586,142.05099 98.7791146,142.800624 97.8544268,142.800624 C97.4649522,142.800624 97.2513694,142.902809 96.6340732,143.225277 C96.3685605,143.363478 96.0821083,143.511729 95.7529395,143.661656 C95.5284682,143.763003 95.2939459,143.810745 95.0627739,143.810745" id="Fill-2" fill="#444444" sketch:type="MSShapeGroup"></path>
                <path d="M101.378124,142.176627 C101.14779,142.176627 100.913268,142.128885 100.688796,142.027538 C99.2933885,141.396841 97.9817389,140.23093 96.6801401,138.464475 C96.1315255,137.719866 96.289828,136.671217 97.0352739,136.122602 C97.7798822,135.573987 98.8285318,135.73229 99.3771465,136.476898 C100.316911,137.751694 101.222334,138.591787 102.069127,138.973723 C102.911732,139.354822 103.286131,140.347354 102.905869,141.190796 C102.62528,141.809768 102.01636,142.176627 101.378124,142.176627" id="Fill-3" fill="#444444" sketch:type="MSShapeGroup"></path>
                <path d="M110.448274,162.895834 C107.220242,162.895834 104.254373,162.379048 102.210678,160.515433 C100.708898,159.146828 99.9483758,157.237984 99.9483758,154.844182 C99.9483758,153.919494 100.69801,153.169022 101.623535,153.169022 C102.548223,153.169022 103.298694,153.919494 103.298694,154.844182 C103.298694,156.27728 103.680631,157.32258 104.467955,158.040385 C106.67749,160.054764 111.893099,159.571481 115.009732,159.284191 C115.446111,159.24315 115.993051,159.212159 116.635475,159.176143 C121.548717,158.902255 131.771376,158.331863 140.636318,150.35308 C141.323971,149.735783 142.38351,149.789389 143.002481,150.477879 C143.621452,151.165532 143.565334,152.22507 142.877682,152.844041 C133.135793,161.610987 121.703669,162.249223 116.822255,162.521436 C116.228411,162.554939 115.721675,162.58258 115.318799,162.619433 C113.683844,162.771035 112.03465,162.895834 110.448274,162.895834" id="Fill-4" fill="#444444" sketch:type="MSShapeGroup"></path>
                <path d="M122.296675,95.5083662 C122.078067,95.5083662 121.861134,95.494965 121.647551,95.4673248 C120.730401,95.347551 120.08379,94.506621 120.203564,93.5894713 C120.323338,92.6723217 121.16678,92.0257102 122.081417,92.1446465 C123.11499,92.2828471 124.564841,91.4678822 125.451,90.2550669 C125.999615,89.5045955 126.79029,87.9726624 125.931771,86.1408758 C125.538946,85.3032962 125.899943,84.3057389 126.73836,83.9137516 C127.577615,83.5226019 128.572659,83.8819236 128.965484,84.7195032 C130.128045,87.1987389 129.832379,89.9367866 128.156382,92.2317548 C126.679729,94.2511592 124.39565,95.5083662 122.296675,95.5083662" id="Fill-5" fill="#444444" sketch:type="MSShapeGroup"></path>
                <path d="M142.524223,99.3905478 C141.773752,99.3905478 141.090287,98.8821369 140.900156,98.1207771 C140.498118,96.5126242 139.671427,95.3802166 138.510541,94.8458408 C137.23072,94.2570223 135.549697,94.4203503 133.781567,95.3048344 C132.954038,95.7169236 131.948105,95.3818917 131.533503,94.5552006 C131.120576,93.727672 131.455608,92.7217389 132.283137,92.3079745 C134.979306,90.9594713 137.687201,90.7793917 139.910137,91.8020764 C141.996548,92.7619427 143.502516,94.7176911 144.149965,97.3083248 C144.374436,98.2062102 143.829172,99.1149841 142.931287,99.3394554 C142.794761,99.3737962 142.658236,99.3905478 142.524223,99.3905478" id="Fill-6" fill="#444444" sketch:type="MSShapeGroup"></path>
                <path d="M149.784363,108.882838 C149.355522,108.882838 148.926682,108.718672 148.600025,108.392016 C148.520455,108.312446 148.43921,108.27308 148.019583,108.113102 C147.699627,107.990815 147.301777,107.839213 146.801742,107.588777 C145.974213,107.175013 145.638344,106.16908 146.052108,105.341551 C146.465873,104.513185 147.473481,104.17899 148.300172,104.591917 C148.651955,104.768646 148.93757,104.877532 149.213971,104.983067 C149.756723,105.189949 150.370669,105.424471 150.968701,106.022503 C151.62285,106.676653 151.62285,107.737866 150.968701,108.392016 C150.642045,108.718672 150.213204,108.882838 149.784363,108.882838" id="Fill-7" fill="#444444" sketch:type="MSShapeGroup"></path>
                <path d="M152.574341,120.050287 C152.323067,120.050287 152.067605,119.993331 151.82722,119.873557 C149.784363,118.85171 149.784363,116.805503 149.784363,115.583475 C149.784363,114.657949 150.534834,113.908315 151.459522,113.908315 C152.385048,113.908315 153.134682,114.657949 153.134682,115.583475 C153.134682,116.524076 153.175723,116.802153 153.32565,116.87586 C154.153178,117.290462 154.48821,118.296395 154.074446,119.123924 C153.781293,119.711067 153.189124,120.050287 152.574341,120.050287" id="Fill-8" fill="#444444" sketch:type="MSShapeGroup"></path>
                <path id="Stroke-9" stroke="#444444" stroke-width="4" stroke-linecap="round" sketch:type="MSShapeGroup"></path>
                <path d="M108.046096,247.085987 C107.232806,247.085987 106.519188,246.493818 106.391876,245.665452 C102.012172,217.194446 112.058102,196.432522 119.392787,181.274006 C123.415682,172.960191 126.889962,165.780459 126.889962,159.764962 C126.889962,158.840274 127.640433,158.089803 128.565121,158.089803 C129.490646,158.089803 130.24028,158.840274 130.24028,159.764962 C130.24028,166.548519 126.611048,174.049045 122.408073,182.73307 C114.867344,198.318752 105.481427,217.71542 109.703666,245.156204 C109.844379,246.070841 109.217032,246.92601 108.302395,247.066723 C108.216124,247.079287 108.130691,247.085987 108.046096,247.085987" id="Fill-10" fill="#444444" sketch:type="MSShapeGroup"></path>
                <path d="M103.064172,153.462175 C101.248299,153.462175 99.2967389,153.250268 97.2321051,152.819752 L96.9188503,152.720917 C92.5148567,150.848089 92.9487229,147.709678 93.2661656,145.418061 C93.4052038,144.408777 93.5492675,143.365153 93.4026911,142.300589 C93.2762166,141.384277 93.9161274,140.538322 94.8324395,140.411847 C95.747914,140.277834 96.594707,140.925283 96.7211815,141.841596 C96.931414,143.36599 96.7471465,144.700255 96.5846561,145.877892 C96.2772643,148.099153 96.1884809,148.736551 98.0822484,149.574131 C105.139694,151.007229 110.443248,149.545653 112.651108,145.552911 C113.099213,144.743809 114.118548,144.448981 114.92765,144.897924 C115.737589,145.345191 116.030742,146.365363 115.582637,147.174465 C113.307771,151.288656 108.881162,153.462175 103.064172,153.462175" id="Fill-11" fill="#444444" sketch:type="MSShapeGroup"></path>
                <path d="M194.455834,80.9629586 L194.413955,80.9629586 C193.489268,80.9395064 192.758061,80.1714459 192.780675,79.246758 C192.961592,71.8509299 194.627538,63.2791401 196.09749,55.7174713 C197.165404,50.2212739 198.482917,43.4444172 198.020573,41.6863376 C197.376475,41.5916911 196.5925,41.8915446 196.01457,42.1838599 C188.686586,45.9110892 176.537494,66.5013089 174.575882,73.8569331 C174.33801,74.749793 173.422535,75.2808185 172.52465,75.0437834 C171.630952,74.8050732 171.099927,73.887086 171.337799,72.9933885 C173.198901,66.0155127 185.564927,43.7400828 194.496038,39.1978885 C196.352952,38.2539363 198.044025,38.0663185 199.526541,38.6383854 C202.480685,39.7816815 201.670745,44.5986019 199.386666,56.3565446 C197.941841,63.7892261 196.304373,72.2136019 196.129318,79.3288408 C196.107541,80.2401274 195.362096,80.9629586 194.455834,80.9629586" id="Fill-12" fill="#444444" sketch:type="MSShapeGroup"></path>
                <path d="M89.4761178,125.015459 C88.6812548,125.015459 87.9760127,124.448417 87.8294363,123.638478 C87.6652707,122.728029 88.2700032,121.856108 89.1804522,121.691943 C105.041697,118.82407 115.094328,114.428452 117.485618,109.315029 C119.431315,105.153933 120.003382,100.796844 120.146608,96.5804682 C116.625424,97.8611274 112.481917,97.4582516 109.423914,95.3492261 C106.025854,93.0048408 104.631283,89.1771019 105.524981,84.7521688 C103.343086,81.9052357 102.832162,77.8505127 104.286201,74.3695318 C105.949634,70.3868408 109.789099,67.9478089 114.885771,67.6002134 C126.791965,52.8755637 146.451634,44.1094554 167.652449,44.1094554 C174.288592,44.283672 180.57379,45.3524236 186.375704,47.2863949 C187.253487,47.5787102 187.727557,48.5276879 187.434404,49.4046338 C187.142089,50.2824172 186.196462,50.7581624 185.315328,50.4650096 C179.827506,48.6348981 173.869803,47.6239395 167.608057,47.4597739 C147.184516,47.4597739 128.263592,55.9880096 117.040025,70.2720924 L116.552554,70.8919013 L115.765229,70.9120032 C111.59157,71.0175382 108.613137,72.703586 107.377707,75.660242 C106.315656,78.2031338 106.804803,81.2904522 108.567908,83.1666306 L109.203631,83.8442325 L108.966596,84.7421178 C108.067873,88.1343153 108.90629,90.9217803 111.326057,92.5910764 C114.088395,94.4957325 118.109615,94.4354268 120.888704,92.4445 L123.539643,90.5448694 L123.539643,93.8064045 C123.539643,99.2448089 123.174459,105.060124 120.520169,110.733889 C117.572726,117.037513 107.228618,121.832656 89.7768089,124.988656 C89.6754618,125.007083 89.5749522,125.015459 89.4761178,125.015459" id="Fill-13" fill="#444444" sketch:type="MSShapeGroup"></path>
                <path d="M221.280159,97.2270796 C220.481108,97.2270796 219.775029,96.6550127 219.631803,95.8425605 C218.278274,88.1694936 216.246306,81.3314936 213.592016,75.5161783 C209.988748,67.5893248 204.551182,61.1475 197.43008,56.3649204 C196.662019,55.8498089 196.45765,54.809535 196.973599,54.0414745 C197.489548,53.2717389 198.529822,53.068207 199.297882,53.5841561 C206.942471,58.7176815 212.777051,65.6293885 216.639968,74.1274713 C219.411519,80.1974108 221.528083,87.3084618 222.931029,95.2596051 C223.091844,96.1708917 222.483761,97.0402994 221.572475,97.2011146 C221.47364,97.2178662 221.376481,97.2270796 221.280159,97.2270796" id="Fill-14" fill="#444444" sketch:type="MSShapeGroup"></path>
                <path id="Stroke-15" stroke="#444444" stroke-width="4" stroke-linecap="round" sketch:type="MSShapeGroup"></path>
                <path d="M206.463376,221.539809 C205.538688,221.539809 204.788217,220.790175 204.788217,219.86465 C204.788217,201.981487 208.668723,188.947911 213.58029,172.447592 C214.104615,170.687 214.640666,168.888717 215.183417,167.040178 C220.033003,150.410035 222.352261,129.674076 221.384857,111.576494 C221.336277,110.652643 222.044869,109.864481 222.96872,109.814226 C223.884194,109.768159 224.68157,110.474239 224.730987,111.398089 C225.731057,130.127207 223.423525,150.751768 218.398885,167.981618 C217.853621,169.837694 217.316732,171.640166 216.79157,173.403271 C211.957061,189.643102 208.138535,202.468959 208.138535,219.86465 C208.138535,220.790175 207.388064,221.539809 206.463376,221.539809" id="Fill-16" fill="#444444" sketch:type="MSShapeGroup"></path>
                <path d="M136.103338,110.697873 C136.103338,112.779258 134.415615,114.466981 132.334229,114.466981 C130.252844,114.466981 128.565121,112.779258 128.565121,110.697873 C128.565121,108.61565 130.252844,106.928764 132.334229,106.928764 C134.415615,106.928764 136.103338,108.61565 136.103338,110.697873" id="Fill-17" fill="#444444" sketch:type="MSShapeGroup"></path>
                <path d="M132.334229,116.14214 C129.332344,116.14214 126.889962,113.699758 126.889962,110.697873 C126.889962,107.695987 129.332344,105.253605 132.334229,105.253605 C135.336115,105.253605 137.778497,107.695987 137.778497,110.697873 C137.778497,113.699758 135.336115,116.14214 132.334229,116.14214 L132.334229,116.14214 Z M132.334229,108.603924 C131.180045,108.603924 130.24028,109.54285 130.24028,110.697873 C130.24028,111.852057 131.180045,112.791822 132.334229,112.791822 C133.488414,112.791822 134.428178,111.852057 134.428178,110.697873 C134.428178,109.54285 133.488414,108.603924 132.334229,108.603924 L132.334229,108.603924 Z" id="Fill-18" fill="#444444" sketch:type="MSShapeGroup"></path>
                <path d="M130.566936,112.654459 C130.566936,111.212984 131.734522,110.045398 133.175159,110.045398 C134.616634,110.045398 135.78422,111.212984 135.78422,112.654459 C135.78422,114.095096 134.616634,115.262682 133.175159,115.262682 C131.734522,115.262682 130.566936,114.095096 130.566936,112.654459" id="Fill-19" fill="#1ABC9C" sketch:type="MSShapeGroup"></path>
                <path d="M141.037519,171.301783 C139.018115,171.301783 136.977771,170.269885 135.481016,168.398732 C134.903924,167.675064 135.022022,166.621389 135.744016,166.043459 C136.468522,165.467204 137.52136,165.583627 138.098452,166.306459 C139.178092,167.657475 140.661446,168.244618 141.871748,167.806564 C142.965627,167.407876 143.425459,166.3475 143.603025,165.750306 L144.246287,163.575949 L146.135029,164.828968 C146.654328,165.174051 147.688739,165.69 148.784293,165.294662 C149.554029,165.014911 150.153736,164.339822 150.472854,163.393357 C150.836363,162.313717 150.792809,161.045621 150.348892,159.82443 C150.033124,158.954185 150.482067,157.994318 151.351475,157.677713 C152.222557,157.361108 153.181586,157.810051 153.498191,158.679459 C154.200083,160.612592 154.253688,162.667175 153.64728,164.463783 C152.996481,166.395242 151.675618,167.809076 149.927589,168.443124 C148.687134,168.89458 147.327742,168.895417 146.024468,168.469927 C145.297449,169.632487 144.2555,170.50357 143.015882,170.955025 C142.371783,171.18871 141.705908,171.301783 141.037519,171.301783" id="Fill-20" fill="#444444" sketch:type="MSShapeGroup"></path>
                <path d="M222.492137,113.50879 C221.887404,113.50879 221.304449,113.180459 221.004596,112.608392 C220.57743,111.788401 220.894873,110.775768 221.714863,110.348602 C223.247634,109.548713 224.108666,108.207748 223.909322,106.93379 C223.728404,105.782118 222.776076,105.127968 222.223274,104.839841 L220.21392,103.792029 L221.805322,102.17885 C222.243376,101.734933 222.950293,100.819459 222.769376,99.6677866 C222.642064,98.8578471 222.094287,98.1400414 221.227392,97.646707 C220.236535,97.0813408 218.981841,96.8828344 217.699506,97.0830159 C216.796596,97.2270796 215.928863,96.6030828 215.785637,95.6884459 C215.641573,94.7738089 216.266408,93.916965 217.181045,93.7737389 C219.211338,93.454621 221.23828,93.7963535 222.885799,94.7352803 C224.65728,95.7445637 225.790525,97.3125127 226.078653,99.1493248 C226.28386,100.452599 226.023373,101.785188 225.357497,102.984602 C226.359242,103.920178 227.014229,105.109541 227.218599,106.41449 C227.645764,109.131599 226.093729,111.842006 223.265223,113.318659 C223.018137,113.447646 222.752624,113.50879 222.492137,113.50879" id="Fill-21" fill="#444444" sketch:type="MSShapeGroup"></path>
                <path d="M196.043885,89.2943631 C195.610857,89.2943631 195.177828,89.1268471 194.850334,88.7934904 C194.20121,88.1334777 194.210424,87.0731019 194.869599,86.4248153 C196.103354,85.212 196.535545,83.6792293 195.973529,82.5191815 C195.465118,81.4705318 194.362863,81.1220987 193.749755,81.0073503 L191.523468,80.5902357 L192.574631,78.5833949 C192.863596,78.0314299 193.273172,76.9484395 192.764761,75.9006274 C191.976599,74.2732102 189.411092,73.8167293 187.162191,74.9064204 C186.332987,75.3109713 185.328729,74.9625382 184.924178,74.1291465 C184.521303,73.2965924 184.868898,72.2948471 185.701452,71.8911338 C189.64729,69.9797771 194.168545,71.1197229 195.780048,74.439051 C196.355465,75.6267389 196.496178,76.9769172 196.207213,78.3187197 C197.439293,78.9226146 198.412561,79.8690796 198.987978,81.0567675 C200.188229,83.5326529 199.493876,86.5772548 197.21901,88.8135924 C196.892354,89.1343854 196.467701,89.2943631 196.043885,89.2943631" id="Fill-22" fill="#444444" sketch:type="MSShapeGroup"></path>
                <path d="M180.495895,75.1007389 C180.353506,75.1007389 180.207768,75.0823121 180.062866,75.0437834 C179.169169,74.8050732 178.638143,73.887086 178.876016,72.9933885 C180.612318,66.4845573 184.223962,52.9425701 195.867156,46.0199745 C196.662019,45.5459045 197.688892,45.8089045 198.162962,46.6037675 C198.635357,47.3986306 198.374869,48.4271783 197.580006,48.8995732 C188.377519,54.3706433 184.708083,64.1276083 182.114099,73.8560955 C181.913917,74.6057293 181.236315,75.1007389 180.495895,75.1007389" id="Fill-23" fill="#444444" sketch:type="MSShapeGroup"></path>
                <path d="M135.965137,54.6587707 C135.171949,54.6587707 134.467545,54.0934045 134.319293,53.2851401 C134.001013,51.548 133.670169,49.8468758 133.354401,48.2244841 C131.485761,38.6090701 130.632268,34.2209904 133.411357,33.1455382 C138.42092,31.207379 145.083029,39.6099777 149.785201,47.0024554 C150.281885,47.782242 150.051551,48.818328 149.270927,49.3141752 C148.49114,49.8108599 147.455054,49.5805255 146.958369,48.7999013 C140.982239,39.4056083 136.734035,36.2194554 135.003596,36.2077293 C134.759022,37.8895892 135.796783,43.2308344 136.643576,47.5854108 C136.961019,49.2195287 137.294376,50.932379 137.614331,52.6820828 C137.781847,53.5916943 137.17879,54.4644522 136.268341,54.6311306 C136.166994,54.6503949 136.064809,54.6587707 135.965137,54.6587707" id="Fill-24" fill="#444444" sketch:type="MSShapeGroup"></path>
                <path d="M144.314131,51.0890064 C143.744576,51.0890064 143.190099,50.7983662 142.876006,50.274879 C140.749392,46.7294045 138.169646,44.0876783 134.991869,42.1972611 C134.196169,41.7240287 133.934844,40.6963185 134.408076,39.9014554 C134.881309,39.1065924 135.909857,38.8461051 136.703882,39.3176624 C140.319713,41.4677293 143.363478,44.5743121 145.748904,48.5511401 C146.22465,49.3451656 145.967513,50.3737134 145.174325,50.8494586 C144.903787,51.0111115 144.607283,51.0890064 144.314131,51.0890064" id="Fill-25" fill="#444444" sketch:type="MSShapeGroup"></path>
                <path d="M89.6888631,190.179153 L89.6888631,190.179153 C89.0925064,190.179153 88.5137389,190.104608 88.0488822,190.04514 C87.8428376,190.018338 87.6644331,189.991535 87.5346083,189.987347 C86.1685159,189.939605 85.4306083,188.802172 85.4297707,187.756873 L85.4297707,162.125261 L99.908172,149.984545 L109.413025,150.129446 L93.1078631,164.770338 L93.1078631,186.973736 C93.2008344,188.053376 92.7996338,188.756105 92.4394745,189.160656 C91.8280414,189.845796 90.9284809,190.179153 89.6888631,190.179153 L89.6888631,190.179153 Z M88.7800892,186.76099 C89.0849682,186.797844 89.404086,186.828834 89.6888631,186.828834 L89.7575446,186.828834 L89.7575446,163.276096 L96.6256975,157.108997 L88.7800892,163.687347 L88.7800892,186.76099 L88.7800892,186.76099 Z" id="Fill-26" fill="#444444" sketch:type="MSShapeGroup"></path>
                <path d="M73.5972834,189.430357 C73.2949172,189.430357 72.9892006,189.348274 72.7136369,189.177408 C71.9279873,188.688261 71.6876019,187.655525 72.1767484,186.869876 C73.8745223,184.142717 83.7830892,183.583213 86.779949,183.476841 C87.6895605,183.423236 88.4802357,184.167006 88.5129013,185.090857 C88.5464045,186.016382 87.8227357,186.792818 86.8980478,186.825484 C79.8808057,187.074245 75.7071465,188.188226 74.9432739,188.755268 C74.618293,189.192484 74.1132325,189.430357 73.5972834,189.430357" id="Fill-27" fill="#444444" sketch:type="MSShapeGroup"></path>
                <path d="M105.567697,189.431194 C105.000656,189.431194 104.458742,189.140554 104.148838,188.64722 C103.284455,188.063427 98.913965,186.979599 91.5700669,186.800357 C90.645379,186.77858 89.914172,186.010519 89.935949,185.085831 C89.9594013,184.160306 90.7475637,183.414022 91.6521497,183.451713 C95.8819268,183.554736 105.855825,184.117589 107.111357,187.106911 C107.469841,187.958729 107.06864,188.94121 106.215984,189.299694 C106.004076,189.388478 105.783793,189.431194 105.567697,189.431194" id="Fill-28" fill="#444444" sketch:type="MSShapeGroup"></path>
                <path d="M91.3992006,171.386379 C91.3238185,171.386379 91.2467611,171.381354 91.1688662,171.371303 C85.9783854,170.655172 85.4800255,167.497497 85.4398217,167.13985 L88.7700382,166.76964 C88.7700382,166.76964 88.7717134,166.727761 88.7516115,166.657404 C88.7541242,166.666618 89.0749172,167.700191 91.6261847,168.051975 C92.5424968,168.178449 93.1832452,169.023567 93.0567707,169.940717 C92.9411847,170.779134 92.223379,171.386379 91.3992006,171.386379" id="Fill-29" fill="#444444" sketch:type="MSShapeGroup"></path>
                <path d="M91.2953408,179.518439 C91.2375478,179.518439 91.1789172,179.515927 91.1202866,179.509226 C85.9055159,178.970662 85.5101783,176.248529 85.4842134,175.707452 C85.4389841,174.783602 86.1517643,173.997952 87.0764522,173.953561 C87.925758,173.935134 88.6402134,174.497987 88.7993535,175.296201 C88.904051,175.423513 89.4635541,175.970452 91.4653694,176.177334 C92.3858694,176.271981 93.054258,177.096159 92.9587739,178.015822 C92.8699904,178.877691 92.1429713,179.518439 91.2953408,179.518439" id="Fill-30" fill="#444444" sketch:type="MSShapeGroup"></path>
                <path d="M88.9785955,231.720589 C81.9496274,231.720589 77.6419554,229.586436 77.3756051,229.451586 C76.9811051,229.250567 76.6812516,228.900459 76.5438885,228.479156 C76.2917771,227.706908 76.0245892,226.430436 75.728086,224.576035 C75.5815096,223.662236 76.2038312,222.803717 77.116793,222.65714 C78.0305924,222.503025 78.889949,223.132048 79.0356879,224.045847 C79.2434076,225.344096 79.4109236,226.190051 79.5399108,226.740341 C81.7109172,227.587971 89.204742,229.916443 99.5279108,226.688411 C100.130131,222.633688 102.369818,207.017016 103.694869,190.288038 C98.7715764,191.667532 89.2005541,194.106564 75.5186911,190.741169 C75.6836943,192.748847 75.9224045,195.56814 76.2096943,198.717439 C76.2934522,199.639615 75.6150127,200.453742 74.6936752,200.538338 C73.7748503,200.614557 72.9573726,199.942818 72.8727771,199.021481 C72.3099236,192.846844 71.9321752,187.931927 71.9288248,187.883347 C71.8685191,187.10021 72.3610159,186.379892 73.1123248,186.15207 C73.8653089,185.926761 74.6735732,186.249229 75.0588599,186.933532 C75.170258,187.131201 75.2958949,187.226685 75.5220414,187.286153 C89.2977134,190.871831 98.7699013,188.195764 103.322146,186.910917 L103.577608,186.839723 C104.222545,186.658806 104.5425,186.429309 104.54585,186.426796 C105.06515,186.007169 105.767041,185.948538 106.35921,186.256768 C106.951379,186.565834 107.286411,187.210771 107.237831,187.876646 C105.749452,208.367194 102.715739,228.020162 102.684748,228.216156 C102.589264,228.831777 102.160424,229.343538 101.570768,229.544557 C96.7907006,231.17365 92.5357962,231.720589 88.9785955,231.720589" id="Fill-31" fill="#444444" sketch:type="MSShapeGroup"></path>
                <path d="M73.8083535,209.182159 C70.5175032,209.182159 67.8405987,206.505255 67.8405987,203.214404 C67.8405987,199.923554 70.5175032,197.24665 73.8083535,197.24665 C77.0992038,197.24665 79.7761083,199.923554 79.7761083,203.214404 C79.7761083,206.505255 77.0992038,209.182159 73.8083535,209.182159 L73.8083535,209.182159 Z M73.8083535,200.596968 C72.3652038,200.596968 71.1909172,201.771255 71.1909172,203.214404 C71.1909172,204.657554 72.3652038,205.831841 73.8083535,205.831841 C75.2515032,205.831841 76.4257898,204.657554 76.4257898,203.214404 C76.4257898,201.771255 75.2515032,200.596968 73.8083535,200.596968 L73.8083535,200.596968 Z" id="Fill-32" fill="#444444" sketch:type="MSShapeGroup"></path>
                <path d="M74.6459331,217.557955 C71.3550828,217.557955 68.6781783,214.881051 68.6781783,211.590201 C68.6781783,208.29935 71.3550828,205.622446 74.6459331,205.622446 C77.9367834,205.622446 80.6136879,208.29935 80.6136879,211.590201 C80.6136879,214.881051 77.9367834,217.557955 74.6459331,217.557955 L74.6459331,217.557955 Z M74.6459331,208.972764 C73.2027834,208.972764 72.0284968,210.147051 72.0284968,211.590201 C72.0284968,213.03335 73.2027834,214.207637 74.6459331,214.207637 C76.0890828,214.207637 77.2633694,213.03335 77.2633694,211.590201 C77.2633694,210.147051 76.0890828,208.972764 74.6459331,208.972764 L74.6459331,208.972764 Z" id="Fill-33" fill="#444444" sketch:type="MSShapeGroup"></path>
                <path d="M76.3210924,225.933752 C73.030242,225.933752 70.3533376,223.256847 70.3533376,219.965997 C70.3533376,216.675146 73.030242,213.998242 76.3210924,213.998242 C79.6119427,213.998242 82.2888471,216.675146 82.2888471,219.965997 C82.2888471,223.256847 79.6119427,225.933752 76.3210924,225.933752 L76.3210924,225.933752 Z M76.3210924,217.348561 C74.8779427,217.348561 73.7036561,218.522847 73.7036561,219.965997 C73.7036561,221.409146 74.8779427,222.583433 76.3210924,222.583433 C77.764242,222.583433 78.9385287,221.409146 78.9385287,219.965997 C78.9385287,218.522847 77.764242,217.348561 76.3210924,217.348561 L76.3210924,217.348561 Z" id="Fill-34" fill="#444444" sketch:type="MSShapeGroup"></path>
                <path d="M72.9900382,230.705443 C71.5075223,230.705443 70.1163025,230.205408 68.9880828,229.248054 C67.9813121,228.395398 67.3070605,227.215248 67.0289841,225.871771 C65.6587038,225.81649 64.3864204,225.344933 63.3788121,224.490602 C61.2806752,222.71242 60.6859936,219.647717 61.862793,216.681847 C62.2036879,215.821653 63.1786306,215.403701 64.0379873,215.742083 C64.8973439,216.083815 65.3178089,217.057083 64.976914,217.917277 C64.3386783,219.52543 64.5614745,221.102592 65.544793,221.935984 C66.433465,222.688968 67.5834618,222.560818 68.1898694,222.419268 L70.3952166,221.899131 L70.2452898,224.160596 C70.2034108,224.782917 70.2670669,225.940452 71.1549013,226.692599 C71.9841051,227.396166 72.9288949,227.417943 73.5746688,227.304869 C74.6124299,227.129815 75.6359522,226.499955 76.4567803,225.531713 C77.0548121,224.824796 78.1118376,224.73685 78.8179172,225.336557 C79.5231592,225.934589 79.6102675,226.991615 79.0122357,227.697694 C77.6821592,229.267318 75.949207,230.300892 74.1333344,230.608283 C73.7480478,230.673615 73.3661115,230.705443 72.9900382,230.705443" id="Fill-35" fill="#444444" sketch:type="MSShapeGroup"></path>
                <path d="M65.213949,219.285882 C65.1435924,219.285882 65.0715605,219.281694 64.9995287,219.272481 C62.9600223,219.011994 61.1089713,218.119971 59.7881083,216.758904 C58.3684108,215.295653 57.7167739,213.474755 57.9512962,211.630404 C58.1179745,210.321268 58.7377834,209.114315 59.7127261,208.149424 C59.6649841,208.069854 59.6197548,207.990283 59.5762006,207.910713 C57.1589459,204.217825 57.6924841,199.22585 60.7395987,197.189694 C61.8376656,196.455137 63.1568535,196.131831 64.5237834,196.233178 C64.9526242,194.929067 65.7567006,193.836025 66.8547675,193.102306 C69.1421975,191.573723 72.2529682,191.845099 74.7807834,193.789959 C75.5136656,194.354487 75.6501911,195.406487 75.0856624,196.140207 C74.5219713,196.872252 73.4699713,197.007939 72.7362516,196.445086 C71.3668089,195.388898 69.7879713,195.171965 68.7158694,195.888096 C67.7476274,196.534707 67.5541465,197.67549 67.5248312,198.297812 L67.417621,200.560952 L65.2851433,199.794567 C64.6988376,199.585172 63.5697803,199.328035 62.6015382,199.974646 C61.1022707,200.977229 61.0067866,204.021831 62.4097325,206.121643 L62.5010287,206.274083 C62.6802707,206.616653 62.9290318,206.940796 63.2406115,207.239812 L64.877242,208.806086 L62.8997166,209.910854 C62.3561274,210.215732 61.4222261,210.89836 61.2748121,212.053382 C61.1717898,212.865834 61.4976083,213.708439 62.1927994,214.425408 C62.9868248,215.242885 64.1343089,215.784799 65.4233439,215.948127 C66.3413312,216.065389 66.9904554,216.904643 66.8731943,217.822631 C66.7659841,218.667748 66.044828,219.285882 65.213949,219.285882" id="Fill-36" fill="#444444" sketch:type="MSShapeGroup"></path>
                <path d="M104.481357,203.034325 C103.658016,203.034325 102.939373,202.42708 102.823787,201.587825 C102.69815,200.671513 103.338061,199.825557 104.25521,199.69992 C105.540057,199.523191 106.509137,198.408373 106.509137,197.107611 C106.509137,195.943376 105.727675,194.90729 104.609506,194.589847 C103.719159,194.337736 103.202373,193.411373 103.455322,192.521863 C103.708271,191.632354 104.636309,191.114729 105.523306,191.367678 C108.076248,192.091347 109.859455,194.451646 109.859455,197.107611 C109.859455,200.073481 107.64657,202.614697 104.712529,203.019248 C104.634634,203.029299 104.557576,203.034325 104.481357,203.034325" id="Fill-37" fill="#444444" sketch:type="MSShapeGroup"></path>
                <path d="M85.5863981,212.956293 L84.3643694,214.261242 L83.4916115,213.445439 C83.2378248,213.208404 83.0669586,213.074392 82.9773376,213.041726 C82.8885541,213.011573 82.7989331,213.043401 82.7101497,213.138048 C82.6096401,213.246096 82.5845127,213.350793 82.6339299,213.450465 C82.6825096,213.551812 82.834949,213.720166 83.0887357,213.957201 L85.4213949,216.141608 C85.6651306,216.368592 85.8385096,216.50428 85.9398567,216.545322 C86.0412038,216.584688 86.1392006,216.555373 86.2338471,216.454025 C86.3251433,216.357704 86.3469204,216.257194 86.3008535,216.157522 C86.253949,216.059525 86.0931338,215.879446 85.8175701,215.621471 L85.1868726,215.032653 L86.4089013,213.725191 L86.6032197,213.908621 C87.1241943,214.394417 87.4583885,214.777191 87.6074777,215.053592 C87.7557293,215.329994 87.794258,215.671726 87.7222261,216.076277 C87.6510318,216.47999 87.4433121,216.866115 87.0982293,217.233812 C86.7405828,217.616586 86.3762357,217.867022 86.0060255,217.985121 C85.6349777,218.104057 85.2898949,218.089818 84.9682643,217.939054 C84.6483089,217.79164 84.2420828,217.485924 83.749586,217.026092 L82.2821465,215.654137 C81.9211497,215.314917 81.6615,215.048567 81.504035,214.854248 C81.3457325,214.659092 81.241035,214.423732 81.1882675,214.143981 C81.1371752,213.864229 81.1639777,213.569401 81.2720255,213.260334 C81.3800732,212.952943 81.5660159,212.657277 81.8315287,212.374175 C82.1908503,211.989726 82.5627357,211.74264 82.9455096,211.631242 C83.329121,211.519844 83.6675032,211.529895 83.9640064,211.657207 C84.2588344,211.787032 84.6407707,212.070971 85.1098153,212.509863 L85.5863981,212.956293" id="Fill-38" fill="#444444" sketch:type="MSShapeGroup"></path>
                <path d="M89.5707643,210.209869 C90.0749873,210.681427 90.4209076,211.027347 90.6093631,211.248468 C90.7961433,211.467914 90.9184299,211.722538 90.9753854,212.010666 C91.0323408,212.297118 91.0072134,212.591108 90.9016783,212.890962 C90.7944682,213.191653 90.6085255,213.483131 90.3438503,213.766232 C90.0917389,214.035933 89.8220382,214.235277 89.5339108,214.368452 C89.246621,214.499115 88.9526306,214.547694 88.6561274,214.513354 C88.3571115,214.479013 88.0941115,214.377666 87.8637771,214.209312 C87.6334427,214.040959 87.2607197,213.713465 86.7439331,213.229344 L85.885414,212.426105 C85.3803535,211.95371 85.0335955,211.608627 84.8459777,211.387506 C84.6591975,211.168061 84.5360732,210.914274 84.4799554,210.626146 C84.4238376,210.338857 84.4481274,210.044029 84.5545,209.744175 C84.6608726,209.444322 84.8459777,209.152844 85.1114904,208.869742 C85.3627643,208.600879 85.6333025,208.400697 85.9205924,208.269197 C86.2095573,208.13686 86.5018726,208.08828 86.800051,208.122621 C87.0973917,208.156962 87.3620669,208.258309 87.5907261,208.426662 C87.8210605,208.595016 88.1937834,208.92251 88.7122452,209.405793 L89.5707643,210.209869 L89.5707643,210.209869 Z M86.6987038,209.971159 C86.4650191,209.752551 86.3033662,209.625239 86.2145828,209.590061 C86.1249618,209.554882 86.0420414,209.578334 85.9666592,209.658742 C85.9030032,209.727424 85.8812261,209.803643 85.8996529,209.889076 C85.9180796,209.97451 86.0579554,210.139513 86.3150924,210.379898 L88.6603153,212.575194 C88.9526306,212.848245 89.1435987,213.004035 89.2332197,213.044239 C89.3236783,213.083605 89.409949,213.06099 89.4911943,212.973882 C89.5741146,212.885936 89.5883535,212.79129 89.5322357,212.693293 C89.477793,212.594459 89.3019013,212.406841 89.0070732,212.130439 L86.6987038,209.971159 L86.6987038,209.971159 Z" id="Fill-39" fill="#444444" sketch:type="MSShapeGroup"></path>
                <path d="M87.0865032,206.970949 L89.1553248,204.759739 L90.1604204,205.700341 L89.3136274,206.605764 L90.2659554,207.496949 L91.0197771,206.691197 L91.9754554,207.584895 L91.2207962,208.391484 L93.3298217,210.364822 L92.107793,211.670608 L87.0865032,206.970949" id="Fill-40" fill="#444444" sketch:type="MSShapeGroup"></path>
                <path d="M89.451828,204.443134 L91.5214873,202.231924 L92.5265828,203.172525 L91.6789522,204.077949 L92.6312803,204.969134 L93.3859395,204.163382 L94.3407803,205.056242 L93.586121,205.862831 L95.6951465,207.837006 L94.4731178,209.142793 L89.451828,204.443134" id="Fill-41" fill="#444444" sketch:type="MSShapeGroup"></path>
                <path d="M91.8171529,201.915318 L93.8549841,199.738449 L94.8600796,200.679051 L94.0442771,201.550971 L94.9966051,202.441318 L95.7604777,201.626354 L96.7153185,202.520051 L95.9522834,203.335854 L97.0553758,204.368589 L97.9524236,203.409561 L98.9575191,204.351 L96.8384427,206.614978 L91.8171529,201.915318" id="Fill-42" fill="#444444" sketch:type="MSShapeGroup"></path>
                <path d="M94.2871752,199.276943 L96.3250064,197.099236 L97.3301019,198.039838 L96.5142994,198.91092 L97.4666274,199.802105 L98.2305,198.985465 L99.1853408,199.880838 L98.4223057,200.69664 L99.5253981,201.729376 L100.422446,200.770347 L101.427541,201.710949 L99.308465,203.974927 L94.2871752,199.276943" id="Fill-43" fill="#444444" sketch:type="MSShapeGroup"></path>
                <path d="M107.737029,220.615121 C107.318239,220.615121 106.900287,220.459331 106.575306,220.146076 C105.908592,219.50449 105.88849,218.444115 106.530076,217.778239 C107.371844,216.902968 107.653271,215.824166 107.246207,215.03014 C106.884373,214.323223 106.11715,214.094564 105.693334,214.020857 L103.498876,213.642271 L104.471306,211.639618 C104.659761,211.250981 104.921924,210.492971 104.558414,209.785217 C104.369121,209.415006 103.966245,209.105102 103.425169,208.913296 C102.554086,208.603392 102.09928,207.644363 102.409185,206.77328 C102.719089,205.90136 103.675605,205.448229 104.548363,205.755621 C105.897704,206.236392 106.959755,207.124226 107.540197,208.257471 C108.019293,209.19221 108.184296,210.250911 108.035207,211.315475 C108.98586,211.816347 109.748895,212.566818 110.227153,213.50072 C111.29758,215.590481 110.793357,218.180277 108.943981,220.100847 C108.614812,220.44258 108.17592,220.615121 107.737029,220.615121" id="Fill-44" fill="#444444" sketch:type="MSShapeGroup"></path>
                <path d="M64.508707,230.474271 C64.3688312,230.474271 64.2272803,230.456682 64.0865669,230.419828 C63.1903567,230.187818 62.6534682,229.273182 62.8854777,228.377809 C63.1493153,227.360987 63.7314331,226.461427 64.5514236,225.764561 C64.2942866,225.078583 64.1787006,224.359939 64.2172293,223.651347 C64.2674841,222.726659 65.0623471,222.018067 65.9803344,222.069159 C66.9041847,222.118576 67.6127771,222.909252 67.5625223,223.832264 C67.5365573,224.312197 67.7275255,224.835685 68.1002484,225.304729 L69.4856051,227.046895 L67.427672,227.895363 C67.0281465,228.060366 66.3279299,228.451516 66.128586,229.220414 C65.9325924,229.974236 65.2533153,230.474271 64.508707,230.474271" id="Fill-45" fill="#444444" sketch:type="MSShapeGroup"></path>
                <path d="M130.66242,262.58121 C58.3843248,262.58121 -0.418789809,203.778096 -0.418789809,131.5 C-0.418789809,59.2219045 58.3843248,0.418789809 130.66242,0.418789809 C202.940516,0.418789809 261.743631,59.2219045 261.743631,131.5 C261.743631,203.778096 202.940516,262.58121 130.66242,262.58121 L130.66242,262.58121 Z M130.66242,12.9824841 C65.3119459,12.9824841 12.1449045,66.1495255 12.1449045,131.5 C12.1449045,196.850475 65.3119459,250.017516 130.66242,250.017516 C196.012895,250.017516 249.179936,196.850475 249.179936,131.5 C249.179936,66.1495255 196.012895,12.9824841 130.66242,12.9824841 L130.66242,12.9824841 Z" id="Fill-46" fill="#1ABC9C" sketch:type="MSShapeGroup"></path>
            </g>
        </g>
    </g>
</svg>