<?xml version="1.0" encoding="UTF-8" standalone="no"?>
<svg width="146px" height="40px" viewBox="0 0 146 40" version="1.1" xmlns="http://www.w3.org/2000/svg" xmlns:xlink="http://www.w3.org/1999/xlink" xmlns:sketch="http://www.bohemiancoding.com/sketch/ns">
    <!-- Generator: Sketch 3.1.1 (8761) - http://www.bohemiancoding.com/sketch -->
    <title>auctionata</title>
    <desc>Created with Sketch.</desc>
    <defs></defs>
    <g id="Page-1" stroke="none" stroke-width="1" fill="none" fill-rule="evenodd" sketch:type="MSPage">
        <g id="Desktop-HD" sketch:type="MSArtboardGroup" transform="translate(-149.000000, -3342.000000)" fill="#F6F4F4">
            <g id="auctionata" sketch:type="MSLayerGroup" transform="translate(149.000000, 3342.000000)">
                <path d="M28.2483408,0.183647799 C28.230116,0.579255765 28.196704,0.974863732 28.196704,1.3704717 C28.1936666,9.98890985 28.1944259,18.6065828 28.1944259,27.225021 L28.1944259,28.4110797 L27.0181711,28.4110797 C18.464695,28.4110797 9.91273765,28.4103145 1.35926156,28.4133753 C0.967429735,28.4141405 0.574838548,28.4478092 0.18224736,28.4654088 L0.18224736,0.183647799 L28.2483408,0.183647799 L28.2483408,0.183647799 Z M22.8735624,25.3625262 C23.8174518,27.9328302 24.2282678,28.0942872 26.7121474,26.9564361 C26.8230146,26.9059329 26.9665344,26.8837421 27.0379146,26.798805 C27.1578941,26.6572432 27.2330711,26.475891 27.3272323,26.310608 C27.1586534,26.2272013 26.9893153,26.0733962 26.8207365,26.072631 C25.6148664,26.0718658 25.4356565,25.9356604 25.2807463,24.7258805 C25.2313876,24.3333333 25.2268314,23.932369 25.2230346,23.5359958 C25.2040505,21.4240461 25.2405,19.3113312 25.1615261,17.2024423 C25.10913,15.7914151 24.6383243,14.4875157 23.185661,13.9664151 C21.0503294,13.1996855 18.9377788,13.3611426 16.9588762,14.5326625 C16.2412772,14.9581132 15.7583217,15.6177149 15.8304613,16.4908071 C15.857039,16.816782 16.1433193,17.3264046 16.3870751,17.3761426 C16.7052486,17.4411845 17.1821292,17.2185115 17.4380349,16.9637002 C17.7243151,16.6790461 17.8313854,16.2161006 18.0288201,15.837327 C18.6006212,14.738501 19.5794414,14.5609748 20.6729255,14.6765199 C21.7049012,14.7851782 22.3222641,15.3965723 22.5796885,16.3790881 C22.6875182,16.79 22.7057429,17.2238679 22.7900324,17.6424319 C22.928996,18.3349371 22.6723309,18.6815723 21.9858659,18.8973585 C20.742787,19.2883753 19.4921145,19.7038784 18.3234533,20.2739518 C17.4676501,20.6917505 16.6255154,21.2656499 15.9777779,21.9596855 C14.92454,23.0906499 14.8151916,24.5009119 15.4728009,25.8935744 C16.0992762,27.2227254 17.2406002,27.7598952 18.6735201,27.728522 C20.4648598,27.6887317 21.8810736,26.9449581 22.8735624,25.3625262 L22.8735624,25.3625262 Z" id="Fill-1" sketch:type="MSShapeGroup"></path>
                <path d="M145.980135,26.6289308 C145.242793,26.9028721 144.519119,27.2319078 143.763552,27.4392767 C142.433905,27.8058071 142.096748,27.582369 141.733772,26.2578092 C141.657076,25.9777463 141.589493,25.6946226 141.462679,25.1987736 C140.596245,26.6021488 139.50352,27.3795912 138.043263,27.6160377 C136.078788,27.9343606 134.581322,27.2579245 133.941938,25.7129874 C133.265344,24.0777568 133.722482,22.2060797 135.349039,21.2151468 C136.784997,20.3405241 138.394089,19.7360168 139.966732,19.1154403 C141.511278,18.5055765 141.534059,18.5622013 141.2698,16.9315618 C140.981242,15.1471174 139.846752,14.3428931 138.093381,14.6604507 C137.147213,14.8318553 136.659702,15.479979 136.286854,16.2964465 C135.781117,17.4044549 135.318665,17.6868134 134.728639,17.312631 C134.207715,16.9835954 134.197843,15.9796541 134.776479,15.2504193 C135.052887,14.9022537 135.413585,14.5426101 135.813011,14.3903354 C136.681723,14.0574738 137.588404,13.7016562 138.5004,13.6259015 C142.354932,13.3060482 143.727102,14.6313732 143.733177,18.5292977 C143.735455,20.3022642 143.724065,22.0759958 143.740011,23.8481971 C143.744568,24.3340985 143.780258,24.8299476 143.888087,25.3005451 C144.036923,25.9440776 144.42192,26.2792348 145.154707,26.1583333 C145.407575,26.1162474 145.703727,26.3419811 145.980135,26.445283 L145.980135,26.6289308 L145.980135,26.6289308 Z M141.36548,19.6013417 C140.497527,19.9127778 139.782966,20.1538155 139.081313,20.4269916 C138.687203,20.5815618 138.280184,20.7414885 137.938471,20.9848218 C137.474499,21.3153878 136.988506,21.6673795 136.651349,22.1165514 C135.824401,23.2192034 136.002852,24.8796855 136.957372,25.7083962 C137.842031,26.4766562 139.250652,26.3840671 140.237065,25.3357442 C140.734449,24.8077568 141.215126,24.086174 141.31764,23.3936688 C141.493053,22.2053145 141.36548,20.9710482 141.36548,19.6013417 L141.36548,19.6013417 Z" id="Fill-2" sketch:type="MSShapeGroup"></path>
                <path d="M92.6272207,15.506761 C92.8770514,15.1547694 93.0053839,14.772935 93.1937062,14.7400314 C94.6486476,14.4882809 96.1149795,14.3038679 97.6466167,14.088847 C97.6823068,14.761457 97.711922,15.3238784 97.7514089,16.0645912 C98.1652623,15.7424423 98.4636924,15.5098218 98.7628818,15.2779665 C99.8935748,14.4033438 101.119948,13.7858281 102.589317,13.7636373 C104.987388,13.727673 106.339056,15.0162683 106.367153,17.4511321 C106.39449,19.8056499 106.372468,22.1616981 106.374747,24.5169811 C106.376265,26.0787526 106.566866,26.3052516 108.084075,26.5309853 C108.521469,26.5967925 108.983921,26.614392 108.71055,27.3290881 L101.655299,27.3290881 C101.586197,27.2678721 101.517854,27.2066562 101.448752,27.1446751 C101.645428,26.9503145 101.815525,26.6327568 102.044094,26.5807233 C103.896182,26.1644549 103.924279,26.1499161 103.924279,24.2315618 C103.925038,22.0293187 103.932632,19.8270755 103.922001,17.6240671 C103.913648,16.0554088 103.243129,15.3904507 101.700102,15.3805031 C100.205673,15.3697904 99.0461246,16.1564151 97.9427687,17.0348637 C97.7749492,17.1687736 97.711922,17.5207652 97.7104033,17.7717505 C97.6929379,20.1576415 97.7104033,22.5435325 97.695216,24.9294235 C97.6906598,25.8270021 98.1462782,26.2830608 98.9732256,26.4292138 C99.2412811,26.4774214 99.5328769,26.4368658 99.7819483,26.5263941 C99.931543,26.5799581 100.109234,26.810283 100.104678,26.9564361 C100.100881,27.0849895 99.8632002,27.3130189 99.7265147,27.3137841 C97.5714397,27.3375052 95.4156053,27.3375052 93.2612896,27.3160797 C93.1132136,27.3145493 92.9681751,27.1056499 92.8216178,26.9931656 C92.9560253,26.8301782 93.0608175,26.6098008 93.2324338,26.5202725 C93.4070875,26.4292138 93.6493246,26.4774214 93.8596684,26.4460482 C94.8483604,26.2998952 95.2637325,25.8667925 95.2705667,24.8720335 C95.2865134,22.3338679 95.2660106,19.7941719 95.2819572,17.2552411 C95.2872728,16.3668449 94.8589915,15.890891 94.0252098,15.7347904 C93.6690681,15.668218 93.3091295,15.6169497 92.6272207,15.506761" id="Fill-3" sketch:type="MSShapeGroup"></path>
                <path d="M44.9209368,26.0221279 C44.7364113,26.2409748 44.5777042,26.614392 44.3605261,26.652652 C42.9351999,26.9051677 41.4969645,27.0849895 39.9896269,27.2984801 C39.9600117,26.6404088 39.9349527,26.0703354 39.9007814,25.3135535 C39.4755375,25.6487107 39.1558453,25.9019916 38.8353937,26.1529769 C37.4085487,27.2686373 35.8290716,27.8494235 33.9967263,27.5739518 C32.2881573,27.3176101 31.357177,26.3282075 31.3138932,24.5376415 C31.2614971,22.3361635 31.2956685,20.1323899 31.2933904,17.9293816 C31.2918717,16.0607652 31.1293678,15.8763522 29.2620917,15.6169497 C29.1466684,15.6008805 29.0327638,15.5672117 28.6644723,15.4845702 C28.9165811,15.157065 29.062379,14.7675786 29.268926,14.7316143 C30.698049,14.4798637 32.1400813,14.3015723 33.7081679,14.0819602 L33.7081679,15.168543 C33.7081679,18.0143187 33.7005743,20.8600943 33.7112054,23.7051048 C33.7172803,25.4650629 34.5905489,26.3458071 36.2953211,25.9616771 C37.4662604,25.6969182 38.5483541,24.9921698 39.6312071,24.4090881 C39.8324386,24.3004298 39.9281185,23.8359539 39.9319153,23.5344654 C39.958493,21.5763208 39.9463432,19.6181761 39.9455838,17.6600314 C39.9440651,16.1655975 39.668416,15.848805 38.2005654,15.6513836 C38.0213555,15.6276625 37.8421456,15.6062369 37.4123455,15.552673 C37.6021865,15.2129245 37.7092569,14.7752306 37.8877074,14.7430922 C39.3426488,14.4852201 40.8104994,14.3023375 42.3899765,14.0804298 L42.3899765,16.9491614 C42.3899765,19.2439937 42.3892172,21.538826 42.3907359,23.8336583 C42.3914953,25.3977254 42.5669084,25.5851992 44.1471448,25.7321174 C44.3263547,25.7481866 44.5048053,25.7742034 44.6832558,25.7948637 C44.7622297,25.8706184 44.8419629,25.9463732 44.9209368,26.0221279" id="Fill-4" sketch:type="MSShapeGroup"></path>
                <path d="M91.4828591,20.7185325 C91.4767842,25.6372327 87.5303695,28.7148637 82.8078848,27.4851887 C79.6413369,26.660304 77.7960824,23.5796122 78.2592944,19.8890566 C78.8242612,15.3858595 82.6453809,12.8316247 86.9836274,14.0559434 C89.8380767,14.8616981 91.4866559,17.3026834 91.4828591,20.7185325 L91.4828591,20.7185325 Z M88.7696515,20.993239 C88.591201,19.3274004 88.4302158,17.7220126 87.5911186,16.2757862 C86.9456592,15.1624214 85.9881012,14.5540881 84.6751609,14.5954088 C83.3333647,14.6374948 82.2998703,15.2580713 81.8161554,16.4999895 C80.7052059,19.3495912 80.6968529,22.230566 82.0014402,25.0266038 C82.6020971,26.3121384 83.6902658,27.0275996 85.149004,26.9418973 C86.617614,26.8569602 87.5926373,25.9876939 88.0140844,24.6363522 C88.3831353,23.4587107 88.5266551,22.2099057 88.7696515,20.993239 L88.7696515,20.993239 Z" id="Fill-5" sketch:type="MSShapeGroup"></path>
                <path d="M118.012,25.2607547 C116.99673,26.9411321 115.566088,27.6565933 113.77323,27.6925577 C112.379038,27.7216352 111.260494,27.2051258 110.639335,25.911174 C109.991597,24.5590671 110.056903,23.1633438 111.070653,22.0530398 C111.747247,21.3115618 112.646334,20.7062893 113.552255,20.2609434 C114.744457,19.6748008 116.033097,19.2761321 117.299716,18.8590985 C117.835827,18.6823375 118.044652,18.4053354 117.959604,17.8635744 C117.879111,17.3516562 117.858608,16.824434 117.723441,16.3285849 C117.441717,15.287914 116.753734,14.7285535 115.705811,14.6313732 C114.641183,14.5334277 113.702609,14.7522746 113.144477,15.7929455 C112.928058,16.1962055 112.803522,16.6767505 112.504333,16.9966038 C112.28108,17.2345807 111.81483,17.4174633 111.514881,17.3516562 C111.284035,17.301153 110.938524,16.7647484 111.002311,16.5535535 C111.19367,15.9146122 111.419961,15.1708386 111.884692,14.7522746 C113.369248,13.4162369 116.903328,13.162956 118.636197,14.1424109 C119.870923,14.8410377 120.227065,16.0393396 120.265792,17.3302306 C120.32806,19.4383543 120.289332,21.5495388 120.309835,23.6591929 C120.315151,24.1458595 120.353119,24.6371174 120.438927,25.1153669 C120.576372,25.8775052 120.952257,26.3419811 121.83236,26.1330818 C122.006254,26.0925262 122.228748,26.2578092 122.428461,26.3282075 C122.296331,26.4965514 122.177111,26.6771384 122.025239,26.8271174 C121.944746,26.9066981 121.810339,26.9334801 121.699471,26.9824528 C119.266469,28.0430189 118.920959,27.8953354 118.012,25.2607547 L118.012,25.2607547 Z M117.936823,19.5317086 C116.648182,20.0834172 115.487115,20.4637212 114.454379,21.0666981 C113.841573,21.4240461 113.275087,22.0561006 112.966026,22.7003983 C112.509648,23.6507757 112.637221,24.6792034 113.373804,25.5209224 C113.982055,26.2157233 114.778628,26.3565199 115.614688,26.0787526 C116.860804,25.6647799 117.736351,24.7825052 117.903411,23.4831971 C118.060599,22.257348 117.936823,20.9962998 117.936823,19.5317086 L117.936823,19.5317086 Z" id="Fill-6" sketch:type="MSShapeGroup"></path>
                <path d="M56.9447063,24.4955556 C57.1869434,24.6891509 57.3691908,24.835304 57.5575131,24.9860482 C57.5157481,25.1046541 57.5028389,25.1980084 57.4549989,25.2668763 C55.8618533,27.5907862 53.6217295,28.0751572 51.0345763,27.5387526 C48.5324719,27.0191824 47.0213376,25.4512893 46.5399008,22.960566 C46.3333538,21.8946436 46.265011,20.7636792 46.3606909,19.683218 C46.7585976,15.1823166 51.4210926,12.3977568 55.5573483,14.2181656 C56.2612787,14.5280713 56.8270049,15.2871488 57.3000887,15.9513417 C57.6000375,16.3722013 57.5149887,16.9927778 56.9037007,17.2598323 C56.301525,17.523826 55.8671688,17.312631 55.5710168,16.7104193 C55.070596,15.695 54.4243772,14.8157862 53.1964856,14.6550943 C51.7810311,14.4699161 50.531118,15.0805451 49.9312204,16.467086 C48.7466126,19.2080294 48.7207942,22.0224319 50.0155098,24.7182285 C51.0581166,26.8883333 53.7052595,27.3857128 55.600632,25.8905136 C56.0934593,25.5017925 56.483013,24.981457 56.9447063,24.4955556" id="Fill-7" sketch:type="MSShapeGroup"></path>
                <path d="M131.507417,25.1995388 C131.725354,25.4283333 131.887858,25.5989727 132.035934,25.7550734 C130.794374,27.736174 128.365169,28.3230818 126.497892,27.1515618 C125.538816,26.5508805 125.25937,25.6112159 125.255573,24.5514151 C125.248739,21.8900524 125.252536,19.2294549 125.252536,16.5680922 L125.252536,15.495283 C124.658713,15.4662055 124.156014,15.4417191 123.400447,15.4049895 C123.613069,15.0155031 123.692802,14.6512683 123.915296,14.4982285 C125.153818,13.6488574 126.068092,12.5423795 126.748483,11.2078721 C126.85859,10.9936164 127.166892,10.8818973 127.383311,10.7219706 C127.489622,10.9744864 127.676425,11.2239413 127.686297,11.480283 C127.723506,12.3916352 127.701484,13.3045178 127.701484,14.3306499 L131.519567,14.3306499 C131.537791,14.7331447 131.549941,15.0231551 131.568925,15.4355975 L127.701484,15.4355975 L127.701484,17.1710692 C127.701484,19.5569602 127.699966,21.9428512 127.702244,24.3279769 C127.703003,25.0954717 127.630864,25.9218868 128.499576,26.306782 C129.389551,26.7008595 130.153471,26.3297379 130.853604,25.7757338 C131.042686,25.6265199 131.21658,25.4574109 131.507417,25.1995388" id="Fill-8" sketch:type="MSShapeGroup"></path>
                <path d="M59.0580163,15.3651992 C59.3412591,14.9657652 59.4711104,14.6260168 59.7179037,14.4592034 C60.9344048,13.6327883 61.8114702,12.5331971 62.4918603,11.2407757 C62.608043,11.0188679 62.8981201,10.8895493 63.1077045,10.7173795 C63.217053,10.965304 63.4099314,11.2101677 63.4205625,11.4626834 C63.4585307,12.3725052 63.4357498,13.2853878 63.4357498,14.3543711 C64.4943032,14.3543711 65.4814764,14.3911006 66.4656122,14.3428931 C67.2257355,14.3053983 67.4748069,14.584696 67.2021952,15.4486059 C66.2636213,15.4486059 65.2718919,15.4891614 64.2847187,15.4340671 C63.5830664,15.3950419 63.4144876,15.664392 63.4228406,16.3301153 C63.4554933,19.0190252 63.4349904,21.7087002 63.4372685,24.3976101 C63.4387872,25.1398532 63.4243593,25.9172956 64.2292852,26.295304 C65.0744573,26.6932075 65.8247089,26.3657023 66.5142114,25.8530189 C66.7321489,25.6907966 66.924268,25.4933753 67.1847299,25.2630503 C67.3829239,25.4260377 67.5803585,25.5874948 67.7694401,25.7428302 C66.6220411,27.7774948 63.8632717,28.3774109 62.0673759,27.0237736 C61.2647281,26.418501 61.0270472,25.5630084 61.0285659,24.6003878 C61.0323627,22.0033019 61.0300846,19.4054507 61.0285659,16.8083648 C61.0278065,15.2251677 61.0991868,15.4554927 59.7467595,15.4440147 C59.6275393,15.4432495 59.5090786,15.4179979 59.0580163,15.3651992" id="Fill-9" sketch:type="MSShapeGroup"></path>
                <path d="M69.433966,15.5320126 C69.7422678,15.1478826 69.8926219,14.7683438 70.1022063,14.7308491 C71.53057,14.4806289 72.9718429,14.3015723 74.542967,14.081195 L74.542967,15.1624214 C74.542967,18.2813732 74.5414483,21.4003249 74.542967,24.5192767 C74.5437264,25.941782 74.8512688,26.2960692 76.2371081,26.4774214 C76.357847,26.4927254 76.5135166,26.4575262 76.5917311,26.5218029 C76.7527163,26.6518868 76.8719364,26.8340042 77.0086219,26.994696 C76.8613053,27.1071803 76.7139887,27.3153145 76.5651533,27.3168449 C74.2954143,27.3375052 72.0256754,27.3313836 69.755177,27.3313836 C69.6974653,27.2342034 69.640513,27.1370231 69.5828014,27.0398428 C69.805295,26.8584906 70.0057671,26.5585325 70.2525604,26.5141509 C71.9603701,26.2042453 72.1130022,26.0473795 72.1137616,24.3279769 C72.1145209,22.1257338 72.1152803,19.9242558 72.1137616,17.7227778 C72.1130022,16.1059119 71.8700057,15.8357966 70.2525604,15.6399057 C70.1029657,15.6215409 69.953371,15.6008805 69.433966,15.5320126" id="Fill-10" sketch:type="MSShapeGroup"></path>
                <path d="M73.2398984,7.48900419 C74.1397447,7.50583857 74.7601451,8.15472746 74.7631826,9.08061845 C74.76622,10.0309958 74.0873486,10.6921279 73.1404217,10.6615199 C72.231463,10.6316771 71.6042283,9.98049266 71.611822,9.07143606 C71.6194156,8.1187631 72.2846185,7.47216981 73.2398984,7.48900419" id="Fill-11" sketch:type="MSShapeGroup"></path>
                <path d="M62.2967038,37.9416352 C62.2883508,37.9324528 62.1402748,37.7556918 61.9732147,37.55674 C62.1569808,37.3486059 62.3149285,37.1687841 62.5009727,36.9583543 C61.7932455,36.2513103 61.39382,35.3445493 62.4242769,34.7752411 C63.0735332,34.4171279 64.0310912,34.6252621 64.7821022,34.5824109 C64.5079718,35.9521174 64.2072636,37.1963312 62.4402236,37.1749057 C62.491101,37.2950419 62.5419784,37.4159434 62.5936151,37.5360797 C63.0947954,37.6485639 63.6164784,37.7074843 64.0910809,37.8918973 C64.422923,38.0196855 64.9096753,38.2959224 64.9354937,38.5461426 C64.9704244,38.8912474 64.7281873,39.4261216 64.4373509,39.6067086 C64.0037541,39.8752935 63.4114501,40.0428721 62.9110293,39.996195 C62.4637639,39.954109 61.8418448,39.6549161 61.6854158,39.2975681 C61.5631582,39.01674 62.0362419,38.4734486 62.2967038,37.9416352 L62.2967038,37.9416352 Z M63.2466682,40.0237421 C63.7607576,39.5875786 64.4046983,39.3067505 64.4502601,38.9486373 C64.5466993,38.1895597 63.7189926,38.1819078 63.2740053,38.2232285 C62.8753392,38.2607233 62.5146413,38.7213732 62.1379967,38.9953145 C62.4531328,39.2883857 62.7690282,39.5806918 63.2466682,40.0237421 L63.2466682,40.0237421 Z M64.3431898,35.8541719 C63.8458064,35.3468449 63.5899007,34.8647694 63.2345183,34.7721803 C62.6604391,34.6252621 62.2951851,35.1387107 62.3916243,35.6521593 C62.4637639,36.0355241 62.8237024,36.4915828 63.1730098,36.6446226 C63.3613321,36.7272642 63.7956883,36.2421279 64.3431898,35.8541719 L64.3431898,35.8541719 Z" id="Fill-12" sketch:type="MSShapeGroup"></path>
                <path d="M78.3967393,37.9592348 L77.1210078,37.9592348 C77.5743481,36.8672956 77.6237068,35.8136164 77.002547,34.6130189 C77.2933834,34.6130189 77.5538453,34.6114885 77.8150665,34.6137841 C78.058063,34.6160797 78.3025782,34.6160797 78.5448153,34.6306184 C78.9723372,34.65587 79.3983404,34.6987212 79.825103,34.7201468 C80.0460779,34.7316247 80.2829995,34.7607023 80.4887871,34.7002516 C81.8670328,34.2954612 82.1388851,34.5005346 82.2049498,35.9628302 C82.234565,36.6247275 82.3302448,37.2843291 82.3970689,37.9546436 L81.740219,37.9546436 C81.740219,37.2024528 81.7607218,36.4540881 81.7326254,35.7072537 C81.7121225,35.1662579 81.4235642,34.8548218 80.8479663,34.9221593 C80.3179302,34.9841405 79.9185048,35.1486583 80.0248157,35.8342767 C80.1303673,36.5206604 80.1706136,37.218522 80.2427532,37.94087 L79.5411009,37.94087 C79.5411009,37.1006813 79.6026093,36.2704403 79.4993358,35.4616247 C79.4719987,35.2450734 78.9298128,34.9282809 78.6518856,34.9542977 C78.3724397,34.9803145 77.9122651,35.3713312 77.9054308,35.6116038 C77.8841686,36.3813941 77.5158771,37.2590776 78.3967393,37.9592348" id="Fill-13" sketch:type="MSShapeGroup"></path>
                <path d="M97.1294898,37.9592348 L96.3959442,37.9592348 C96.3959442,37.1244025 96.4604901,36.3010482 96.3564573,35.5021803 C96.3253233,35.2695597 95.788453,34.9152725 95.5272318,34.9497065 C95.2151332,34.9910273 94.7261028,35.3713312 94.7048406,35.6360901 C94.6448508,36.3974633 94.780777,37.1741405 94.8422854,37.9584696 L94.0540656,37.9584696 C94.3251586,36.100566 94.3388271,34.2594969 94.0031882,32.319717 C93.9356048,32.3457338 94.071531,32.2829874 94.2127727,32.2416667 C94.3243992,32.2095283 94.4436193,32.2049371 94.6759847,32.1705031 L94.6759847,34.6772956 C94.8422854,34.7209119 94.9037939,34.7599371 94.9516339,34.7469287 C96.6731121,34.2671488 96.8576375,34.4201887 96.9206647,36.2650839 C96.9396488,36.8275052 97.0565909,37.3853354 97.1294898,37.9592348" id="Fill-14" sketch:type="MSShapeGroup"></path>
                <path d="M31.9942834,33.6481027 C31.7862177,33.4238994 31.5629646,32.9862055 31.3518614,32.992327 C30.8597936,33.007631 30.2105374,33.0872117 29.9242571,33.4101258 C29.500532,33.8868449 29.9265352,34.3689203 30.4003784,34.671174 C30.8111943,34.9305765 31.3230056,35.0889727 31.6328261,35.4348428 C31.9639088,35.804434 32.3359972,36.3752725 32.2744887,36.7968973 C32.2114615,37.2292348 31.7049657,37.6845283 31.2804812,37.9462264 C30.9585109,38.1451782 30.4611275,38.0908491 30.0411992,38.0893187 C29.2005832,38.0862579 28.9416401,37.6225472 29.1087002,36.907086 C29.5552062,37.1986268 29.9834875,37.6852935 30.4451808,37.7189623 C30.8734621,37.7503354 31.4581724,37.3891614 31.7307841,37.018805 C31.8560791,36.8489308 31.4756378,36.1717296 31.1848014,35.8557023 C30.88789,35.5350839 30.3350731,35.4509119 30.0472741,35.1249371 C29.6994854,34.7323899 29.2507013,34.144717 29.327397,33.7322746 C29.4056115,33.3106499 30.0358836,32.9494759 30.4869459,32.6594654 C30.7117176,32.5140776 31.077731,32.5500419 31.3761611,32.5691719 C32.2069053,32.6196751 32.3003071,32.8071488 31.9942834,33.6481027" id="Fill-15" sketch:type="MSShapeGroup"></path>
                <path d="M88.8205289,37.9538784 L87.4999949,37.9538784 C87.9890254,36.8542872 87.9981377,35.796782 87.4225398,34.671174 C88.2715088,34.6244969 89.1113653,34.5395597 89.9466657,34.5671069 C90.1114477,34.5724633 90.3514068,34.9933229 90.4007654,35.2527254 C90.4964453,35.758522 90.4577177,36.2895702 90.5207449,36.8037841 C90.5678255,37.1886792 90.6870456,37.5651572 90.7758912,37.956174 L89.9185693,37.956174 C89.9527407,37.1940356 90.0218428,36.4403145 90.0089336,35.6881237 C90.0005806,35.1570755 89.7036693,34.8379874 89.1204777,34.8999686 C88.5760137,34.9581237 88.1796257,35.1532495 88.2426529,35.8067296 C88.3117551,36.5252516 87.9290356,37.3440147 88.8205289,37.9538784" id="Fill-16" sketch:type="MSShapeGroup"></path>
                <path d="M104.369266,34.5984801 C104.425459,34.5931237 104.679087,34.5709329 104.924361,34.5487421 C105.277466,35.6146646 104.585685,36.7968973 105.479456,37.8322117 C105.247091,37.8819497 105.008651,37.963826 104.766414,37.9760692 C104.483171,37.9898428 104.17335,37.8620545 103.914407,37.9339832 C102.811811,38.2415933 102.400235,37.9615304 102.315946,36.7846541 C102.266587,36.0913836 102.209635,35.3981132 102.149645,34.6176101 C102.211154,34.6084277 102.460984,34.5694025 102.780677,34.5188994 C102.780677,35.2894549 102.772324,35.9873166 102.782955,36.6851782 C102.790548,37.2399476 102.986464,37.6676939 103.627368,37.6340252 C104.246249,37.6018868 104.683643,37.3531971 104.592519,36.6117191 C104.513545,35.9628302 104.44824,35.3116457 104.369266,34.5984801" id="Fill-17" sketch:type="MSShapeGroup"></path>
                <path d="M83.9112407,34.6459224 C84.4762075,34.6199057 85.1178701,34.4209539 85.5765259,34.6306184 C85.8650842,34.7614675 85.925074,35.4960587 86.0070853,35.9743082 C86.1133963,36.6033019 86.139974,37.2468344 86.2052793,37.9156184 C85.7109334,37.9393396 84.9416976,38.0518239 84.1937241,37.9699476 C83.9385778,37.9424004 83.5961046,37.4434906 83.5573771,37.1266981 C83.5292806,36.8971384 83.9013689,36.5681027 84.1595527,36.3699161 C84.3342064,36.2367715 84.6197273,36.2222327 84.8581676,36.2069287 C85.2902457,36.1801468 85.6456281,36.1380608 85.5575418,35.5381447 C85.4770492,34.9910273 85.1733036,34.8150314 84.6728828,34.8770126 C84.4389987,34.9053249 84.2073926,34.9451153 83.9735085,34.9795493 C83.9530057,34.8678302 83.9325029,34.7576415 83.9112407,34.6459224 L83.9112407,34.6459224 Z M85.3904817,36.2291195 C84.8763923,36.5581551 84.4511485,36.8320964 84.0251453,37.1045073 C84.2529545,37.2919811 84.4724107,37.625608 84.7100916,37.6386164 C85.4003535,37.6768763 85.7056178,37.2965723 85.3904817,36.2291195 L85.3904817,36.2291195 Z" id="Fill-18" sketch:type="MSShapeGroup"></path>
                <path d="M36.6021041,36.2314151 C36.6043822,37.3271803 35.9057674,38.0755451 34.8851821,38.0678931 C33.90864,38.0602411 33.2373623,37.3172327 33.2517902,36.2574319 C33.2654587,35.2182914 33.9572393,34.4852306 34.9353002,34.4722222 C35.9429762,34.4576834 36.5990667,35.1501887 36.6021041,36.2314151 L36.6021041,36.2314151 Z M36.0849773,36.3737421 C36.0804211,35.42413 35.542032,34.7209119 34.8434171,34.7522851 C34.1987171,34.7805975 33.7567672,35.3774528 33.7681577,36.2053983 C33.7803075,37.0976205 34.2906001,37.7587526 34.9763058,37.7702306 C35.6415087,37.7817086 36.0887741,37.2192872 36.0849773,36.3737421 L36.0849773,36.3737421 Z" id="Fill-19" sketch:type="MSShapeGroup"></path>
                <path d="M111.871783,35.8434591 C111.053947,35.8977883 110.311289,35.946761 109.579263,35.9957338 C109.501048,37.3968134 110.052346,37.7709958 111.716113,37.5291929 C111.116975,38.125283 110.351536,38.2423585 109.739488,37.8314465 C109.101623,37.4021698 108.850273,36.4594444 109.155537,35.6100734 C109.437262,34.8295702 109.986282,34.4155975 110.820063,34.4859958 C111.538422,34.5464465 111.884692,34.9780189 111.871783,35.8434591 L111.871783,35.8434591 Z M111.269607,35.581761 C111.312131,35.4623899 111.355415,35.3437841 111.39718,35.2236478 C111.088878,35.0683124 110.759314,34.7591719 110.47759,34.7981971 C110.152582,34.8433438 109.86858,35.1961006 109.566353,35.4149476 C109.611156,35.4998847 109.655199,35.5848218 109.699242,35.6689937 C110.222444,35.6399161 110.746405,35.6108386 111.269607,35.581761 L111.269607,35.581761 Z" id="Fill-20" sketch:type="MSShapeGroup"></path>
                <path d="M68.6404306,35.7998428 C68.2463207,35.8419287 67.8658794,35.8893711 67.4839193,35.9207442 C67.0989217,35.9521174 66.7124055,35.9666562 66.338039,35.9873166 C66.2431185,37.3929874 66.6919026,37.7067191 68.5652536,37.5490881 C67.8408204,38.1413522 67.1497991,38.2576625 66.4344782,37.7878302 C65.7988906,37.3700314 65.5900655,36.357673 65.9226669,35.5366143 C66.2203376,34.8043187 66.7617641,34.4217191 67.5568182,34.4837002 C68.2896045,34.5403249 68.6130935,34.9894969 68.6404306,35.7998428 L68.6404306,35.7998428 Z M67.9934525,35.589413 C68.038255,35.4692767 68.0838168,35.3483753 68.1293787,35.228239 C67.8301893,35.070608 67.5074596,34.7553459 67.237126,34.7959015 C66.9045245,34.844109 66.6152069,35.189979 66.3076644,35.4072956 C66.3479107,35.4922327 66.388157,35.5764046 66.4291627,35.6598113 C66.9500864,35.6360901 67.4717694,35.6131342 67.9934525,35.589413 L67.9934525,35.589413 Z" id="Fill-21" sketch:type="MSShapeGroup"></path>
                <path d="M46.2262835,37.4985849 C45.3940205,38.140587 44.6984431,38.2660797 43.986919,37.7702306 C43.3687967,37.3409539 43.1736402,36.3301258 43.5062416,35.5228407 C43.8061904,34.7951363 44.3483763,34.4224843 45.1365961,34.4837002 C45.8655856,34.5395597 46.1829997,34.9894969 46.2186898,35.8159119 C45.4433792,35.8801887 44.6817371,35.942935 43.9314855,36.0049161 C43.7849282,37.3707966 44.3628042,37.7809434 46.2262835,37.4985849 L46.2262835,37.4985849 Z M45.5269092,35.5940042 C45.5838615,35.4876415 45.6408138,35.3805136 45.6977661,35.2749161 C45.4160421,35.1012159 45.1077403,34.7568763 44.8594283,34.7966667 C44.5108802,34.851761 44.207894,35.1930398 43.8851643,35.412652 C43.9314855,35.4968239 43.978566,35.5802306 44.0256466,35.6636373 C44.5260675,35.6406813 45.0264884,35.6177254 45.5269092,35.5940042 L45.5269092,35.5940042 Z" id="Fill-22" sketch:type="MSShapeGroup"></path>
                <path d="M58.5948043,35.8205031 C57.7830442,35.8855451 57.0426643,35.9452306 56.3129155,36.0033857 C56.1496522,37.3646751 56.754106,37.794717 58.3799043,37.5246017 C57.8756866,38.0862579 57.133788,38.2324109 56.5285749,37.8896017 C55.8702063,37.5154193 55.5679794,36.5918239 55.8147727,35.7080189 C56.0380257,34.9091509 56.7168971,34.4094759 57.5020795,34.479109 C58.2265128,34.5426205 58.5591142,34.9711321 58.5948043,35.8205031 L58.5948043,35.8205031 Z M57.9288421,35.5832914 C57.9782007,35.4746331 58.0283188,35.3659748 58.076918,35.2565514 C57.8126594,35.0889727 57.521823,34.7545807 57.2902169,34.7928407 C56.9257222,34.851761 56.6022332,35.1616667 56.2612787,35.36674 C56.3030437,35.4386688 56.3455681,35.5105975 56.3873331,35.5832914 L57.9288421,35.5832914 L57.9288421,35.5832914 Z" id="Fill-23" sketch:type="MSShapeGroup"></path>
                <path d="M101.119188,35.8205031 C100.308188,35.8870755 99.5647702,35.9475262 98.8327433,36.0079769 C98.7044108,37.3815094 99.3096239,37.798543 100.933903,37.5154193 C100.413739,38.0877883 99.6801935,38.2347065 99.0651087,37.8896017 C98.3968683,37.5138889 98.0908446,36.5795807 98.3520659,35.7133753 C98.602656,34.8808386 99.2405217,34.4087107 100.035576,34.4806394 C100.760009,34.5472117 101.102482,34.9673061 101.119188,35.8205031 L101.119188,35.8205031 Z M98.8061655,35.3843396 C98.8653959,35.4861111 98.9246263,35.5871174 98.9846161,35.6888889 C99.4994649,35.6429769 100.015832,35.597065 100.5322,35.551153 C100.562574,35.4516771 100.593708,35.3522013 100.624842,35.2519602 C100.32945,35.0859119 100.015832,34.7614675 99.7447394,34.7943711 C99.4128974,34.8341614 99.1175048,35.1746751 98.8061655,35.3843396 L98.8061655,35.3843396 Z" id="Fill-24" sketch:type="MSShapeGroup"></path>
                <path d="M41.6435217,34.5839413 L42.6511978,34.5839413 C42.1272366,35.739392 41.6116284,36.8749476 40.9912281,38.2415933 C40.3791807,36.9139727 39.8597757,35.7875996 39.322146,34.6237317 L40.4535983,34.6237317 C39.858257,35.6376205 40.8089807,36.2857442 41.0534959,37.1320545 C41.3162359,36.2872746 42.2381037,35.6284382 41.6435217,34.5839413" id="Fill-25" sketch:type="MSShapeGroup"></path>
                <path d="M51.9921343,35.1279979 C51.7612877,35.0070964 51.5327191,34.7974319 51.298835,34.7913103 C51.0740632,34.7851887 50.7285526,34.9389937 50.6495788,35.1188155 C50.5781986,35.2810377 50.7300714,35.6513941 50.8978908,35.7898952 C51.1955615,36.0347589 51.6656078,36.0990356 51.9010106,36.3775681 C52.1098357,36.6254927 52.2586711,37.1236373 52.1531195,37.402935 C51.8751923,38.1413522 51.1735399,38.152065 50.5349148,38.0013208 C50.2957151,37.9454612 50.1195427,37.6171908 49.9145144,37.4136478 C49.9737448,37.3531971 50.0322158,37.2942767 50.0906869,37.2353564 C50.3534268,37.4037002 50.6078137,37.6891195 50.8804254,37.7082495 C51.1803742,37.7304403 51.4977884,37.5070021 51.8083682,37.3899266 C51.6564954,37.1289937 51.5555,36.8091405 51.3413594,36.6186059 C51.0778601,36.3836897 50.6138887,36.3285954 50.43316,36.0600105 C50.251672,35.7906604 50.1567515,35.1333543 50.2941964,35.0369392 C50.7019749,34.7507547 51.234289,34.6176101 51.7362287,34.5188994 C51.8569675,34.4951782 52.0483273,34.8387526 52.2070343,35.013218 C52.1356541,35.0522432 52.0635145,35.0897379 51.9921343,35.1279979" id="Fill-26" sketch:type="MSShapeGroup"></path>
                <path d="M53.3331711,34.6910692 C53.4804878,34.4844654 53.6870348,34.1959853 53.8237203,34.0039203 C54.1608779,34.2816876 54.5033511,34.5640461 54.8594928,34.8578826 C54.6833203,34.9091509 54.4274147,34.9841405 54.1753058,35.0575996 C53.766768,36.8680608 53.981668,37.5544444 55.0212373,37.9018449 C54.6666143,37.9278616 54.2618733,38.0701887 53.9740744,37.9424004 C53.7675274,37.8513417 53.6483072,37.4090566 53.6133765,37.1083333 C53.5571835,36.6285535 53.6308418,36.1357652 53.5943924,35.6521593 C53.5723708,35.3652096 53.4447977,35.0859119 53.3331711,34.6910692" id="Fill-27" sketch:type="MSShapeGroup"></path>
                <path d="M108.133434,34.8770126 C107.950427,34.9213941 107.694521,34.9833753 107.451525,35.0415304 C107.041468,36.9652411 107.249534,37.591174 108.342259,37.8697065 C107.989914,37.9133229 107.568467,38.0931447 107.304967,37.9592348 C107.069565,37.8398637 106.934398,37.3845702 106.886558,37.0578302 C106.819734,36.6109539 106.905542,36.1418868 106.87213,35.6881237 C106.850108,35.389696 106.733166,35.0989203 106.629133,34.6918344 C106.732407,34.5418553 106.932879,34.2503145 107.088549,34.0238155 C107.4333,34.3046436 107.787164,34.5946541 108.133434,34.8770126" id="Fill-28" sketch:type="MSShapeGroup"></path>
                <path d="M69.5698922,34.6757652 C70.1978862,34.6199057 70.8068961,34.5563941 71.4166654,34.5204298 C71.5001955,34.5150734 71.6748492,34.6650524 71.6649775,34.7063732 C71.6338435,34.8303354 71.5146234,35.0415304 71.4591898,35.032348 C70.4507544,34.8731866 70.3482403,35.5174843 70.4074707,36.2513103 C70.4537919,36.8259748 70.5783276,37.3937526 70.6679325,37.9592348 L69.6997434,37.9592348 C70.0938533,36.8504612 70.19333,35.7791824 69.5698922,34.6757652" id="Fill-29" sketch:type="MSShapeGroup"></path>
                <path d="M47.1610606,34.678826 C47.3349549,34.6275577 47.6174383,34.4615094 47.7024871,34.5334382 C48.0920408,34.8624738 48.4185673,34.7232075 48.7967306,34.5395597 C48.9000041,34.4890566 49.0966794,34.6352096 49.2500709,34.6910692 C49.1543911,34.8142662 49.0549144,35.0453564 48.9630313,35.0422956 C48.5165253,35.0277568 48.0267355,34.9940881 48.0267355,35.5947694 C48.0259761,36.3875157 47.5976949,37.2942767 48.5985366,37.9538784 L47.2559811,37.9538784 C47.6933747,36.861174 47.7457708,35.7921908 47.1610606,34.678826" id="Fill-30" sketch:type="MSShapeGroup"></path>
                <path d="M73.0591698,34.0528931 C73.4859323,34.3505556 73.8299242,34.5892977 74.2027719,34.8487002 C73.9825564,34.9068553 73.7228539,34.9764885 73.4631514,35.0453564 C73.0287952,36.7662893 73.255845,37.5238365 74.2711147,37.7388574 C73.3386157,38.3005136 72.924003,38.098501 72.8951471,37.0578302 C72.8822379,36.5696331 72.9293185,36.0776101 72.8913503,35.593239 C72.8708475,35.3330713 72.7280871,35.0828512 72.5982358,34.7040776 C72.6119044,34.690304 72.7645365,34.5579245 72.8792005,34.3987631 C72.9817146,34.2564361 73.0432231,34.083501 73.0591698,34.0528931" id="Fill-31" sketch:type="MSShapeGroup"></path>
                <path d="M60.2578115,34.4959434 C60.3496945,35.7233229 60.4317058,36.8282704 60.5152359,37.9500524 L59.7300535,37.9500524 L59.7300535,34.6176101 C59.7778934,34.6068973 59.9973496,34.5556289 60.2578115,34.4959434" id="Fill-32" sketch:type="MSShapeGroup"></path>
                <path d="M22.7763638,19.548543 C22.7763638,21.0093082 22.8955839,22.2672956 22.7429518,23.4900839 C22.5857634,24.7557233 21.7329977,25.6242243 20.5256089,26.0336059 C19.7024583,26.3129036 18.8952544,26.2096017 18.2771321,25.51174 C17.5602925,24.7013941 17.4471473,23.717348 17.836701,22.776153 C18.0781787,22.1938365 18.5360752,21.5747904 19.0653519,21.2694759 C20.2036386,20.6121698 21.4505143,20.1484591 22.7763638,19.548543" id="Fill-33" sketch:type="MSShapeGroup"></path>
            </g>
        </g>
    </g>
</svg>