<?xml version="1.0" encoding="UTF-8" standalone="no"?>
<svg width="218px" height="275px" viewBox="0 0 218 275" version="1.1" xmlns="http://www.w3.org/2000/svg" xmlns:xlink="http://www.w3.org/1999/xlink" xmlns:sketch="http://www.bohemiancoding.com/sketch/ns">
    <!-- Generator: Sketch 3.1.1 (8761) - http://www.bohemiancoding.com/sketch -->
    <title>Rectangle 209 + Imported Layers 2</title>
    <desc>Created with Sketch.</desc>
    <defs></defs>
    <g id="Page-1" stroke="none" stroke-width="1" fill="none" fill-rule="evenodd" sketch:type="MSPage">
        <g id="Desktop-Portfolio_Detail_Pickers-3" sketch:type="MSArtboardGroup" transform="translate(-98.000000, -1077.000000)">
            <g id="Rectangle-209-+-Imported-Layers-2" sketch:type="MSLayerGroup" transform="translate(98.000000, 1077.000000)">
                <rect id="Rectangle-209" fill="#F26E1D" sketch:type="MSShapeGroup" x="0" y="0" width="218" height="275"></rect>
                <g id="Imported-Layers-2" transform="translate(69.000000, 72.000000)" stroke="#FFFFFF" stroke-width="3" sketch:type="MSShapeGroup">
                    <path d="M60.5390672,55.7351461 L56.9511269,52.1518652 C57.2095299,53.1678202 57.3506119,54.1318652 57.3506119,54.9965393 C57.3506119,55.2382921 57.3164552,55.4711461 57.2941791,55.7084494 L58.705,56.7036404 L60.5390672,55.7351461 L60.5390672,55.7351461 Z M50.1212687,26.0781573 L50.1212687,29.050382 C50.1212687,30.6937079 48.7876716,32.0270562 47.1407239,32.0270562 L46.4412537,32.0270562 L46.4412537,38.594427 C47.4748657,39.1120449 51.2009179,41.7149663 51.9672164,43.0053034 C54.4235299,45.8084494 56.1996791,49.2033708 56.9511269,52.1518652 L60.5390672,55.7351461 L70.4445149,50.495191 L70.4445149,12.3382921 C70.4445149,5.5247191 64.914097,0 58.0916642,0 C51.2677463,0 45.7373284,5.5247191 45.7373284,12.3382921 L45.7373284,23.1014831 L47.1407239,23.1014831 C48.7876716,23.1014831 50.1212687,24.4348315 50.1212687,26.0781573 L50.1212687,26.0781573 Z M64.6631194,27.3017528 L52.0459254,14.7009438 L64.6631194,27.3017528 L64.6631194,27.3017528 Z M64.6631194,43.052764 L52.0459254,30.4519551 L64.6631194,43.052764 L64.6631194,43.052764 Z M56.9511269,52.1518652 C56.1996791,49.2033708 54.4235299,45.8084494 51.9672164,43.0053034 C51.2009179,41.7149663 47.4748657,39.1120449 46.4412537,38.594427 L46.4412537,32.0270562 L47.1407239,32.0270562 C48.7876716,32.0270562 50.1212687,30.6937079 50.1212687,29.050382 L50.1212687,26.0781573 C50.1212687,24.4348315 48.7876716,23.1014831 47.1407239,23.1014831 L35.2274552,23.1014831 C33.5805075,23.1014831 32.2469104,24.4348315 32.2469104,26.0781573 L32.2469104,29.050382 C32.2469104,30.6937079 33.5805075,32.0270562 35.2274552,32.0270562 L35.9269254,32.0270562 L35.9269254,38.594427 C34.8947985,39.1120449 31.164291,41.7149663 30.3994776,43.0053034 C30.3831418,43.021618 30.3697761,43.0408989 30.3549254,43.0586966 C34.8071791,45.3813034 37.8515821,50.0265169 37.8515821,55.3910562 C37.8515821,55.4696629 37.8411866,55.5453034 37.8382164,55.6239101 L39.4317015,56.7036404 L49.769306,50.403236 L57.2941791,55.7084494 C57.3164552,55.4711461 57.3506119,55.2382921 57.3506119,54.9965393 C57.3506119,54.1318652 57.2095299,53.1678202 56.9511269,52.1518652 L56.9511269,52.1518652 Z M25.1126119,53.6913708 L30.1425597,50.403236 L37.8382164,55.6239101 C37.8411866,55.5453034 37.8515821,55.4696629 37.8515821,55.3910562 C37.8515821,50.0265169 34.8071791,45.3813034 30.3549254,43.0586966 C28.4302687,42.0531236 26.2442388,41.4776629 23.920097,41.4776629 C17.5491269,41.4776629 12.1909776,45.7520899 10.5306642,51.5808539 L20.5029403,56.7036404 L25.1126119,53.6913708 L25.1126119,53.6913708 Z M73.6002985,53.3799101 C73.6002985,51.7351011 72.2652164,50.403236 70.6212388,50.403236 L70.4445149,50.495191 L60.5390672,55.7351461 L58.705,56.7036404 L57.2941791,55.7084494 L49.769306,50.403236 L39.4317015,56.7036404 L37.8382164,55.6239101 L30.1425597,50.403236 L25.1126119,53.6913708 L20.5029403,56.7036404 L10.5306642,51.5808539 L8.23770896,50.403236 C6.59076119,50.403236 5.25716418,51.7351011 5.25716418,53.3799101 L0,128.281753 C0,129.926562 1.33359701,131.258427 2.98054478,131.258427 L76.9298358,131.258427 C78.5738134,131.258427 79.9088955,129.926562 79.9088955,128.281753 L73.6002985,53.3799101 L73.6002985,53.3799101 Z M39.4287313,30.6254831 L43.8097015,30.6254831 L39.4287313,30.6254831 Z" id="Stroke-1"></path>
                </g>
            </g>
        </g>
    </g>
</svg>