<?xml version="1.0" encoding="UTF-8" standalone="no"?>
<svg width="169px" height="40px" viewBox="0 0 169 40" version="1.1" xmlns="http://www.w3.org/2000/svg" xmlns:xlink="http://www.w3.org/1999/xlink" xmlns:sketch="http://www.bohemiancoding.com/sketch/ns">
    <!-- Generator: Sketch 3.1.1 (8761) - http://www.bohemiancoding.com/sketch -->
    <title>city_delivery</title>
    <desc>Created with Sketch.</desc>
    <defs></defs>
    <g id="Page-1" stroke="none" stroke-width="1" fill="none" fill-rule="evenodd" sketch:type="MSPage">
        <g id="Desktop-HD" sketch:type="MSArtboardGroup" transform="translate(-734.000000, -3347.000000)" fill="#F6F4F4">
            <g id="city_delivery" sketch:type="MSLayerGroup" transform="translate(735.000000, 3347.000000)">
                <path d="M70.9720599,6.05822222 C71.8256064,6.09022222 72.8072946,6.12266667 73.7863497,6.212 C74.7202041,6.29733333 75.650109,6.40355556 76.5707982,6.58577778 C76.8283981,6.63688889 77.0877533,6.684 77.3418425,6.74933333 C77.8179854,6.872 78.3024662,6.95466667 78.7821198,7.05777778 C79.6225011,7.23822222 80.4317246,7.52666667 81.2339266,7.83111111 C82.4108992,8.27777778 83.5786561,8.74844444 84.7170106,9.29022222 C86.3968954,10.0906667 88.0030548,11.0155556 89.4635189,12.1857778 C90.2104269,12.784 90.9007244,13.4391111 91.4545422,14.2302222 C91.8279962,14.764 92.1211422,15.3364444 92.2633268,15.9786667 C92.3107217,16.1924444 92.3480232,16.412 92.3581166,16.6302222 C92.3717207,16.9364444 92.2786863,17.2231111 92.1303579,17.4902222 C91.8688084,17.9626667 91.4922825,18.3342222 91.0968865,18.6866667 C90.589147,19.1386667 90.0313796,19.524 89.4586916,19.8853333 C88.4682266,20.5097778 87.4470428,21.0768889 86.3705649,21.5382222 C85.612247,21.8631111 84.8302317,22.1191111 84.0451444,22.368 C82.212104,22.948 80.3549273,23.4364444 78.4788805,23.8488889 C77.3852878,24.0888889 76.2881843,24.3151111 75.1910809,24.5391111 C73.6683013,24.8506667 72.1433276,25.1506667 70.6495115,25.588 C70.1013986,25.7484444 69.5646956,25.9484444 69.0222877,26.1284444 C68.7712704,26.2115556 68.5838852,26.3631111 68.4645203,26.6066667 C68.3881619,26.7613333 68.2951276,26.9084444 68.2020932,27.0542222 C68.1336339,27.1604444 68.0577144,27.2617778 67.9765287,27.3591111 C67.8444375,27.5182222 67.6768001,27.6022222 67.4652785,27.5888889 C67.3625896,27.5826667 67.2590231,27.5822222 67.156773,27.5893333 C66.830275,27.6115556 66.5796966,27.4648889 66.3835345,27.2195556 C66.0776621,26.8373333 65.8617521,26.4075556 65.7397542,25.9284444 C65.6590074,25.612 65.7217617,25.3324444 65.9245065,25.0831111 C66.1584089,24.7946667 66.4326848,24.5515556 66.7464563,24.3546667 C67.0281925,24.1782222 67.3121229,24.0053333 67.5916648,23.8248889 C67.7794889,23.704 67.7900211,23.676 67.7193677,23.4537778 C67.3612731,22.3306667 66.9957182,21.2102222 66.6406956,20.0862222 C66.2953274,18.992 65.8213787,17.9515556 65.3584011,16.9066667 C64.9278977,15.936 64.4605316,14.9808889 64.0475819,14.0022222 C63.5174615,12.7471111 63.026398,11.4751111 62.6674258,10.1555556 C62.5915062,9.87644444 62.5370899,9.59377778 62.5195362,9.30311111 C62.5054933,9.06044444 62.5594708,8.83955556 62.705605,8.65155556 C62.8464731,8.47022222 62.9917296,8.288 63.1606835,8.13511111 C63.6219058,7.71777778 64.1270122,7.35955556 64.6487946,7.02355556 C65.1389804,6.70755556 65.6791941,6.52933333 66.2404722,6.40622222 C67.4635232,6.13777778 68.70325,6.04444444 69.9526314,6.05733333 C70.249727,6.06088889 70.5468226,6.05822222 70.9720599,6.05822222 L70.9720599,6.05822222 Z M67.2774544,8.66311111 C67.375316,8.71422222 67.4424588,8.75155556 67.5113569,8.78488889 C67.8413656,8.94444444 68.0572755,9.20133333 68.1393389,9.56222222 C68.174885,9.71911111 68.1946329,9.88088889 68.2056039,10.0413333 C68.2332509,10.4377778 68.1661082,10.8262222 68.0923828,11.2128889 C68.0463045,11.4542222 68.0441103,11.6924444 68.0730738,11.9373333 C68.1810288,12.8448889 68.2727466,13.7542222 68.3807016,14.6617778 C68.4645203,15.3626667 68.5421952,16.0648889 68.6589271,16.76 C68.910822,18.2551111 69.23732,19.7346667 69.6147236,21.2022222 C69.7555916,21.7502222 69.9377108,22.2875556 70.1071036,22.8275556 C70.1439663,22.9453333 70.1711744,23.0755556 70.2993161,23.1595556 C70.3471498,23.1533333 70.4041992,23.1515556 70.4581767,23.1377778 C71.9418994,22.756 73.4225502,22.364 74.9089059,21.9942222 C75.9735351,21.7293333 77.0456245,21.4955556 78.1142033,21.2453333 C78.9932025,21.0395556 79.8787844,20.8617778 80.7437408,20.5955556 C82.2529163,20.1315556 83.7423439,19.6106667 85.2291385,19.0791111 C85.6276064,18.9368889 86.0278298,18.8008889 86.4078664,18.6093333 C87.1995362,18.2097778 87.9363509,17.7248889 88.6218211,17.1622222 C88.8337815,16.9888889 89.0242387,16.7857778 89.2094297,16.5822222 C89.4731734,16.2924444 89.4823891,15.9631111 89.3257227,15.6142222 C89.2010917,15.3373333 89.0347709,15.0902222 88.8390476,14.8622222 C88.522643,14.4942222 88.1715699,14.1631111 87.7998712,13.8542222 C86.0532826,12.4013333 84.1157979,11.2835556 82.0067263,10.4644444 C80.6077,9.92088889 79.1726887,9.492 77.7227568,9.11555556 C75.8282786,8.62355556 73.9144913,8.23688889 71.9572588,8.09866667 C70.9970739,8.03066667 70.0390832,8.01955556 69.0828478,8.13288889 C68.5830075,8.19288889 68.0910663,8.29866667 67.6153623,8.47111111 C67.5104792,8.50933333 67.3946251,8.52977778 67.2774544,8.66311111 L67.2774544,8.66311111 Z" id="Fill-1" sketch:type="MSShapeGroup"></path>
                <path d="M22.4656064,20.7475556 C22.4993972,20.54 22.5287996,20.3702222 22.5546912,20.1995556 C22.6626462,19.4915556 22.7714789,18.7831111 22.8763619,18.0737778 C22.9303394,17.708 22.9772955,17.3408889 23.0273234,16.9742222 C23.0461936,16.8368889 23.0703298,16.7 23.0843728,16.5622222 C23.1049983,16.3511111 23.2309458,16.2213333 23.4130649,16.1573333 C23.5618322,16.1048889 23.7246423,16.0591111 23.8791145,16.0644444 C24.0814204,16.0715556 24.2938196,16.1013333 24.480766,16.1764444 C24.798926,16.3044444 25.092072,16.4884444 25.343967,16.7311111 C25.5045829,16.8853333 25.5695315,17.0488889 25.5208201,17.288 C25.3404563,18.1711111 25.1741354,19.0577778 25.0209797,19.9462222 C24.881867,20.7551111 24.7484592,21.5657778 24.7168627,22.3888889 C24.7019421,22.7702222 24.6681513,23.1506667 24.6589356,23.532 C24.6470869,24.0306667 24.7036974,24.5253333 24.7984872,25.0142222 C24.8945934,25.5097778 25.0639862,25.9733333 25.4150593,26.348 C25.6046388,26.5506667 25.609466,26.7813333 25.5304746,27.0262222 C25.4962449,27.1333333 25.4190089,27.1911111 25.3009605,27.2026667 C24.8419325,27.248 24.4206447,27.1551111 24.0261263,26.904 C23.4604598,26.544 23.0970992,26.024 22.8311613,25.4204444 C22.6332438,24.9711111 22.5617127,24.4911111 22.4914981,24.0097778 C22.3958306,23.3533333 22.4120678,22.6933333 22.4107512,22.0342222 C22.4103124,21.9417778 22.4111901,21.8484444 22.4002191,21.7573333 C22.3958306,21.7168889 22.3629175,21.6795556 22.3400978,21.6364444 C22.2962137,21.6555556 22.2554014,21.66 22.2374089,21.6831111 C21.9407521,22.0564444 21.5721254,22.3497778 21.2026209,22.6422222 C19.9953683,23.5977778 18.74862,24.4964444 17.4382396,25.3044444 C16.1778872,26.0822222 14.8209897,26.6146667 13.4022155,27.0048889 C12.728594,27.1902222 12.0483899,27.3453333 11.3602866,27.4524444 C10.6252273,27.5666667 9.88402425,27.5973333 9.13974928,27.5213333 C8.67413858,27.4742222 8.20721136,27.4453333 7.74379487,27.3697778 C6.27411511,27.1302222 4.87684418,26.6804444 3.59060012,25.9128889 C2.04412312,24.9897778 0.958429559,23.6822222 0.385741567,21.9453333 C0.18211917,21.3266667 0.0276470065,20.6973333 -0.0359849926,20.0528889 C-0.084696385,19.5604444 -0.0838187023,19.056 -0.043445296,18.5622222 C0.0100933516,17.9062222 0.107516136,17.2528889 0.25891641,16.6093333 C0.509933676,15.5471111 0.867150554,14.524 1.32398442,13.536 C2.35921122,11.2951111 3.72839631,9.28311111 5.38458365,7.46666667 C6.6080734,6.12488889 7.97594196,4.95688889 9.45483739,3.91644444 C10.0275254,3.51377778 10.5892423,3.09511111 11.160175,2.69066667 C11.4879895,2.45822222 11.8311634,2.24888889 12.1554672,2.01244444 C12.5982581,1.68977778 13.066063,1.68666667 13.5580042,1.85822222 C13.907322,1.98 14.2219712,2.16577778 14.5138007,2.39288889 C15.0728846,2.82933333 15.5121649,3.376 15.9066833,3.96177778 C16.6970366,5.13466667 17.2982493,6.40622222 17.7967731,7.72977778 C18.2044567,8.81155556 18.5515802,9.91422222 18.8328775,11.0364444 C18.9869109,11.6524444 19.1251459,12.2733333 19.2537264,12.896 C19.3094593,13.1666667 19.3256964,13.4457778 19.3542211,13.7217778 C19.359926,13.7773333 19.3493938,13.8382222 19.3314013,13.8915556 C19.2080869,14.2613333 18.8346329,14.5364444 18.447136,14.5511111 C18.065344,14.5657778 17.7274361,14.4422222 17.4224414,14.2186667 C17.2398833,14.0853333 17.1235904,13.9093333 17.0674187,13.684 C16.7475033,12.3937778 16.4363648,11.1008889 16.0940685,9.81688889 C15.7320244,8.45866667 15.2133139,7.16311111 14.4593844,5.97333333 C14.1807201,5.53422222 13.8608048,5.12711111 13.5040267,4.74977778 C13.4724302,4.716 13.4377617,4.68577778 13.4070428,4.65111111 C13.30962,4.54044444 13.199032,4.52044444 13.0700126,4.59333333 C12.8602464,4.71155556 12.6465307,4.82266667 12.4385199,4.94355556 C10.8130514,5.89466667 9.37321289,7.08222222 8.08389694,8.46044444 C6.55760664,10.0915556 5.27048489,11.8991111 4.22253169,13.8786667 C3.59367201,15.0657778 3.09997546,16.3106667 2.81911698,17.6328889 C2.64094738,18.4728889 2.53650314,19.3213333 2.59355252,20.1826667 C2.6527961,21.0755556 2.8818713,21.9128889 3.37600668,22.6666667 C3.5989381,23.0075556 3.8609264,23.3115556 4.16065506,23.5813333 C5.00981312,24.344 5.99018474,24.8275556 7.11186329,25.0328889 C7.96014367,25.1884444 8.8132513,25.2453333 9.67074734,25.2071111 C10.1604943,25.1853333 10.6484859,25.1133333 11.1364775,25.0573333 C11.6929284,24.9933333 12.2423578,24.8884444 12.7891541,24.7657778 C13.8608048,24.5257778 14.9162183,24.2271111 15.9619773,23.8928889 C16.5952254,23.6902222 17.1942438,23.4008889 17.7928235,23.1124444 C19.1760515,22.4457778 20.5276829,21.7186667 21.8591276,20.9515556 C22.0377361,20.8488889 22.2145892,20.7422222 22.4656064,20.7475556" id="Fill-2" sketch:type="MSShapeGroup"></path>
                <path d="M159.221744,23.412 C159.16996,23.4542222 159.130465,23.4786667 159.100623,23.5115556 C158.116302,24.5897778 156.98102,25.4813333 155.767623,26.2768889 C155.110678,26.7075556 154.388345,26.996 153.661185,27.2746667 C153.29563,27.4146667 152.940168,27.3302222 152.592606,27.1955556 C152.483334,27.1533333 152.393811,27.0773333 152.340711,26.9697778 C152.170002,26.6271111 152.025184,26.2848889 152.096715,25.8777778 C152.214325,25.2057778 152.299021,24.528 152.410487,23.8551111 C152.593922,22.7484444 152.787451,21.6431111 152.97747,20.5377778 C153.198207,19.2493333 153.418944,17.9608889 153.755974,16.6968889 C153.8218,16.4515556 153.888066,16.2048889 153.974956,15.9671111 C154.237822,15.2515556 155.006672,15.0648889 155.552152,15.5884444 C155.829939,15.8546667 155.975634,16.1768889 155.895765,16.5871111 C155.695214,17.62 155.504757,18.6551111 155.319127,19.6911111 C155.065916,21.1026667 154.797345,22.5115556 154.627513,23.9368889 C154.616981,24.0284444 154.610837,24.1208889 154.61347,24.2124444 C154.615226,24.2871111 154.685879,24.34 154.757849,24.32 C154.845617,24.2964444 154.937335,24.2715556 155.013255,24.2248889 C155.326149,24.0342222 155.645186,23.8506667 155.941404,23.6355556 C156.694895,23.0884444 157.391336,22.4702222 158.077245,21.84 C158.779391,21.1946667 159.467056,20.5333333 160.11698,19.8324444 C160.403543,19.5244444 160.610677,19.1786667 160.742329,18.7715556 C161.247435,17.2102222 161.764829,15.6533333 162.286612,14.0982222 C162.705705,12.8475556 163.184481,11.6208889 163.789643,10.4493333 C163.95377,10.132 164.122285,9.812 164.331613,9.52488889 C164.637485,9.10444444 165.075887,8.88977778 165.589332,8.84177778 C165.870629,8.81511111 166.101899,8.92977778 166.297622,9.12711111 C166.470964,9.30133333 166.586818,9.51333333 166.682047,9.73822222 C166.860655,10.156 166.960711,10.5968889 167.019955,11.044 C167.048041,11.2577778 167.02171,11.4826667 166.994063,11.6995556 C166.902345,12.4297778 166.663177,13.1164444 166.36652,13.784 C165.876773,14.8866667 165.251424,15.9093333 164.556299,16.888 C164.116141,17.508 163.632977,18.096 163.191941,18.7151111 C162.979103,19.0137778 162.811905,19.3471111 162.637246,19.672 C162.41212,20.0893333 162.243166,20.5297778 162.115902,20.9902222 C161.494064,23.2404444 160.851162,25.4853333 160.241172,27.7391111 C159.519278,30.4062222 158.83688,33.0831111 158.213286,35.7755556 C157.965341,36.8453333 157.721345,37.9164444 157.483054,38.9884444 C157.456724,39.108 157.411084,39.2026667 157.330776,39.2893333 C157.149973,39.4848889 156.959955,39.6657778 156.711132,39.7728889 C156.352599,39.9266667 156.013813,39.8928889 155.71189,39.6475556 C155.562245,39.5257778 155.43542,39.3724444 155.311228,39.2226667 C155.264272,39.1648889 155.235309,39.0782222 155.228726,39.0017778 C155.203712,38.7164444 155.194935,38.4422222 155.331415,38.1631111 C155.445952,37.9297778 155.478865,37.6546667 155.543375,37.3968889 C156.012497,35.5235556 156.555782,33.6711111 157.073176,31.8115556 C157.565556,30.0408889 158.034239,28.2631111 158.509065,26.4875556 C158.757011,25.5608889 158.99574,24.6315556 159.236664,23.7031111 C159.258606,23.6182222 159.311706,23.5306667 159.221744,23.412" id="Fill-3" sketch:type="MSShapeGroup"></path>
                <path d="M42.1572965,26.0364444 C42.1994253,25.7275556 42.2345326,25.4173333 42.2849994,25.1093333 C42.4807226,23.912 42.673374,22.7137778 42.883579,21.5191111 C43.1012443,20.2782222 43.3237369,19.0377778 43.5716823,17.8031111 C43.694119,17.1924444 43.8367425,16.5835556 44.0421202,15.992 C44.1307662,15.7373333 44.2878714,15.5533333 44.5204573,15.4288889 C44.7346119,15.3137778 44.9579822,15.296 45.1835466,15.3773333 C45.7079621,15.5657778 45.9879429,16.1488889 45.8909589,16.5853333 C45.7408752,17.2622222 45.6254599,17.9466667 45.5017066,18.6288889 C45.3371411,19.5386667 45.176964,20.4488889 45.0185423,21.3595556 C44.9158534,21.9515556 44.8157976,22.5444444 44.7227632,23.1377778 C44.6740518,23.4462222 44.6323619,23.7564444 44.6091033,24.0671111 C44.5876,24.3595556 44.6854617,24.4266667 44.9562268,24.308 C45.1440509,24.2262222 45.3239759,24.1213333 45.4977571,24.0111111 C46.1002863,23.6302222 46.6483991,23.1746667 47.1877352,22.7093333 C48.2409545,21.8008889 49.2524838,20.8475556 50.2043308,19.8293333 C50.4922107,19.5208889 50.690567,19.172 50.8217806,18.7653333 C51.3150383,17.2368889 51.8280439,15.7155556 52.3335891,14.1915556 C52.6688639,13.1817778 53.0502171,12.1902222 53.493008,11.224 C53.7519244,10.6568889 54.0125962,10.0875556 54.3724461,9.57733333 C54.682707,9.13822222 55.1246203,8.91911111 55.6573737,8.88888889 C55.9557858,8.87155556 56.1989039,8.992 56.3713686,9.228 C56.4990714,9.40266667 56.6048322,9.59822222 56.6930393,9.79688889 C56.8624321,10.1791111 56.9453731,10.5897778 57.0129547,11 C57.0423571,11.1795556 57.0305083,11.3706667 57.0085663,11.5533333 C56.9269418,12.2231111 56.7360458,12.8644444 56.4802013,13.4871111 C56.0207343,14.6044444 55.3997738,15.6288889 54.7235192,16.6208889 C54.2434268,17.3257778 53.7479749,18.02 53.1976678,18.6715556 C53.1537837,18.7235556 53.1151656,18.7826667 53.0818137,18.8426667 C52.9132986,19.1448889 52.743467,19.4466667 52.5815345,19.7524444 C52.3761567,20.1417778 52.2230011,20.5515556 52.1045139,20.9768889 C51.5950191,22.8142222 51.0758697,24.6488889 50.5703245,26.4871111 C50.24251,27.6786667 49.9217169,28.8724444 49.6175999,30.0706667 C49.1199537,32.0306667 48.6328398,33.9937778 48.153625,35.9582222 C47.9592183,36.7551111 47.7946528,37.5595556 47.6204328,38.3613333 C47.5568008,38.6542222 47.4457739,38.9364444 47.4374359,39.2422222 C47.4356806,39.2942222 47.398379,39.352 47.3632717,39.3942222 C47.1842245,39.608 46.9836739,39.7924444 46.7238799,39.9053333 C46.4004538,40.0462222 46.0910706,40.0133333 45.8137228,39.8115556 C45.6588118,39.6991111 45.5363751,39.54 45.4056004,39.396 C45.3687377,39.3555556 45.3388965,39.2964444 45.331875,39.2422222 C45.301595,38.9911111 45.2603439,38.7404444 45.3288031,38.4862222 C45.5258429,37.7493333 45.7097174,37.0093333 45.9107068,36.2737778 C46.2402767,35.0702222 46.5812564,33.8697778 46.914337,32.6666667 C47.2627771,31.4084444 47.6156055,30.1515556 47.9530745,28.8897778 C48.4129803,27.1711111 48.8614762,25.4488889 49.3095332,23.7266667 C49.3384968,23.6155556 49.4482071,23.4622222 49.3003176,23.3862222 C49.18578,23.3271111 49.1116158,23.4786667 49.0356962,23.5591111 C48.1904877,24.4617778 47.2329358,25.2271111 46.2306221,25.9417778 C45.4942463,26.4666667 44.6828286,26.8293333 43.8578068,27.1728889 C43.5019065,27.3213333 43.1473227,27.3155556 42.7852785,27.2075556 C42.5996486,27.1524444 42.4596582,27.0466667 42.374523,26.868 C42.2494532,26.6053333 42.1362321,26.3404444 42.1572965,26.0364444" id="Fill-4" sketch:type="MSShapeGroup"></path>
                <path d="M35.2626597,28.3853333 C34.9251907,28.6271111 34.5899159,28.5013333 34.370934,28.1822222 C34.0514575,27.7164444 33.7289091,27.2528889 33.4072384,26.7888889 C32.5392101,25.5395556 31.6610886,24.2968889 30.804909,23.0391111 C29.9487295,21.7813333 29.1180028,20.5062222 28.3689006,19.1786667 C28.1025239,18.7062222 27.8466793,18.228 27.6386685,17.7253333 C27.5140376,17.4253333 27.4302189,17.12 27.4152983,16.7875556 C27.3880901,16.1888889 27.6197983,15.7088889 28.008173,15.2853333 C28.2912257,14.9773333 28.6247451,14.7333333 28.9837173,14.5266667 C29.8328754,14.0377778 30.7355721,13.6791111 31.6812753,13.4364444 C32.1236274,13.3231111 32.575634,13.2484444 33.0214968,13.1488889 C33.3892459,13.0662222 33.7534842,12.9675556 34.1212333,12.8866667 C34.3077409,12.8457778 34.3893654,12.736 34.4099909,12.5524444 C34.4630907,12.0817778 34.5170682,11.6111111 34.5802614,11.1413333 C34.6478429,10.6368889 34.7255179,10.1342222 34.8001209,9.63066667 C34.9041263,8.93333333 35.0033045,8.23511111 35.1165255,7.53911111 C35.1924451,7.07155556 35.2859183,6.60666667 35.3776361,6.14177778 C35.5610718,5.21111111 35.7690827,4.28622222 36.0762716,3.388 C36.169306,3.11555556 36.2921816,2.85333333 36.4018919,2.58666667 C36.4150572,2.55466667 36.4308554,2.524 36.4479703,2.49377778 C36.6717794,2.10266667 36.8262515,1.97866667 37.3594438,2.13377778 C37.8276875,2.26977778 38.169545,2.59866667 38.4174903,3.02 C38.5140354,3.184 38.5399271,3.36 38.4894603,3.55422222 C38.288471,4.32622222 38.097575,5.10044444 37.9022906,5.87377778 C37.6670716,6.804 37.4033279,7.72755556 37.2027774,8.66533333 C37.0096872,9.56844444 36.8793513,10.4853333 36.725318,11.3973333 C36.6695851,11.7275556 36.6217514,12.0595556 36.5761119,12.3915556 C36.5256452,12.7537778 36.5712847,12.8017778 36.9210413,12.8008889 C37.5836917,12.8 38.246781,12.8022222 38.9094315,12.8044444 C38.9893006,12.8048889 39.0704863,12.8048889 39.1481612,12.82 C39.6194769,12.9102222 40.0916702,12.9977778 40.5603528,13.1004444 C41.1440118,13.2284444 41.7039734,13.4257778 42.2125905,13.7515556 C42.3183513,13.8195556 42.4223567,13.892 42.5197795,13.9715556 C42.6119362,14.0466667 42.6018428,14.1702222 42.5013482,14.2324444 C42.454831,14.2608889 42.3969039,14.2795556 42.3424876,14.2853333 C42.2520863,14.2946667 42.1599296,14.2906667 42.0686506,14.2911111 C41.337102,14.2951111 40.6055534,14.2897778 39.8744437,14.3048889 C39.2464617,14.3177778 38.6180408,14.34 37.9918142,14.3853333 C37.5481456,14.4173333 37.1079877,14.4942222 36.6665133,14.5511111 C36.6322836,14.5555556 36.598054,14.5573333 36.5642632,14.5653333 C36.3922374,14.6057778 36.3343103,14.6662222 36.3079799,14.8417778 C36.2768221,15.048 36.2430313,15.2537778 36.2224058,15.4608889 C36.1574573,16.1048889 36.0968972,16.7497778 36.036337,17.3946667 C35.9832372,17.9586667 35.9275044,18.5231111 35.8809872,19.088 C35.8384196,19.6066667 35.8072619,20.1262222 35.7699603,20.6453333 C35.7309035,21.1875556 35.6883358,21.7293333 35.6510343,22.2715556 C35.6229485,22.6755556 35.6005676,23.08 35.5746759,23.484 C35.5325472,24.1537778 35.4833969,24.8231111 35.4487284,25.4928889 C35.408355,26.2786667 35.3785138,27.0648889 35.3469172,27.8511111 C35.3398958,28.036 35.3372627,28.22 35.2626597,28.3853333 L35.2626597,28.3853333 Z M33.4730646,23.6302222 C33.5902352,23.4413333 33.5871633,23.2768889 33.5985732,23.1168889 C33.6661548,22.1484444 33.7337364,21.1795556 33.7986849,20.2106667 C33.8526624,19.4151111 33.9018126,18.6191111 33.9549124,17.8235556 C34.0110841,16.9702222 34.0698889,16.1164444 34.1269382,15.2631111 C34.1422977,15.0382222 34.0619897,14.9631111 33.8469574,14.9982222 C33.8245765,15.0017778 33.8021956,15.008 33.7802535,15.0133333 C33.0157919,15.2102222 32.2592293,15.4302222 31.5373353,15.7564444 C31.1713416,15.9217778 30.8167578,16.1071111 30.4994754,16.3591111 C30.3177951,16.5031111 30.1567403,16.6662222 30.0316705,16.8617778 C29.8280481,17.18 29.7530063,17.5186667 29.9061619,17.8831111 C29.977693,18.0533333 30.0417639,18.2275556 30.1242661,18.392 C30.2743498,18.6911111 30.4305773,18.9866667 30.5938263,19.2786667 C31.3262526,20.5884444 32.1512744,21.8382222 32.9969217,23.0742222 C33.0947833,23.2164444 33.1961557,23.3568889 33.3027941,23.492 C33.3414122,23.5413333 33.4015334,23.5733333 33.4730646,23.6302222 L33.4730646,23.6302222 Z" id="Fill-5" sketch:type="MSShapeGroup"></path>
                <path d="M96.4121332,23.1 C96.3985291,23.2902222 96.4700602,23.4106667 96.5336922,23.5315556 C96.7092288,23.8662222 96.9668287,24.128 97.27314,24.3382222 C97.8164256,24.7115556 98.4207101,24.8982222 99.0763392,24.9244444 C99.7034435,24.9497778 100.301584,24.8137778 100.887438,24.6008889 C101.394738,24.4164444 101.868687,24.1595556 102.350535,23.9191111 C102.524755,23.832 102.702047,23.7506667 102.870562,23.6533333 C103.03776,23.5568889 103.202326,23.5804444 103.366014,23.6413333 C103.510392,23.6955556 103.58719,23.8311111 103.534529,23.976 C103.480112,24.1257778 103.403754,24.2733333 103.309403,24.4 C102.769189,25.1253333 102.097762,25.6884444 101.267474,26.0462222 C100.782993,26.2546667 100.287541,26.4266667 99.7740969,26.5502222 C99.1627909,26.6977778 98.5488518,26.6773333 97.9335962,26.6128889 C97.6843343,26.5866667 97.4377055,26.5328889 97.1897601,26.4928889 C96.4766429,26.3782222 95.8828905,26.0244444 95.3483817,25.5511111 C94.4952741,24.7946667 93.8734358,23.8808889 93.518852,22.7875556 C93.3718401,22.3351111 93.289338,21.872 93.2735397,21.392 C93.2208787,19.8115556 93.6829787,18.3795556 94.464994,17.0364444 C94.8731165,16.3364444 95.3417991,15.6786667 95.8982499,15.0928889 C96.7065957,14.2422222 97.646594,13.6071111 98.8020633,13.3426667 C99.2738178,13.2342222 99.751716,13.1862222 100.232247,13.224 C100.873833,13.2751111 101.424141,13.5466667 101.859471,14.0248889 C102.513345,14.7422222 102.789815,15.5991111 102.741981,16.5724444 C102.698536,17.4635556 102.461123,18.3048889 102.133747,19.1248889 C101.911254,19.6835556 101.647072,20.2226667 101.362264,20.7511111 C100.714973,21.9502222 99.7082707,22.6364444 98.3974516,22.8906667 C97.8243247,23.0022222 97.2490037,23.0942222 96.6622728,23.0675556 C96.5859144,23.0644444 96.5086783,23.0866667 96.4121332,23.1 L96.4121332,23.1 Z M95.8837682,20.6697778 C96.011471,20.7706667 96.1391738,20.7711111 96.263366,20.7817778 C96.7201998,20.8217778 97.1757172,20.7951111 97.629918,20.7431111 C97.9665093,20.7048889 98.2679933,20.58 98.5449023,20.384 C98.9490752,20.0982222 99.231689,19.7111111 99.4590088,19.2782222 C99.8140315,18.5991111 100.050128,17.8755556 100.198457,17.1248889 C100.273937,16.7408889 100.316066,16.3488889 100.349857,15.9582222 C100.377065,15.6355556 100.194946,15.4573333 99.8781023,15.4648889 C99.7885787,15.4671111 99.6972997,15.4862222 99.6095314,15.5102222 C99.2720624,15.6013333 98.9872544,15.7946667 98.7164892,16.0084444 C98.0907014,16.5013333 97.5623364,17.0933333 97.0778555,17.7235556 C96.819378,18.06 96.5828425,18.416 96.3603499,18.7786667 C96.0544775,19.2777778 95.8785021,19.824 95.8684087,20.4173333 C95.8666534,20.5075556 95.8789409,20.5977778 95.8837682,20.6697778 L95.8837682,20.6697778 Z" id="Fill-6" sketch:type="MSShapeGroup"></path>
                <path d="M132.933829,23.1328889 C132.985612,23.4551111 133.150616,23.7008889 133.349412,23.9257778 C133.767627,24.3991111 134.301697,24.6728889 134.902032,24.824 C135.657278,25.0146667 136.40287,24.9426667 137.130469,24.6977778 C137.530253,24.564 137.91775,24.3888889 138.301736,24.2124444 C138.676507,24.0404444 139.042501,23.8488889 139.405861,23.6546667 C139.574815,23.5648889 139.737625,23.5795556 139.901752,23.6395556 C140.060613,23.6973333 140.135216,23.8444444 140.068512,24.0035556 C140.001808,24.1613333 139.915795,24.3155556 139.812228,24.4506667 C139.278159,25.1493333 138.620774,25.6928889 137.814184,26.0431111 C137.351206,26.2435556 136.877696,26.4088889 136.389266,26.5346667 C135.758212,26.6968889 135.121014,26.6844444 134.4825,26.6142222 C134.222267,26.5857778 133.964667,26.5288889 133.705312,26.488 C133.089179,26.3897778 132.556425,26.1066667 132.080721,25.7137778 C131.041106,24.8568889 130.314385,23.7862222 129.96375,22.4671111 C129.871594,22.1204444 129.830781,21.7662222 129.815861,21.4053333 C129.753984,19.8248889 130.216962,18.3928889 130.996783,17.0497778 C131.397445,16.3595556 131.859106,15.712 132.404147,15.1306667 C133.122531,14.364 133.949747,13.7622222 134.960398,13.4466667 C135.556784,13.2604444 136.166773,13.176 136.786856,13.2257778 C137.427564,13.2773333 137.973922,13.5564444 138.409253,14.0355556 C139.044256,14.7355556 139.320287,15.572 139.285619,16.5168889 C139.251828,17.4311111 139.006516,18.2951111 138.668608,19.1355556 C138.444799,19.6933333 138.182372,20.2333333 137.896686,20.7608889 C137.254222,21.9453333 136.257613,22.6293333 134.961715,22.8862222 C134.378056,23.0017778 133.791764,23.0964444 133.193184,23.0662222 C133.136573,23.0635556 133.079085,23.0711111 133.022914,23.0791111 C133.002288,23.0822222 132.984296,23.1013333 132.933829,23.1328889 L132.933829,23.1328889 Z M132.430917,20.6662222 C132.54326,20.7728889 132.672279,20.7702222 132.795594,20.7813333 C133.240579,20.8213333 133.684248,20.7942222 134.127916,20.7488889 C134.679101,20.6928889 135.119259,20.4275556 135.487886,20.0235556 C135.706429,19.784 135.88021,19.5133333 136.027222,19.224 C136.368201,18.5511111 136.599032,17.8382222 136.744288,17.0991111 C136.819769,16.7155556 136.859704,16.3231111 136.892178,15.9324444 C136.914998,15.6471111 136.742972,15.4728889 136.461675,15.4662222 C136.360741,15.4635556 136.256736,15.4813333 136.158874,15.5075556 C135.844225,15.5902222 135.574776,15.764 135.318493,15.9604444 C134.658475,16.4671111 134.11519,17.0902222 133.600429,17.74 C133.299384,18.1195556 133.027741,18.5186667 132.804371,18.9502222 C132.633661,19.2795556 132.49411,19.6208889 132.448909,19.9928889 C132.421262,20.2195556 132.376939,20.448 132.430917,20.6662222 L132.430917,20.6662222 Z" id="Fill-7" sketch:type="MSShapeGroup"></path>
                <path d="M105.139372,25.628 C105.180184,24.8342222 105.208709,24.0253333 105.265758,23.2177778 C105.323685,22.3986667 105.396971,21.58 105.486056,20.7635556 C105.570753,19.9817778 105.676952,19.2017778 105.788418,18.4231111 C105.927531,17.4497778 106.074981,16.4773333 106.231648,15.5071111 C106.381293,14.5822222 106.540153,13.6586667 106.708229,12.7373333 C106.884205,11.7702222 107.072029,10.8053333 107.261608,9.84044444 C107.444166,8.90977778 107.62848,7.97955556 107.823764,7.052 C108.094968,5.76177778 108.374949,4.47377778 108.656246,3.18622222 C108.826078,2.40666667 109.011708,1.63066667 109.179345,0.850666667 C109.256142,0.494222222 109.460643,0.284888889 109.802061,0.188444444 C110.060978,0.116 110.326477,0.0973333333 110.583199,0.144444444 C111.002292,0.221333333 111.320891,0.446222222 111.444644,0.888888889 C111.476241,1.00311111 111.475802,1.11111111 111.449472,1.22933333 C110.99571,3.28444444 110.539754,5.33911111 110.098718,7.39688889 C109.80996,8.74222222 109.532613,10.0906667 109.271063,11.4417778 C109.014341,12.7693333 108.774295,14.1008889 108.546097,15.4342222 C108.338964,16.6431111 108.139291,17.8533333 107.969898,19.0675556 C107.781197,20.4191111 107.606099,21.7742222 107.576697,23.1422222 C107.561337,23.8248889 107.555193,24.5071111 107.5451,25.1897778 C107.544661,25.2475556 107.547733,25.3053333 107.548611,25.3631111 C107.549927,25.4528889 107.590301,25.5195556 107.668853,25.5577778 C107.913288,25.6786667 108.148507,25.7346667 108.4162,25.5848889 C109.035844,25.2377778 109.665581,24.908 110.296197,24.5808889 C110.641565,24.4013333 110.996149,24.2395556 111.34766,24.0728889 C111.430163,24.0337778 111.516614,24.0004444 111.604383,23.9773333 C111.81766,23.9213333 112.025232,24.1222222 111.975204,24.3377778 C111.925176,24.5537778 111.82512,24.7493333 111.702683,24.9328889 C111.47668,25.2693333 111.212936,25.5742222 110.925934,25.8564444 C110.285664,26.4871111 109.604583,27.0688889 108.868646,27.5822222 C108.434631,27.8848889 107.979114,28.1484444 107.477957,28.3253333 C107.194027,28.4253333 106.905708,28.4795556 106.604224,28.4671111 C106.214094,28.4506667 105.894179,28.296 105.665104,27.9768889 C105.565487,27.8382222 105.482984,27.6813333 105.420669,27.5217778 C105.297354,27.2088889 105.223629,26.8813333 105.202565,26.5435556 C105.183256,26.2435556 105.161314,25.944 105.139372,25.628" id="Fill-8" sketch:type="MSShapeGroup"></path>
                <path d="M122.298069,24.2231111 C122.507835,24.1355556 122.622812,23.9871111 122.742616,23.8524444 C123.002849,23.56 123.254743,23.2604444 123.504883,22.9591111 C124.196497,22.1248889 124.84686,21.2591111 125.428764,20.3431111 C126.289332,18.9893333 126.921702,17.5328889 127.313587,15.9711111 C127.364493,15.7693333 127.432952,15.5724444 127.484735,15.3711111 C127.516771,15.2484444 127.593129,15.1684444 127.695379,15.1115556 C127.934109,14.9777778 128.183371,14.9133333 128.451942,15.0151111 C128.483977,15.0271111 128.51689,15.0368889 128.549803,15.0475556 C128.998299,15.1928889 129.246684,15.4857778 129.283985,15.9782222 C129.322164,16.4817778 129.273453,16.9715556 129.150577,17.456 C128.973724,18.1533333 128.724901,18.8235556 128.419029,19.4733333 C127.703717,20.9911111 126.885717,22.4484444 125.930359,23.8248889 C125.23304,24.8293333 124.492715,25.8004444 123.67647,26.7093333 C123.500056,26.9057778 123.304333,27.0844444 123.110365,27.264 C122.913325,27.4466667 122.686444,27.5017778 122.413923,27.4582222 C121.989125,27.3902222 121.63893,27.1902222 121.325158,26.9111111 C120.873151,26.5093333 120.531294,26.0177778 120.228493,25.4968889 C119.662827,24.5253333 119.234956,23.4884444 118.884761,22.4226667 C118.66183,21.7431111 118.503408,21.0408889 118.340598,20.3431111 C118.167694,19.6004444 118.013222,18.8524444 117.87016,18.1031111 C117.789413,17.6835556 117.739824,17.2568889 117.692868,16.832 C117.672681,16.6497778 117.677508,16.4608889 117.699451,16.2786667 C117.73368,15.9884444 117.900001,15.7946667 118.178665,15.704 C118.547292,15.584 118.920746,15.5688889 119.293761,15.6711111 C119.508355,15.7302222 119.693107,15.8502222 119.808083,16.0506667 C119.887075,16.1902222 119.970016,16.3333333 120.015216,16.4862222 C120.094208,16.7511111 120.159156,17.0226667 120.204796,17.2955556 C120.308801,17.9226667 120.383843,18.5555556 120.497064,19.1808889 C120.599753,19.7497778 120.726578,20.3146667 120.860425,20.8768889 C121.048688,21.6671111 121.347978,22.4186667 121.692907,23.1511111 C121.830264,23.4431111 121.988247,23.7253333 122.142281,24.0097778 C122.179143,24.0782222 122.234437,24.1368889 122.298069,24.2231111" id="Fill-9" sketch:type="MSShapeGroup"></path>
                <path d="M143.994826,23.4564444 C144.018084,24.3115556 144.028178,25.1675556 144.069429,26.0222222 C144.097514,26.6106667 143.437058,27.3417778 142.719114,27.2284444 C142.403148,27.1786667 142.16749,27.004 142.009507,26.7346667 C141.905063,26.5577778 141.820805,26.364 141.757173,26.168 C141.548285,25.524 141.489041,24.8555556 141.482898,24.1831111 C141.477631,23.5933333 141.48948,23.0031111 141.494307,22.4128889 C141.494746,22.3666667 141.490797,22.3195556 141.497818,22.2742222 C141.590414,21.7226667 141.548724,21.1666667 141.542141,20.6124444 C141.532048,19.6991111 141.50484,18.7862222 141.485969,17.8728889 C141.475876,17.3871111 141.468855,16.9013333 141.457445,16.416 C141.450862,16.1502222 141.453934,15.8831111 141.425409,15.6195556 C141.374943,15.1635556 141.768583,14.8164444 142.208741,14.796 C142.452737,14.7848889 142.685762,14.8382222 142.918787,14.8937778 C142.974519,14.9066667 143.02718,14.9306667 143.082036,14.9462222 C143.163221,14.9697778 143.240457,14.9604444 143.306722,14.9017778 C143.737226,14.5186667 144.26954,14.3355556 144.789567,14.1275556 C145.651891,13.7826667 146.551515,13.6555556 147.471766,13.6395556 C147.563045,13.6382222 147.654324,13.6302222 147.745164,13.6248889 C148.713687,13.572 149.59488,13.8293333 150.404982,14.368 C151.00795,14.768 151.334448,15.3404444 151.473999,16.0373333 C151.509984,16.2182222 151.517006,16.4048889 151.546847,16.5871111 C151.592047,16.86 151.529732,17.1155556 151.441086,17.368 C151.373943,17.5591111 151.25414,17.7124444 151.090452,17.8271111 C150.929397,17.94 150.763515,17.936 150.619136,17.804 C150.535317,17.728 150.463786,17.6333333 150.405859,17.5355556 C150.330379,17.4066667 150.264552,17.2702222 150.209258,17.1311111 C149.913918,16.3933333 149.375021,15.9315556 148.63294,15.7022222 C148.089216,15.5333333 147.53847,15.4777778 146.978069,15.6204444 C146.606371,15.7146667 146.272412,15.888 145.967856,16.1182222 C145.400435,16.5471111 144.956766,17.092 144.620613,17.716 C144.469652,17.996 144.370913,18.3142222 144.299382,18.6271111 C144.075134,19.6097778 143.948308,20.6071111 143.959279,21.6182222 C143.965862,22.2311111 143.979466,22.8435556 143.98956,23.4564444 L143.994826,23.4564444" id="Fill-10" sketch:type="MSShapeGroup"></path>
                <path d="M115.567998,27.2324444 C115.297672,27.2324444 115.034806,27.2511111 114.775889,27.2266667 C114.547692,27.2048889 114.342314,27.088 114.145274,26.9697778 C113.795956,26.7604444 113.505882,26.4853333 113.275929,26.1471111 C112.967863,25.6937778 112.749759,25.2017778 112.647947,24.6586667 C112.522,23.9866667 112.461001,23.3102222 112.454418,22.6248889 C112.44257,21.2191111 112.618984,19.8346667 112.865613,18.4555556 C112.954698,17.9555556 113.010869,17.4488889 113.080645,16.9453333 C113.098199,16.8195556 113.113558,16.6933333 113.126285,16.5666667 C113.143838,16.3897778 113.241261,16.2697778 113.384762,16.1804444 C113.58619,16.0546667 113.807805,16.008 114.040391,16.0213333 C114.154051,16.0284444 114.270344,16.0408889 114.378738,16.0728889 C114.836888,16.2093333 115.231845,16.456 115.560538,16.8071111 C115.677708,16.9324444 115.709305,17.0751111 115.675075,17.2533333 C115.470136,18.32 115.267392,19.3871111 115.081762,20.4573333 C114.951426,21.2088889 114.877262,21.9684444 114.827234,22.7311111 C114.787738,23.3333333 114.797393,23.9324444 114.860586,24.5311111 C114.900081,24.8995556 114.97249,25.2617778 115.106337,25.6093333 C115.202882,25.86 115.333657,26.0866667 115.508316,26.2897778 C115.795757,26.6253333 115.808044,26.7942222 115.567998,27.2324444" id="Fill-11" sketch:type="MSShapeGroup"></path>
                <path d="M134.605376,37.76 C134.286777,37.7742222 133.99407,37.7937778 133.679859,37.7444444 C133.707067,37.56 133.726815,37.3897778 133.757973,37.2217778 C133.982221,36.008 134.174433,34.788 134.407897,33.5742222 C134.714208,33.5288889 134.996383,33.556 135.292601,33.5546667 L135.292601,33.9786667 C135.392657,33.916 135.464627,33.8666667 135.540547,33.824 C135.7095,33.7288889 135.874505,33.6231111 136.051797,33.5488889 C136.163701,33.5017778 136.295354,33.4902222 136.418668,33.4853333 C136.64511,33.4755556 136.812309,33.588 136.921142,33.7853333 C136.964587,33.8648889 136.995745,33.952 137.042701,34.0591111 C137.108088,34.0168889 137.162065,33.984 137.213849,33.9475556 C137.372709,33.836 137.526304,33.7151111 137.689992,33.612 C137.880888,33.4915556 138.09592,33.464 138.317535,33.4866667 C138.641839,33.5191111 138.848094,33.7097778 138.876619,34.0364444 C138.892417,34.2191111 138.890662,34.4088889 138.860382,34.5893333 C138.690111,35.5915556 138.50887,36.592 138.331139,37.5928889 C138.32324,37.6377778 138.309636,37.6822222 138.299542,37.7235556 C138.04677,37.7888889 137.66015,37.7911111 137.389385,37.7302222 C137.351206,37.6137778 137.392457,37.5031111 137.412205,37.3902222 C137.574576,36.4684444 137.736948,35.5471111 137.897125,34.6248889 C137.911168,34.5462222 137.917311,34.464 137.913801,34.384 C137.908535,34.272 137.813745,34.1813333 137.707984,34.1964444 C137.437658,34.236 137.211216,34.3693333 137.044456,34.5848889 C136.993111,34.6515556 136.99004,34.7595556 136.974241,34.8502222 C136.89525,35.2937778 136.819769,35.7377778 136.743411,36.1817778 C136.670563,36.6031111 136.599032,37.0244444 136.523551,37.4453333 C136.505559,37.5457778 136.473962,37.644 136.446754,37.7515556 C136.142198,37.7853333 135.84993,37.7826667 135.535719,37.7528889 C135.535719,37.6866667 135.527381,37.6302222 135.537036,37.5773333 C135.70204,36.6328889 135.869239,35.6888889 136.033804,34.7444444 C136.053552,34.6311111 136.068912,34.5155556 136.06935,34.4008889 C136.069789,34.2733333 135.966223,34.1777778 135.846419,34.1955556 C135.586625,34.2328889 135.375103,34.3675556 135.210538,34.5697778 C135.171481,34.6177778 135.167531,34.6986667 135.154805,34.7662222 C135.045095,35.38 134.935384,35.9942222 134.82699,36.6084444 C134.774768,36.9044444 134.726935,37.2008889 134.673835,37.4964444 C134.659792,37.5755556 134.6339,37.652 134.605376,37.76" id="Fill-12" sketch:type="MSShapeGroup"></path>
                <path d="M120.461518,8.29911111 C120.398764,8.64977778 120.292564,8.96177778 120.05164,9.21377778 C119.962117,9.30666667 119.863816,9.37777778 119.744451,9.42711111 C118.984817,9.74311111 118.226499,10.0631111 117.467303,10.3804444 C117.288256,10.4555556 117.106137,10.524 116.926651,10.5986667 C116.772618,10.6622222 116.612879,10.6728889 116.456213,10.6306667 C115.839641,10.4648889 115.405627,10.0844444 115.198494,9.46933333 C115.065086,9.07288889 115.152415,8.83822222 115.486373,8.59866667 C115.588624,8.52533333 115.695701,8.45688889 115.808483,8.40222222 C116.355718,8.13688889 116.927529,7.94 117.51777,7.79822222 C118.036481,7.67377778 118.561774,7.70311111 119.083995,7.75644444 C119.355199,7.784 119.625964,7.83955556 119.88883,7.91244444 C120.106495,7.97288889 120.323722,8.06088889 120.461518,8.29911111" id="Fill-13" sketch:type="MSShapeGroup"></path>
                <path d="M140.128633,37.3991111 C140.013657,38.0408889 139.909651,38.62 139.805646,39.2017778 C139.651613,39.296 139.488364,39.2475556 139.333014,39.2528889 C139.187318,39.2586667 139.037673,39.2742222 138.873108,39.2235556 C138.881446,39.1173333 138.880129,39.0155556 138.897244,38.9173333 C139.064443,37.9608889 139.235152,37.0053333 139.403667,36.0488889 C139.527859,35.3435556 139.649857,34.6373333 139.77361,33.9315556 C139.793358,33.8182222 139.818372,33.7057778 139.843825,33.58 C140.130827,33.5275556 140.410369,33.5453333 140.704832,33.5702222 C140.689472,33.7075556 140.674991,33.8306667 140.661825,33.9488889 C140.743011,33.9973333 140.773291,33.9333333 140.816736,33.9062222 C140.990518,33.7968889 141.158594,33.676 141.339835,33.5808889 C141.525904,33.4831111 141.733037,33.4644444 141.941487,33.4871111 C142.25833,33.5213333 142.469852,33.6915556 142.564203,34 C142.632662,34.2235556 142.658554,34.4564444 142.621252,34.6866667 C142.519441,35.3142222 142.414119,35.9408889 142.291243,36.5644444 C142.251309,36.7653333 142.167051,36.9617778 142.075333,37.1462222 C142.005119,37.288 141.90638,37.4235556 141.794036,37.5355556 C141.446913,37.8813333 140.952777,37.9297778 140.536317,37.6715556 C140.413002,37.5946667 140.294076,37.5097778 140.128633,37.3991111 L140.128633,37.3991111 Z M141.648341,34.7777778 C141.643514,34.7768889 141.638247,34.7764444 141.632542,34.7755556 C141.632542,34.7177778 141.636492,34.6595556 141.632104,34.6026667 C141.606651,34.2617778 141.422337,34.1293333 141.099789,34.2213333 C141.034841,34.2395556 140.97077,34.2671111 140.909771,34.2968889 C140.723702,34.3875556 140.612675,34.5235556 140.58415,34.7457778 C140.53895,35.1004444 140.463908,35.4506667 140.401592,35.8031111 C140.353759,36.0755556 140.305047,36.3484444 140.25853,36.6213333 C140.243171,36.712 140.226056,36.8026667 140.291004,36.8862222 C140.498576,37.1564444 140.980863,37.236 141.187118,36.8604444 C141.258211,36.7311111 141.31921,36.5897778 141.352123,36.4457778 C141.431114,36.0973333 141.49343,35.7448889 141.556184,35.3928889 C141.593047,35.1888889 141.618061,34.9826667 141.648341,34.7777778 L141.648341,34.7777778 Z" id="Fill-14" sketch:type="MSShapeGroup"></path>
                <path d="M100.915523,37.3253333 C100.709707,37.5084444 100.505646,37.656 100.266477,37.7453333 C100.037402,37.8311111 99.8074489,37.8706667 99.5625754,37.8008889 C99.3352556,37.736 99.1768338,37.6013333 99.0978424,37.3795556 C99.060102,37.272 99.0285054,37.1564444 99.0258724,37.0431111 C99.0206063,36.8124444 99.0140237,36.5777778 99.0478145,36.3511111 C99.1189068,35.8706667 99.2044808,35.392 99.3054144,34.9173333 C99.3554423,34.6817778 99.4344337,34.4484444 99.5314177,34.2284444 C99.5989992,34.0728889 99.7043212,33.9275556 99.8179811,33.8008889 C100.109811,33.4751111 100.678988,33.3484444 101.10247,33.6417778 C101.168296,33.6875556 101.233245,33.7351111 101.299948,33.78 C101.354804,33.8168889 101.411853,33.8515556 101.492161,33.9022222 C101.650583,33.3257778 101.680424,32.7453333 101.834457,32.1862222 C102.142963,32.1586667 102.436109,32.1671111 102.747686,32.1791111 C102.741981,32.2666667 102.743737,32.3337778 102.732765,32.3991111 C102.423821,34.1746667 102.11356,35.9497778 101.804177,37.7217778 C101.654971,37.7986667 101.515858,37.7657778 101.382451,37.7711111 C101.246849,37.7764444 101.110369,37.772 100.99627,37.772 C100.876905,37.6257778 101.028744,37.4595556 100.915523,37.3253333 L100.915523,37.3253333 Z M99.9913234,36.4742222 L99.9913234,36.6191111 C99.9965895,37.0688889 100.233564,37.2235556 100.678988,37.0408889 C100.700052,37.0324444 100.721117,37.0226667 100.740864,37.0111111 C100.904113,36.9155556 101.022162,36.8031111 101.045859,36.5862222 C101.081844,36.2542222 101.160397,35.9271111 101.217885,35.5977778 C101.273618,35.2791111 101.328473,34.9608889 101.377184,34.6413333 C101.3864,34.5773333 101.385084,34.4937778 101.352171,34.4448889 C101.183655,34.1946667 100.720678,34.028 100.461761,34.4346667 C100.389353,34.5488889 100.334059,34.6813333 100.29939,34.8128889 C100.234442,35.0577778 100.185291,35.3075556 100.140091,35.5568889 C100.081286,35.8862222 100.032575,36.2173333 99.9913234,36.4742222 L99.9913234,36.4742222 Z" id="Fill-15" sketch:type="MSShapeGroup"></path>
                <path d="M26.555608,10.6235556 C26.4393151,10.5964444 26.3243386,10.5826667 26.2194555,10.5426667 C25.689774,10.3382222 25.3044713,9.98266667 25.1381504,9.42177778 C25.02844,9.052 25.1091869,8.83955556 25.4277857,8.61866667 C25.5594381,8.52755556 25.6959178,8.43733333 25.8416131,8.37466667 C26.4625736,8.10888889 27.0958217,7.87333333 27.7659325,7.772 C28.0125614,7.73466667 28.2679671,7.73111111 28.5167901,7.748 C28.9262291,7.77511111 29.3383012,7.80888889 29.7323807,7.93511111 C29.8929967,7.98666667 30.0465911,8.06711111 30.1944807,8.15066667 C30.2901481,8.20488889 30.3357876,8.30044444 30.2936588,8.41822222 C30.2357318,8.58133333 30.1944807,8.75244444 30.1168058,8.90444444 C29.9987574,9.13511111 29.8210267,9.30266667 29.5722036,9.404 C28.7888718,9.72355556 28.0116837,10.0582222 27.2323014,10.3866667 C27.0953829,10.444 26.9575867,10.5004444 26.8180352,10.5511111 C26.7333388,10.5817778 26.644254,10.5995556 26.555608,10.6235556" id="Fill-16" sketch:type="MSShapeGroup"></path>
                <path d="M121.446717,35.8826667 C121.087745,35.9026667 120.746326,35.8906667 120.406224,35.8928889 C120.065244,35.8951111 119.723826,35.8937778 119.370558,35.8937778 C119.280157,36.152 119.231007,36.3977778 119.2411,36.6511111 C119.249438,36.8777778 119.37758,37.0071111 119.601828,37.0413333 C119.93798,37.0924444 120.18066,36.9697778 120.336887,36.6666667 C120.362779,36.6164444 120.380771,36.5613333 120.404469,36.5026667 C120.550164,36.4502222 120.69937,36.4782222 120.845065,36.4737778 C120.992516,36.4697778 121.140406,36.4733333 121.30936,36.4733333 C121.303655,36.5591111 121.313309,36.628 121.293123,36.6866667 C121.084234,37.2933333 120.671284,37.6653333 120.045058,37.7911111 C119.750156,37.8502222 119.457888,37.8595556 119.162109,37.7915556 C118.610924,37.6648889 118.291886,37.2871111 118.279599,36.7155556 C118.276088,36.544 118.29803,36.3697778 118.325238,36.1991111 C118.384921,35.8226667 118.454697,35.448 118.5214,35.0733333 C118.535443,34.9937778 118.553875,34.9151111 118.573184,34.8364444 C118.769346,34.0355556 119.411371,33.5102222 120.227616,33.4822222 C120.456691,33.4746667 120.683133,33.4848889 120.903431,33.5617778 C121.371236,33.7257778 121.656483,34.1066667 121.649901,34.608 C121.646829,34.8368889 121.601628,35.0662222 121.565204,35.2937778 C121.534046,35.4857778 121.489285,35.6755556 121.446717,35.8826667 L121.446717,35.8826667 Z M120.636616,35.0604444 C120.655047,34.9453333 120.689716,34.8222222 120.691032,34.6986667 C120.694104,34.456 120.56684,34.3088889 120.330305,34.2657778 C120.253068,34.252 120.170127,34.2506667 120.092014,34.2622222 C119.710222,34.3191111 119.513621,34.604 119.530297,35.0662222 C119.813788,35.1173333 120.340837,35.1164444 120.636616,35.0604444 L120.636616,35.0604444 Z" id="Fill-17" sketch:type="MSShapeGroup"></path>
                <path d="M145.710695,37.76 L144.811071,37.76 C144.7922,37.6435556 144.775086,37.536 144.753582,37.4013333 C144.656598,37.4586667 144.579362,37.5022222 144.503882,37.5493333 C144.266468,37.6968889 144.010624,37.7968889 143.734154,37.8217778 C143.577926,37.836 143.415994,37.8226667 143.259766,37.8 C142.960915,37.7564444 142.744128,37.5208889 142.729646,37.1693333 C142.712092,36.7568889 142.845061,36.3964444 143.121092,36.0915556 C143.292679,35.9017778 143.499374,35.7586667 143.721866,35.6368889 C144.044854,35.46 144.388027,35.3337778 144.736468,35.2226667 C144.877774,35.1773333 145.019081,35.132 145.162582,35.0857778 C145.24684,34.9364444 145.266149,34.7773333 145.260005,34.6151111 C145.253423,34.4413333 145.171798,34.3386667 145.009427,34.2826667 C144.782107,34.2044444 144.50081,34.2915556 144.332733,34.5008889 C144.269101,34.5804444 144.220829,34.672 144.159391,34.7675556 L143.286097,34.7675556 C143.292679,34.6937778 143.285658,34.6253333 143.3076,34.568 C143.555107,33.9191111 144.050558,33.5902222 144.707943,33.4977778 C144.98924,33.4577778 145.276681,33.4591111 145.557979,33.5404444 C146.045531,33.6817778 146.276801,33.9955556 146.237744,34.5168889 C146.217557,34.7928889 146.16358,35.0666667 146.116185,35.34 C145.998136,36.0231111 145.873506,36.7053333 145.75458,37.3884444 C145.734832,37.5008889 145.727371,37.616 145.710695,37.76 L145.710695,37.76 Z M145.060332,35.7248889 C144.717158,35.8066667 144.442444,35.9395556 144.187916,36.1133333 C144.076889,36.1893333 143.975078,36.2848889 143.882921,36.384 C143.796469,36.4768889 143.746441,36.5933333 143.737665,36.7257778 C143.722744,36.96 143.839037,37.0977778 144.069429,37.1115556 C144.388905,37.1302222 144.632462,36.9666667 144.858465,36.7662222 C144.882163,36.7444444 144.90586,36.712 144.912004,36.6808889 C144.972125,36.3795556 145.046728,36.08 145.060332,35.7248889 L145.060332,35.7248889 Z" id="Fill-18" sketch:type="MSShapeGroup"></path>
                <path d="M84.1991778,34.76 C84.2939675,34.352 84.4914461,34.0666667 84.7806426,33.8422222 C84.9930418,33.6773333 85.2344046,33.5755556 85.495954,33.5248889 C85.8479048,33.4568889 86.2002944,33.4497778 86.5469791,33.5537778 C86.9520297,33.6755556 87.161357,33.9337778 87.1797884,34.3577778 C87.1876875,34.5408889 87.1653066,34.728 87.1345877,34.9093333 C86.9937196,35.7297778 86.8453912,36.548 86.7010124,37.368 C86.679948,37.4906667 86.6685382,37.6151111 86.6505457,37.7537778 C86.5496122,37.7608889 86.4609662,37.7715556 86.3714426,37.772 C86.1673813,37.7728889 85.9633201,37.7684444 85.7509209,37.7662222 C85.7342449,37.6422222 85.7206408,37.5413333 85.703526,37.4133333 C85.6249734,37.4524444 85.5543199,37.4786667 85.4928821,37.5191111 C85.2396707,37.6871111 84.9636394,37.7968889 84.6643496,37.8235556 C84.5076832,37.8377778 84.3431177,37.8288889 84.1904009,37.7955556 C83.858198,37.7231111 83.6844168,37.5031111 83.6725681,37.1555556 C83.6585252,36.7431111 83.7950049,36.3835556 84.0736691,36.0813333 C84.2470115,35.8933333 84.4537058,35.7506667 84.6775149,35.6302222 C85.0114731,35.4502222 85.3643016,35.3195556 85.7259069,35.2093333 C85.8562428,35.1697778 85.9843845,35.1231111 86.1182311,35.0782222 C86.1853738,34.9217778 86.2117043,34.7648889 86.2033663,34.6013333 C86.1945895,34.4462222 86.1142815,34.3444444 85.9716581,34.2897778 C85.7474101,34.2035556 85.4626021,34.2804444 85.2896986,34.4853333 C85.2234335,34.5635556 85.1755998,34.6568889 85.1080182,34.7608889 C84.8280374,34.7937778 84.5357691,34.7888889 84.1991778,34.76 L84.1991778,34.76 Z M85.9927225,35.7604444 C85.9584928,35.7524444 85.9352342,35.7386667 85.9176806,35.744 C85.5780174,35.8466667 85.2598574,35.9946667 84.9825096,36.2213333 C84.8302317,36.3466667 84.7069172,36.4955556 84.6836586,36.7044444 C84.6555728,36.9551111 84.7788872,37.0995556 85.0255161,37.112 C85.3054969,37.1266667 85.5257952,36.9897778 85.7360002,36.8271111 C85.8110421,36.7693333 85.8593147,36.7 85.8746741,36.6013333 C85.9119756,36.3631111 85.9589317,36.1266667 85.9984274,35.8893333 C86.00501,35.8466667 85.9949167,35.8008889 85.9927225,35.7604444 L85.9927225,35.7604444 Z" id="Fill-19" sketch:type="MSShapeGroup"></path>
                <path d="M132.173317,33.4888889 C132.39186,33.4733333 132.60777,33.4946667 132.814025,33.5697778 C133.193184,33.7075556 133.422259,33.9795556 133.453417,34.3871111 C133.471409,34.6266667 133.456489,34.8724444 133.425331,35.1111111 C133.377497,35.4768889 133.310794,35.8408889 133.234874,36.2017778 C133.187918,36.4266667 133.128674,36.6528889 133.040028,36.8631111 C132.816658,37.3911111 132.41073,37.6937778 131.852085,37.7968889 C131.544457,37.8533333 131.240779,37.8546667 130.935345,37.788 C130.442965,37.6804444 130.159035,37.3666667 130.115589,36.8577778 C130.101985,36.6977778 130.107251,36.5328889 130.132265,36.3746667 C130.205991,35.9075556 130.288932,35.4413333 130.378017,34.9768889 C130.407858,34.8195556 130.455253,34.6626667 130.514935,34.5137778 C130.76683,33.8848889 131.244289,33.5604444 131.900357,33.4902222 C131.990759,33.4804444 132.082915,33.4888889 132.173317,33.4888889 L132.173317,33.4888889 Z M132.51298,34.8453333 C132.530095,34.5128889 132.407658,34.3622222 132.132066,34.3222222 C131.735792,34.264 131.429919,34.4684444 131.351806,34.8666667 C131.263599,35.3191111 131.192945,35.7755556 131.114831,36.2302222 C131.095522,36.3435556 131.069631,36.4568889 131.060854,36.5711111 C131.048127,36.7373333 131.12273,36.8635556 131.27062,36.936 C131.670843,37.132 132.139526,36.9044444 132.227294,36.464 C132.305408,36.0684444 132.368162,35.6693333 132.437938,35.2715556 C132.466024,35.1128889 132.493671,34.9537778 132.51298,34.8453333 L132.51298,34.8453333 Z" id="Fill-20" sketch:type="MSShapeGroup"></path>
                <path d="M97.3609082,33.4871111 C97.5794512,33.4728889 97.7949223,33.4942222 98.0011778,33.5688889 C98.3246039,33.6853333 98.5383196,33.904 98.623016,34.2484444 C98.6769935,34.4653333 98.6853315,34.6831111 98.6497853,34.9008889 C98.5685997,35.3906667 98.4913636,35.8813333 98.3904301,36.3666667 C98.346546,36.5786667 98.2679933,36.7888889 98.1723259,36.9831111 C97.967387,37.3995556 97.6237742,37.6573333 97.1809833,37.7688889 C96.8342986,37.856 96.4827866,37.8684444 96.1299582,37.7897778 C95.6204633,37.6768889 95.3461875,37.3573333 95.3084471,36.8266667 C95.2843108,36.488 95.3575974,36.1604444 95.4106972,35.8302222 C95.4488764,35.5911111 95.4888109,35.352 95.5392777,35.1151111 C95.5800899,34.924 95.6217799,34.7297778 95.6911168,34.548 C95.9430118,33.8888889 96.4340752,33.5488889 97.1221785,33.488 C97.2007311,33.4808889 97.2814779,33.4871111 97.3609082,33.4871111 L97.3609082,33.4871111 Z M96.7201998,36.9942222 C97.0308995,36.9831111 97.3372108,36.9017778 97.4249791,36.4466667 C97.4293675,36.4244444 97.4341947,36.4017778 97.4385832,36.3791111 C97.5127473,35.9471111 97.5869115,35.5151111 97.6615146,35.0831111 C97.6790682,34.9808889 97.7058375,34.88 97.7141755,34.7768889 C97.7326069,34.5604444 97.640889,34.424 97.4407774,34.3524444 C97.0431871,34.2097778 96.6306762,34.4315556 96.5499294,34.8471111 C96.4503124,35.3564444 96.3660548,35.8684444 96.2778477,36.38 C96.2638048,36.4591111 96.2563445,36.5408889 96.2589775,36.6208889 C96.2638048,36.7871111 96.3528896,36.9048889 96.5086783,36.9537778 C96.5845978,36.9773333 96.6649058,36.984 96.7201998,36.9942222 L96.7201998,36.9942222 Z" id="Fill-21" sketch:type="MSShapeGroup"></path>
                <path d="M93.682101,33.4568889 C93.8830903,33.4924444 94.0897846,33.5088889 94.2837525,33.568 C94.6247323,33.6728889 94.8410811,33.9088889 94.9244609,34.2684444 C94.9722946,34.4751111 94.9810715,34.6817778 94.9472807,34.8875556 C94.866095,35.3888889 94.7844705,35.8902222 94.6830982,36.3875556 C94.6418471,36.588 94.5654887,36.7866667 94.4755262,36.9711111 C94.271465,37.388 93.9326794,37.6506667 93.4898885,37.7648889 C93.1322328,37.8577778 92.7697498,37.8702222 92.4055114,37.7862222 C91.9153256,37.6724444 91.6449993,37.3542222 91.6055036,36.8404444 C91.579612,36.5017778 91.6502654,36.1737778 91.7046818,35.844 C91.7459329,35.5933333 91.7854286,35.3426667 91.8385284,35.0942222 C91.8793406,34.9031111 91.9241025,34.7097778 91.9951948,34.5288889 C92.2470897,33.8853333 92.7324483,33.5533333 93.4043144,33.4888889 C93.4947157,33.4804444 93.5864336,33.488 93.6777126,33.488 C93.6790291,33.4773333 93.6807845,33.4671111 93.682101,33.4568889 L93.682101,33.4568889 Z M93.0273497,36.9942222 C93.3345386,36.9808889 93.6360227,36.8977778 93.7220356,36.4404444 C93.726424,36.4177778 93.7316901,36.3951111 93.7356396,36.3724444 C93.8102427,35.9404444 93.8844069,35.5088889 93.9585711,35.0768889 C93.9761247,34.9746667 94.0024552,34.8728889 94.0107932,34.7702222 C94.0274692,34.5568889 93.9309241,34.4186667 93.7312512,34.3497778 C93.3301502,34.2111111 92.9272938,34.4346667 92.8443528,34.8533333 C92.766239,35.2493333 92.7021682,35.648 92.6341478,36.0457778 C92.6047454,36.216 92.5678827,36.3866667 92.5564729,36.5586667 C92.5406746,36.796 92.647313,36.9231111 92.8777048,36.972 C92.9329988,36.984 92.9896093,36.9888889 93.0273497,36.9942222 L93.0273497,36.9942222 Z" id="Fill-22" sketch:type="MSShapeGroup"></path>
                <path d="M149.757252,39.2453333 C149.809913,38.944 149.853797,38.6964444 149.898997,38.4373333 C150.008269,38.4302222 150.097354,38.4213333 150.186,38.4191111 C150.427801,38.4124444 150.624841,38.3066667 150.797745,38.1444444 C150.930275,38.0208889 151.006633,37.8693333 151.00795,37.6857778 C151.008827,37.5355556 151.010583,37.3844444 150.994345,37.2355556 C150.874542,36.1204444 150.749033,35.0057778 150.627913,33.8906667 C150.617381,33.7906667 150.626596,33.6884444 150.626596,33.5644444 C150.930714,33.536 151.223421,33.5528889 151.534998,33.556 C151.619694,34.0013333 151.617061,34.4382222 151.642514,34.8724444 C151.667528,35.3106667 151.698247,35.748 151.725894,36.1813333 C151.81454,36.2173333 151.832533,36.1586667 151.853597,36.1053333 C152.078284,35.5368889 152.30297,34.9675556 152.527657,34.3991111 C152.612792,34.184 152.696172,33.9688889 152.782624,33.7551111 C152.808077,33.692 152.84099,33.6324444 152.874781,33.5635556 L153.788449,33.5635556 C153.770895,33.6377778 153.766068,33.7044444 153.740615,33.7622222 C153.127115,35.1564444 152.514931,36.5511111 151.892654,37.9413333 C151.789965,38.1715556 151.654802,38.3897778 151.511301,38.5973333 C151.22386,39.0124444 150.816615,39.2217778 150.31853,39.2462222 C150.149576,39.2546667 149.980183,39.2462222 149.757252,39.2453333" id="Fill-23" sketch:type="MSShapeGroup"></path>
                <path d="M111.467903,33.5662222 C111.757538,33.5391111 112.039713,33.5488889 112.335492,33.5568889 L112.335492,33.9782222 C112.44608,33.9106667 112.529021,33.8533333 112.617229,33.8066667 C112.798909,33.7111111 112.979273,33.612 113.167974,33.5315556 C113.351849,33.4528889 113.551522,33.4644444 113.741979,33.5017778 C113.986852,33.5497778 114.14703,33.6982222 114.201446,33.956 C114.235676,34.1182222 114.233481,34.2764444 114.205395,34.4377778 C114.095246,35.0755556 113.987291,35.7137778 113.877142,36.3515556 C113.818337,36.6933333 113.758216,37.0346667 113.69634,37.3755556 C113.673959,37.4991111 113.645873,37.6213333 113.619103,37.7502222 C113.305332,37.7862222 113.012625,37.7813333 112.698414,37.7542222 C112.698414,37.6875556 112.690076,37.6315556 112.699292,37.5791111 C112.862102,36.6453333 113.027545,35.7124444 113.189917,34.7786667 C113.20747,34.6768889 113.224585,34.5724444 113.220197,34.4697778 C113.212736,34.284 113.07494,34.1657778 112.898526,34.1964444 C112.641365,34.2413333 112.43862,34.3955556 112.255623,34.572 C112.212617,34.6133333 112.203401,34.6973333 112.191552,34.764 C112.075698,35.4124444 111.962038,36.0613333 111.848378,36.7102222 C111.798789,36.9946667 111.752272,37.28 111.699611,37.564 C111.687324,37.6297778 111.655727,37.692 111.629397,37.7648889 C111.329229,37.7662222 111.036083,37.8017778 110.738987,37.744 C110.738987,37.6831111 110.731966,37.6368889 110.739865,37.5933333 C110.965868,36.2955556 111.193188,34.9977778 111.421386,33.7004444 C111.429285,33.6573333 111.450349,33.6164444 111.467903,33.5662222" id="Fill-24" sketch:type="MSShapeGroup"></path>
                <path d="M115.33234,37.772 C115.077812,37.772 114.827673,37.7733333 114.577533,37.7706667 C114.534527,37.7702222 114.491959,37.7533333 114.451147,37.7448889 C114.452902,37.4293333 115.072546,33.8795556 115.180062,33.5675556 C115.457849,33.5346667 115.739585,33.5524444 116.037119,33.5555556 L116.037119,33.972 C116.127521,33.9208889 116.194225,33.884 116.26049,33.8457778 C116.409257,33.7604444 116.554513,33.668 116.706352,33.5902222 C116.916558,33.4822222 117.144316,33.4626667 117.375147,33.4897778 C117.680141,33.5253333 117.856995,33.6808889 117.907022,33.9871111 C117.93072,34.132 117.928965,34.2875556 117.906584,34.4333333 C117.804772,35.0724444 117.692429,35.7097778 117.581841,36.3475556 C117.523475,36.6893333 117.462476,37.0306667 117.4006,37.3715556 C117.378219,37.4955556 117.350133,37.6186667 117.323802,37.7484444 C117.013541,37.788 116.720395,37.7786667 116.401358,37.7568889 C116.401358,37.6902222 116.393459,37.6351111 116.402674,37.5831111 C116.565046,36.6493333 116.73005,35.716 116.892421,34.7826667 C116.910414,34.6808889 116.928406,34.5764444 116.924895,34.4737778 C116.916996,34.2755556 116.762963,34.1555556 116.572506,34.2008889 C116.332898,34.2577778 116.134981,34.3977778 115.962078,34.5688889 C115.919071,34.6111111 115.9081,34.6933333 115.896251,34.76 C115.779958,35.4084444 115.666298,36.0573333 115.553077,36.7062222 C115.503049,36.9906667 115.456532,37.276 115.40431,37.56 C115.391584,37.6262222 115.361304,37.6884444 115.33234,37.772" id="Fill-25" sketch:type="MSShapeGroup"></path>
                <path d="M149.425488,37.7626667 C149.108644,37.768 148.815937,37.8022222 148.50787,37.74 C148.52674,37.5991111 148.539467,37.4737778 148.560531,37.3506667 C148.705788,36.5195556 148.854116,35.6884444 148.998495,34.8573333 C149.020437,34.7324444 149.037991,34.6048889 149.037113,34.4786667 C149.035358,34.2915556 148.900194,34.1671111 148.726413,34.1955556 C148.468375,34.2377778 148.264313,34.3902222 148.082633,34.568 C148.032166,34.6173333 148.01944,34.7142222 148.005836,34.7924444 C147.884277,35.4755556 147.767984,36.1591111 147.647741,36.8426667 C147.596397,37.1377778 147.541103,37.432 147.489319,37.7182222 C147.242252,37.7866667 146.976753,37.7933333 146.581795,37.7431111 C146.529135,37.6253333 146.571702,37.5022222 146.592328,37.3817778 C146.673513,36.9031111 146.759526,36.4253333 146.842906,35.9466667 C146.96271,35.2635556 147.080758,34.58 147.201878,33.8973333 C147.219432,33.7951111 147.246201,33.6951111 147.272971,33.5782222 C147.566556,33.5297778 147.858824,33.5462222 148.169085,33.5666667 C148.159869,33.7004444 148.15197,33.8222222 148.140999,33.9782222 C148.236666,33.9253333 148.30337,33.8897778 148.369635,33.8515556 C148.518402,33.7657778 148.66322,33.6728889 148.815059,33.5937778 C149.024825,33.4853333 149.251706,33.4635556 149.482976,33.4888889 C149.809913,33.5244444 150.006075,33.7142222 150.038988,34.0448889 C150.053031,34.1813333 150.050398,34.3244444 150.027139,34.4595556 C149.851164,35.4968889 149.668167,36.5328889 149.485609,37.5688889 C149.475516,37.6248889 149.451818,37.6782222 149.425488,37.7626667" id="Fill-26" sketch:type="MSShapeGroup"></path>
                <path d="M109.695862,33.5653333 C109.999101,33.5395556 110.291369,33.5448889 110.607335,33.5617778 C110.607335,33.644 110.61699,33.7111111 110.606019,33.7737778 C110.380893,35.0604444 110.153573,36.3466667 109.925814,37.6324444 C109.920109,37.6657778 109.904311,37.6968889 109.888513,37.7426667 C109.600194,37.8031111 109.309681,37.7622222 108.99591,37.7666667 C109.01083,37.6102222 109.022679,37.4888889 109.034966,37.356 C108.890588,37.3626667 108.814668,37.4577778 108.722073,37.5164444 C108.517134,37.6453333 108.31,37.7617778 108.069954,37.8133333 C107.909777,37.8475556 107.75355,37.8457778 107.596006,37.8048889 C107.312953,37.7315556 107.161991,37.5706667 107.134783,37.2755556 C107.121179,37.1275556 107.124251,36.9733333 107.149265,36.8266667 C107.325679,35.7897778 107.509115,34.7537778 107.691673,33.7182222 C107.699572,33.6737778 107.721075,33.6315556 107.734679,33.5933333 C108.006322,33.5346667 108.377582,33.5337778 108.668095,33.5928889 C108.621578,33.8755556 108.576816,34.1595556 108.527227,34.4426667 C108.40479,35.1373333 108.277965,35.8306667 108.159039,36.5257778 C108.137975,36.6493333 108.135342,36.7791111 108.144118,36.9048889 C108.152018,37.0208889 108.234081,37.1004444 108.347741,37.1017778 C108.446919,37.1026667 108.550924,37.0844444 108.645275,37.0524444 C108.730411,37.0235556 108.802819,36.96 108.883566,36.9177778 C109.073584,36.8177778 109.148188,36.6568889 109.183295,36.4462222 C109.332501,35.5457778 109.49575,34.6475556 109.65461,33.748 C109.664265,33.6933333 109.679186,33.6391111 109.695862,33.5653333" id="Fill-27" sketch:type="MSShapeGroup"></path>
                <path d="M129.715805,34.9884444 C129.400278,35.0111111 129.118103,35.0044444 128.814425,34.9924444 C128.814425,34.8911111 128.817497,34.8137778 128.813986,34.7364444 C128.804331,34.5008889 128.700765,34.3795556 128.472129,34.3293333 C128.072344,34.2417778 127.731364,34.4524444 127.650617,34.8591111 C127.561972,35.3008889 127.493073,35.7466667 127.416276,36.1911111 C127.396528,36.3048889 127.368881,36.4177778 127.359227,36.5328889 C127.337724,36.7773333 127.453578,36.9213333 127.694502,36.9751111 C127.844585,37.0084444 127.992036,36.9942222 128.134221,36.9475556 C128.306247,36.8915556 128.430439,36.7733333 128.490121,36.5977778 C128.523034,36.5004444 128.541904,36.3986667 128.571307,36.2795556 C128.872791,36.2124444 129.173836,36.24 129.474442,36.2604444 C129.469615,36.8306667 129.124247,37.3977778 128.624406,37.6395556 C128.129393,37.8782222 127.610683,37.9053333 127.088023,37.7471111 C126.729928,37.6386667 126.513141,37.3871111 126.434149,37.0137778 C126.391143,36.8066667 126.389826,36.5986667 126.423617,36.3924444 C126.502608,35.9133333 126.586866,35.4351111 126.676828,34.9577778 C126.702281,34.8226667 126.746165,34.6893333 126.793999,34.56 C127.012103,33.9653333 127.437341,33.6133333 128.049963,33.5106667 C128.377339,33.4555556 128.709981,33.4515556 129.035162,33.5497778 C129.481464,33.6844444 129.722826,33.9835556 129.755301,34.4533333 C129.767149,34.624 129.776365,34.7968889 129.715805,34.9884444" id="Fill-28" sketch:type="MSShapeGroup"></path>
                <path d="M91.0047298,34.5564444 C90.816028,35.6208889 90.6290816,36.6782222 90.4390632,37.7506667 C90.1292412,37.7888889 89.8360952,37.7724444 89.5196906,37.7657778 C89.5196906,37.6724444 89.5091584,37.5951111 89.5214459,37.5222222 C89.6811842,36.6 89.8444332,35.6777778 90.005488,34.7555556 C90.0168978,34.6911111 90.0186532,34.6244444 90.0269912,34.5413333 C89.897533,34.5288889 89.7865061,34.5182222 89.6522207,34.5048889 C89.6149191,34.2493333 89.7018097,34.0155556 89.7584203,33.7693333 C89.8935834,33.7542222 90.016459,33.7413333 90.143723,33.7275556 C90.2249087,33.616 90.2231533,33.4857778 90.2529945,33.3648889 C90.3034613,33.164 90.3495396,32.9591111 90.4267757,32.768 C90.5663272,32.424 90.8252437,32.2155556 91.1907985,32.1413333 C91.4628802,32.0862222 91.728818,32.0866667 92.0149426,32.1533333 C91.9925617,32.4266667 91.9583321,32.6724444 91.878463,32.9191111 C91.764803,32.9302222 91.6629918,32.9342222 91.5633748,32.9511111 C91.4040754,32.9782222 91.2912932,33.0688889 91.2452148,33.2297778 C91.2008919,33.384 91.1671011,33.54 91.1824605,33.7248889 C91.3465872,33.7377778 91.5019371,33.7502222 91.679229,33.7644444 C91.7121421,34.0191111 91.6217407,34.2448889 91.5892665,34.4804444 C91.4075862,34.564 91.2166902,34.484 91.0047298,34.5564444" id="Fill-29" sketch:type="MSShapeGroup"></path>
                <path d="M122.572784,33.5622222 L123.482502,33.5622222 C123.47197,33.712 123.462754,33.8515556 123.451344,34.0133333 C123.645312,33.8653333 123.813827,33.7328889 123.98717,33.6071111 C124.03237,33.5746667 124.091175,33.56 124.144714,33.5417778 C124.198252,33.5231111 124.253108,33.5053333 124.309279,33.4955556 C124.353163,33.488 124.400119,33.4893333 124.444881,33.4933333 C124.464629,33.4951111 124.483499,33.5124444 124.520362,33.5324444 C124.480427,33.8408889 124.440054,34.1551111 124.345703,34.4777778 C124.255302,34.4631111 124.177627,34.4528889 124.101268,34.4377778 C123.615471,34.3448889 123.378058,34.5075556 123.280196,35.0093333 C123.21437,35.3488889 123.157321,35.6906667 123.096761,36.0315556 C123.00592,36.5435556 122.916397,37.0551111 122.825118,37.5666667 C122.815024,37.6217778 122.798348,37.676 122.781672,37.7444444 C122.482821,37.8013333 122.191431,37.7626667 121.914522,37.7675556 C121.831142,37.6462222 121.870638,37.5422222 121.887753,37.4444444 C122.054073,36.4893333 122.224783,35.5346667 122.393737,34.5795556 C122.452103,34.2506667 122.509591,33.9213333 122.572784,33.5622222" id="Fill-30" sketch:type="MSShapeGroup"></path>
                <path d="M105.335095,33.5622222 L106.216288,33.5622222 C106.203123,33.7115556 106.190835,33.8453333 106.178548,33.9817778 C106.267194,34.0275556 106.297035,33.944 106.335653,33.9026667 C106.503729,33.7222222 106.697697,33.5831111 106.937305,33.5213333 C107.023756,33.4991111 107.114597,33.4937778 107.214214,33.4795556 C107.29496,33.6693333 107.194905,33.832 107.179984,33.9973333 C107.165941,34.1564444 107.138294,34.3155556 107.074662,34.4777778 C106.965391,34.4582222 106.865774,34.4404444 106.765279,34.4226667 C106.371199,34.3528889 106.097362,34.5395556 106.021004,34.9422222 C105.945523,35.3395556 105.880575,35.7391111 105.81036,36.1377778 C105.723908,36.6271111 105.636579,37.1164444 105.548372,37.6053333 C105.540034,37.6497778 105.523797,37.6928889 105.507998,37.748 C105.21178,37.7911111 104.919073,37.7764444 104.606179,37.7595556 C104.601791,37.692 104.588187,37.6364444 104.597402,37.5844444 C104.8256,36.2751111 105.057308,34.9662222 105.288578,33.6568889 C105.292527,33.636 105.307887,33.6168889 105.335095,33.5622222" id="Fill-31" sketch:type="MSShapeGroup"></path>
            </g>
        </g>
    </g>
</svg>