<?xml version="1.0" encoding="UTF-8" standalone="no"?>
<svg width="277px" height="275px" viewBox="0 0 277 275" version="1.1" xmlns="http://www.w3.org/2000/svg" xmlns:xlink="http://www.w3.org/1999/xlink" xmlns:sketch="http://www.bohemiancoding.com/sketch/ns">
    <!-- Generator: Sketch 3.1.1 (8761) - http://www.bohemiancoding.com/sketch -->
    <title>Rectangle 131 + Group 2</title>
    <desc>Created with Sketch.</desc>
    <defs></defs>
    <g id="Page-1" stroke="none" stroke-width="1" fill="none" fill-rule="evenodd" sketch:type="MSPage">
        <g id="Desktop-Portfolio_Detail_Pickers-2" sketch:type="MSArtboardGroup" transform="translate(-45.000000, -1093.000000)">
            <g id="Rectangle-131-+-Group-2" sketch:type="MSLayerGroup" transform="translate(46.000000, 1093.000000)">
                <rect id="Rectangle-131" fill="#16AACE" sketch:type="MSShapeGroup" x="0" y="0" width="275" height="275"></rect>
                <g id="Group-2" transform="translate(0.000000, 63.000000)" stroke="#ECF0F1" stroke-linecap="square" sketch:type="MSShapeGroup">
                    <path d="M0.166666667,114.5 L274.853556,114.5" id="Line"></path>
                    <path d="M0.166666667,94.5 L274.853556,94.5" id="Line-4"></path>
                    <path d="M0.166666667,48.5 L274.853556,48.5" id="Line-5"></path>
                    <path d="M0.166666667,27.5 L274.853556,27.5" id="Line-6"></path>
                    <path d="M69.4545455,0.458756826 L205.637754,137.903705" id="Line"></path>
                </g>
                <g id="Many-offers-4" transform="translate(137.500000, 128.000000) rotate(-48.000000) translate(-137.500000, -128.000000) translate(102.000000, 83.000000)" stroke="#FFFFFF" stroke-width="2" sketch:type="MSShapeGroup">
                    <path d="M49.0120032,77.3671774 C48.0206028,82.0313495 47.382285,85.0343986 47.382285,85.0343986 C46.9226667,87.1967331 44.7960428,88.576821 42.6416762,88.1188962 L1.17486444,79.3048533 C-0.983683136,78.8460399 -2.36046701,76.7189667 -1.90101714,74.5574251 L8.82803854,24.0811866 C8.87557411,23.8575494 8.94035222,23.6233061 9.02179662,23.3796691 L9.02179662,21.759096 C9.02179662,17.0808366 15.1600058,6.55805424 24.7669932,1.37606261 L43.6612291,1.37606261 C52.8033873,5.97219181 59.4064257,16.1573335 59.4064257,20.3738413 C59.4064257,37.2555349 59.4064257,73.3644555 59.4064257,73.3644555 C59.4064257,75.5750978 57.6132101,77.3671774 55.4107137,77.3671774 L49.0120032,77.3671774 Z" id="Label2"></path>
                    <path d="M59.4064257,20.3738413 C59.4064257,37.2555349 59.4064257,73.3644555 59.4064257,73.3644555 C59.4064257,75.5750978 57.6132101,77.3671774 55.4107137,77.3671774 L13.0175087,77.3671774 C10.8107378,77.3671774 9.02179662,75.5728354 9.02179662,73.3630036 L9.02179662,21.759096 C9.02179662,17.0808366 15.1600058,6.55805424 24.7669932,1.37606261 L43.6612291,1.37606261 C52.8033873,5.97219181 59.4064257,16.1573335 59.4064257,20.3738413 Z" id="Label1"></path>
                    <path d="M34.1795969,28.3413538 C38.55134,28.3413538 42.095338,24.8166715 42.095338,20.4687556 C42.095338,16.1208396 38.55134,12.5961573 34.1795969,12.5961573 C29.8078538,12.5961573 26.2638558,16.1208396 26.2638558,20.4687556 C26.2638558,24.8166715 29.8078538,28.3413538 34.1795969,28.3413538 Z" id="Oval-26"></path>
                </g>
            </g>
        </g>
    </g>
</svg>