<?xml version="1.0" encoding="UTF-8" standalone="no"?>
<svg width="82px" height="82px" viewBox="0 0 82 82" version="1.1" xmlns="http://www.w3.org/2000/svg" xmlns:xlink="http://www.w3.org/1999/xlink" xmlns:sketch="http://www.bohemiancoding.com/sketch/ns">
    <!-- Generator: Sketch 3.1.1 (8761) - http://www.bohemiancoding.com/sketch -->
    <title>linkedin L</title>
    <desc>Created with Sketch.</desc>
    <defs></defs>
    <g id="Page-1" stroke="none" stroke-width="1" fill="none" fill-rule="evenodd" sketch:type="MSPage">
        <g id="Desktop-HD" sketch:type="MSArtboardGroup" transform="translate(-566.000000, -3749.000000)">
            <rect id="Rectangle-19" fill="#1ABC9C" sketch:type="MSShapeGroup" x="0" y="3552" width="1440" height="488"></rect>
            <g id="linkedin-L-+-email-L-+-twitter-L" sketch:type="MSLayerGroup" transform="translate(566.000000, 3749.000000)" fill="#F6F4F4">
                <path d="M40.9574468,82 C63.5776212,82 81.9148936,63.6436759 81.9148936,41 C81.9148936,18.3563241 63.5776212,0 40.9574468,0 C18.3372724,0 0,18.3563241 0,41 C0,63.6436759 18.3372724,82 40.9574468,82 Z M40.9574468,78.72 C61.7680072,78.72 78.6382979,61.8321818 78.6382979,41 C78.6382979,20.1678182 61.7680072,3.28 40.9574468,3.28 C20.1468864,3.28 3.27659574,20.1678182 3.27659574,41 C3.27659574,61.8321818 20.1468864,78.72 40.9574468,78.72 Z M29.2546007,60.68 L29.2546007,29.8353846 L19.9797296,29.8353846 L19.9797296,60.68 L29.2546007,60.68 Z M24.6171651,16.4 C21.6272396,16.4 19.6746352,18.4815385 19.7356541,21.2569231 C19.6746352,23.9061538 21.6272396,26.0507692 24.5561463,26.0507692 C27.6070907,26.0507692 29.5596951,23.9061538 29.5596951,21.2569231 C29.4986762,18.4815385 27.6070907,16.4 24.6171651,16.4 Z M36.698905,60.68 L45.9737761,60.68 L45.9737761,42.8923077 C45.9737761,42.0092308 46.0958139,41.0630769 46.3398894,40.4953846 C46.9500783,38.7292308 48.4755505,36.9 51.0383438,36.9 C54.3943827,36.9 55.7367982,39.6123077 55.7367982,43.5861538 L55.7367982,60.68 L65.0116693,60.68 L65.0116693,42.3876923 C65.0116693,33.3046154 60.4352526,29.1415385 54.3333638,29.1415385 C49.3908338,29.1415385 46.3398894,32.1061538 45.1195116,34.0615385 L44.936455,34.0615385 L44.5093228,29.8353846 L36.4548295,29.8353846 C36.5768673,32.5476923 36.698905,35.8276923 36.698905,39.6753846 L36.698905,60.68 Z" id="linkedin-L" sketch:type="MSShapeGroup"></path>
            </g>
        </g>
    </g>
</svg>