<?xml version="1.0" encoding="UTF-8" standalone="no"?>
<svg width="269px" height="40px" viewBox="0 0 269 40" version="1.1" xmlns="http://www.w3.org/2000/svg" xmlns:xlink="http://www.w3.org/1999/xlink" xmlns:sketch="http://www.bohemiancoding.com/sketch/ns">
    <!-- Generator: Sketch 3.2.1 (9971) - http://www.bohemiancoding.com/sketch -->
    <title>payorshare_logo</title>
    <desc>Created with Sketch.</desc>
    <defs></defs>
    <g id="Page-1" stroke="none" stroke-width="1" fill="none" fill-rule="evenodd" sketch:type="MSPage">
        <g id="Desktop-HD" sketch:type="MSArtboardGroup" transform="translate(-1039.000000, -3359.000000)" fill="#F6F4F4">
            <g id="payorshare_logo" sketch:type="MSLayerGroup" transform="translate(1039.000000, 3359.000000)">
                <path d="M54.7659055,28.7463158 L57.932315,28.7463158 L57.932315,8.96105263 L54.7659055,8.96105263 L54.7659055,6.19684211 L66.6096063,6.19684211 C68.1574646,6.19684211 69.7042677,6.30105263 70.9651339,6.87684211 C73.5934331,7.99157895 75.281622,10.6852632 75.281622,14.0589474 C75.281622,17.6115789 73.4119528,20.4894737 70.4956063,21.4957895 C69.3085984,21.9242105 68.0846614,22.0336842 66.6813543,22.0336842 L61.532378,22.0336842 L61.532378,28.7463158 L64.7367717,28.7463158 L64.7367717,31.5494737 L54.7659055,31.5494737 L54.7659055,28.7463158 L54.7659055,28.7463158 Z M66.2477008,19.0863158 C67.402,19.0863158 68.2999055,18.9084211 69.0922992,18.5821053 C70.7129606,17.8684211 71.6488504,16.2494737 71.6488504,14.0589474 C71.6488504,12.0147368 70.8205827,10.5063158 69.3814016,9.74947368 C68.5879528,9.32210526 67.509622,9.14 66.2835748,9.14 L61.532378,9.14 L61.532378,19.0863158 L66.2477008,19.0863158 L66.2477008,19.0863158 Z" id="Fill-1" sketch:type="MSShapeGroup"></path>
                <path d="M88.8208976,20.3821053 L89.9720315,20.3821053 L89.9720315,19.6957895 C89.9720315,16.8242105 88.3176063,15.8178947 86.0849764,15.8178947 C83.2045039,15.8178947 80.8663622,17.5789474 80.8663622,17.5789474 L79.4630551,15.1010526 C79.4630551,15.1010526 82.124063,12.9463158 86.3730236,12.9463158 C91.0176535,12.9463158 93.4623622,15.3515789 93.4623622,19.9494737 L93.4623622,28.0652632 C93.4623622,28.6031579 93.7504094,28.8505263 94.2568661,28.8505263 L96.0896063,28.8505263 L96.0896063,31.5494737 L92.4557795,31.5494737 C90.8351181,31.5494737 90.1893858,30.7578947 90.1893858,29.5726316 L90.1893858,29.3221053 C90.1893858,28.6031579 90.3318268,28.1357895 90.3318268,28.1357895 L90.2590236,28.1357895 C90.2590236,28.1357895 88.6774016,31.9768421 84.2490709,31.9768421 C81.2240472,31.9768421 78.202189,30.22 78.202189,26.4842105 C78.202189,20.7757895 85.795874,20.3821053 88.8208976,20.3821053 L88.8208976,20.3821053 Z M85.0055906,29.2831579 C88.1013071,29.2831579 90.0079055,26.1242105 90.0079055,23.3968421 L90.0079055,22.6442105 L89.1068346,22.6442105 C87.4524094,22.6442105 81.7294488,22.7157895 81.7294488,26.1968421 C81.7294488,27.8094737 82.9185669,29.2831579 85.0055906,29.2831579 L85.0055906,29.2831579 Z" id="Fill-2" sketch:type="MSShapeGroup"></path>
                <path d="M102.282094,36.1789474 C103.832063,36.1789474 105.019071,35.1021053 105.629984,33.6663158 L106.387559,31.8705263 L100.016756,16.0715789 L97.7134331,16.0715789 L97.7134331,13.3789474 L106.025654,13.3789474 L106.025654,16.0715789 L103.615764,16.0715789 L107.682189,26.8778947 C107.935417,27.6715789 108.00611,28.4589474 108.00611,28.4589474 L108.114787,28.4589474 C108.114787,28.4589474 108.259339,27.6715789 108.545276,26.8778947 L112.575827,16.0715789 L110.237685,16.0715789 L110.237685,13.3789474 L118.300898,13.3789474 L118.300898,16.0715789 L116.032394,16.0715789 L108.834378,34.4210526 C107.610441,37.5073684 105.23748,39.0873684 102.426646,39.0873684 C100.088504,39.0873684 98.5047717,37.94 98.5047717,37.94 L99.6938898,35.3189474 C99.6938898,35.3189474 100.736346,36.1789474 102.282094,36.1789474" id="Fill-3" sketch:type="MSShapeGroup"></path>
                <path d="M134.320756,5.76421053 C141.662268,5.76421053 147.384173,11.4052632 147.384173,18.6926316 C147.384173,26.1589474 141.662268,31.9768421 134.320756,31.9768421 C126.94126,31.9768421 121.252063,26.1589474 121.252063,18.6926316 C121.252063,11.4052632 126.94126,5.76421053 134.320756,5.76421053 L134.320756,5.76421053 Z M134.320756,28.7852632 C139.467622,28.7852632 143.644835,24.4010526 143.644835,18.6926316 C143.644835,13.1621053 139.467622,8.92315789 134.320756,8.92315789 C129.138016,8.92315789 124.962913,13.1621053 124.962913,18.6926316 C124.962913,24.4010526 129.138016,28.7852632 134.320756,28.7852632 L134.320756,28.7852632 Z" id="Fill-4" sketch:type="MSShapeGroup"></path>
                <path d="M151.815669,28.8505263 L154.550535,28.8505263 L154.550535,16.8589474 C154.550535,16.3221053 154.259323,16.0715789 153.759197,16.0715789 L151.491748,16.0715789 L151.491748,13.3789474 L155.596157,13.3789474 C157.176724,13.3789474 157.932189,14.0210526 157.932189,15.4957895 L157.932189,16.6421053 C157.932189,17.3631579 157.864661,17.9010526 157.864661,17.9010526 L157.932189,17.9010526 C158.762567,15.2442105 160.88652,13.1621053 163.694189,13.1621053 C164.163717,13.1621053 164.592094,13.2336842 164.592094,13.2336842 L164.592094,16.6810526 C164.592094,16.6810526 164.163717,16.5747368 163.586567,16.5747368 C159.698457,16.5747368 158.041921,20.4894737 158.041921,24.0421053 L158.041921,28.8505263 L160.743024,28.8505263 L160.743024,31.5494737 L151.815669,31.5494737 L151.815669,28.8505263" id="Fill-5" sketch:type="MSShapeGroup"></path>
                <path d="M171.362787,23.9347368 L171.362787,25.8042105 C171.362787,27.6715789 173.773732,28.7852632 176.441071,28.7852632 C179.351087,28.7852632 181.478205,27.4157895 181.478205,24.9042105 C181.478205,21.9568421 178.49011,20.9915789 175.357465,19.7673684 C172.011685,18.5105263 168.590992,17.08 168.590992,12.5863158 C168.590992,7.80842105 172.441118,5.76421053 176.723843,5.76421053 C180.540205,5.76421053 184.42937,7.19894737 184.42937,9.96526316 L184.42937,12.9463158 L181.078315,12.9463158 L181.078315,11.1884211 C181.078315,9.71473684 178.812976,8.92315789 176.723843,8.92315789 C174.242205,8.92315789 172.263858,10.0705263 172.263858,12.4084211 C172.263858,15.1010526 174.817244,16 177.661843,17.08 C181.407512,18.4768421 185.112031,19.9126316 185.112031,24.6178947 C185.112031,29.4652632 181.151118,31.9768421 176.441071,31.9768421 C172.480157,31.9768421 168.050772,30.22 168.050772,26.5947368 L168.050772,23.9347368 L171.362787,23.9347368" id="Fill-6" sketch:type="MSShapeGroup"></path>
                <path d="M189.000142,28.8505263 L191.877449,28.8505263 L191.877449,8.88842105 L188.821827,8.88842105 L188.821827,6.19684211 L195.339291,6.19684211 L195.339291,15.6063158 C195.339291,16.4652632 195.227449,17.1136842 195.227449,17.1136842 L195.300252,17.1136842 C196.093701,15.3515789 198.466661,12.9463158 202.104709,12.9463158 C206.386378,12.9463158 208.364724,15.2810526 208.364724,19.9126316 L208.364724,28.8505263 L211.210378,28.8505263 L211.210378,31.5494737 L204.875449,31.5494737 L204.875449,20.7031579 C204.875449,18.1547368 204.333118,16.1389474 201.418882,16.1389474 C197.855748,16.1389474 195.339291,19.1578947 195.339291,23.0378947 L195.339291,28.8505263 L198.214488,28.8505263 L198.214488,31.5494737 L189.000142,31.5494737 L189.000142,28.8505263" id="Fill-7" sketch:type="MSShapeGroup"></path>
                <path d="M224.817181,20.3821053 L225.96726,20.3821053 L225.96726,19.6957895 C225.96726,16.8242105 224.312835,15.8178947 222.080205,15.8178947 C219.201843,15.8178947 216.862646,17.5789474 216.862646,17.5789474 L215.458283,15.1010526 C215.458283,15.1010526 218.119291,12.9463158 222.368252,12.9463158 C227.011827,12.9463158 229.457591,15.3515789 229.457591,19.9494737 L229.457591,28.0652632 C229.457591,28.6031579 229.745638,28.8505263 230.252094,28.8505263 L232.09011,28.8505263 L232.09011,31.5494737 L228.452063,31.5494737 C226.834567,31.5494737 226.184614,30.7578947 226.184614,29.5726316 L226.184614,29.3221053 C226.184614,28.6031579 226.329165,28.1357895 226.329165,28.1357895 L226.257417,28.1357895 C226.257417,28.1357895 224.673685,31.9768421 220.246409,31.9768421 C217.220331,31.9768421 214.197417,30.22 214.197417,26.4842105 C214.197417,20.7757895 221.795323,20.3821053 224.817181,20.3821053 L224.817181,20.3821053 Z M221.002929,29.2831579 C224.096535,29.2831579 226.006299,26.1242105 226.006299,23.3968421 L226.006299,22.6442105 L225.107339,22.6442105 C223.450803,22.6442105 217.724677,22.7157895 217.724677,26.1968421 C217.724677,27.8094737 218.913795,29.2831579 221.002929,29.2831579 L221.002929,29.2831579 Z" id="Fill-8" sketch:type="MSShapeGroup"></path>
                <path d="M235.689118,28.8505263 L238.422929,28.8505263 L238.422929,16.8589474 C238.422929,16.3221053 238.139102,16.0715789 237.633701,16.0715789 L235.365197,16.0715789 L235.365197,13.3789474 L239.467496,13.3789474 C241.054394,13.3789474 241.805638,14.0210526 241.805638,15.4957895 L241.805638,16.6421053 C241.805638,17.3631579 241.73811,17.9010526 241.73811,17.9010526 L241.805638,17.9010526 C242.638126,15.2442105 244.761024,13.1621053 247.565528,13.1621053 C248.03189,13.1621053 248.465543,13.2336842 248.465543,13.2336842 L248.465543,16.6810526 C248.465543,16.6810526 248.03189,16.5747368 247.458961,16.5747368 C243.571906,16.5747368 241.916425,20.4894737 241.916425,24.0421053 L241.916425,28.8505263 L244.615417,28.8505263 L244.615417,31.5494737 L235.689118,31.5494737 L235.689118,28.8505263" id="Fill-9" sketch:type="MSShapeGroup"></path>
                <path d="M260.598346,12.9463158 C265.781087,12.9463158 268.480079,16.7515789 268.480079,21.4568421 C268.480079,21.9242105 268.372457,22.7831579 268.372457,22.7831579 L255.053701,22.7831579 C255.27,26.8063158 258.114598,28.9621053 261.352756,28.9621053 C264.519165,28.9621053 266.78978,26.9168421 266.78978,26.9168421 L268.228961,29.4652632 C268.228961,29.4652632 265.491984,31.9768421 261.136457,31.9768421 C255.413496,31.9768421 251.492677,27.8484211 251.492677,22.4621053 C251.492677,16.6810526 255.413496,12.9463158 260.598346,12.9463158 L260.598346,12.9463158 Z M264.880016,20.5547368 C264.774504,17.3631579 262.830976,15.7115789 260.525543,15.7115789 C257.864535,15.7115789 255.703654,17.5073684 255.197197,20.5547368 L264.880016,20.5547368 L264.880016,20.5547368 Z" id="Fill-10" sketch:type="MSShapeGroup"></path>
                <path d="M18.7884882,12.7115789 L17.4727559,7.32 C17.4453228,7.20947368 17.3461417,7.13473684 17.2374646,7.13473684 C17.2184724,7.13473684 17.1994803,7.13684211 17.1794331,7.14210526 L5.27453543,10.0347368 C5.14475591,10.0673684 5.06562205,10.1978947 5.09727559,10.3263158 L5.57418898,12.2810526 L5.57418898,11.6673684 C5.57418898,11.5336842 5.68286614,11.4273684 5.81581102,11.4273684 L5.93187402,11.4273684 L5.70502362,10.4957895 L17.0116693,7.74631579 L17.9085197,11.4273684 L18.0688976,11.4273684 C18.2028976,11.4273684 18.3105197,11.5336842 18.3105197,11.6673684 L18.3105197,13.0757895 L18.6112283,13.0031579 C18.7410079,12.9705263 18.8201417,12.8410526 18.7884882,12.7115789" id="Fill-11" sketch:type="MSShapeGroup"></path>
                <path d="M10.7706457,10.0694737 L6.83083465,11.0284211 C6.72743307,11.0526316 6.65885039,11.1305263 6.6767874,11.2031579 L6.73165354,11.4273684 L10.0753228,11.4273684 C10.1027559,10.8947368 10.362315,10.4021053 10.7706457,10.0694737" id="Fill-12" sketch:type="MSShapeGroup"></path>
                <path d="M16.4735591,8.82315789 C16.4566772,8.75157895 16.3596063,8.71157895 16.2562047,8.73684211 L12.3163937,9.69368421 C13.0022205,9.83578947 13.5835906,10.3536842 13.7619055,11.0778947 C13.7893386,11.1947368 13.802,11.3105263 13.8083307,11.4273684 L17.1097953,11.4273684 L16.4735591,8.82315789 L16.4735591,8.82315789 Z M14.909874,11.1715789 C14.7157323,11.2189474 14.5184252,11.1 14.4709449,10.9052632 C14.4224094,10.7094737 14.5426929,10.5136842 14.7378898,10.4663158 C14.9330866,10.4189474 15.1303937,10.5378947 15.177874,10.7326316 C15.2264094,10.9284211 15.106126,11.1242105 14.909874,11.1715789 L14.909874,11.1715789 Z" id="Fill-13" sketch:type="MSShapeGroup"></path>
                <path d="M9.06662992,11.8431579 C8.98538583,11.8642105 8.92102362,11.9136842 8.87248819,11.9747368 L9.43908661,11.9747368 C9.35256693,11.8663158 9.21012598,11.8094737 9.06662992,11.8431579" id="Fill-14" sketch:type="MSShapeGroup"></path>
                <path d="M18.0688976,11.4273684 L5.81581102,11.4273684 C5.68286614,11.4273684 5.57418898,11.5336842 5.57418898,11.6673684 L5.57418898,17.2168421 C5.57418898,17.3515789 5.68286614,17.4578947 5.81581102,17.4578947 L18.0688976,17.4578947 C18.2028976,17.4578947 18.3105197,17.3515789 18.3105197,17.2168421 L18.3105197,11.6673684 C18.3105197,11.5336842 18.2028976,11.4273684 18.0688976,11.4273684 L18.0688976,11.4273684 Z M17.7608031,16.9094737 L6.12390551,16.9094737 L6.12390551,11.9747368 L8.87248819,11.9747368 C8.92102362,11.9136842 8.98538583,11.8642105 9.06662992,11.8431579 C9.21012598,11.8094737 9.35256693,11.8663158 9.43908661,11.9747368 L17.7608031,11.9747368 L17.7608031,16.9094737 L17.7608031,16.9094737 Z" id="Fill-15" sketch:type="MSShapeGroup"></path>
                <path d="M10.0721575,14.4431579 C10.0721575,13.6968421 10.514252,13.0557895 11.148378,12.7568421 L7.09250394,12.7568421 C6.98593701,12.7568421 6.90152756,12.8178947 6.90152756,12.8926316 L6.90152756,15.9926316 C6.90152756,16.0663158 6.98593701,16.1273684 7.09250394,16.1273684 L11.1494331,16.1273684 C10.514252,15.8284211 10.0721575,15.1884211 10.0721575,14.4431579 L10.0721575,14.4431579 Z M9.07085039,14.8052632 C8.87037795,14.8052632 8.70683465,14.6431579 8.70683465,14.4431579 C8.70683465,14.2421053 8.87037795,14.0789474 9.07085039,14.0789474 C9.27343307,14.0789474 9.43592126,14.2421053 9.43592126,14.4431579 C9.43592126,14.6431579 9.27343307,14.8052632 9.07085039,14.8052632 L9.07085039,14.8052632 Z" id="Fill-16" sketch:type="MSShapeGroup"></path>
                <path d="M16.7932598,12.7568421 L12.7373858,12.7568421 C13.3715118,13.0557895 13.8136063,13.6968421 13.8136063,14.4431579 C13.8136063,15.1884211 13.3715118,15.8284211 12.7363307,16.1273684 L16.7932598,16.1273684 C16.9008819,16.1273684 16.9852913,16.0663158 16.9852913,15.9926316 L16.9852913,12.8926316 C16.9852913,12.8178947 16.9008819,12.7568421 16.7932598,12.7568421 L16.7932598,12.7568421 Z M14.9088189,14.8052632 C14.7083465,14.8052632 14.5448031,14.6431579 14.5448031,14.4431579 C14.5448031,14.2421053 14.7083465,14.0789474 14.9088189,14.0789474 C15.1092913,14.0789474 15.2728346,14.2421053 15.2728346,14.4431579 C15.2728346,14.6431579 15.1092913,14.8052632 14.9088189,14.8052632 L14.9088189,14.8052632 Z" id="Fill-17" sketch:type="MSShapeGroup"></path>
                <path d="M1.6776378,1.70315789 L24.1432126,1.70315789 L24.1432126,24.1157895 L1.6776378,24.1157895 L1.6776378,1.70315789 Z M24.1432126,0.241052632 L1.6776378,0.241052632 C0.869417323,0.241052632 0.213133858,0.896842105 0.213133858,1.70315789 L0.213133858,24.1157895 C0.213133858,24.9221053 0.869417323,25.5768421 1.6776378,25.5768421 L24.1432126,25.5768421 C24.9524882,25.5768421 25.6087717,24.9221053 25.6087717,24.1157895 L25.6087717,1.70315789 C25.6087717,0.896842105 24.9524882,0.241052632 24.1432126,0.241052632 L24.1432126,0.241052632 Z" id="Fill-18" sketch:type="MSShapeGroup"></path>
                <path d="M5.47606299,33.5263158 L5.47606299,24.2357895 L12.6666929,24.3589474 L5.47606299,33.5263158" id="Fill-19" sketch:type="MSShapeGroup"></path>
                <path d="M45.4861417,6.20947368 L23.0205669,6.20947368 C22.2123465,6.20947368 21.556063,6.86421053 21.556063,7.67052632 L21.556063,30.0831579 C21.556063,30.8905263 22.2123465,31.5452632 23.0205669,31.5452632 L35.7104724,31.5452632 L41.9451654,39.4936842 L41.9451654,31.5452632 L45.4861417,31.5452632 C46.2954173,31.5452632 46.9517008,30.8905263 46.9517008,30.0831579 L46.9517008,7.67052632 C46.9517008,6.86421053 46.2954173,6.20947368 45.4861417,6.20947368 L45.4861417,6.20947368 Z M35.822315,22.6852632 L35.822315,20.02 C35.822315,20.02 33.1887402,20.0473684 30.480252,21.7326316 C28.997811,22.6484211 27.9965039,23.8526316 27.380315,24.8021053 C27.380315,24.8010526 27.5807874,21.5157895 29.4757795,18.5189474 C31.847685,14.7736842 35.8444724,14.7084211 35.8444724,14.7084211 L35.8444724,12.1252632 L41.1263937,17.3926316 L35.822315,22.6852632 L35.822315,22.6852632 Z" id="Fill-20" sketch:type="MSShapeGroup"></path>
            </g>
        </g>
    </g>
</svg>