<?xml version="1.0" encoding="utf-8"?>
<!-- Generator: Adobe Illustrator 16.0.0, SVG Export Plug-In . SVG Version: 6.00 Build 0)  -->
<!DOCTYPE svg PUBLIC "-//W3C//DTD SVG 1.1//EN" "http://www.w3.org/Graphics/SVG/1.1/DTD/svg11.dtd">
<svg version="1.1" id="Layer_1" xmlns:sketch="http://www.bohemiancoding.com/sketch/ns"
	 xmlns="http://www.w3.org/2000/svg" xmlns:xlink="http://www.w3.org/1999/xlink" x="0px" y="0px" width="269px" height="40px"
	 viewBox="0 0 269 40" enable-background="new 0 0 269 40" xml:space="preserve">
<title>payorshare_logo</title>
<desc>Created with Sketch.</desc>
<g>
	<path fill="#F6F4F4" d="M216.118,8.283v5.579h8.315v1.56h-8.315v6.12h8.676v1.56h-10.523V6.723h10.523v1.561H216.118z"/>
	<g>
		<path fill="#F6F4F4" d="M88.584,23.102V6.723h6.875h0.624c1.848,0,3.108,0.356,3.78,1.068s1.008,2.044,1.008,3.995
			c0,1.872-0.351,3.148-1.05,3.828c-0.7,0.68-2.015,1.02-3.941,1.02l-0.721,0.013h-4.728v6.455H88.584z M90.432,15.086h4.38
			c1.832,0,3.006-0.188,3.521-0.563c0.517-0.376,0.773-1.24,0.773-2.592c0-1.584-0.174-2.586-0.521-3.006s-1.174-0.63-2.478-0.63
			L95.4,8.283h-4.968V15.086z"/>
		<path fill="#F6F4F4" d="M112.164,19.634h-8.291l-1.261,3.468h-1.955l5.999-16.379h2.592l6.119,16.379h-1.932L112.164,19.634z
			 M111.624,18.242l-3.636-10.007L104.4,18.242H111.624z"/>
		<path fill="#F6F4F4" d="M128.458,6.723l-6.191,9.539v6.84h-1.848v-6.84l-6.035-9.539h2.147l3.516,5.532l0.672,1.067
			c0.088,0.128,0.2,0.305,0.336,0.528l0.324,0.54h0.048c0.145-0.24,0.252-0.42,0.324-0.54l0.323-0.528l0.685-1.067l3.504-5.532
			H128.458z"/>
		<path fill="#F6F4F4" d="M132.367,12.788c1.93,0,3.136,0.282,3.62,0.846c0.483,0.563,0.725,1.972,0.725,4.226
			c0,2.428-0.231,3.926-0.695,4.494c-0.464,0.569-1.68,0.854-3.649,0.854c-1.959,0-3.175-0.282-3.646-0.846
			c-0.472-0.563-0.707-2.019-0.707-4.368v-0.718l0.015-0.965c0-1.355,0.306-2.281,0.917-2.778
			C129.556,13.036,130.697,12.788,132.367,12.788z M132.359,13.761c-1.616,0-2.56,0.18-2.834,0.538
			c-0.274,0.359-0.411,1.591-0.411,3.694c0,2.109,0.137,3.344,0.411,3.702c0.274,0.359,1.219,0.539,2.834,0.539
			c1.621,0,2.568-0.18,2.843-0.539c0.273-0.358,0.411-1.593,0.411-3.702v-0.665l-0.008-0.965c0-1.127-0.189-1.842-0.568-2.146
			C134.658,13.913,133.766,13.761,132.359,13.761z"/>
		<path fill="#F6F4F4" d="M138.335,23.102V12.894h4.861c1.097,0,1.869,0.217,2.318,0.65c0.448,0.434,0.673,1.187,0.673,2.259
			c0,0.942-0.122,1.599-0.366,1.971c-0.244,0.371-0.711,0.611-1.398,0.721v0.022c1.081,0.08,1.622,0.738,1.622,1.976v2.609h-1.151
			v-2.348c0-1.192-0.516-1.788-1.548-1.788h-0.382h-3.478v4.136H138.335z M139.486,17.993h3.328c0.878,0,1.476-0.133,1.795-0.399
			s0.479-0.77,0.479-1.507c0-0.923-0.118-1.523-0.354-1.803c-0.237-0.279-0.745-0.419-1.522-0.419h-3.725V17.993z"/>
		<path fill="#F6F4F4" d="M161.84,11.163h-1.836c0-1.32-0.22-2.158-0.659-2.515c-0.44-0.355-1.476-0.533-3.107-0.533
			c-1.937,0-3.185,0.17-3.744,0.51s-0.84,1.098-0.84,2.273c0,1.32,0.22,2.124,0.66,2.412c0.439,0.288,1.747,0.484,3.924,0.588
			c2.551,0.112,4.173,0.437,4.865,0.972c0.691,0.536,1.037,1.736,1.037,3.6c0,2.017-0.397,3.32-1.193,3.912
			s-2.554,0.888-5.273,0.888c-2.359,0-3.93-0.298-4.71-0.894c-0.779-0.597-1.17-1.798-1.17-3.606l-0.012-0.731h1.836v0.408
			c0,1.464,0.224,2.374,0.672,2.729s1.596,0.534,3.443,0.534c2.12,0,3.424-0.179,3.912-0.534c0.487-0.355,0.731-1.306,0.731-2.85
			c0-1-0.166-1.666-0.497-1.998c-0.333-0.332-1.026-0.53-2.082-0.594l-1.92-0.096l-1.824-0.097
			c-2.775-0.191-4.163-1.632-4.163-4.319c0-1.863,0.403-3.107,1.212-3.731c0.808-0.624,2.419-0.937,4.836-0.937
			c2.447,0,4.043,0.29,4.787,0.87S161.84,9.251,161.84,11.163z"/>
		<path fill="#F6F4F4" d="M178.613,6.723v16.379h-1.848v-7.596h-9.575v7.596h-1.848V6.723h1.848v7.224h9.575V6.723H178.613z"/>
		<path fill="#F6F4F4" d="M192.771,19.634h-8.292l-1.26,3.468h-1.955l5.999-16.379h2.592l6.119,16.379h-1.932L192.771,19.634z
			 M192.231,18.242l-3.636-10.007l-3.588,10.007H192.231z"/>
		<path fill="#F6F4F4" d="M198.638,23.102V6.723h7.799c1.761,0,3,0.349,3.72,1.044c0.72,0.696,1.08,1.904,1.08,3.624
			c0,1.512-0.196,2.565-0.588,3.162c-0.393,0.596-1.14,0.981-2.244,1.157v0.036c1.736,0.128,2.604,1.184,2.604,3.168v4.188h-1.849
			v-3.768c0-1.912-0.827-2.868-2.483-2.868h-0.611h-5.58v6.636H198.638z M200.485,14.906h5.34c1.407,0,2.367-0.214,2.879-0.642
			c0.513-0.428,0.769-1.234,0.769-2.418c0-1.479-0.19-2.443-0.569-2.892c-0.381-0.448-1.194-0.672-2.442-0.672h-5.976V14.906z"/>
		<path fill-rule="evenodd" clip-rule="evenodd" fill="#F6F4F4" d="M83.664,21.748c-0.022,1.092-0.074,2.18-0.202,3.264
			c-0.137,1.141-0.334,2.27-0.725,3.355c-0.222,0.615-0.491,1.207-0.941,1.693c-0.434,0.471-0.972,0.711-1.615,0.648
			c-0.403-0.039-0.757-0.236-1.101-0.434c-0.496-0.287-0.979-0.598-1.476-0.887c-0.98-0.568-2.049-0.91-3.138-1.2
			c-1.479-0.392-2.977-0.7-4.486-0.944c-1.042-0.169-2.087-0.332-3.135-0.447c-1.11-0.123-2.227-0.205-3.343-0.27
			c-0.644-0.038-1.291-0.004-1.936-0.01c-0.607-0.006-0.832,0.279-0.895,0.922c-0.062,0.638,0.083,1.254,0.268,1.86
			c0.15,0.498,0.312,0.994,0.458,1.493c0.048,0.164,0.054,0.339,0.088,0.508c0.09,0.443,0.313,0.819,0.636,1.134
			c0.26,0.253,0.488,0.524,0.603,0.878c0.072,0.223,0.091,0.449,0.052,0.678c-0.046,0.271-0.008,0.523,0.149,0.754
			c0.238,0.346,0.481,0.689,0.718,1.039c0.309,0.453,0.376,0.943,0.145,1.441c-0.233,0.5-0.187,0.936,0.181,1.352
			c0.091,0.104,0.154,0.242,0.201,0.375c0.08,0.227-0.003,0.426-0.227,0.52c-0.161,0.066-0.339,0.111-0.512,0.127
			c-1.034,0.082-2.052,0.004-3.03-0.381c-0.881-0.348-1.468-0.994-1.865-1.834c-0.412-0.865-0.646-1.787-0.862-2.713
			c-0.272-1.164-0.528-2.33-0.918-3.463c-0.297-0.856-0.701-1.654-1.289-2.352c-0.518-0.613-1.181-0.965-1.97-1.066
			c-0.402-0.051-0.811-0.061-1.215-0.085c-1.129-0.069-1.899-0.644-2.356-1.665c-0.326-0.729-0.493-1.496-0.601-2.28
			c-0.114-0.841-0.148-1.686-0.114-2.532c0.027-0.676,0.067-1.356,0.349-1.98c0.525-1.174,1.347-2.078,2.517-2.644
			c1.341-0.648,2.734-1.168,4.116-1.716c2.271-0.9,4.482-1.922,6.563-3.207c1.808-1.118,3.542-2.343,5.212-3.655
			c1.27-0.996,2.487-2.052,3.632-3.188c0.439-0.438,0.751-0.931,0.895-1.538c0.156-0.663,0.368-1.313,0.795-1.859
			c0.216-0.277,0.472-0.526,0.729-0.767c0.211-0.198,0.493-0.234,0.773-0.265c0.553-0.061,1.098-0.057,1.626,0.145
			c0.575,0.22,1.02,0.615,1.411,1.074c1.009,1.186,1.729,2.543,2.354,3.956c0.984,2.218,1.716,4.519,2.299,6.871
			c0.354,1.421,0.63,2.856,0.823,4.306c0.104,0.786,0.183,1.576,0.237,2.369C83.602,20,83.625,20.873,83.664,21.748z M71.936,6.528
			c-0.012-0.007-0.021-0.012-0.032-0.016c-0.038,0.032-0.079,0.063-0.113,0.099c-0.224,0.223-0.452,0.442-0.67,0.671
			c-1.14,1.186-2.419,2.2-3.807,3.076c-1.415,0.894-2.844,1.767-4.267,2.647c-1.082,0.669-2.16,1.346-3.127,2.18
			c-0.908,0.781-1.461,1.741-1.544,2.952c-0.057,0.81-0.053,1.614,0.081,2.417c0.183,1.096,0.549,2.119,1.239,3.003
			c0.522,0.667,1.167,1.188,1.993,1.407c0.494,0.13,1.016,0.178,1.528,0.219c1.086,0.086,2.176,0.127,3.262,0.213
			c0.933,0.073,1.868,0.154,2.795,0.287c1.62,0.232,3.208,0.623,4.768,1.117c0.687,0.219,1.357,0.487,2.036,0.733
			c0.063,0.022,0.132,0.036,0.224,0.06c-0.03-0.088-0.046-0.148-0.07-0.203c-0.088-0.196-0.178-0.393-0.27-0.586
			c-0.364-0.77-0.748-1.529-1.095-2.309c-0.837-1.886-1.474-3.844-1.983-5.844c-0.372-1.46-0.673-2.935-0.882-4.427
			c-0.089-0.633-0.172-1.269-0.229-1.906c-0.055-0.623-0.08-1.25-0.105-1.875c-0.044-1.111,0-2.219,0.172-3.317
			C71.873,6.927,71.905,6.729,71.936,6.528z M75.97,24.771c0.021,0,0.043,0,0.065,0c0.051-0.16,0.106-0.319,0.149-0.48
			c0.279-1.059,0.414-2.137,0.465-3.229c0.048-1.014,0.038-2.024-0.116-3.03c-0.247-1.616-0.731-3.154-1.518-4.591
			c-0.478-0.873-1.076-1.648-1.908-2.218c-0.043-0.028-0.083-0.056-0.152-0.102c0,0.076-0.005,0.123,0.001,0.168
			c0.058,0.512,0.104,1.027,0.18,1.536c0.17,1.153,0.351,2.305,0.534,3.455c0.296,1.83,0.67,3.646,1.21,5.422
			c0.294,0.966,0.569,1.936,0.974,2.862C75.886,24.637,75.931,24.701,75.97,24.771z"/>
		<path fill-rule="evenodd" clip-rule="evenodd" fill="#F6F4F4" d="M49.647,27.484c-0.238-0.004-0.474,0.002-0.71-0.013
			c-0.66-0.038-1.315-0.101-1.958-0.256c-0.593-0.144-1.168-0.33-1.697-0.644c-0.811-0.479-1.277-1.195-1.437-2.109
			c-0.16-0.914-0.154-1.834,0.057-2.734c0.218-0.934,0.7-1.708,1.543-2.207c1.03-0.609,2.092-1.156,3.188-1.64
			c0.078-0.033,0.161-0.056,0.243-0.078c0.022-0.005,0.057,0.009,0.073,0.025c0.009,0.008,0.001,0.044-0.009,0.063
			c-0.016,0.029-0.037,0.056-0.059,0.08c-0.493,0.563-0.759,1.232-0.918,1.95c-0.194,0.879-0.247,1.769-0.227,2.666
			c0.016,0.613,0.065,1.221,0.193,1.82c0.205,0.957,0.66,1.79,1.298,2.524c0.146,0.168,0.288,0.342,0.434,0.51
			C49.657,27.457,49.652,27.471,49.647,27.484z"/>
		<g>
			<path fill="#F6F4F4" d="M151.323,26.662l-0.073,0.504c0.08-0.132,0.131-0.197,0.175-0.24c0.248-0.256,0.576-0.293,0.935-0.293
				c0.372,0,0.671,0.016,0.963,0.264c0.059,0.051,0.197,0.175,0.256,0.371c0.065,0.197,0.051,0.424,0.036,0.643
				c-0.088,0.708-0.109,0.832-0.292,1.504c-0.117,0.284-0.175,0.394-0.256,0.503c-0.255,0.336-0.729,0.438-1.16,0.438
				c-0.32,0-0.729-0.037-0.963-0.271c-0.095-0.103-0.146-0.233-0.161-0.277l-0.372,1.978l-0.539-0.008
				c0.051-0.35,0.102-0.7,0.167-1.051c0.088-0.503,0.19-1.006,0.277-1.518c0.161-0.846,0.307-1.693,0.453-2.547H151.323z
				 M150.973,29.486c0.095,0.24,0.38,0.372,0.897,0.372c0.102,0,0.547,0.007,0.767-0.306c0.036-0.059,0.072-0.139,0.124-0.285
				c0.175-0.599,0.204-0.723,0.284-1.364c0-0.212,0.008-0.409-0.117-0.562c-0.131-0.146-0.328-0.226-0.736-0.226
				c-0.051,0-0.401,0-0.621,0.123c-0.277,0.146-0.364,0.482-0.386,0.57c-0.161,0.598-0.19,0.758-0.256,1.379
				C150.929,29.348,150.943,29.421,150.973,29.486z"/>
			<path fill="#F6F4F4" d="M156.854,27.838c0.008-0.037,0.029-0.125,0.029-0.227c0-0.103-0.029-0.197-0.08-0.277
				c-0.168-0.256-0.599-0.241-0.876-0.234c-0.307-0.007-0.481,0.008-0.605,0.096c-0.16,0.109-0.204,0.336-0.24,0.518h-0.555
				c0.058-0.364,0.116-0.7,0.423-0.897c0.183-0.116,0.357-0.139,0.562-0.161c0.175-0.014,0.35-0.021,0.532-0.021
				c0.175,0,0.357,0.016,0.532,0.021c0.227,0.037,0.3,0.052,0.416,0.096c0.555,0.219,0.468,0.766,0.453,0.941l-0.46,2.619h-0.555
				l0.051-0.379c-0.299,0.336-0.394,0.379-0.861,0.416c-0.233,0.008-0.291,0.021-0.679-0.029c-0.189-0.029-0.247-0.043-0.342-0.08
				c-0.365-0.131-0.468-0.416-0.468-0.795c0-0.672,0.227-1.037,0.468-1.19c0.189-0.109,0.415-0.139,0.656-0.161h0.657
				c0.021,0,0.211,0.016,0.328,0.045c0.313,0.072,0.416,0.232,0.504,0.35L156.854,27.838z M154.84,29.734
				c0.132,0.102,0.372,0.139,0.737,0.139c0.029,0,0.474,0.008,0.7-0.117c0.168-0.087,0.248-0.24,0.271-0.291
				c0.072-0.161,0.095-0.395,0.095-0.438c0-0.263-0.19-0.372-0.277-0.408c-0.117-0.058-0.38-0.08-0.723-0.08
				c-0.313,0-0.54,0.015-0.649,0.073c-0.103,0.058-0.168,0.16-0.189,0.203c-0.08,0.146-0.124,0.322-0.124,0.475
				C154.672,29.537,154.76,29.676,154.84,29.734z"/>
			<path fill="#F6F4F4" d="M159.232,26.677l-0.635,3.634h-0.562l0.635-3.634H159.232z M159.495,25.195l-0.117,0.635h-0.562
				l0.117-0.635H159.495z"/>
			<path fill="#F6F4F4" d="M162.64,25.174h0.569l-0.897,5.13h-0.569l0.109-0.54c-0.095,0.16-0.152,0.24-0.211,0.299
				c-0.241,0.227-0.62,0.277-0.941,0.277c-0.103,0-0.526,0-0.832-0.182c-0.036-0.022-0.124-0.073-0.212-0.176
				c-0.036-0.044-0.117-0.146-0.153-0.284c-0.044-0.146-0.051-0.255-0.044-0.555c0.08-0.723,0.117-0.891,0.3-1.576
				c0.116-0.3,0.233-0.569,0.496-0.745c0.175-0.116,0.445-0.196,0.941-0.196c0.525,0,0.773,0.103,0.934,0.292
				c0.088,0.102,0.124,0.219,0.161,0.343L162.64,25.174z M160.203,29.691c0.124,0.123,0.284,0.167,0.642,0.167
				c0.467,0,0.664-0.095,0.817-0.255c0.088-0.103,0.146-0.205,0.227-0.438c0.152-0.525,0.183-0.68,0.255-1.234
				c0-0.051,0.029-0.284-0.051-0.467c-0.132-0.336-0.562-0.365-0.868-0.365c-0.153,0-0.336,0.016-0.468,0.066
				c-0.313,0.124-0.415,0.416-0.503,0.715c-0.168,0.657-0.168,0.781-0.204,1.189C160.042,29.304,160.035,29.523,160.203,29.691z"/>
			<path fill="#F6F4F4" d="M168.302,27.918c0.015-0.103,0.022-0.205,0.022-0.307c0-0.08,0.007-0.234-0.139-0.344
				c-0.212-0.168-0.576-0.152-0.628-0.152c-0.27,0-0.547-0.008-0.744,0.146c-0.109,0.08-0.16,0.146-0.248,0.38
				c-0.183,0.635-0.212,0.803-0.285,1.474c-0.007,0.044-0.072,0.46,0.176,0.635c0.16,0.109,0.503,0.132,0.7,0.132
				c0.752,0,0.876-0.168,1.029-0.861l0.547,0.007c-0.087,0.497-0.16,0.729-0.307,0.927c-0.189,0.263-0.408,0.314-0.722,0.365
				c-0.197,0.021-0.395,0.037-0.592,0.037c-0.16,0-0.328-0.008-0.496-0.022c-0.051-0.007-0.109-0.015-0.16-0.022
				c-0.08-0.014-0.372-0.064-0.562-0.277c-0.169-0.189-0.183-0.4-0.197-0.656c0-0.117,0-0.233,0.015-0.357
				c0.029-0.489,0.175-1.029,0.291-1.496c0.088-0.227,0.19-0.475,0.373-0.635c0.211-0.189,0.511-0.219,0.803-0.248
				c0.16-0.008,0.32-0.008,0.475-0.008c0.116,0.008,0.24,0.016,0.364,0.021c0.059,0.016,0.372,0.045,0.584,0.197
				c0.219,0.168,0.284,0.409,0.284,0.687c0,0.175-0.021,0.321-0.029,0.38H168.302z"/>
			<path fill="#F6F4F4" d="M169.558,29.137c0.087-0.752,0.124-0.941,0.328-1.664c0.073-0.205,0.131-0.351,0.284-0.512
				c0.263-0.27,0.599-0.284,0.73-0.307c0.196-0.014,0.394-0.028,0.591-0.028c0.183,0,0.365,0.015,0.547,0.028
				c0.256,0.037,0.46,0.081,0.649,0.271c0.263,0.27,0.249,0.656,0.233,1.021c-0.065,0.496-0.08,0.686-0.299,1.503
				c-0.015,0.051-0.051,0.167-0.109,0.292c-0.219,0.459-0.555,0.533-1.044,0.605c-0.204,0.008-0.416,0.015-0.62,0.008
				c-0.109,0-0.219-0.008-0.328-0.016c-0.051-0.007-0.109-0.014-0.16-0.021c-0.154-0.021-0.569-0.088-0.737-0.54
				c-0.044-0.132-0.059-0.226-0.065-0.475V29.137z M170.294,29.742c0.022,0.014,0.073,0.059,0.139,0.088
				c0.095,0.043,0.336,0.08,0.628,0.08c0.475,0,0.686-0.08,0.832-0.241c0.146-0.153,0.196-0.365,0.219-0.431
				c0.146-0.576,0.175-0.715,0.248-1.313c0.007-0.08,0.007-0.161,0.007-0.241c0-0.072,0-0.35-0.24-0.488
				c-0.212-0.117-0.649-0.103-0.657-0.103c-0.452,0-0.635,0.036-0.81,0.168c-0.146,0.116-0.189,0.233-0.256,0.401
				c-0.182,0.656-0.211,0.824-0.277,1.518C170.134,29.508,170.17,29.625,170.294,29.742z"/>
			<path fill="#F6F4F4" d="M174.657,26.677l-0.08,0.497c0.029-0.037,0.124-0.184,0.241-0.271c0.182-0.139,0.539-0.263,1.087-0.263
				c0.051,0,0.227,0,0.387,0.043c0.256,0.066,0.489,0.234,0.576,0.475c0.059,0.168,0.044,0.373,0.029,0.576
				c-0.029,0.227-0.059,0.453-0.103,0.68c-0.051,0.299-0.108,0.605-0.167,0.897c-0.059,0.335-0.117,0.664-0.168,0.999h-0.569
				l0.021-0.197l0.401-2.254c0.016-0.248,0.03-0.475-0.153-0.613c-0.167-0.139-0.364-0.139-0.576-0.139
				c-0.146,0-0.547-0.015-0.854,0.277c-0.109,0.102-0.175,0.227-0.197,0.27c-0.044,0.103-0.08,0.256-0.088,0.271l-0.415,2.379
				h-0.577l0.635-3.627H174.657z"/>
			<path fill="#F6F4F4" d="M178.218,26.662l0.153-0.854h0.562l-0.146,0.846h1.342l-0.08,0.475h-1.35l-0.387,2.219
				c-0.016,0.146-0.036,0.313,0.058,0.416c0.088,0.095,0.277,0.109,0.409,0.109c0.27,0,0.394-0.131,0.445-0.227
				c0.065-0.109,0.102-0.313,0.152-0.627l0.511,0.007c-0.007,0.088-0.021,0.175-0.036,0.263c-0.007,0.08-0.072,0.664-0.452,0.905
				c-0.248,0.146-0.664,0.153-0.715,0.153c-0.029,0-0.168-0.008-0.285-0.021c-0.277-0.045-0.503-0.125-0.62-0.395
				c-0.058-0.131-0.065-0.248-0.037-0.518l0.395-2.285h-0.568l0.08-0.467H178.218z"/>
			<path fill="#F6F4F4" d="M181.05,28.618c-0.008,0.036-0.08,0.364-0.08,0.591c0,0.336,0.102,0.467,0.226,0.562
				c0.176,0.123,0.38,0.131,0.599,0.131c0.343,0,0.635,0.008,0.854-0.263c0.08-0.103,0.124-0.204,0.175-0.444h0.577
				c-0.066,0.299-0.14,0.641-0.38,0.86c-0.255,0.233-0.628,0.271-0.948,0.3h-0.649c-0.271-0.052-0.584-0.109-0.789-0.322
				c-0.24-0.262-0.218-0.642-0.218-0.752c0.072-0.772,0.102-0.94,0.291-1.714c0.095-0.263,0.168-0.401,0.241-0.503
				c0.073-0.117,0.167-0.197,0.292-0.264c0.196-0.109,0.467-0.139,0.518-0.146c0.161-0.006,0.321-0.021,0.482-0.021
				c0.175,0,0.343,0.016,0.518,0.029c0.241,0.044,0.438,0.08,0.613,0.256c0.204,0.197,0.227,0.452,0.227,0.723
				c-0.016,0.525-0.06,0.7-0.103,0.978H181.05z M183.026,28.158c0.022-0.131,0.06-0.365,0.06-0.496c0-0.095-0.008-0.379-0.3-0.511
				c-0.132-0.059-0.423-0.073-0.584-0.073c-0.065,0-0.562-0.014-0.788,0.248c-0.124,0.153-0.204,0.416-0.3,0.84L183.026,28.158z"/>
			<path fill="#F6F4F4" d="M185.501,26.677l-0.08,0.497c0.028-0.037,0.123-0.184,0.24-0.271c0.183-0.139,0.54-0.263,1.087-0.263
				c0.052,0,0.227,0,0.387,0.043c0.256,0.066,0.489,0.234,0.577,0.475c0.059,0.168,0.043,0.373,0.028,0.576
				c-0.028,0.227-0.058,0.453-0.102,0.68c-0.052,0.299-0.109,0.605-0.168,0.897c-0.059,0.335-0.117,0.664-0.168,0.999h-0.568
				l0.021-0.197l0.402-2.254c0.015-0.248,0.029-0.475-0.153-0.613c-0.168-0.139-0.365-0.139-0.577-0.139
				c-0.146,0-0.547-0.015-0.854,0.277c-0.109,0.102-0.175,0.227-0.196,0.27c-0.044,0.103-0.081,0.256-0.088,0.271l-0.416,2.379
				h-0.577l0.636-3.627H185.501z"/>
			<path fill="#F6F4F4" d="M189.062,26.662l0.152-0.854h0.562l-0.146,0.846h1.343l-0.08,0.475h-1.351l-0.387,2.219
				c-0.015,0.146-0.036,0.313,0.058,0.416c0.088,0.095,0.277,0.109,0.409,0.109c0.271,0,0.395-0.131,0.445-0.227
				c0.065-0.109,0.103-0.313,0.153-0.627l0.511,0.007c-0.008,0.088-0.021,0.175-0.036,0.263c-0.008,0.08-0.073,0.664-0.453,0.905
				c-0.248,0.146-0.664,0.153-0.715,0.153c-0.029,0-0.168-0.008-0.285-0.021c-0.277-0.045-0.503-0.125-0.619-0.395
				c-0.059-0.131-0.066-0.248-0.037-0.518l0.395-2.285h-0.569l0.08-0.467H189.062z"/>
			<path fill="#F6F4F4" d="M193.774,30.676c0,0.037-0.015,0.277,0.044,0.416c0.109,0.256,0.46,0.292,0.723,0.292
				c0.183,0,0.343-0.022,0.408-0.036c0.037,0,0.22-0.029,0.344-0.096c0.044-0.021,0.139-0.08,0.211-0.182
				c0.081-0.117,0.124-0.277,0.132-0.307l0.204-0.992c-0.08,0.146-0.116,0.197-0.175,0.255c-0.233,0.241-0.555,0.277-0.883,0.307
				h-0.19c-0.423-0.036-0.854-0.095-1.036-0.511c-0.073-0.168-0.095-0.328-0.08-0.686c0.095-0.898,0.153-1.096,0.284-1.599
				c0.008-0.022,0.066-0.204,0.132-0.321c0.153-0.285,0.452-0.576,1.189-0.576c0.095,0,0.189,0.008,0.277,0.014
				c0.021,0,0.562,0.022,0.788,0.271c0.059,0.058,0.109,0.167,0.146,0.248l0.094-0.512l0.555,0.008
				c-0.124,0.707-0.255,1.422-0.379,2.145c-0.08,0.489-0.16,0.986-0.256,1.461c-0.036,0.189-0.073,0.379-0.109,0.561
				c-0.065,0.241-0.116,0.409-0.284,0.599c-0.285,0.329-0.693,0.372-1.131,0.431c-0.248,0.015-0.292,0.021-0.687-0.015
				c-0.072-0.015-0.146-0.022-0.226-0.036c-0.577-0.124-0.636-0.541-0.636-0.788c0-0.132,0.015-0.219,0.037-0.351H193.774z
				 M194.104,29.516c0.16,0.379,0.7,0.35,0.759,0.35c0.496,0,0.723-0.174,0.861-0.35c0.124-0.168,0.168-0.307,0.226-0.496
				c0.095-0.344,0.146-0.504,0.212-1.131c0.008-0.263,0.008-0.46-0.212-0.621c-0.138-0.102-0.351-0.152-0.729-0.152
				c-0.139,0-0.292,0.007-0.416,0.051c-0.328,0.088-0.423,0.32-0.519,0.627c-0.108,0.424-0.153,0.541-0.226,1.271
				C194.052,29.318,194.06,29.414,194.104,29.516z"/>
			<path fill="#F6F4F4" d="M197.496,29.137c0.088-0.752,0.124-0.941,0.328-1.664c0.073-0.205,0.132-0.351,0.285-0.512
				c0.263-0.27,0.599-0.284,0.729-0.307c0.197-0.014,0.395-0.028,0.591-0.028c0.183,0,0.365,0.015,0.548,0.028
				c0.255,0.037,0.459,0.081,0.649,0.271c0.263,0.27,0.248,0.656,0.233,1.021c-0.066,0.496-0.08,0.686-0.3,1.503
				c-0.014,0.051-0.051,0.167-0.108,0.292c-0.22,0.459-0.555,0.533-1.044,0.605c-0.205,0.008-0.416,0.015-0.62,0.008
				c-0.109,0-0.22-0.008-0.328-0.016c-0.052-0.007-0.109-0.014-0.161-0.021c-0.153-0.021-0.569-0.088-0.737-0.54
				c-0.043-0.132-0.059-0.226-0.065-0.475V29.137z M198.233,29.742c0.021,0.014,0.073,0.059,0.139,0.088
				c0.095,0.043,0.336,0.08,0.627,0.08c0.475,0,0.687-0.08,0.832-0.241c0.146-0.153,0.197-0.365,0.219-0.431
				c0.146-0.576,0.176-0.715,0.249-1.313c0.007-0.08,0.007-0.161,0.007-0.241c0-0.072,0-0.35-0.241-0.488
				c-0.211-0.117-0.649-0.103-0.656-0.103c-0.452,0-0.635,0.036-0.811,0.168c-0.146,0.116-0.189,0.233-0.255,0.401
				c-0.183,0.656-0.212,0.824-0.277,1.518C198.073,29.508,198.109,29.625,198.233,29.742z"/>
			<path fill="#F6F4F4" d="M202.159,28.618c-0.008,0.036-0.08,0.364-0.08,0.591c0,0.336,0.102,0.467,0.226,0.562
				c0.176,0.123,0.38,0.131,0.599,0.131c0.343,0,0.635,0.008,0.854-0.263c0.08-0.103,0.124-0.204,0.175-0.444h0.577
				c-0.066,0.299-0.139,0.641-0.38,0.86c-0.255,0.233-0.627,0.271-0.948,0.3h-0.649c-0.271-0.052-0.584-0.109-0.788-0.322
				c-0.241-0.262-0.219-0.642-0.219-0.752c0.072-0.772,0.102-0.94,0.291-1.714c0.096-0.263,0.168-0.401,0.241-0.503
				c0.073-0.117,0.168-0.197,0.292-0.264c0.197-0.109,0.467-0.139,0.519-0.146c0.16-0.006,0.321-0.021,0.481-0.021
				c0.175,0,0.343,0.016,0.519,0.029c0.24,0.044,0.438,0.08,0.612,0.256c0.204,0.197,0.227,0.452,0.227,0.723
				c-0.015,0.525-0.059,0.7-0.103,0.978H202.159z M204.137,28.158c0.021-0.131,0.059-0.365,0.059-0.496
				c0-0.095-0.008-0.379-0.3-0.511c-0.132-0.059-0.423-0.073-0.583-0.073c-0.066,0-0.562-0.014-0.789,0.248
				c-0.124,0.153-0.204,0.416-0.299,0.84L204.137,28.158z"/>
			<path fill="#F6F4F4" d="M205.961,29.166c0,0.021-0.022,0.24,0,0.387c0.044,0.24,0.211,0.32,0.635,0.335h0.649
				c0.328-0.036,0.481-0.065,0.591-0.372c0.021-0.059,0.065-0.189,0.065-0.357c0-0.095-0.015-0.146-0.028-0.183
				c-0.044-0.132-0.125-0.189-0.431-0.233l-0.979-0.088c-0.088-0.014-0.175-0.029-0.263-0.051c-0.189-0.051-0.496-0.16-0.496-0.664
				c0-0.066,0.015-0.599,0.219-0.92c0.059-0.094,0.139-0.16,0.176-0.182c0.196-0.146,0.452-0.161,0.524-0.176
				c0.212-0.014,0.424-0.029,0.635-0.029c0.205,0,0.409,0.016,0.614,0.029c0.182,0.021,0.357,0.051,0.518,0.153
				c0.189,0.116,0.263,0.307,0.263,0.533c0,0.095-0.008,0.138-0.029,0.299l-0.54-0.007c0.022-0.176,0.029-0.314-0.087-0.424
				c-0.037-0.029-0.103-0.08-0.212-0.102c-0.088-0.022-0.329-0.037-0.591-0.037c-0.365,0-0.592,0.029-0.708,0.109
				c-0.227,0.161-0.241,0.584-0.241,0.621c0,0.064,0.008,0.197,0.139,0.283c0.146,0.096,0.38,0.104,0.408,0.104l1.008,0.088
				c0.24,0.035,0.656,0.123,0.656,0.743c0,0.314-0.109,0.868-0.372,1.087c-0.197,0.168-0.504,0.19-0.569,0.205
				c-0.212,0.015-0.43,0.037-0.642,0.037c-0.227,0-0.453-0.022-0.687-0.037c-0.211-0.029-0.408-0.059-0.584-0.205
				c-0.116-0.102-0.212-0.248-0.212-0.576c0-0.175,0.022-0.313,0.03-0.371H205.961z"/>
			<path fill="#F6F4F4" d="M214.906,26.677l-1.795,3.627h-0.773l-0.599-3.642l0.576,0.008c0.066,0.496,0.139,0.992,0.219,1.488
				c0.052,0.357,0.117,0.715,0.169,1.072c0.028,0.227,0.051,0.461,0.08,0.687c0.124-0.3,0.248-0.591,0.386-0.883
				c0.19-0.409,0.395-0.81,0.592-1.212c0.183-0.379,0.364-0.766,0.547-1.146H214.906z"/>
			<path fill="#F6F4F4" d="M216.11,26.677l-0.635,3.634h-0.562l0.635-3.634H216.11z M216.373,25.195l-0.117,0.635h-0.562
				l0.117-0.635H216.373z"/>
			<path fill="#F6F4F4" d="M217.709,26.662l-0.073,0.496c0.044-0.08,0.102-0.175,0.16-0.24c0.131-0.131,0.372-0.285,0.803-0.285
				c0.044,0,0.292,0,0.468,0.073c0.16,0.065,0.444,0.248,0.444,0.693c0,0.132-0.015,0.271-0.059,0.519h-0.555
				c0.022-0.125,0.045-0.256,0.045-0.387c0-0.344-0.271-0.416-0.57-0.416c-0.686,0-0.803,0.511-0.868,0.736l-0.438,2.445h-0.576
				l0.648-3.635H217.709z"/>
			<path fill="#F6F4F4" d="M222.751,27.838c0.007-0.037,0.028-0.125,0.028-0.227c0-0.103-0.028-0.197-0.08-0.277
				c-0.168-0.256-0.599-0.241-0.876-0.234c-0.306-0.007-0.481,0.008-0.605,0.096c-0.16,0.109-0.204,0.336-0.24,0.518h-0.555
				c0.059-0.364,0.116-0.7,0.423-0.897c0.183-0.116,0.358-0.139,0.562-0.161c0.175-0.014,0.35-0.021,0.532-0.021
				c0.176,0,0.357,0.016,0.533,0.021c0.226,0.037,0.299,0.052,0.415,0.096c0.555,0.219,0.468,0.766,0.453,0.941l-0.46,2.619h-0.555
				l0.051-0.379c-0.299,0.336-0.394,0.379-0.86,0.416c-0.233,0.008-0.292,0.021-0.679-0.029c-0.189-0.029-0.248-0.043-0.344-0.08
				c-0.364-0.131-0.467-0.416-0.467-0.795c0-0.672,0.227-1.037,0.467-1.19c0.19-0.109,0.416-0.139,0.657-0.161h0.656
				c0.022,0,0.212,0.016,0.329,0.045c0.313,0.072,0.416,0.232,0.503,0.35L222.751,27.838z M220.736,29.734
				c0.131,0.102,0.372,0.139,0.737,0.139c0.028,0,0.475,0.008,0.7-0.117c0.168-0.087,0.248-0.24,0.271-0.291
				c0.073-0.161,0.095-0.395,0.095-0.438c0-0.263-0.189-0.372-0.277-0.408c-0.117-0.058-0.38-0.08-0.723-0.08
				c-0.313,0-0.54,0.015-0.649,0.073c-0.103,0.058-0.168,0.16-0.189,0.203c-0.081,0.146-0.124,0.322-0.124,0.475
				C220.568,29.537,220.656,29.676,220.736,29.734z"/>
			<path fill="#F6F4F4" d="M225.268,25.174l-0.912,5.13h-0.569l0.912-5.13H225.268z"/>
		</g>
	</g>
</g>
</svg>
