<?xml version="1.0" encoding="UTF-8" standalone="no"?>
<svg width="363px" height="99px" viewBox="0 0 363 99" version="1.1" xmlns="http://www.w3.org/2000/svg" xmlns:xlink="http://www.w3.org/1999/xlink" xmlns:sketch="http://www.bohemiancoding.com/sketch/ns">
    <!-- Generator: Sketch 3.1 (8751) - http://www.bohemiancoding.com/sketch -->
    <title>Path 237 + Oval 4 + Imported Layers</title>
    <desc>Created with Sketch.</desc>
    <defs></defs>
    <g id="Page-1" stroke="none" stroke-width="1" fill="none" fill-rule="evenodd" sketch:type="MSPage">
        <g id="Desktop-HD" sketch:type="MSArtboardGroup" transform="translate(-285.000000, -310.000000)">
            <g id="Path-237-+-Oval-4-+-Imported-Layers" sketch:type="MSLayerGroup" transform="translate(286.000000, 310.000000)">
                <path d="M-0.139601741,82.2224532 C-0.139601741,82.2224532 174.808447,-60.7089433 361.19096,98.2307692" id="Path-237" stroke="#444444" stroke-linecap="round" stroke-linejoin="round" stroke-dasharray="4" sketch:type="MSShapeGroup"></path>
                <ellipse id="Oval-4" fill="#F6F4F4" sketch:type="MSShapeGroup" cx="113.5" cy="32.5" rx="42.5" ry="32.5"></ellipse>
                <path d="M79,32.1750843 C79,32.1750843 93.6990495,38.2185301 95.0175644,38.762 C94.9799901,39.8560241 94.5325149,52.7156145 94.5325149,52.7156145 C94.5325149,52.7156145 109.161198,44.4927229 110.46195,43.760506 C111.865861,44.2766506 122.252752,48.1193976 122.252752,48.1193976 L147.316832,11 L79,32.1750843 L79,32.1750843 Z M109.161198,41.9028916 C106.936119,43.1537831 101.473505,46.2248434 98.4573168,47.9210361 C100.33603,45.0994458 103.541455,40.2861446 103.824287,39.8600723 C104.377653,40.0756386 107.476505,41.2597349 109.161198,41.9028916 L109.161198,41.9028916 Z M103.274337,38.676988 L97.5685149,47.3143133 C97.6716733,44.4557831 97.8390495,39.6738554 97.893703,38.110747 L133.704703,19.2416145 L103.274337,38.676988 L103.275703,38.677494 L103.274337,38.676988 L103.274337,38.676988 Z M137.749059,16.1826988 L97.4469109,37.4083855 C95.543604,36.6270843 88.250099,33.6339518 85.3322871,32.4351807 C89.285099,31.2035181 125.191059,20.072506 137.749059,16.1826988 L137.749059,16.1826988 Z M110.146327,41.3493012 C110.146327,41.3493012 110.136079,41.3548675 110.127881,41.3599277 L104.530683,39.1693494 L141.102733,15.5177831 C137.573485,20.744 122.032772,43.76 120.959515,45.3504337 C118.920257,44.5979759 110.146327,41.3493012 110.146327,41.3493012 L110.146327,41.3493012 Z" id="Imported-Layers" fill="#444444" sketch:type="MSShapeGroup" transform="translate(113.500000, 32.000000) rotate(10.000000) translate(-113.500000, -32.000000) "></path>
            </g>
        </g>
    </g>
</svg>