<?xml version="1.0" encoding="UTF-8" standalone="no"?>
<svg width="332px" height="276px" viewBox="0 0 332 276" version="1.1" xmlns="http://www.w3.org/2000/svg" xmlns:xlink="http://www.w3.org/1999/xlink" xmlns:sketch="http://www.bohemiancoding.com/sketch/ns">
    <!-- Generator: Sketch 3.1.1 (8761) - http://www.bohemiancoding.com/sketch -->
    <title>Rectangle 77 + Imported Layers 2</title>
    <desc>Created with Sketch.</desc>
    <defs>
        <radialGradient cx="50%" cy="50%" fx="50%" fy="50%" r="60.0307214%" id="radialGradient-1">
            <stop stop-color="#FFFFFF" offset="0%"></stop>
            <stop stop-color="#F0F0F0" offset="100%"></stop>
        </radialGradient>
    </defs>
    <g id="Page-1" stroke="none" stroke-width="1" fill="none" fill-rule="evenodd" sketch:type="MSPage">
        <g id="Desktop-Portfolio_Detail_Duriana" sketch:type="MSArtboardGroup" transform="translate(-98.000000, -1093.000000)">
            <g id="Rectangle-77-+-Imported-Layers-2" sketch:type="MSLayerGroup" transform="translate(98.000000, 1093.303929)">
                <rect id="Rectangle-77" fill="url(#radialGradient-1)" sketch:type="MSShapeGroup" x="0" y="0" width="332" height="275"></rect>
                <g id="Imported-Layers" transform="translate(68.000000, 117.000000)" sketch:type="MSShapeGroup">
                    <path d="M35.9321108,23.2327847 C36.2985423,22.4953476 36.5099009,21.6641189 36.5099009,20.7807185 C36.5099009,17.7823158 34.1280962,15.3513528 31.1903265,15.3513528 L7.41880175,15.3513528 C4.48045773,15.3513528 2.09865306,17.7823158 2.09865306,20.7807185 C2.09865306,21.6641189 2.31001166,22.4953476 2.67644315,23.2327847 L35.9321108,23.2327847" id="Fill-1" fill="#DA4241"></path>
                    <path d="M76.4762041,38.4844838 L76.4762041,41.7777441 L69.0711866,41.7777441 C68.42907,41.7777441 67.8851662,41.6487806 67.4377522,41.3867501 C66.9886152,41.125892 66.6089738,40.7513114 66.297105,40.2653533 L57.9536093,27.2951367 C57.6423149,26.8091786 57.3000058,26.463908 56.9238105,26.2581525 C56.5476152,26.0506384 55.9956706,25.9503986 55.2633819,25.9503986 L52.4950437,25.9503986 L52.4950437,36.2252768 C53.1790875,36.3477922 53.7166735,36.4468597 54.1123965,36.518962 C54.5075452,36.5893058 54.7803586,36.6397188 54.927965,36.6702011 C55.0772945,36.6977524 55.1921633,36.7182693 55.2731458,36.7329243 C56.1892245,36.9322316 56.6469767,37.5160848 56.6469767,38.4844838 L56.6469767,41.7777441 L40.9518776,41.7777441 L40.9518776,38.4844838 C40.9518776,37.5184296 41.4096297,36.9322316 42.3262828,36.7329243 C42.406691,36.7194417 42.5215598,36.6977524 42.6714636,36.6678563 C42.8202187,36.6397188 43.0924577,36.5893058 43.4887551,36.5177896 C43.8833294,36.4456873 44.4255102,36.3477922 45.111277,36.2252768 L45.111277,6.82275834 C44.4255102,6.69672577 43.8833294,6.5994169 43.4887551,6.52731455 C43.0924577,6.4557984 42.8202187,6.40597157 42.6714636,6.37783407 C42.5215598,6.35028276 42.4072653,6.32683484 42.3262828,6.31276609 C41.4096297,6.11287258 40.9518776,5.52901938 40.9518776,4.56062032 L40.9518776,1.26736004 L56.8273207,1.26736004 C59.5365015,1.26853244 61.8545539,1.55283846 63.7854985,2.1226229 C65.7170175,2.69357974 67.2999096,3.49080899 68.5324519,4.51724166 C69.7701633,5.54601913 70.6753294,6.7741039 71.2519708,8.1997374 C71.8280379,9.63006048 72.1175073,11.2051745 72.1152099,12.9227346 C72.1175073,14.2838863 71.9199329,15.5752804 71.5253586,16.7863655 C71.1330816,18.0027263 70.5650554,19.1065371 69.8235773,20.0942807 C69.0855452,21.0837829 68.1688921,21.9519421 67.0787872,22.7005169 C65.9909796,23.446747 64.7515452,24.0440827 63.3593353,24.491938 C64.293793,25.0359297 65.0995977,25.809711 65.7767493,26.8185578 L72.0238892,36.2241044 C72.7079329,36.3466198 73.2736618,36.4456873 73.7199271,36.5177896 C74.1656181,36.5893058 74.4866764,36.6397188 74.6836764,36.6678563 C74.8795277,36.6977524 75.0196676,36.7182693 75.1017988,36.7329243 C76.0167289,36.9322316 76.4762041,37.5160848 76.4762041,38.4844838 L76.4762041,38.4844838 Z M62.9056035,18.5396836 C63.575863,17.9147966 64.0743936,17.1720837 64.4029184,16.3127175 C64.7320175,15.4527651 64.8974286,14.5107449 64.8985773,13.483726 C64.8974286,11.4296883 64.2323382,9.85105712 62.9056035,8.74900491 C61.5794431,7.6469527 59.5548805,7.0953404 56.8273207,7.0953404 L52.4950437,7.0953404 L52.4950437,20.5444807 L56.717621,20.5444807 C58.1086822,20.5444807 59.3211224,20.3656904 60.3543673,20.0110406 C61.3887609,19.6558046 62.2399388,19.1651569 62.9056035,18.5396836 L62.9056035,18.5396836 Z" id="Fill-2" fill="#272A29"></path>
                    <path d="M95.7488921,13.4550023 C97.2393149,14.0347521 98.5252711,14.8806358 99.6050379,15.9908948 C100.685953,17.1029124 101.527942,18.4658227 102.12928,20.0813843 C102.73349,21.6963598 103.035595,23.5422972 103.035595,25.6127485 C103.035595,26.1362233 103.012621,26.570596 102.967248,26.917039 C102.9213,27.2640682 102.840892,27.5343055 102.720854,27.7295094 C102.601391,27.9247134 102.442297,28.0665733 102.239554,28.148641 C102.038534,28.2342259 101.782376,28.2735012 101.471656,28.2735012 L84.0690321,28.2735012 C84.2694781,31.2273528 85.0459913,33.3933544 86.4014431,34.7761954 C87.755172,36.1561055 89.5494227,36.8478191 91.7824723,36.8478191 C92.8794694,36.8478191 93.827137,36.7182693 94.6226035,36.4550664 C95.4192187,36.1953807 96.115898,35.9052127 96.7091953,35.5886658 C97.3042157,35.2715327 97.8251458,34.9813647 98.2737085,34.7193342 C98.7222711,34.4584761 99.1570496,34.3277539 99.5774694,34.3277539 C99.8514315,34.3277539 100.090359,34.3828566 100.29023,34.4954066 C100.492974,34.6073704 100.666426,34.76623 100.813458,34.9713993 L102.789776,37.4938093 C102.038534,38.3889336 101.19712,39.1404394 100.263236,39.7477405 C99.3305015,40.3556278 98.3558397,40.8404135 97.3403994,41.2056149 C96.3243848,41.5684714 95.2905656,41.8263986 94.2389417,41.975879 C93.1873178,42.1253595 92.1667085,42.1986343 91.1788367,42.1986343 C89.2203236,42.1986343 87.3996531,41.8686048 85.7156764,41.2056149 C84.0311254,40.5420388 82.5682711,39.5595709 81.322519,38.2617286 C80.0790641,36.9644725 79.1015306,35.3600486 78.3853236,33.4443536 C77.6737114,31.5310034 77.315895,29.312244 77.315895,26.7910065 C77.315895,24.8307604 77.6271895,22.984823 78.2492041,21.2567113 C78.8694956,19.529772 79.7637493,18.0267604 80.9244985,16.746504 C82.0875452,15.4680062 83.5067493,14.4550561 85.1792391,13.7082399 C86.8551749,12.9590788 88.7447668,12.5874293 90.8485889,12.5874293 C92.6238863,12.5874293 94.257895,12.8770111 95.7488921,13.4550023 L95.7488921,13.4550023 Z M86.3474548,19.2536728 C85.2315044,20.3920693 84.5152974,22.0088033 84.2057259,24.1009439 L96.9418047,24.1009439 C96.9418047,23.2052334 96.8234898,22.3599359 96.5857114,21.5650514 C96.3473586,20.7713394 95.9820758,20.0755224 95.4864169,19.4776004 C94.9942041,18.8802647 94.3721895,18.4089615 93.6197988,18.0631047 C92.8697055,17.7166617 91.9932566,17.5466643 90.9858571,17.5466643 C89.010688,17.5466643 87.4622566,18.1135177 86.3474548,19.2536728 L86.3474548,19.2536728 Z" id="Fill-3" fill="#272A29"></path>
                    <path d="M110.772009,40.1117694 C109.454464,38.7019633 108.795117,36.7546136 108.795117,34.2703065 L108.795117,18.2178609 L105.941201,18.2178609 C105.574195,18.2166886 105.259455,18.0976904 104.994108,17.8532458 C104.728187,17.6099736 104.595513,17.2459447 104.595513,16.7605728 L104.595513,14.0148214 L109.124216,13.258626 L110.551461,5.41412458 C110.624402,5.04130266 110.794983,4.74996226 111.059755,4.54479297 C111.324528,4.33962368 111.658222,4.23645283 112.061985,4.23762523 L115.576397,4.23762523 L115.576397,13.2861773 L122.987732,13.2861773 L122.987732,18.2178609 L115.576397,18.2178609 L115.576397,33.7949 C115.576397,34.6911967 115.795796,35.3917033 116.235743,35.8958335 C116.673968,36.40055 117.259224,36.6520289 117.993236,36.6520289 C118.411933,36.6520289 118.764006,36.6016159 119.046583,36.4996175 C119.330883,36.394688 119.578426,36.288 119.788636,36.1748638 C119.99942,36.0646586 120.18723,35.9567981 120.351493,35.8542135 C120.516329,35.7498703 120.681741,35.7000434 120.846003,35.7000434 C121.046449,35.7000434 121.211286,35.7498703 121.340513,35.8542135 C121.468017,35.9567981 121.605286,36.1109682 121.752318,36.3161375 L123.783198,39.6797415 C122.794178,40.5180047 121.660997,41.1540295 120.379636,41.5831264 C119.099423,42.0139819 117.772114,42.2279442 116.398857,42.2279442 C113.965362,42.2279442 112.089554,41.5209894 110.772009,40.1117694" id="Fill-4" fill="#272A29"></path>
                    <path d="M152.058155,38.4282088 L152.058155,41.7226415 L145.599656,41.7226415 C144.958688,41.7226415 144.455563,41.6259188 144.09028,41.4289563 C143.725571,41.2319938 143.448738,40.835724 143.266671,40.2383882 L142.662461,38.1931434 C141.949125,38.8467542 141.250723,39.4218144 140.562659,39.9159793 C139.878041,40.409558 139.1693,40.8251724 138.435289,41.1622362 C137.703,41.5004725 136.924764,41.7519514 136.102303,41.919604 C135.277545,42.0878429 134.362615,42.1728416 133.358087,42.1728416 C132.168047,42.1728416 131.069901,42.0092923 130.062501,41.6798491 C129.057399,41.3515782 128.191289,40.8609305 127.469338,40.2049749 C126.746239,39.5484332 126.183382,38.7342042 125.781341,37.7575983 C125.379875,36.7827511 125.177706,35.6502166 125.180003,34.3564776 C125.180003,33.2702528 125.456837,32.1969243 126.015099,31.1370783 C126.573936,30.0801633 127.502076,29.1246606 128.801816,28.2711564 C130.100408,27.4194107 131.828609,26.7124559 133.989292,26.1479473 C136.147676,25.5863696 138.829289,25.306167 142.031257,25.306167 L142.031257,23.6114686 C142.031257,21.6758429 141.634385,20.2384854 140.838344,19.307603 C140.042303,18.3755482 138.884426,17.910107 137.364137,17.910107 C136.26714,17.910107 135.352784,18.0408292 134.619921,18.3016873 C133.887633,18.5648902 133.251834,18.8585753 132.713099,19.1839152 C132.177236,19.5080827 131.67928,19.8023541 131.216359,20.0667294 C130.760329,20.3281737 130.254332,20.4588958 129.707557,20.4588958 C129.249805,20.4588958 128.855805,20.3369667 128.52728,20.0942807 C128.197032,19.8515947 127.932259,19.5520476 127.731239,19.197984 L126.496399,16.986259 C129.734551,13.9585464 133.641239,12.4461556 138.216464,12.4461556 C139.863108,12.4461556 141.329983,12.7234272 142.622831,13.2726948 C143.911085,13.8237209 145.004636,14.5898816 145.90291,15.5705909 C146.800609,16.5530587 147.47891,17.7231098 147.947,19.0866064 C148.413942,20.4501029 148.646551,21.9443215 148.646551,23.5698485 L148.646551,36.3038273 C149.272586,36.4163774 149.754461,36.5037209 150.092749,36.5670302 C150.431038,36.6279948 150.629187,36.6660977 150.682601,36.6754769 C151.599254,36.8783014 152.058155,37.4609822 152.058155,38.4282088 L152.058155,38.4282088 Z M142.030108,29.5361716 C140.054364,29.5361716 138.401977,29.6633766 137.076391,29.9166141 C135.749656,30.1698516 134.684248,30.4951915 133.879592,30.8897028 C133.073213,31.2848002 132.501741,31.7455518 132.162878,32.2737162 C131.824589,32.7989496 131.654583,33.371665 131.654583,33.9930349 C131.654583,35.2170163 132.007805,36.0916237 132.712525,36.6180295 C133.414948,37.1438491 134.334472,37.4076381 135.471673,37.4076381 C136.165481,37.4076381 136.807023,37.3443288 137.392854,37.2153652 C137.977536,37.0858155 138.531204,36.8923701 139.053283,36.6350292 C139.574213,36.3782745 140.077338,36.0634862 140.562659,35.6859747 C141.046831,35.3084632 141.537895,34.8617803 142.031257,34.3465123 L142.030108,29.5361716 L142.030108,29.5361716 Z" id="Fill-5" fill="#272A29"></path>
                    <path d="M169.201749,38.4844838 L169.201749,41.7777441 L154.103394,41.7777441 L154.103394,38.4844838 C154.103394,37.5160848 154.561146,36.9322316 155.477224,36.7329243 C155.557058,36.7182693 155.671927,36.6977524 155.822405,36.6678563 C155.971735,36.6397188 156.245122,36.5893058 156.639122,36.5177896 C157.034845,36.4456873 157.575878,36.3477922 158.263942,36.2241044 L158.263942,5.70077539 C157.575878,5.57767382 157.034845,5.48095115 156.639122,5.40650401 C156.245122,5.33498785 155.971735,5.28574722 155.822405,5.25760972 C155.671927,5.23005841 155.557633,5.20954148 155.477224,5.19430034 C154.561146,4.99206203 154.103394,4.40762264 154.103394,3.43980977 L154.103394,0.146549496 L165.040627,0.146549496 L165.040627,36.2241044 C165.729265,36.3466198 166.267426,36.4456873 166.66602,36.5177896 C167.058872,36.5893058 167.333408,36.6397188 167.482163,36.6678563 C167.633216,36.6977524 167.748085,36.7182693 167.82677,36.7329243 C168.742274,36.9322316 169.201749,37.5160848 169.201749,38.4844838" id="Fill-6" fill="#272A29"></path>
                    <path d="M189.384773,13.4550023 C190.877493,14.0347521 192.163449,14.8806358 193.243216,15.9908948 C194.321834,17.1029124 195.164397,18.4658227 195.766883,20.0813843 C196.372242,21.6963598 196.673198,23.5422972 196.673198,25.6127485 C196.673198,26.1362233 196.651948,26.570596 196.605426,26.917039 C196.558904,27.2640682 196.477347,27.5343055 196.359606,27.7295094 C196.238994,27.9247134 196.079327,28.0665733 195.877732,28.148641 C195.674988,28.2342259 195.421128,28.2735012 195.110408,28.2735012 L177.706636,28.2735012 C177.90823,31.2273528 178.684743,33.3933544 180.039621,34.7761954 C181.39335,36.1561055 183.188175,36.8478191 185.420076,36.8478191 C186.517073,36.8478191 187.464741,36.7182693 188.260781,36.4550664 C189.056822,36.1953807 189.751778,35.9052127 190.34565,35.5886658 C190.942394,35.2715327 191.462175,34.9813647 191.910738,34.7193342 C192.3593,34.4584761 192.794079,34.3277539 193.213924,34.3277539 C193.489035,34.3277539 193.726239,34.3828566 193.928408,34.4954066 C194.130003,34.6073704 194.304603,34.76623 194.449338,34.9713993 L196.426805,37.4938093 C195.674988,38.3889336 194.834723,39.1404394 193.90084,39.7477405 C192.968105,40.3556278 191.994017,40.8404135 190.978003,41.2056149 C189.962563,41.5684714 188.929318,41.8263986 187.875971,41.975879 C186.823198,42.1253595 185.804312,42.1986343 184.814143,42.1986343 C182.859076,42.1986343 181.037257,41.8686048 179.352706,41.2056149 C177.669303,40.5420388 176.204726,39.5595709 174.960122,38.2617286 C173.717242,36.9644725 172.736837,35.3600486 172.022927,33.4443536 C171.310741,31.5310034 170.952924,29.312244 170.952924,26.7910065 C170.952924,24.8307604 171.264219,22.984823 171.887382,21.2567113 C172.507673,19.529772 173.401353,18.0267604 174.563251,16.746504 C175.724,15.4680062 177.144353,14.4550561 178.816843,13.7082399 C180.492204,12.9590788 182.383519,12.5874293 184.486767,12.5874293 C186.262064,12.5874293 187.89435,12.8770111 189.384773,13.4550023 L189.384773,13.4550023 Z M179.98391,19.2536728 C178.869108,20.3920693 178.153475,22.0088033 177.843329,24.1009439 L190.581131,24.1009439 C190.581131,23.2052334 190.459945,22.3599359 190.223315,21.5650514 C189.985536,20.7713394 189.617382,20.0755224 189.12402,19.4776004 C188.630659,18.8802647 188.009219,18.4089615 187.257977,18.0631047 C186.508458,17.7166617 185.630286,17.5466643 184.624035,17.5466643 C182.648292,17.5466643 181.09986,18.1135177 179.98391,19.2536728 L179.98391,19.2536728 Z" id="Fill-7" fill="#272A29"></path>
                    <path d="M38.2949621,20.1464523 C38.2949621,16.1421339 34.6725743,12.9309413 30.9422099,12.9309413 L27.5397959,12.9309413 C27.5386472,12.8910799 27.5374985,12.8453564 27.5363499,12.8224947 C27.3502624,9.05324166 26.1866414,0.286064616 19.4151254,0.286064616 C14.0622391,0.286064616 11.7711808,6.43997105 11.3260641,12.9309413 L7.72320408,12.9309413 C3.65799708,12.9309413 0.15851895,16.1444787 0.15851895,20.0907635 L0.15851895,25.9416056 L0.164836735,25.9416056 C0.23835277,33.5393177 1.38991254,42.0878429 19.1193382,42.0878429 C27.5260117,42.0878429 33.0965743,40.1979406 35.8718047,36.3114479 C38.0296152,33.2942869 38.4086822,29.6123774 38.4707114,25.9416056 L38.4821983,25.9416056 L38.2949621,20.1464523 L38.2949621,20.1464523 Z M30.9422099,15.9504471 C33.1051895,15.9504471 35.4525335,17.8127981 35.4565539,20.2021411 L35.5243265,22.4039007 L14.9662566,22.4039007 C14.9358163,20.5057917 14.9151399,18.4939602 14.9042274,16.9962243 L14.8979096,15.9504471 L30.9422099,15.9504471 L30.9422099,15.9504471 Z M19.4151254,3.77745981 C21.9583207,3.77745981 23.5854373,7.11468493 23.8852449,12.9309413 L14.9679796,12.9309413 C15.3298163,7.37202585 17.0252799,3.77745981 19.4151254,3.77745981 L19.4151254,3.77745981 Z M7.72320408,15.9504471 L11.2433586,15.9504471 C11.2450816,16.3455446 11.2485277,16.8731228 11.2531224,17.4833549 C11.2646093,18.9207123 11.2852857,20.6787201 11.3134286,22.4039007 L3.00152187,22.4039007 L2.99635277,20.1464523 C2.99635277,17.8075224 5.56022449,15.9504471 7.72320408,15.9504471 L7.72320408,15.9504471 Z M33.6002741,34.5217855 C31.3465481,37.676703 26.5071254,38.9798211 18.9901108,38.9798211 C4.12895918,38.9798211 2.65806414,33.729832 2.5127551,25.9416056 L35.6529796,25.9416056 C35.5984169,29.1264192 35.2899942,32.1558904 33.6002741,34.5217855 L33.6002741,34.5217855 Z" id="Fill-8" fill="#272A29"></path>
                    <path d="M19.8665598,31.2736624 L19.8665598,29.7003071 L16.7846297,29.7003071 L16.7846297,27.4985474 L14.935242,27.4985474 L14.935242,29.7003071 L13.0858542,29.7003071 L13.0858542,28.4423262 L11.2364665,28.4423262 L11.2364665,29.7003071 L6.92199417,29.7003071 L6.92199417,31.2736624 L11.2364665,31.2736624 L11.2364665,33.4748359 L9.07923032,33.4748359 L9.07923032,35.0481913 L11.2364665,35.0481913 L11.2364665,36.6209605 L13.0858542,36.6209605 L13.0858542,35.0481913 L14.935242,35.0481913 L14.935242,37.5647392 L16.7846297,37.5647392 L16.7846297,35.0481913 L19.8665598,35.0481913 L19.8665598,33.4748359 L16.7846297,33.4748359 L16.7846297,31.2736624 L19.8665598,31.2736624 L19.8665598,31.2736624 Z M13.0858542,31.2736624 L14.935242,31.2736624 L14.935242,33.4754221 L13.0858542,33.4754221 L13.0858542,31.2736624 Z" id="Fill-9" fill="#272A29"></path>
                </g>
            </g>
        </g>
    </g>
</svg>