<?xml version="1.0" encoding="UTF-8" standalone="no"?>
<svg width="396px" height="94px" viewBox="0 0 396 94" version="1.1" xmlns="http://www.w3.org/2000/svg" xmlns:xlink="http://www.w3.org/1999/xlink" xmlns:sketch="http://www.bohemiancoding.com/sketch/ns">
    <!-- Generator: Sketch 3.1.1 (8761) - http://www.bohemiancoding.com/sketch -->
    <title>World Line + plane</title>
    <desc>Created with Sketch.</desc>
    <defs></defs>
    <g id="Page-1" stroke="none" stroke-width="1" fill="none" fill-rule="evenodd" sketch:type="MSPage">
        <g id="Desktop-HD" sketch:type="MSArtboardGroup" transform="translate(-625.000000, -425.000000)">
            <g id="World-Line-+-plane" sketch:type="MSLayerGroup" transform="translate(626.000000, 426.000000)">
                <g id="World-Line" stroke="#444444" sketch:type="MSShapeGroup" stroke-linecap="round" stroke-linejoin="round" stroke-dasharray="4">
                    <path d="M-0.139601741,76.2224532 C-0.139601741,76.2224532 174.808447,-66.7089433 361.19096,92.2307692" id="Path-238" transform="translate(180.500000, 54.500000) scale(1, -1) translate(-180.500000, -54.500000) "></path>
                    <path d="M245.645857,13.3683722 C245.645857,13.3683722 289.243852,13.3683739 307.854714,62.3993048" id="Path-239" transform="translate(276.750286, 37.883839) scale(1, -1) rotate(36.000000) translate(-276.750286, -37.883839) "></path>
                    <path d="M277.253926,32.0628342 C277.253926,32.0628342 364.053521,5.62746143 389.545608,91.324207" id="Path-240" transform="translate(333.399767, 59.769261) scale(1, -1) rotate(345.000000) translate(-333.399767, -59.769261) "></path>
                </g>
                <g id="Oval-5-+-Imported-Layers-3" transform="translate(248.000000, 53.000000)" sketch:type="MSShapeGroup">
                    <ellipse id="Oval-5" fill="#F6F4F4" cx="21" cy="16.5" rx="21" ry="16.5"></ellipse>
                    <path d="M3.94909489,13.1188504 C3.94909489,13.1188504 10.5690232,17.4016654 11.1627147,17.7865211 C11.0479816,18.3302866 9.69653583,24.7214213 9.69653583,24.7214213 C9.69653583,24.7214213 17.5399412,21.865325 18.2374536,21.6108397 C18.8751088,21.9893605 23.5907071,24.8018771 23.5907071,24.8018771 L39.0596013,8.39350983 L3.94909489,13.1188504 L3.94909489,13.1188504 Z M17.7966241,20.5484249 C16.6035979,20.9829272 13.6746863,22.0496872 12.0574403,22.6389516 C13.2203934,21.3894133 15.2045283,19.2578962 15.3797198,19.0691365 C15.6299896,19.2243955 17.0335347,20.0823088 17.7966241,20.5484249 L17.7966241,20.5484249 Z M15.1913922,18.4583112 L11.653412,22.2872208 C11.9556176,20.8668661 12.4586387,18.4903624 12.623037,17.71353 L31.7125594,11.3520318 L15.1913922,18.4583112 L15.1920125,18.4586815 L15.1913922,18.4583112 L15.1913922,18.4583112 Z M33.9349803,10.1599987 L12.4522627,17.3143728 C11.5949723,16.7604296 8.30974743,14.6381234 6.99559186,13.7884067 C9.02765636,13.5117625 27.481196,11.0273124 33.9349803,10.1599987 L33.9349803,10.1599987 Z M18.2930832,20.4009725 C18.2930832,20.4009725 18.2876059,20.4028762 18.2831705,20.4047028 L15.7526341,18.8292047 L35.63411,10.1418886 C33.4559973,12.4520703 23.8646302,22.6261603 23.202159,23.329256 C22.2761707,22.7780689 18.2930832,20.4009725 18.2930832,20.4009725 L18.2930832,20.4009725 Z" id="Imported-Layers-3" fill="#444444"></path>
                </g>
            </g>
        </g>
    </g>
</svg>