<?xml version="1.0" encoding="utf-8"?>
<!-- Generator: Adobe Illustrator 16.0.0, SVG Export Plug-In . SVG Version: 6.00 Build 0)  -->
<!DOCTYPE svg PUBLIC "-//W3C//DTD SVG 1.1//EN" "http://www.w3.org/Graphics/SVG/1.1/DTD/svg11.dtd">
<svg version="1.1" id="Layer_1" xmlns:sketch="http://www.bohemiancoding.com/sketch/ns"
	 xmlns="http://www.w3.org/2000/svg" xmlns:xlink="http://www.w3.org/1999/xlink" x="0px" y="0px" width="263px" height="263px"
	 viewBox="0 0 263 263" enable-background="new 0 0 263 263" xml:space="preserve">
<title>Imported Layers</title>
<desc>Created with Sketch.</desc>
<g>
	<path fill="#444444" d="M84.792,245.823c-0.258,0-0.52-0.059-0.765-0.185c-20.45-10.499-18.577-22.937-18.487-23.461
		c0.156-0.912,1.022-1.528,1.935-1.369c0.908,0.155,1.52,1.014,1.372,1.921c-0.07,0.47-1.342,10.658,16.711,19.927
		c0.824,0.423,1.148,1.433,0.726,2.256C85.987,245.491,85.4,245.823,84.792,245.823z"/>
</g>
<g>
	<path fill="#444444" d="M96.045,143.26c-4.34,0.001-8.048-7.273-9.089-12.679c-0.962-5,0.19-8.405,3.161-9.344
		c0.879-0.279,1.824,0.21,2.103,1.093c0.279,0.883-0.21,1.825-1.093,2.104c-1.094,0.346-1.447,2.561-0.878,5.514
		c1.07,5.557,4.357,10.029,5.836,9.959c0.915-0.076,1.727,0.624,1.796,1.548c0.069,0.923-0.624,1.727-1.547,1.795
		C96.237,143.257,96.142,143.26,96.045,143.26z"/>
</g>
<g>
	<path fill="#444444" d="M96.21,143.319c-0.638,0-1.248-0.367-1.528-0.986c-0.381-0.844-0.007-1.836,0.836-2.219
		c0.267-0.12,0.498-0.242,0.713-0.354c0.723-0.377,1.542-0.804,2.772-0.804c0.925,0,1.676,0.75,1.676,1.676
		s-0.751,1.677-1.676,1.677c-0.389,0-0.604,0.102-1.221,0.424c-0.266,0.139-0.552,0.287-0.882,0.437
		C96.676,143.271,96.441,143.319,96.21,143.319z"/>
</g>
<g>
	<path fill="#444444" d="M102.53,141.684c-0.231,0-0.465-0.048-0.69-0.149c-1.396-0.632-2.708-1.797-4.011-3.564
		c-0.549-0.745-0.39-1.795,0.355-2.345c0.745-0.547,1.795-0.39,2.344,0.355c0.94,1.275,1.846,2.116,2.693,2.499
		c0.844,0.381,1.218,1.374,0.837,2.217C103.778,141.316,103.168,141.684,102.53,141.684z"/>
</g>
<g>
	<path fill="#444444" d="M111.605,162.417c-3.23,0-6.198-0.518-8.243-2.383c-1.502-1.369-2.264-3.279-2.264-5.675
		c0-0.926,0.75-1.676,1.676-1.676s1.676,0.75,1.676,1.676c0,1.435,0.382,2.48,1.17,3.198c2.212,2.016,7.431,1.532,10.549,1.245
		c0.437-0.041,0.984-0.072,1.627-0.108c4.916-0.274,15.146-0.845,24.017-8.828c0.688-0.621,1.748-0.563,2.367,0.124
		c0.619,0.688,0.564,1.748-0.124,2.367c-9.749,8.773-21.188,9.412-26.073,9.685c-0.595,0.033-1.101,0.062-1.505,0.098
		C114.843,162.291,113.193,162.417,111.605,162.417z"/>
</g>
<g>
	<path fill="#444444" d="M123.462,94.985c-0.219,0-0.436-0.013-0.649-0.041c-0.918-0.12-1.565-0.961-1.445-1.879
		c0.119-0.918,0.954-1.566,1.879-1.445c1.035,0.14,2.485-0.678,3.372-1.891c0.549-0.75,1.34-2.283,0.481-4.117
		c-0.393-0.838-0.032-1.836,0.807-2.229c0.839-0.392,1.836-0.032,2.229,0.807c1.163,2.481,0.868,5.221-0.81,7.517
		C127.848,93.727,125.562,94.985,123.462,94.985z"/>
</g>
<g>
	<path fill="#444444" d="M143.702,98.869c-0.751,0-1.435-0.509-1.625-1.271c-0.402-1.609-1.229-2.742-2.391-3.276
		c-1.283-0.591-2.962-0.426-4.731,0.458c-0.831,0.417-1.835,0.078-2.25-0.749c-0.414-0.828-0.078-1.835,0.75-2.249
		c2.698-1.35,5.408-1.529,7.633-0.506c2.087,0.96,3.594,2.917,4.242,5.51c0.224,0.898-0.322,1.808-1.22,2.033
		C143.974,98.853,143.837,98.869,143.702,98.869z"/>
</g>
<g>
	<path fill="#444444" d="M150.968,108.368c-0.429,0-0.858-0.164-1.186-0.491c-0.079-0.079-0.161-0.119-0.581-0.279
		c-0.32-0.122-0.718-0.274-1.219-0.524c-0.828-0.414-1.164-1.421-0.75-2.249c0.415-0.827,1.42-1.165,2.25-0.75
		c0.353,0.176,0.638,0.286,0.915,0.391c0.542,0.208,1.157,0.442,1.755,1.041c0.655,0.654,0.655,1.716,0,2.37
		C151.825,108.204,151.396,108.368,150.968,108.368z"/>
</g>
<g>
	<path fill="#444444" d="M153.76,119.543c-0.252,0-0.508-0.057-0.748-0.177c-2.044-1.022-2.044-3.07-2.044-4.293
		c0-0.926,0.75-1.676,1.676-1.676s1.677,0.75,1.677,1.676c0,0.941,0.041,1.219,0.19,1.294c0.828,0.414,1.164,1.421,0.75,2.249
		C154.967,119.203,154.375,119.543,153.76,119.543z"/>
</g>
<g>
	<path fill="none" stroke="#444444" stroke-width="4" stroke-linecap="round" stroke-miterlimit="10" d="M153.761,128.483"/>
</g>
<g>
	<path fill="#444444" d="M109.202,246.662c-0.813,0-1.527-0.593-1.655-1.422c-4.357-28.319,9.329-50.631,19.322-66.922
		c5.587-9.108,10.412-16.975,10.412-23.013c0-0.926,0.75-1.676,1.676-1.676s1.677,0.75,1.677,1.676
		c0,6.984-4.813,14.831-10.906,24.766c-10.264,16.731-23.037,37.555-18.867,64.659c0.141,0.915-0.487,1.771-1.402,1.911
		C109.372,246.655,109.286,246.662,109.202,246.662z"/>
</g>
<g>
	<path fill="#444444" d="M104.217,152.977c-1.817,0-3.77-0.212-5.835-0.643l-0.313-0.099c-4.408-1.875-3.974-5.016-3.656-7.308
		c0.139-1.011,0.284-2.055,0.137-3.12c-0.126-0.917,0.514-1.764,1.431-1.891c0.918-0.128,1.763,0.515,1.89,1.432
		c0.211,1.524,0.026,2.86-0.137,4.039c-0.307,2.223-0.396,2.86,1.499,3.698c7.064,1.434,12.37-0.029,14.579-4.023
		c0.448-0.81,1.469-1.104,2.278-0.655c0.81,0.447,1.104,1.467,0.656,2.277C114.467,150.802,110.038,152.977,104.217,152.977z"/>
</g>
<g>
	<path fill="#444444" d="M90.62,124.512c-0.795,0-1.501-0.568-1.648-1.378c-0.165-0.911,0.44-1.783,1.352-1.948
		c15.872-2.87,25.931-7.268,28.324-12.384c1.947-4.164,2.52-8.524,2.663-12.744c-3.523,1.282-7.671,0.879-10.73-1.232
		c-3.399-2.346-4.795-6.176-3.901-10.604c-2.183-2.849-2.694-6.906-1.239-10.39c1.75-4.189,5.905-6.672,11.401-6.811
		c0.948-0.025,1.695,0.708,1.718,1.633c0.023,0.926-0.708,1.695-1.633,1.719c-4.176,0.105-7.157,1.793-8.393,4.751
		c-1.063,2.545-0.573,5.634,1.19,7.511l0.637,0.678l-0.238,0.899c-0.898,3.394-0.06,6.183,2.362,7.854
		c2.764,1.907,6.788,1.845,9.569-0.147l2.653-1.901v3.264c0,5.442-0.366,11.262-3.021,16.939c-2.95,6.307-13.3,11.106-30.764,14.264
		C90.819,124.502,90.719,124.512,90.62,124.512z"/>
</g>
<g>
	<path fill="none" stroke="#444444" stroke-width="4" stroke-linecap="round" stroke-miterlimit="10" d="M222.511,95.028"/>
</g>
<g>
	<circle fill="#444444" cx="133.506" cy="110.184" r="3.771"/>
	<path fill="#444444" d="M133.506,115.632c-3.004,0-5.447-2.444-5.447-5.448c0-3.004,2.443-5.448,5.447-5.448
		s5.448,2.444,5.448,5.448C138.954,113.188,136.51,115.632,133.506,115.632z M133.506,108.088c-1.155,0-2.095,0.94-2.095,2.096
		s0.939,2.095,2.095,2.095c1.156,0,2.096-0.94,2.096-2.095S134.662,108.088,133.506,108.088z"/>
</g>
<g>
	<circle fill="#1ABC9C" cx="134.348" cy="112.142" r="2.61"/>
</g>
<g>
	<path fill="#444444" d="M146.412,156.804c-1.167,0-2.391-0.29-3.57-0.88c-0.828-0.414-1.164-1.421-0.75-2.249
		s1.419-1.165,2.249-0.75c1.547,0.772,3.139,0.687,4.058-0.222c0.826-0.821,0.798-1.979,0.708-2.595l-0.327-2.244l2.241,0.345
		c0.615,0.094,1.773,0.132,2.602-0.689c1.285-1.276,0.885-3.853-0.876-5.626c-0.651-0.657-0.647-1.719,0.009-2.371
		c0.659-0.651,1.72-0.646,2.371,0.01c3.093,3.116,3.478,7.767,0.857,10.367c-0.939,0.931-2.172,1.501-3.535,1.663
		c-0.172,1.361-0.752,2.589-1.688,3.521C149.611,156.22,148.067,156.804,146.412,156.804z"/>
</g>
<g>
	<path fill="#444444" d="M199.448,95.842c-0.445,0-0.891-0.177-1.221-0.527c-0.634-0.674-0.604-1.735,0.071-2.37
		c1.319-1.244,1.842-2.842,1.299-3.978c-0.492-1.03-1.638-1.361-2.276-1.466l-2.362-0.391l1.176-2.086
		c0.318-0.565,0.779-1.667,0.287-2.695c-0.783-1.634-3.495-2.03-5.922-0.87c-0.831,0.399-1.835,0.048-2.235-0.788
		c-0.399-0.835-0.047-1.836,0.789-2.235c4.135-1.98,8.798-0.883,10.392,2.446c0.571,1.193,0.687,2.553,0.359,3.907
		c1.261,0.595,2.246,1.539,2.817,2.733c1.192,2.494,0.398,5.581-2.025,7.864C200.273,95.69,199.86,95.842,199.448,95.842z"/>
</g>
<g>
	<g>
		<path fill="#444444" d="M91.671,188.46L91.671,188.46c-0.597,0-1.176-0.074-1.642-0.134c-0.206-0.026-0.384-0.054-0.514-0.058
			c-1.367-0.048-2.105-1.187-2.106-2.232v-25.648l14.487-12.148l9.511,0.146l-16.315,14.649v22.219
			c0.093,1.08-0.308,1.784-0.669,2.188C93.812,188.127,92.911,188.46,91.671,188.46z M90.762,185.04
			c0.305,0.036,0.624,0.067,0.909,0.067l0,0c0.024,0,0.047,0,0.069,0v-23.568l6.872-6.17l-7.85,6.582V185.04z"/>
	</g>
	<g>
		<path fill="#444444" d="M75.569,187.711c-0.303,0-0.608-0.082-0.884-0.253c-0.786-0.489-1.026-1.523-0.537-2.309
			c1.699-2.729,11.614-3.29,14.612-3.396c0.915-0.045,1.702,0.691,1.734,1.616c0.033,0.926-0.69,1.702-1.616,1.735
			c-7.022,0.249-11.198,1.363-11.963,1.932C76.591,187.473,76.085,187.711,75.569,187.711z"/>
	</g>
	<g>
		<path fill="#444444" d="M107.56,187.712c-0.567,0-1.11-0.29-1.42-0.785c-0.864-0.583-5.238-1.668-12.587-1.847
			c-0.925-0.022-1.657-0.791-1.635-1.717c0.023-0.926,0.804-1.679,1.717-1.635c4.232,0.104,14.213,0.667,15.469,3.657
			c0.358,0.853-0.042,1.836-0.896,2.194C107.996,187.669,107.776,187.712,107.56,187.712z"/>
	</g>
	<g>
		<path fill="#444444" d="M93.383,169.655c-0.076,0-0.153-0.005-0.231-0.016c-5.194-0.716-5.693-3.876-5.733-4.233l3.333-0.37
			c0,0,0.001-0.043-0.019-0.113c0.003,0.01,0.323,1.044,2.876,1.396c0.917,0.127,1.558,0.973,1.432,1.89
			C94.926,169.047,94.207,169.655,93.383,169.655z"/>
	</g>
	<g>
		<path fill="#444444" d="M93.278,177.793c-0.058,0-0.116-0.003-0.174-0.009c-5.219-0.54-5.614-3.264-5.64-3.805
			c-0.045-0.925,0.668-1.711,1.593-1.756c0.847-0.024,1.564,0.544,1.725,1.344c0.104,0.128,0.665,0.675,2.667,0.882
			c0.921,0.095,1.59,0.919,1.495,1.84C94.854,177.151,94.126,177.793,93.278,177.793z"/>
	</g>
	<g>
		<path fill="#444444" d="M75.78,207.476c-3.292,0-5.972-2.679-5.972-5.972c0-3.292,2.679-5.972,5.972-5.972
			c3.293,0,5.972,2.68,5.972,5.972C81.751,204.797,79.073,207.476,75.78,207.476z M75.78,198.885c-1.444,0-2.619,1.176-2.619,2.619
			c0,1.444,1.175,2.619,2.619,2.619c1.444,0,2.619-1.175,2.619-2.619C78.399,200.061,77.224,198.885,75.78,198.885z"/>
	</g>
	<g>
		<path fill="#444444" d="M76.618,215.857c-3.293,0-5.972-2.679-5.972-5.972s2.679-5.972,5.972-5.972
			c3.292,0,5.972,2.679,5.972,5.972S79.911,215.857,76.618,215.857z M76.618,207.267c-1.444,0-2.619,1.175-2.619,2.619
			c0,1.443,1.175,2.619,2.619,2.619s2.619-1.176,2.619-2.619C79.237,208.441,78.062,207.267,76.618,207.267z"/>
	</g>
	<g>
		<path fill="#444444" d="M78.294,224.238c-3.293,0-5.972-2.679-5.972-5.972s2.679-5.972,5.972-5.972
			c3.292,0,5.972,2.679,5.972,5.972S81.587,224.238,78.294,224.238z M78.294,215.647c-1.444,0-2.619,1.176-2.619,2.619
			c0,1.444,1.175,2.619,2.619,2.619s2.619-1.175,2.619-2.619C80.914,216.823,79.739,215.647,78.294,215.647z"/>
	</g>
	<g>
		<path fill="#444444" d="M74.961,229.014c-1.484,0-2.875-0.501-4.005-1.459c-1.007-0.854-1.682-2.033-1.959-3.379
			c-1.372-0.055-2.645-0.526-3.653-1.381c-2.099-1.779-2.695-4.847-1.517-7.814c0.341-0.861,1.317-1.279,2.177-0.94
			c0.86,0.342,1.281,1.316,0.939,2.177c-0.639,1.608-0.415,3.187,0.569,4.021c0.889,0.754,2.04,0.626,2.646,0.484l2.207-0.521
			l-0.15,2.263c-0.042,0.623,0.021,1.781,0.91,2.534c0.83,0.704,1.774,0.726,2.421,0.612c1.039-0.175,2.063-0.806,2.884-1.774
			c0.599-0.707,1.655-0.796,2.363-0.195c0.706,0.599,0.793,1.656,0.195,2.362c-1.331,1.571-3.065,2.605-4.882,2.913
			C75.72,228.981,75.337,229.014,74.961,229.014z"/>
	</g>
	<g>
		<path fill="#444444" d="M67.18,217.586c-0.07,0-0.142-0.004-0.214-0.014c-2.041-0.26-3.893-1.152-5.215-2.515
			c-1.42-1.465-2.073-3.286-1.838-5.132c0.167-1.31,0.787-2.518,1.762-3.483c-0.047-0.08-0.093-0.159-0.136-0.239
			c-2.419-3.694-1.885-8.689,1.164-10.728c1.099-0.734,2.42-1.059,3.787-0.957c0.429-1.305,1.234-2.399,2.333-3.133
			c2.289-1.53,5.401-1.259,7.931,0.688c0.733,0.565,0.87,1.618,0.305,2.352c-0.564,0.732-1.618,0.869-2.351,0.306
			c-1.371-1.057-2.95-1.274-4.023-0.558c-0.969,0.646-1.163,1.788-1.192,2.411l-0.107,2.265l-2.134-0.767
			c-0.586-0.209-1.716-0.467-2.685,0.18c-1.5,1.004-1.596,4.051-0.192,6.151l0.091,0.153c0.179,0.342,0.428,0.667,0.74,0.966
			l1.638,1.567l-1.979,1.105c-0.544,0.305-1.479,0.988-1.626,2.144c-0.104,0.813,0.223,1.657,0.918,2.374
			c0.794,0.818,1.942,1.36,3.233,1.523c0.918,0.117,1.568,0.957,1.451,1.875C68.733,216.968,68.011,217.586,67.18,217.586z"/>
	</g>
	<g>
		<path fill="#444444" d="M107.311,201.324c-0.824,0-1.542-0.608-1.659-1.448c-0.126-0.916,0.515-1.763,1.432-1.889
			c1.286-0.177,2.256-1.293,2.256-2.594c0-1.166-0.782-2.202-1.9-2.52c-0.891-0.252-1.408-1.18-1.156-2.07
			c0.253-0.89,1.18-1.407,2.07-1.154c2.554,0.725,4.339,3.086,4.339,5.744c0,2.968-2.214,5.511-5.151,5.915
			C107.464,201.319,107.387,201.324,107.311,201.324z"/>
	</g>
	<g>
		<path fill="#444444" d="M91.79,238.576c-7.733,0-12.21-3.074-12.469-3.257c-0.295-0.209-0.515-0.506-0.627-0.849
			c-0.157-0.483-0.246-1.449-0.557-6.076c-0.151-2.249-0.322-4.799-0.437-5.515c-0.147-0.914,0.476-1.773,1.39-1.92
			c0.915-0.151,1.773,0.476,1.92,1.39c0.139,0.868,0.3,3.273,0.472,5.82c0.109,1.62,0.249,3.712,0.352,4.764
			c1.94,1.082,8.596,4.047,18.862,0.867c0.668-5.051,3.572-27.425,4.988-45.231c-4.927,1.38-14.503,3.82-28.194,0.453
			c0.166,2.009,0.404,4.831,0.691,7.981c0.084,0.923-0.595,1.738-1.517,1.822c-0.92,0.073-1.737-0.595-1.821-1.518
			c-0.563-6.179-0.941-11.097-0.945-11.146c-0.06-0.784,0.433-1.504,1.185-1.732c0.753-0.226,1.562,0.098,1.948,0.781
			c0.111,0.198,0.237,0.294,0.464,0.354c13.784,3.588,23.263,0.911,27.818-0.375l0.255-0.071c0.646-0.182,0.966-0.411,0.969-0.413
			c0.519-0.421,1.222-0.48,1.814-0.171c0.592,0.31,0.928,0.955,0.879,1.621c-1.488,20.488-5.312,48.853-5.351,49.137
			c-0.085,0.629-0.519,1.156-1.12,1.361C98.61,238.069,94.931,238.576,91.79,238.576z"/>
	</g>
	<g>
		<path fill="#444444" d="M88.636,226.083c0-0.814,0.402-1.497,0.854-1.94l0.915,0.814c-0.302,0.331-0.493,0.644-0.493,1.105
			c0,0.915,0.794,1.628,2.111,1.628c1.347,0,2.131-0.633,2.131-1.588c0-0.543-0.231-0.925-0.583-1.246l0.895-0.814
			c0.633,0.544,0.965,1.267,0.965,2.081c0,1.698-1.156,3.086-3.357,3.086C89.903,229.209,88.636,227.771,88.636,226.083z"/>
		<path fill="#444444" d="M92.003,223.747c-2.14,0-3.367-1.216-3.367-2.975c0-1.769,1.237-2.976,3.367-2.976
			c2.141,0,3.428,1.207,3.428,2.976C95.431,222.531,94.145,223.747,92.003,223.747z M92.003,219.314c-1.306,0-2.09,0.563-2.09,1.458
			c0,0.885,0.784,1.457,2.09,1.457c1.317,0,2.152-0.572,2.152-1.457C94.155,219.878,93.32,219.314,92.003,219.314z"/>
		<path fill="#444444" d="M88.757,216.566v-4.141h1.247v2.654h1.518v-2.263h1.247v2.263h2.543v1.486H88.757z"/>
		<path fill="#444444" d="M88.757,211.307v-4.142h1.247v2.654h1.518v-2.262h1.247v2.262h2.543v1.487H88.757z"/>
		<path fill="#444444" d="M88.757,206.047v-4.111h1.247v2.623h1.316v-2.231h1.236v2.231h1.508v-2.724h1.247v4.212H88.757z"/>
		<path fill="#444444" d="M88.757,200.555v-4.11h1.247v2.623h1.316v-2.231h1.236v2.231h1.508v-2.724h1.247v4.211H88.757z"/>
	</g>
</g>
<g>
	<g>
		<g>
			<path fill="#444444" d="M187.885,83.283c-0.448,0-0.895-0.178-1.225-0.531c-0.632-0.676-0.597-1.737,0.079-2.369
				c3.337-3.122,4.479-8.65,3.214-15.566c-1.795-9.805-7.995-20.121-14.026-23.727c0.146,0.88,0.375,1.987,0.587,3.02
				c1.036,5.039,2.602,12.654,2.254,21.998c-0.035,0.924-0.78,1.655-1.738,1.613c-0.925-0.035-1.647-0.812-1.612-1.737
				c0.333-8.94-1.184-16.317-2.188-21.199c-0.9-4.381-1.273-6.195,0.049-7.29c0.379-0.314,1.2-0.765,2.445-0.252
				c7.509,3.087,15.371,15.187,17.526,26.971c1.478,8.078-0.021,14.689-4.221,18.618C188.706,83.133,188.295,83.283,187.885,83.283z
				"/>
		</g>
	</g>
	<g>
		<path fill="#444444" d="M185.041,73.425c-0.139,0-0.279-0.017-0.42-0.054c-0.896-0.231-1.436-1.146-1.204-2.042
			c2.865-11.096-2.253-17.09-2.473-17.339c-0.608-0.693-0.546-1.751,0.144-2.363c0.688-0.612,1.739-0.556,2.357,0.13
			c0.269,0.3,6.554,7.489,3.218,20.411C186.469,72.924,185.787,73.425,185.041,73.425z"/>
	</g>
</g>
<g>
	<path fill="#444444" d="M110.68,218.167c-0.183,0-0.368-0.029-0.548-0.091c-0.697-0.236-6.764-2.735-5.426-17.453
		c0.084-0.923,0.907-1.592,1.821-1.519c0.922,0.084,1.601,0.899,1.517,1.821c-1.092,12.016,3.178,13.978,3.221,13.997
		c0.876,0.297,1.318,1.239,1.02,2.115C112.049,217.734,111.383,218.167,110.68,218.167z"/>
</g>
<g>
	<path fill="#444444" d="M234.117,114.712c-0.604,0-1.188-0.328-1.488-0.901c-0.428-0.82-0.109-1.833,0.711-2.261
		c1.952-1.019,3.045-2.748,2.785-4.405c-0.176-1.121-0.95-2.09-2.179-2.731l-2.012-1.049l1.594-1.615
		c0.974-0.987,1.413-2.147,1.237-3.268c-0.167-1.064-0.876-2.001-1.996-2.64c-1.243-0.708-2.81-0.963-4.414-0.709
		c-0.907,0.139-1.772-0.481-1.915-1.396c-0.145-0.915,0.48-1.772,1.396-1.916c2.351-0.368,4.692,0.025,6.593,1.109
		c2.025,1.154,3.321,2.941,3.648,5.033c0.245,1.563-0.097,3.164-0.95,4.587c1.248,1.093,2.064,2.512,2.31,4.075
		c0.487,3.103-1.297,6.202-4.545,7.897C234.644,114.65,234.378,114.712,234.117,114.712z"/>
</g>
<g>
	<path fill="#444444" d="M116.749,70.934c-0.07,0-0.141-0.004-0.213-0.013c-0.918-0.116-1.568-0.955-1.453-1.874
		c0.618-4.889,1.752-9.854,5.828-13.06c1.397-1.099,2.829-1.914,4.213-2.702c2.016-1.148,3.92-2.232,5.451-4.073
		c0.404-0.485,0.777-0.975,1.143-1.452c1.791-2.341,3.644-4.763,7.58-5.094c2.079-0.174,4.024,0.143,5.905,0.45
		c2.338,0.382,4.546,0.742,6.756,0.094c2.277-0.668,4.056-1.743,5.776-2.782c4.223-2.553,8.213-4.962,16.839-0.002
		c0.802,0.461,1.078,1.486,0.617,2.289c-0.46,0.802-1.485,1.08-2.289,0.618c-6.912-3.976-9.506-2.407-13.434-0.034
		c-1.814,1.096-3.871,2.338-6.564,3.129c-2.942,0.863-5.637,0.423-8.241-0.001c-1.757-0.288-3.419-0.561-5.083-0.418
		c-2.458,0.207-3.608,1.71-5.2,3.791c-0.392,0.512-0.794,1.037-1.227,1.558c-1.921,2.309-4.184,3.597-6.37,4.843
		c-1.337,0.761-2.599,1.479-3.8,2.424c-3.282,2.581-4.082,6.95-4.574,10.844C118.303,70.315,117.581,70.934,116.749,70.934z"/>
</g>
<g>
	<path fill="#444444" d="M232.95,92.962l-3.318-0.474c0.979-6.849-1.633-8.166-4.938-9.833c-1.71-0.862-3.478-1.754-4.782-3.427
		c-2.171-2.784-2.171-5.953-2.172-8.748c0-2.361-0.001-4.591-1.246-6.428c-1.414-2.085-3.736-3.307-6.195-4.599
		c-2.632-1.383-5.353-2.813-7.198-5.434c-5.692-8.083-10.138-13.036-19.689-8.397l-1.463-3.016
		c11.846-5.749,18.062,1.204,23.893,9.483c1.381,1.96,3.634,3.144,6.018,4.397c2.716,1.428,5.525,2.904,7.41,5.685
		c1.823,2.689,1.824,5.675,1.824,8.31c0.001,2.582,0.001,4.812,1.463,6.687c0.842,1.08,2.205,1.767,3.647,2.495
		C229.798,81.475,234.27,83.73,232.95,92.962z"/>
</g>
<g>
	<path fill="#444444" d="M202.203,229.39l-3.287-0.658c0.245-1.225,0.502-2.571,0.775-3.998c1.584-8.295,3.756-19.655,7.215-26.081
		c1.382-2.418,3.074-3.545,4.712-4.634c1.348-0.897,2.621-1.744,3.781-3.367l0.055-0.073c2.27-2.838,1.749-5.899,1.146-9.446
		c-0.42-2.467-0.854-5.017-0.369-7.687l0.028-0.127c1.175-4.465,3.803-7.557,6.344-10.546c3.756-4.418,7-8.233,4.838-15.954
		c-0.804-3.372-1.455-5.126-1.844-6.174c-0.814-2.194-0.736-2.771,0.64-4.748c0.635-0.911,1.594-2.288,3.029-4.873l0.051-0.085
		c1.964-3.085,6.062-10.931,1.718-17.136l2.747-1.922c3.867,5.525,3.28,13.11-1.608,20.817c-1.506,2.705-2.556,4.212-3.185,5.115
		c-0.22,0.316-0.446,0.642-0.546,0.816c0.051,0.187,0.181,0.535,0.298,0.85c0.415,1.12,1.111,2.994,1.945,6.501
		c2.626,9.373-1.52,14.25-5.528,18.966c-2.391,2.812-4.649,5.469-5.64,9.163c-0.36,2.069,0.002,4.204,0.387,6.463
		c0.644,3.781,1.372,8.064-1.805,12.066c-1.51,2.101-3.164,3.201-4.625,4.173c-1.434,0.953-2.671,1.776-3.639,3.47
		c-3.193,5.934-5.309,17.002-6.854,25.084C202.709,226.801,202.45,228.155,202.203,229.39z"/>
</g>
<g>
	<path fill="#1ABC9C" d="M131.833,262.167C59.507,262.167,0.666,203.325,0.666,131c0-72.326,58.841-131.167,131.167-131.167
		C204.158-0.167,263,58.674,263,131C263,203.325,204.158,262.167,131.833,262.167z M131.833,12.405
		C66.439,12.405,13.238,65.606,13.238,131s53.202,118.595,118.595,118.595S250.428,196.394,250.428,131
		S197.227,12.405,131.833,12.405z"/>
</g>
</svg>
