<?xml version="1.0" encoding="UTF-8" standalone="no"?>
<svg width="169px" height="170px" viewBox="0 0 169 170" version="1.1" xmlns="http://www.w3.org/2000/svg" xmlns:xlink="http://www.w3.org/1999/xlink" xmlns:sketch="http://www.bohemiancoding.com/sketch/ns">
    <!-- Generator: Sketch 3.1.1 (8761) - http://www.bohemiancoding.com/sketch -->
    <title>corporate </title>
    <desc>Created with Sketch.</desc>
    <defs></defs>
    <g id="Page-1" stroke="none" stroke-width="1" fill="none" fill-rule="evenodd" sketch:type="MSPage">
        <g id="Desktop-HD" sketch:type="MSArtboardGroup" transform="translate(-780.000000, -1865.000000)">
            <rect id="Rectangle-10" fill="#16A085" sketch:type="MSShapeGroup" x="0" y="1731" width="1440" height="401"></rect>
            <g id="corporate-" sketch:type="MSLayerGroup" transform="translate(781.000000, 1865.000000)">
                <path d="M48.10668,0.28724 L167.86168,0.28724 L167.86168,162.68448 L48.10668,162.68448 L48.10668,0.28724 Z" id="Fill-1" fill="#F6F4F4" sketch:type="MSShapeGroup"></path>
                <path d="M97.01832,33.755 L156.78832,33.755 M96.15832,44.935 L156.78832,44.935 M59.17832,82.99 L156.78832,82.99 M59.17832,96.75 L156.78832,96.75" id="Stroke-2" stroke="#1ABC9C" sketch:type="MSShapeGroup"></path>
                <path d="M76.11,25.14812 L78.862,30.87744 L84.45544,27.85884 L83.31336,34.11104 L89.61372,34.95728 L85.01272,39.345 L89.61372,43.73272 L83.31336,44.57896 L84.45544,50.83116 L78.862,47.81256 L76.11,53.54188 L73.358,47.81256 L67.76456,50.83116 L68.90836,44.57896 L62.60628,43.73272 L67.20728,39.345 L62.60628,34.95728 L68.90836,34.11104 L67.76456,27.85884 L73.358,30.87744 L76.11,25.14812" id="Fill-3" fill="#1ABC9C" sketch:type="MSShapeGroup"></path>
                <path d="M102.12156,96.57284 L41.07188,123.31024 L25.37344,87.46716 L86.42312,60.72976 L102.12156,96.57284 L102.12156,96.57284 Z" id="Fill-4" fill="#F6F4F4" sketch:type="MSShapeGroup"></path>
                <path d="M102.12156,96.57284 L41.07188,123.31024 L25.37344,87.46716 L86.42312,60.72976 L102.12156,96.57284 L102.12156,96.57284 Z" id="Stroke-5" stroke="#1ABC9C" stroke-width="2" sketch:type="MSShapeGroup"></path>
                <path d="M58.05172,79.0168 L62.87116,83.16028 L66.78416,78.15164 L68.24616,84.33676 L74.35732,82.58408 L71.90288,88.44756 L77.87644,90.62164 L72.44468,93.92404 L75.9982,99.1924 L69.66516,98.67296 L69.44328,105.0232 L64.62384,100.87972 L60.71084,105.88836 L59.24884,99.70324 L53.13768,101.45592 L55.59212,95.59244 L49.61856,93.41836 L55.05032,90.11596 L51.4968,84.8476 L57.82984,85.36704 L58.05172,79.0168" id="Fill-6" fill="#1ABC9C" sketch:type="MSShapeGroup"></path>
                <path d="M-0.48332,169.13448 L119.27168,169.13448 L119.27168,110.79724 L-0.48332,110.79724 L-0.48332,169.13448 Z" id="Fill-7" fill="#F6F4F4" sketch:type="MSShapeGroup"></path>
                <path d="M-0.48332,169.13448 L119.27168,169.13448 L119.27168,110.79724 L-0.48332,110.79724 L-0.48332,169.13448 Z" id="Stroke-8" stroke="#1ABC9C" stroke-width="2" sketch:type="MSShapeGroup"></path>
                <path d="M61.61728,139.879 L63.40436,143.60108 L67.04044,141.64028 L66.2974,145.70292 L70.391,146.2516 L67.40164,149.10164 L70.391,151.9534 L66.2974,152.5038 L67.04044,156.56472 L63.40436,154.60392 L61.61728,158.326 L59.8302,154.60392 L56.19584,156.56472 L56.93888,152.5038 L52.84528,151.9534 L55.83292,149.10164 L52.84528,146.2516 L56.93888,145.70292 L56.19584,141.64028 L59.8302,143.60108 L61.61728,139.879" id="Fill-9" fill="#1ABC9C" sketch:type="MSShapeGroup"></path>
                <path d="M76.8238,143.51336 L107.76832,143.51336 M76.37832,154.69164 L107.76832,154.69164" id="Stroke-10" stroke="#1ABC9C" sketch:type="MSShapeGroup"></path>
            </g>
        </g>
    </g>
</svg>