<?xml version="1.0" encoding="UTF-8" standalone="no"?>
<svg width="82px" height="82px" viewBox="0 0 82 82" version="1.1" xmlns="http://www.w3.org/2000/svg" xmlns:xlink="http://www.w3.org/1999/xlink" xmlns:sketch="http://www.bohemiancoding.com/sketch/ns">
    <!-- Generator: Sketch 3.1.1 (8761) - http://www.bohemiancoding.com/sketch -->
    <title>email L</title>
    <desc>Created with Sketch.</desc>
    <defs></defs>
    <g id="Page-1" stroke="none" stroke-width="1" fill="none" fill-rule="evenodd" sketch:type="MSPage">
        <g id="Desktop-HD" sketch:type="MSArtboardGroup" transform="translate(-679.000000, -3749.000000)">
            <rect id="Rectangle-19" fill="#1ABC9C" sketch:type="MSShapeGroup" x="0" y="3552" width="1440" height="488"></rect>
            <g id="linkedin-L-+-email-L-+-twitter-L" sketch:type="MSLayerGroup" transform="translate(566.000000, 3749.000000)" fill="#F6F4F4">
                <path d="M154,82 C176.620174,82 194.957447,63.6436759 194.957447,41 C194.957447,18.3563241 176.620174,0 154,0 C131.379826,0 113.042553,18.3563241 113.042553,41 C113.042553,63.6436759 131.379826,82 154,82 Z M154,78.72 C174.81056,78.72 191.680851,61.8321818 191.680851,41 C191.680851,20.1678182 174.81056,3.28 154,3.28 C133.18944,3.28 116.319149,20.1678182 116.319149,41 C116.319149,61.8321818 133.18944,78.72 154,78.72 Z M130.987035,26.2118905 L154.071041,47.7299744 L176.93617,26.2118905 L130.987035,26.2118905 Z M129.425532,29.3436206 L142.201058,41.082524 L129.425532,52.5992418 L129.425532,29.3436206 Z M178.574469,29.1713952 L178.574468,52.5992409 L165.449268,41.0503034 L178.574469,29.1713952 Z M163.27564,43.0035043 L154.018052,51.6388 L144.620317,43.0035043 L131.03325,55.76 L177.002853,55.76 L163.27564,43.0035043 Z" id="email-L" sketch:type="MSShapeGroup"></path>
            </g>
        </g>
    </g>
</svg>