<?xml version="1.0" encoding="UTF-8" standalone="no"?>
<svg width="110px" height="41px" viewBox="0 0 110 41" version="1.1" xmlns="http://www.w3.org/2000/svg" xmlns:xlink="http://www.w3.org/1999/xlink" xmlns:sketch="http://www.bohemiancoding.com/sketch/ns">
    <!-- Generator: Sketch 3.1.1 (8761) - http://www.bohemiancoding.com/sketch -->
    <title>epigami_logo</title>
    <desc>Created with Sketch.</desc>
    <defs></defs>
    <g id="Page-1" stroke="none" stroke-width="1" fill="none" fill-rule="evenodd" sketch:type="MSPage">
        <g id="Desktop-HD" sketch:type="MSArtboardGroup" transform="translate(-471.000000, -3339.000000)" fill="#F6F4F4">
            <g id="epigami_logo" sketch:type="MSLayerGroup" transform="translate(471.000000, 3339.000000)">
                <path d="M38.5337857,0.0855929487 L1.74192857,0.0855929487 C0.825785714,0.0855929487 0.0817142857,0.830016026 0.0817142857,1.74641026 L0.0817142857,38.5160417 C0.0817142857,39.4316506 0.825785714,40.1737179 1.74192857,40.1737179 L38.5337857,40.1737179 C39.4499286,40.1737179 40.1932143,39.4316506 40.1932143,38.5160417 L40.1932143,1.74641026 C40.1932143,0.830016026 39.4499286,0.0855929487 38.5337857,0.0855929487 L38.5337857,0.0855929487 Z M12.067,34.8457532 C12.067,35.4731731 11.5586429,35.9796635 10.9316429,35.9796635 L6.39178571,35.9796635 C5.76478571,35.9796635 5.25642857,35.4731731 5.25642857,34.8457532 L5.25642857,5.481875 C5.25642857,4.8568109 5.76478571,4.34796474 6.39178571,4.34796474 L10.9316429,4.34796474 C11.5586429,4.34796474 12.067,4.8568109 12.067,5.481875 L12.067,34.8457532 L12.067,34.8457532 Z M20.4812143,34.8457532 C20.4812143,35.4731731 19.9728571,35.9796635 19.3450714,35.9796635 L14.806,35.9796635 C14.1782143,35.9796635 13.6698571,35.4731731 13.6698571,34.8457532 L13.6698571,9.08541667 C13.6698571,8.45956731 14.1782143,7.95150641 14.806,7.95150641 L19.3450714,7.95150641 C19.9728571,7.95150641 20.4812143,8.45956731 20.4812143,9.08541667 L20.4812143,34.8457532 L20.4812143,34.8457532 Z M34.21,34.6313782 L29.8602857,35.9325481 C29.26,36.1123718 28.6275,35.7715705 28.4467857,35.1708494 L20.0137143,7.04453526 C19.8337857,6.44302885 20.1747857,5.81089744 20.7742857,5.63185897 L25.1247857,4.32911859 C25.7250714,4.14850962 26.3575714,4.49009615 26.5375,5.09081731 L34.9713571,33.2171314 C35.1520714,33.8178526 34.8102857,34.4491987 34.21,34.6313782 L34.21,34.6313782 Z" id="Fill-1" sketch:type="MSShapeGroup"></path>
                <path d="M44.9648571,17.2026122 C44.9648571,16.078125 45.3435714,15.1483814 46.101,14.4173077 C46.8592143,13.6854487 47.8146429,13.3195192 48.9680714,13.3195192 C51.6819286,13.3195192 53.0396429,14.6976442 53.0396429,17.4538942 L53.0396429,23.2804968 L47.6339286,23.2804968 L47.7015,28.2786538 C47.7015,29.2908494 48.1517143,29.7973397 49.0529286,29.7973397 C49.9313571,29.7973397 50.3705714,28.8974359 50.3705714,27.0960577 L50.303,26.0493109 L50.303,25.0025641 L53.0396429,25.0025641 L53.0396429,27.3551923 C53.0396429,30.468734 51.5530714,32.0266827 48.5799286,32.0266827 C46.1693571,32.0266827 44.9648571,30.4742308 44.9648571,27.3669712 L44.9648571,17.2026122 L44.9648571,17.2026122 Z M50.303,21.0527244 L50.303,17.0337821 C50.303,16.044359 49.9235,15.5480769 49.1645,15.5480769 C48.1894286,15.5480769 47.7015,16.1456571 47.7015,17.3384615 L47.7015,21.0527244 L50.303,21.0527244 L50.303,21.0527244 Z" id="Fill-2" sketch:type="MSShapeGroup"></path>
                <path d="M55.0667857,13.624984 L57.8034286,13.624984 L57.8034286,14.8052244 C58.7612143,13.8158013 59.6844286,13.3195192 60.5746429,13.3195192 C62.3307143,13.3195192 63.2091429,14.4911218 63.2091429,16.8319712 L63.2091429,27.9739744 C63.2091429,30.5857372 62.2458571,31.8908333 60.3192857,31.8908333 C59.5712857,31.8908333 58.7321429,31.4188942 57.8034286,30.4742308 L57.8034286,36.5843109 L55.0667857,36.5843109 L55.0667857,13.624984 L55.0667857,13.624984 Z M59.2719286,29.4604647 C60.1173571,29.4604647 60.5400714,28.4694712 60.5400714,26.4890545 L60.5400714,17.2371635 C60.5400714,16.2469551 60.1409286,15.7522436 59.3426429,15.7522436 C58.5899286,15.7522436 58.1106429,16.1456571 57.9055714,16.9332692 C57.8372143,17.2481571 57.8034286,17.9470353 57.8034286,19.0259776 L57.8034286,27.1298237 C57.8034286,28.6838462 58.2921429,29.4604647 59.2719286,29.4604647 L59.2719286,29.4604647 Z" id="Fill-3" sketch:type="MSShapeGroup"></path>
                <path d="M65.6755,13.6579647 L68.4459286,13.6579647 L68.4459286,31.6882372 L65.6755,31.6882372 L65.6755,13.6579647 Z M65.7768571,7.98527244 L68.4459286,7.98527244 L68.4459286,11.5652564 L65.7768571,11.5652564 L65.7768571,7.98527244 Z" id="Fill-4" sketch:type="MSShapeGroup"></path>
                <path d="M73.4965,13.3532853 C74.3584286,13.3532853 75.2187857,13.7820353 76.0807143,14.6371795 L76.0807143,13.624984 L78.7497857,13.624984 L78.7497857,32.1947276 C78.7497857,35.0538462 77.3983571,36.4830128 74.6955,36.4830128 C73.5821429,36.4830128 72.6337857,36.2026763 71.8504286,35.6396474 C71.0670714,35.0758333 70.675,34.2434615 70.675,33.1401763 L70.675,32.8708333 L73.3440714,32.8708333 C73.3440714,33.7935096 73.7416429,34.2544551 74.5367857,34.2544551 C75.5660714,34.2544551 76.0807143,33.4668429 76.0807143,31.8908333 L76.0807143,30.5747436 C75.2187857,31.4306731 74.3238571,31.8570673 73.3951429,31.8570673 C71.5817143,31.8570673 70.675,30.6532692 70.675,28.2448878 L70.675,16.5948237 C70.675,15.7184776 70.9185714,14.9567788 71.4057143,14.3160096 C71.8928571,13.6744551 72.5897857,13.3532853 73.4965,13.3532853 M74.646,29.4604647 C75.647,29.4604647 76.1482857,28.4247115 76.1482857,26.3539904 L76.0807143,25.4077564 L76.0807143,18.6545513 C76.0807143,16.7644391 75.6022143,15.8189904 74.646,15.8189904 C74.0001429,15.8189904 73.5994286,16.2697276 73.4446429,17.1688462 C73.3770714,17.4853045 73.3440714,18.1826122 73.3440714,19.2623397 L73.3440714,27.3669712 C73.3440714,28.7623718 73.7785714,29.4604647 74.646,29.4604647" id="Fill-5" sketch:type="MSShapeGroup"></path>
                <path d="M81.0134286,19.3644231 L81.0134286,17.3384615 C81.0134286,14.6599519 82.3082857,13.3203045 84.8987857,13.3203045 C87.5560714,13.3203045 88.8847143,14.6144071 88.8847143,17.2018269 L88.8847143,29.2578686 C88.8847143,30.2245192 89.0088571,31.0356891 89.2571429,31.6874519 L86.4639286,31.6874519 L85.9595,30.2033173 C85.2413571,31.3513622 84.3550714,31.9238141 83.3006429,31.9238141 C81.6176429,31.9238141 80.7769286,30.6195032 80.7769286,28.0085256 L80.7769286,26.6233333 C80.7769286,25.3637821 80.8665,24.5196314 81.0487857,24.0924519 C81.2978571,23.3472436 81.8423571,22.7072596 82.6807143,22.1662179 L84.8233571,20.9176603 C85.7512857,20.2651122 86.2164286,19.6455449 86.2164286,19.0597436 L86.2164286,17.5410577 C86.2164286,16.2131891 85.833,15.5488622 85.0677143,15.5488622 C84.414,15.5488622 83.9865714,16.050641 83.7838571,17.0557692 L83.7838571,19.3644231 L81.0134286,19.3644231 L81.0134286,19.3644231 Z M86.2164286,22.6397276 L83.9527857,24.4285417 C83.6141429,24.8125321 83.446,25.8255128 83.446,27.4666987 C83.446,28.9759615 83.8852143,29.7290224 84.7636429,29.7290224 C85.7316429,29.7290224 86.2164286,28.6610737 86.2164286,26.5220353 L86.2164286,22.6397276 L86.2164286,22.6397276 Z" id="Fill-6" sketch:type="MSShapeGroup"></path>
                <path d="M90.9794286,13.624984 L93.6485,13.624984 L93.6485,14.8052244 C94.4145714,13.8370032 95.2372143,13.3532853 96.1148571,13.3532853 C97.3319286,13.3532853 98.2559286,13.9170994 98.8860714,15.0415865 C99.7205,13.9170994 100.631143,13.3532853 101.622714,13.3532853 C102.297643,13.3532853 102.922286,13.6304808 103.497429,14.182516 C104.071,14.7361218 104.357786,15.3494071 104.357786,16.0262981 L104.357786,31.8233013 L101.6895,31.8233013 L101.6895,17.2732853 C101.6895,16.935625 101.566929,16.6144551 101.322571,16.3097756 C101.079,16.0043109 100.766286,15.829984 100.388357,15.7852244 C99.7872857,15.7852244 99.3873571,16.0451442 99.187,16.564984 C99.0762143,16.8594551 99.0196429,17.3785096 99.0196429,18.1237179 L99.0196429,31.8233013 L96.3513571,31.8233013 L96.3513571,17.4805929 C96.3513571,16.350609 95.9184286,15.7852244 95.0525714,15.7852244 C94.4200714,15.7852244 93.9989286,16.1008974 93.7883571,16.7345994 C93.742,16.938766 93.7066429,17.1539263 93.6830714,17.3785096 C93.6595,17.6038782 93.6485,17.9548878 93.6485,18.4299679 L93.6485,31.8233013 L90.9794286,31.8233013 L90.9794286,13.624984" id="Fill-7" sketch:type="MSShapeGroup"></path>
                <path d="M107.129,13.6579647 L109.899429,13.6579647 L109.899429,31.6882372 L107.129,31.6882372 L107.129,13.6579647 Z M107.230357,7.98527244 L109.899429,7.98527244 L109.899429,11.5652564 L107.230357,11.5652564 L107.230357,7.98527244 Z" id="Fill-8" sketch:type="MSShapeGroup"></path>
            </g>
        </g>
    </g>
</svg>