<?xml version="1.0" encoding="utf-8"?>
<!-- Generator: Adobe Illustrator 16.0.0, SVG Export Plug-In . SVG Version: 6.00 Build 0)  -->
<!DOCTYPE svg PUBLIC "-//W3C//DTD SVG 1.1//EN" "http://www.w3.org/Graphics/SVG/1.1/DTD/svg11.dtd">
<svg version="1.1" id="Layer_1" xmlns:sketch="http://www.bohemiancoding.com/sketch/ns"
	 xmlns="http://www.w3.org/2000/svg" xmlns:xlink="http://www.w3.org/1999/xlink" x="0px" y="0px" width="134px" height="134px"
	 viewBox="0 0 134 134" enable-background="new 0 0 134 134" xml:space="preserve">
<title>italy</title>
<desc>Created with Sketch.</desc>
<g>
	<path id="path2902" fill="#1ABC9C" stroke="#1ABC9C" d="M29.564,26.415c-0.648,0.165-1.196,0.85-1.932,0.651
		c-0.665,0.314-1.464,0.553-2.153,0.199c-0.332,0.179-0.565,0.52-1.006,0.463c-0.48,0.053-0.929,0.507-0.64,1.005
		c0.34,0.903,1.273,1.48,1.458,2.457c0.214,0.349,0.785,0.392,0.879-0.102c0.29,0.132,0.266,0.673,0.655,0.341
		c0.772-0.189,1.486-0.582,2.135-0.988c0.861-0.138,1.806,0.498,2.565-0.156c0.571-0.475,0.217-1.255,0.032-1.831
		c-0.108-0.574-0.018-1.399-0.741-1.556C30.357,26.822,30.036,26.369,29.564,26.415z"/>
	<path id="path2910" fill="#1ABC9C" stroke="#1ABC9C" d="M31.101,45.715c0.094,0.077,0.391,0.16,0.663,0.185
		c0.387,0.035,0.528-0.002,0.647-0.173c0.084-0.12,0.269-0.234,0.411-0.255c0.237-0.033,0.258-0.095,0.244-0.756
		c-0.011-0.638,0.018-0.74,0.263-0.9c0.151-0.099,0.275-0.283,0.275-0.407c0-0.124,0.133-0.313,0.296-0.419
		c0.206-0.136,0.258-0.23,0.173-0.315c-0.173-0.173-0.152-0.313,0.111-0.745l0.231-0.38l0.427,0.291
		c0.373,0.253,0.451,0.269,0.609,0.125c0.103-0.092,0.485-0.18,0.875-0.199c0.49-0.025,0.684-0.08,0.662-0.185
		c-0.017-0.083,0.025-0.253,0.092-0.379c0.196-0.365,0.898-0.242,1.209,0.21l0.243,0.354l0.258-0.291
		c0.149-0.167,0.331-0.262,0.43-0.224c0.206,0.079,0.223-0.082,0.038-0.377c-0.109-0.175-0.087-0.282,0.124-0.577
		c0.143-0.199,0.297-0.363,0.345-0.363s0.262,0.157,0.477,0.348c0.214,0.191,0.455,0.347,0.538,0.347
		c0.082,0,0.206,0.107,0.276,0.239c0.236,0.44,0.476,0.223,0.512-0.465c0.019-0.349-0.005-0.713-0.054-0.811
		c-0.049-0.099-0.144-0.318-0.211-0.488c-0.085-0.216-0.22-0.322-0.446-0.347c-0.247-0.028-0.334-0.107-0.363-0.327
		c-0.021-0.159-0.16-0.419-0.308-0.579c-0.148-0.159-0.287-0.394-0.31-0.521c-0.024-0.136-0.15-0.247-0.301-0.269
		c-0.277-0.04-0.547-0.415-0.431-0.602c0.117-0.189-0.136-0.127-0.302,0.073c-0.12,0.146-0.283,0.172-0.729,0.119
		c-0.617-0.073-0.791-0.179-0.826-0.504c-0.036-0.321-0.197-0.658-0.384-0.797c-0.094-0.07-0.181-0.226-0.193-0.348
		c-0.013-0.121-0.083-0.365-0.155-0.543c-0.237-0.584-0.245-0.829-0.043-1.239c0.157-0.319,0.279-0.413,0.569-0.441
		c0.316-0.03,0.398,0.02,0.573,0.347c0.155,0.292,0.214,0.335,0.247,0.181c0.024-0.112,0.091-0.203,0.15-0.203
		s0.108-0.102,0.108-0.228c0-0.125,0.104-0.283,0.232-0.351c0.333-0.178,0.285-0.543-0.12-0.913
		c-0.232-0.212-0.375-0.476-0.421-0.776c-0.039-0.25-0.107-0.506-0.155-0.569c-0.046-0.063-0.119-0.308-0.162-0.542
		c-0.042-0.235-0.231-0.592-0.42-0.794c-0.388-0.416-0.416-0.551-0.175-0.871c0.11-0.148,0.145-0.37,0.103-0.65
		c-0.06-0.385-0.016-0.479,0.469-0.997c0.391-0.418,0.534-0.665,0.534-0.921c0-0.3-0.052-0.36-0.37-0.424
		c-0.255-0.051-0.594-0.315-1.098-0.854c-0.609-0.652-0.729-0.848-0.73-1.191c-0.001-0.226,0.052-0.467,0.12-0.534
		c0.068-0.067,0.107-0.376,0.087-0.688c-0.039-0.613-0.283-0.801-0.612-0.47c-0.095,0.094-0.215,0.189-0.268,0.211
		c-0.225,0.092-1.182,2.063-1.182,2.433c0,0.251-0.176,0.687-0.492,1.222c-0.481,0.812-0.787,1.075-1.257,1.075
		c-0.369,0-0.579,0.653-0.492,1.528c0.039,0.401,0.139,0.808,0.222,0.904c0.09,0.106,0.141,0.439,0.129,0.859l-0.02,0.685
		l-0.635,0.328c-0.674,0.348-1.14,0.409-1.529,0.201c-0.458-0.245-1.016-0.153-1.413,0.231c-0.204,0.198-0.491,0.359-0.637,0.359
		c-0.147,0-0.444,0.084-0.66,0.187c-0.217,0.103-0.55,0.164-0.742,0.136c-0.395-0.058-0.426,0.028-0.158,0.438
		c0.146,0.224,0.174,0.445,0.119,0.964c-0.115,1.106-0.192,1.213-1.252,1.745c-0.791,0.395-1.034,0.467-1.382,0.408
		c-0.458-0.078-1.264,0.183-1.264,0.409c0,0.071,0.175,0.509,0.39,0.972c0.466,1.011,0.992,1.481,1.61,1.439
		c0.228-0.015,0.534,0.059,0.707,0.172c0.263,0.172,0.304,0.28,0.304,0.793c0,0.443-0.069,0.686-0.271,0.953
		c-0.148,0.197-0.457,0.696-0.685,1.11l-0.416,0.753l0.144,0.82c0.098,0.558,0.245,0.953,0.461,1.236
		c0.365,0.479,0.462,0.547,1.898,1.346c1.222,0.679,1.515,0.715,2.496,0.316c0.718-0.293,1.148-0.281,1.097,0.03
		c-0.017,0.103,0.013,0.257,0.065,0.341c0.076,0.12,0.155,0.098,0.371-0.104C30.88,45.626,30.967,45.603,31.101,45.715z"/>
	<path id="path2908" fill="#1ABC9C" stroke="#1ABC9C" d="M42.356,39.55c-0.054-0.292-0.015-0.451,0.161-0.654
		c0.295-0.34,0.296-0.54,0.002-0.697c-0.25-0.134-0.3-0.459-0.12-0.783c0.061-0.111,0.248-0.503,0.416-0.873
		c0.277-0.611,0.365-0.699,0.952-0.958c0.451-0.199,0.669-0.246,0.726-0.155c0.059,0.096,0.145,0.096,0.326-0.001
		c0.21-0.113,0.247-0.1,0.247,0.085c0,0.12,0.13,0.277,0.29,0.349c0.231,0.106,0.29,0.101,0.29-0.026
		c0-0.195,0.314-0.332,0.409-0.179c0.114,0.186,0.52,0.124,0.599-0.092c0.134-0.362,0.498-0.507,0.498-0.199
		c0,0.143,0.045,0.153,0.234,0.053c0.299-0.16,0.42-0.079,0.667,0.445c0.197,0.416,0.215,0.425,0.875,0.433
		c0.371,0.004,0.709,0.062,0.751,0.129c0.126,0.196,0.756,0.463,0.974,0.414c0.134-0.03,0.241,0.053,0.314,0.245
		c0.077,0.204,0.257,0.336,0.597,0.438c0.486,0.146,0.487,0.145,0.857-0.284c0.426-0.494,0.961-0.594,1.064-0.2
		c0.039,0.149,0.197,0.254,0.453,0.303c0.217,0.041,0.424,0.123,0.461,0.182c0.037,0.06,0.235,0.008,0.448-0.117
		c0.586-0.346,1.066-0.416,1.394-0.202c0.347,0.227,0.388,0.227,0.93,0l0.439-0.183l-0.446-0.396
		c-0.245-0.217-0.488-0.396-0.54-0.396c-0.051,0-0.094-0.135-0.094-0.301c0-0.244-0.039-0.285-0.203-0.214
		c-0.413,0.179-0.778,0.118-0.895-0.15c-0.063-0.143-0.186-0.261-0.274-0.261c-0.105,0-0.138-0.083-0.098-0.238
		c0.046-0.176-0.01-0.265-0.218-0.344c-0.154-0.059-0.281-0.16-0.281-0.225s-0.073-0.119-0.162-0.119c-0.09,0-0.293-0.153-0.45-0.34
		c-0.206-0.245-0.355-0.323-0.531-0.275c-0.142,0.036-0.246,0.009-0.246-0.066c0-0.071-0.078-0.129-0.172-0.129
		c-0.131,0-0.175-0.139-0.175-0.565c0-0.479-0.037-0.575-0.245-0.629c-0.208-0.054-0.236-0.125-0.179-0.448
		c0.037-0.211,0.02-0.618-0.037-0.905c-0.099-0.504-0.082-0.555,0.543-1.562c0.355-0.573,0.718-1.16,0.806-1.303
		c0.156-0.255,0.149-0.261-0.364-0.261c-0.367,0-0.524,0.047-0.524,0.159c0,0.147-0.469,0.304-0.913,0.304
		c-0.247,0-0.569-0.748-0.569-1.324c0-0.291-0.064-0.486-0.185-0.553c-0.234-0.13-0.239-0.481-0.011-0.67
		c0.095-0.079,0.172-0.234,0.172-0.344c0-0.109,0.101-0.289,0.222-0.399c0.372-0.337,0.491-2.161,0.164-2.521
		c-0.222-0.246-0.057-0.521,0.348-0.578c0.201-0.029,0.247-0.105,0.227-0.384c-0.029-0.403-0.401-0.751-0.8-0.751
		c-0.186,0-0.324-0.098-0.411-0.29c-0.1-0.218-0.22-0.289-0.49-0.29c-0.564,0-1.173-0.356-1.141-0.667
		c0.056-0.516-0.723-0.144-1.099,0.526c-0.252,0.449-0.351,1.067-0.169,1.067c0.049,0,0.251,0.147,0.448,0.328
		c0.301,0.274,0.375,0.447,0.443,1.048c0.099,0.853-0.087,1.172-0.682,1.169c-0.283-0.001-0.415-0.089-0.627-0.416
		c-0.147-0.228-0.272-0.566-0.277-0.751c-0.005-0.186-0.072-0.389-0.148-0.452c-0.212-0.176-1.139,0.188-1.494,0.585
		c-0.239,0.268-0.4,0.34-0.76,0.34c-0.251,0-0.588-0.059-0.747-0.132c-0.424-0.193-0.878-0.941-0.878-1.444
		c0-0.487-0.241-0.73-0.727-0.736c-0.405-0.004-0.599,0.4-0.358,0.746c0.255,0.367,0.185,1.043-0.195,1.884
		c-0.243,0.534-0.472,0.856-0.724,1.016c-0.246,0.155-0.514,0.523-0.801,1.1l-0.432,0.866l0.345,0.298
		c0.392,0.337,0.424,0.547,0.166,1.047c-0.152,0.292-0.24,0.342-0.547,0.312c-0.382-0.037-0.59-0.306-0.715-0.921
		c-0.038-0.189-0.216-0.398-0.466-0.545c-0.417-0.247-0.43-0.324-0.145-0.917c0.141-0.292,0.058-0.419-0.35-0.542
		c-0.242-0.072-0.26-0.042-0.26,0.409c0,0.419-0.074,0.567-0.527,1.051c-0.471,0.503-0.518,0.604-0.452,0.955
		c0.051,0.27,0.015,0.482-0.115,0.681c-0.181,0.276-0.176,0.301,0.134,0.62c0.431,0.442,0.573,0.771,0.716,1.642
		c0.095,0.579,0.192,0.799,0.471,1.06c0.194,0.181,0.352,0.438,0.352,0.571c0,0.134,0.057,0.244,0.126,0.244
		c0.234,0,0.032,0.283-0.25,0.349c-0.164,0.039-0.281,0.15-0.282,0.268c0,0.111-0.056,0.239-0.125,0.285
		c-0.068,0.045-0.157,0.173-0.198,0.286c-0.116,0.312-0.512,0.246-0.685-0.115c-0.223-0.466-0.516-0.47-0.707-0.009
		c-0.136,0.328-0.134,0.422,0.007,0.64c0.09,0.141,0.134,0.307,0.095,0.369c-0.038,0.062-0.017,0.146,0.048,0.186
		c0.065,0.04,0.118,0.2,0.118,0.355c0,0.155,0.048,0.283,0.106,0.283c0.137,0,0.473,0.665,0.473,0.934
		c0,0.298,0.864,0.432,1.146,0.178c0.113-0.103,0.317-0.185,0.455-0.185c0.203,0,0.252,0.068,0.252,0.347
		c0,0.257,0.053,0.347,0.208,0.347c0.26,0,0.487,0.217,0.487,0.466c0,0.104,0.13,0.311,0.289,0.46
		c0.159,0.149,0.29,0.389,0.29,0.533c0,0.198,0.075,0.271,0.315,0.298c0.298,0.035,0.36,0.111,0.729,0.904
		c0.044,0.096,0.154,0.174,0.242,0.174c0.089,0,0.203,0.065,0.254,0.146C42.369,40.046,42.432,39.947,42.356,39.55z"/>
	<path id="path2916" fill="#1ABC9C" stroke="#1ABC9C" d="M63.443,49.46c0.17-0.393,0.308-0.938,0.317-1.245
		c0.006-0.19,0.076-0.226,0.392-0.201c0.244,0.02,0.509-0.058,0.723-0.21c0.186-0.132,0.456-0.243,0.599-0.247
		c0.144-0.003,0.375-0.059,0.515-0.124c0.344-0.161,0.615-0.034,0.615,0.289c0,0.294,0.339,0.65,0.551,0.579
		c0.074-0.025,0.168,0.088,0.209,0.252c0.086,0.347,0.287,0.382,0.539,0.095c0.229-0.263,0.331-0.955,0.14-0.955
		c-0.185,0-2.068-1.984-2.436-2.567c-0.645-1.022-1.318-4.752-1.069-5.939c0.067-0.321,0.157-0.622,0.202-0.67
		c0.043-0.048,0.059-0.27,0.032-0.492c-0.046-0.4-0.054-0.406-0.599-0.406c-0.427,0-0.588-0.053-0.711-0.236
		c-0.125-0.187-0.305-0.243-0.854-0.267c-0.795-0.035-1.566,0.101-1.738,0.306c-0.211,0.253-0.854,0.661-1.041,0.661
		c-0.101,0-0.31-0.135-0.462-0.3c-0.228-0.245-0.343-0.286-0.632-0.223c-0.247,0.054-0.406,0.023-0.534-0.105
		c-0.194-0.194-0.746-0.253-0.746-0.08c0,0.2-0.983,0.262-1.325,0.084c-0.349-0.18-0.426-0.168-1.218,0.186
		c-0.365,0.163-0.57,0.198-0.699,0.118c-0.1-0.062-0.344-0.149-0.542-0.192c-0.219-0.048-0.385-0.168-0.42-0.305
		c-0.086-0.327-0.336-0.275-0.602,0.126c-0.128,0.193-0.352,0.381-0.498,0.419c-0.399,0.102-1.319-0.191-1.385-0.442
		c-0.032-0.126-0.16-0.212-0.315-0.212c-0.143,0-0.462-0.14-0.71-0.31c-0.345-0.238-0.594-0.313-1.074-0.318
		c-0.64-0.008-0.63-0.001-0.944-0.646c-0.091-0.187-0.605-0.184-0.67,0.004c-0.021,0.061-0.138,0.112-0.261,0.112
		c-0.122,0-0.222,0.053-0.222,0.116c0,0.179-0.302,0.137-0.469-0.065c-0.137-0.164-0.16-0.164-0.251,0
		c-0.057,0.099-0.167,0.181-0.247,0.181c-0.209,0-0.768-0.274-0.769-0.376c-0.001-0.048-0.106-0.087-0.233-0.087
		c-0.126,0-0.231,0.053-0.231,0.118c0,0.066-0.21,0.104-0.479,0.087c-0.455-0.029-0.494-0.006-0.724,0.434
		c-0.135,0.255-0.342,0.689-0.46,0.964c-0.213,0.497-0.213,0.501,0.029,0.671c0.294,0.206,0.317,0.647,0.049,0.915
		c-0.131,0.132-0.186,0.354-0.169,0.688c0.025,0.492,0.024,0.493-0.442,0.567c-0.257,0.042-0.467,0.14-0.467,0.22
		c0,0.188,0.438,0.46,0.591,0.366c0.064-0.041,0.222,0.021,0.349,0.136c0.191,0.173,0.27,0.184,0.458,0.066
		c0.188-0.117,0.241-0.111,0.297,0.034c0.037,0.097,0.138,0.176,0.224,0.176c0.345,0,0.525,0.781,0.246,1.063
		c-0.082,0.084-0.181,0.235-0.22,0.335c-0.058,0.155,0.021,0.175,0.528,0.133c0.507-0.042,0.641-0.008,0.891,0.224
		c0.379,0.352,0.555,0.301,0.984-0.289c0.193-0.265,0.462-0.499,0.599-0.518c0.389-0.056,1.21,0.412,1.167,0.666
		c-0.038,0.233,0.324,0.701,0.545,0.701c0.237,0,0.86,0.354,0.971,0.552c0.068,0.121,0.285,0.198,0.608,0.214
		c0.362,0.018,0.548,0.093,0.663,0.267c0.088,0.132,0.259,0.241,0.381,0.241c0.121,0,0.266,0.117,0.322,0.26
		s0.264,0.414,0.462,0.603l0.361,0.342l0.178-0.255c0.233-0.332,0.848-0.345,1.124-0.023c0.109,0.127,0.268,0.232,0.355,0.232
		c0.086,0,0.25,0.104,0.366,0.231c0.29,0.32,0.473,0.29,0.715-0.12c0.222-0.375,0.571-0.417,0.54-0.065
		c-0.016,0.183,0.039,0.201,0.405,0.13c0.233-0.044,0.505-0.081,0.606-0.08c0.112,0.001,0.178-0.094,0.173-0.25
		c-0.006-0.202,0.067-0.259,0.37-0.288c0.25-0.024,0.443-0.135,0.567-0.322c0.103-0.157,0.215-0.258,0.249-0.224
		c0.034,0.034,0.155-0.022,0.268-0.125c0.191-0.174,0.233-0.158,0.592,0.235c0.322,0.351,0.453,0.416,0.787,0.389
		c0.339-0.028,0.406,0.007,0.438,0.228c0.033,0.233,0.083,0.253,0.478,0.19c0.262-0.042,0.471-0.021,0.516,0.053
		c0.09,0.146-0.21,0.908-0.473,1.198c-0.13,0.144-0.149,0.248-0.066,0.352c0.065,0.081,0.157,0.33,0.204,0.552
		c0.103,0.487,0.686,1.031,1.113,1.037c0.166,0.002,0.441,0.114,0.61,0.247c0.253,0.199,0.68,0.389,0.998,0.443
		C63.278,49.774,63.367,49.635,63.443,49.46z"/>
	<path id="path2914" fill="#1ABC9C" stroke="#1ABC9C" d="M30.814,49.27c0.077-0.092,0.358-0.205,0.625-0.249
		c0.852-0.142,2.281-0.968,2.281-1.319c0-0.281,0.793-1.777,1.06-2.004c0.131-0.111,0.353-0.203,0.493-0.203
		c0.361,0,0.531-0.217,0.531-0.678c0-0.322,0.099-0.493,0.509-0.881c0.576-0.544,1.769-1.221,2.15-1.221
		c0.274,0,3.197,0.746,3.761,0.96c0.188,0.071,0.5,0.265,0.695,0.432c1.158,0.992,2.454,1.792,3.571,2.209
		c1.062,0.394,1.196,0.42,1.323,0.255c0.175-0.227,0.092-0.381-0.206-0.381c-0.147,0-0.224-0.08-0.224-0.231
		c0-0.17-0.078-0.232-0.289-0.232c-0.16,0-0.29-0.052-0.29-0.116c0-0.063-0.079-0.116-0.174-0.116c-0.119,0-0.173-0.119-0.173-0.376
		c0-0.312-0.092-0.446-0.535-0.782c-0.295-0.223-0.62-0.561-0.724-0.751c-0.336-0.614-0.782-0.794-1.289-0.522
		c-0.36,0.192-0.611,0.018-0.533-0.37c0.037-0.186,0.146-0.417,0.241-0.513c0.341-0.341,0.163-0.711-0.385-0.801
		c-0.232-0.039-0.528-0.114-0.655-0.167c-0.452-0.191-0.746-0.207-0.878-0.047c-0.196,0.237-0.661,0.197-0.828-0.07
		c-0.08-0.127-0.21-0.232-0.291-0.232c-0.08,0-0.241-0.094-0.357-0.21c-0.284-0.285-0.596-0.396-0.614-0.22
		c-0.007,0.078-0.02,0.35-0.029,0.604c-0.012,0.397-0.054,0.469-0.296,0.503c-0.155,0.021-0.379,0.165-0.5,0.318
		c-0.256,0.326-0.548,0.366-0.554,0.075c-0.005-0.301-0.246-0.559-0.604-0.648c-0.278-0.07-0.318-0.045-0.318,0.189
		c0,0.419-0.223,0.546-0.953,0.546c-0.493,0-0.692,0.047-0.741,0.174c-0.091,0.237-0.349,0.218-0.797-0.059
		c-0.325-0.201-0.386-0.209-0.444-0.057c-0.038,0.097-0.038,0.328-0.001,0.512c0.055,0.274,0.011,0.372-0.234,0.533
		c-0.166,0.109-0.302,0.28-0.302,0.38c0,0.099-0.11,0.299-0.246,0.443c-0.186,0.198-0.244,0.399-0.234,0.818
		c0.017,0.759-0.065,0.961-0.385,0.961c-0.22,0-0.258,0.047-0.207,0.246c0.062,0.236,0.035,0.244-0.734,0.191
		c-0.439-0.029-0.891-0.094-1.002-0.143c-0.156-0.068-0.203-0.032-0.203,0.157c0,0.134-0.045,0.244-0.103,0.244
		c-0.057,0-0.183,0.195-0.279,0.434c-0.096,0.239-0.467,0.755-0.823,1.147c-0.717,0.789-0.688,0.729-0.543,1.108
		c0.092,0.243,0.185,0.275,0.851,0.3C30.466,49.43,30.714,49.391,30.814,49.27z"/>
	<g id="g2992" transform="matrix(0.948312,0,0,0.948312,-83.88148,51.95865)">
		<path id="path2922" fill="#1ABC9C" stroke="#1ABC9C" d="M148.206,12.417c0.212-0.27,0.299-0.294,0.811-0.225
			c0.315,0.043,0.696,0.157,0.845,0.253c0.254,0.164,0.282,0.155,0.388-0.123c0.086-0.229,0.234-0.321,0.612-0.382
			c0.552-0.088,0.587-0.142,0.302-0.456c-0.264-0.293-0.075-0.896,0.288-0.915c0.527-0.027,1.32-0.865,1.193-1.261
			c-0.048-0.153,0.002-0.278,0.144-0.361c0.121-0.07,0.165-0.129,0.097-0.131c-0.172-0.005-0.462-0.702-0.361-0.867
			c0.046-0.075,0.187-0.108,0.314-0.075c0.127,0.033,0.261,0.012,0.297-0.047c0.037-0.059,0.252-0.195,0.479-0.303
			c0.371-0.176,0.406-0.237,0.35-0.589c-0.038-0.227,0.019-0.592,0.131-0.86c0.249-0.595,0.244-0.681-0.03-0.681
			c-0.174,0-0.228-0.101-0.24-0.453c-0.018-0.48,0.246-1.012,0.505-1.012c0.084,0,0.208-0.179,0.271-0.397
			c0.091-0.306,0.187-0.399,0.423-0.406c0.831-0.026,0.927-0.052,0.702-0.183c-0.118-0.07-0.213-0.265-0.213-0.436
			c0-0.208-0.081-0.332-0.246-0.374c-0.135-0.036-0.244-0.167-0.244-0.295c0-0.126-0.082-0.23-0.182-0.23
			c-0.217,0-0.226-0.059-0.055-0.377c0.071-0.132,0.174-0.212,0.23-0.177c0.056,0.036,0.174-0.022,0.261-0.128
			c0.13-0.157,0.13-0.209-0.004-0.291c-0.194-0.119-0.082-0.491,0.147-0.491c0.217,0,0.61-0.758,0.517-0.999
			c-0.062-0.162,0.227-0.456,0.75-0.763c0.008-0.005,0.054-0.133,0.1-0.285c0.073-0.235,0.04-0.274-0.229-0.274
			c-0.172,0-0.314,0.055-0.314,0.123c0,0.137-0.403,0.167-0.53,0.039c-0.046-0.046-0.331-0.094-0.633-0.107
			c-0.365-0.016-0.703-0.13-1.012-0.344c-0.253-0.177-0.586-0.32-0.737-0.32c-0.473,0-1.211-0.696-1.3-1.225
			c-0.043-0.256-0.158-0.496-0.254-0.532c-0.196-0.076-0.239-0.563-0.049-0.563c0.133,0,0.607-0.715,0.609-0.916
			c0-0.067-0.244-0.122-0.539-0.122c-0.53,0-0.889-0.164-0.591-0.271c0.317-0.114,0.135-0.222-0.305-0.183
			c-0.396,0.035-0.489-0.008-0.702-0.333c-0.244-0.373-0.427-0.481-0.427-0.251c0,0.066-0.075,0.122-0.165,0.122
			c-0.091,0-0.263,0.11-0.385,0.244c-0.12,0.134-0.363,0.246-0.538,0.248c-0.273,0.003-0.288,0.02-0.104,0.129
			c0.117,0.068,0.214,0.203,0.214,0.301c0,0.176-0.145,0.196-1.8,0.245c-0.304,0.009-0.617,0.105-0.755,0.23
			c-0.227,0.204-0.255,0.204-0.612-0.006c-0.205-0.122-0.374-0.265-0.374-0.318c0-0.053-0.082-0.095-0.183-0.095
			c-0.1,0-0.292-0.11-0.427-0.244c-0.312-0.313-0.686-0.313-0.855,0c-0.072,0.134-0.229,0.244-0.35,0.244
			c-0.254,0-1.116-0.818-1.116-1.059c0-0.089-0.105-0.163-0.237-0.163c-0.13,0-0.318-0.116-0.418-0.258
			c-0.136-0.194-0.305-0.257-0.677-0.252c-0.366,0.005-0.542-0.059-0.67-0.241c-0.179-0.254-0.724-0.588-0.972-0.595
			c-0.077-0.002-0.322-0.169-0.545-0.373c-0.306-0.278-0.374-0.408-0.275-0.527c0.1-0.121,0.02-0.209-0.353-0.377
			c-0.555-0.25-0.681-0.193-1.111,0.501c-0.14,0.227-0.333,0.413-0.428,0.413c-0.359,0-0.152,0.383,0.438,0.805
			c0.449,0.323,0.611,0.519,0.611,0.74c0,0.182,0.05,0.27,0.131,0.221c0.071-0.045,0.159,0.034,0.197,0.176
			c0.038,0.152,0.165,0.256,0.308,0.256c0.133,0,0.267,0.098,0.298,0.218c0.03,0.12,0.178,0.271,0.324,0.336
			c0.173,0.077,0.268,0.226,0.268,0.429c0,0.198,0.212,0.549,0.593,0.977c0.912,1.025,1.139,1.632,1.239,3.313
			c0.08,1.358,0.262,2.228,0.501,2.402c0.212,0.152,0.748,0.939,1.057,1.549c0.38,0.75,0.579,1.758,0.493,2.507
			c-0.048,0.418,0,0.684,0.188,1.052c0.218,0.429,0.316,0.501,0.755,0.56c0.69,0.092,1.013,0.404,0.933,0.898
			c-0.049,0.307,0.005,0.449,0.27,0.703c0.183,0.176,0.381,0.319,0.441,0.319c0.418,0,1.99,1.672,2.486,2.643
			c0.185,0.36-0.046,1.02-0.354,1.02c-0.332,0-0.432,0.257-0.174,0.446C147.934,12.768,147.928,12.77,148.206,12.417z"/>
		<path id="path2848" fill="#1ABC9C" stroke="#1ABC9C" d="M142.081,8.232V7.53l-0.252,0.413l-0.253,0.414l-0.823-0.07
			c-0.909-0.076-1.165,0.005-1.039,0.331c0.088,0.231,0.256,0.222,1.248-0.059c0.486-0.138,0.549-0.129,0.79,0.112
			c0.143,0.144,0.277,0.262,0.296,0.262C142.065,8.934,142.081,8.618,142.081,8.232z"/>
		<path id="path2830" fill="#1ABC9C" stroke="#1ABC9C" d="M137.418,5.451c-0.038-0.037-0.107,0.03-0.153,0.15
			c-0.065,0.174-0.051,0.188,0.07,0.068C137.418,5.587,137.457,5.489,137.418,5.451z"/>
	</g>
	<path id="path2918" fill="#1ABC9C" stroke="#1ABC9C" d="M73.49,60.365c0.162-0.163,0.379-0.424,0.48-0.579
		c0.152-0.231,0.281-0.282,0.724-0.282c0.447,0,0.558-0.044,0.652-0.26c0.063-0.144,0.245-0.29,0.404-0.326
		c0.688-0.156,1.058-0.366,0.979-0.558c-0.041-0.104-0.118-0.501-0.17-0.883c-0.083-0.633-1.205-3.773-1.661-4.658
		c-0.105-0.202-0.191-0.479-0.191-0.616c0-0.296-0.425-0.681-0.761-0.686c-0.628-0.01-1.558-0.656-3.445-2.393
		c-1.494-1.377-2.162-1.653-2.162-0.894c0,0.173-0.114,0.436-0.252,0.583c-0.29,0.308-0.906,0.373-0.906,0.094
		c0-0.095-0.098-0.173-0.218-0.173c-0.126,0-0.252-0.111-0.297-0.261c-0.048-0.157-0.103-0.204-0.139-0.116
		c-0.033,0.08-0.216,0.145-0.407,0.145c-0.281,0-0.375-0.067-0.479-0.348c-0.154-0.405-0.265-0.424-0.659-0.116
		c-0.159,0.125-0.427,0.228-0.593,0.229c-0.263,0.002-0.323,0.075-0.452,0.553c-0.082,0.303-0.194,0.609-0.25,0.681
		c-0.149,0.194,0.369,0.292,0.837,0.157c0.345-0.099,0.426-0.077,0.714,0.197c0.178,0.17,0.323,0.356,0.323,0.413
		c0,0.176-0.343,0.455-0.494,0.4c-0.186-0.067-0.78,0.275-0.78,0.45c0,0.172,0.6,0.295,0.747,0.153
		c0.061-0.058,0.202-0.106,0.315-0.106c0.164,0,0.199,0.086,0.18,0.432c-0.025,0.416-0.013,0.431,0.358,0.434
		c0.305,0.002,0.489,0.113,0.895,0.544c0.282,0.298,0.544,0.489,0.583,0.426c0.039-0.063,0.146-0.086,0.236-0.051
		c0.093,0.035,0.264,0.004,0.379-0.068c0.117-0.073,0.299-0.099,0.404-0.059c0.15,0.059,0.176,0.168,0.116,0.538
		c-0.054,0.333-0.022,0.545,0.114,0.75c0.103,0.159,0.188,0.381,0.188,0.495c0,0.113,0.117,0.427,0.259,0.697
		c0.209,0.393,0.234,0.534,0.128,0.704c-0.106,0.17-0.092,0.236,0.074,0.339c0.148,0.093,0.22,0.323,0.257,0.836
		c0.058,0.806,0.342,1.205,0.866,1.214c0.229,0.004,0.414,0.135,0.678,0.481c0.328,0.429,0.385,0.46,0.58,0.317
		c0.294-0.215,0.544,0.034,0.562,0.559c0.015,0.415,0.436,0.896,0.789,0.903C73.104,60.661,73.326,60.529,73.49,60.365z"/>
	<path id="path2898" fill="#1ABC9C" stroke="#1ABC9C" d="M55.132,29.12c0.196-0.109,0.387-0.125,0.637-0.053
		c0.281,0.082,0.385,0.062,0.5-0.094c0.08-0.108,0.145-0.268,0.145-0.355c0-0.286,0.716-1.652,0.953-1.818
		c0.128-0.089,0.304-0.134,0.392-0.101c0.101,0.039,0.161-0.018,0.161-0.155c0-0.145,0.182-0.303,0.55-0.477
		c0.635-0.3,1.132-0.334,1.229-0.084c0.183,0.477,0.717-0.191,0.578-0.723c-0.067-0.256,0.36-0.493,0.89-0.493
		c0.444,0,1.308-0.759,1-0.877c-0.107-0.041-0.193-0.174-0.193-0.296c0-0.13-0.121-0.268-0.29-0.332
		c-0.169-0.064-0.289-0.202-0.289-0.33c0-0.122-0.078-0.286-0.174-0.365c-0.221-0.183-0.224-0.451-0.007-0.534
		c0.091-0.035,0.199-0.216,0.241-0.402c0.04-0.186,0.123-0.338,0.18-0.338c0.206,0,0.104-0.254-0.125-0.313
		c-0.127-0.033-0.231-0.153-0.231-0.266c0-0.224,0.22-0.346,0.624-0.346c0.619,0,1.229-0.627,1.229-1.264
		c0-0.118,0.079-0.279,0.176-0.359c0.144-0.12,0.215-0.111,0.385,0.043c0.115,0.104,0.267,0.189,0.337,0.189s0.161,0.104,0.2,0.231
		c0.059,0.184,0.138,0.217,0.386,0.158c0.17-0.041,0.403-0.121,0.515-0.179c0.113-0.057,0.248-0.078,0.302-0.045
		s0.208-0.061,0.347-0.207l0.249-0.266l-0.291-0.156c-0.161-0.085-0.291-0.227-0.291-0.314c0-0.449-0.91-1.77-1.221-1.77
		c-0.208,0-0.462-0.361-0.608-0.862c-0.148-0.51-0.056-0.708,0.406-0.884c0.146-0.056,0.265-0.181,0.265-0.279
		c0-0.159-0.045-0.159-0.434,0.006c-2.382,1.013-3.306,1.277-3.407,0.976c-0.021-0.065-0.382-0.15-0.801-0.189
		c-0.898-0.084-2.9,0.327-3.298,0.677c-0.133,0.116-0.303,0.483-0.38,0.814c-0.197,0.852-0.493,1.13-1.202,1.13
		c-0.689,0-0.945-0.122-1.505-0.721c-0.318-0.341-0.486-0.44-0.637-0.378c-0.112,0.046-0.45,0.111-0.75,0.143
		c-0.74,0.079-0.813,0.33-0.576,1.998c0.068,0.478,0.114,1.051,0.102,1.274c-0.018,0.348,0.018,0.411,0.259,0.445
		c0.501,0.07,0.797,0.353,0.879,0.84c0.086,0.51-0.065,0.799-0.421,0.799c-0.239,0-0.281,0.122-0.103,0.3
		c0.28,0.278,0.09,2.362-0.241,2.662c-0.122,0.11-0.221,0.279-0.221,0.375s-0.087,0.272-0.194,0.39
		c-0.18,0.199-0.18,0.222,0.006,0.358c0.129,0.095,0.213,0.351,0.241,0.742c0.069,0.926,0.629,1.321,1.06,0.748
		c0.152-0.204,0.994-0.225,1.46-0.037c0.356,0.144,0.537,0.628,0.327,0.88c-0.106,0.127-0.09,0.216,0.071,0.404
		C54.763,29.323,54.764,29.323,55.132,29.12z"/>
	<g id="g2985" transform="matrix(0.948312,0,0,0.948312,-83.88148,51.95865)">
		<path id="path2906" fill="#16A085" d="M157.543-14.309c-0.049-0.196,0.002-0.355,0.162-0.5c0.291-0.265,0.535-0.133,0.462,0.249
			c-0.077,0.399,0.141,0.233,0.349-0.266c0.238-0.568,0.22-0.905-0.048-0.905c-0.121,0-0.417-0.206-0.658-0.458
			c-0.573-0.599-2.043-2.743-2.082-3.037c-0.016-0.126,0.203-0.683,0.489-1.236c0.471-0.913,0.597-1.061,1.363-1.569
			c0.819-0.545,0.856-0.557,1.28-0.403c0.506,0.182,0.548,0.4,0.163,0.819c-0.234,0.253-0.144,0.227,0.58-0.172
			c1.709-0.94,2.897-1.515,3.125-1.515c0.303,0,0.293-0.119-0.073-0.878c-0.167-0.348-0.305-0.721-0.305-0.829
			c0-0.153-0.096-0.186-0.426-0.148c-0.298,0.035-0.428,0.002-0.428-0.11c0-0.125-0.033-0.127-0.146-0.013
			c-0.208,0.207-0.439,0.182-0.486-0.055c-0.033-0.168-0.101-0.149-0.423,0.123c-0.435,0.367-0.63,0.404-0.731,0.14
			c-0.039-0.101-0.187-0.184-0.333-0.185c-0.381-0.003-0.512-0.125-0.702-0.654c-0.093-0.26-0.284-0.563-0.425-0.673
			c-0.14-0.111-0.287-0.338-0.326-0.504c-0.038-0.167-0.109-0.427-0.154-0.577c-0.067-0.211,0.001-0.355,0.295-0.629
			c0.427-0.399,0.461-0.527,0.197-0.746c-0.101-0.083-0.183-0.251-0.183-0.373c0-0.123-0.123-0.258-0.275-0.305
			c-0.382-0.117-0.701-0.42-0.701-0.665c0-0.226,0.337-0.574,0.76-0.785c0.149-0.075,0.355-0.359,0.457-0.634
			c0.244-0.657,0.424-0.857,0.844-0.941c0.216-0.043,0.372-0.167,0.414-0.327c0.038-0.142,0.235-0.321,0.442-0.4
			c0.325-0.122,0.377-0.202,0.377-0.582c0-0.549-0.236-0.682-1.369-0.773c-0.753-0.06-0.837-0.043-1.043,0.22
			c-0.16,0.203-0.406,0.31-0.859,0.373c-0.35,0.048-0.666,0.136-0.703,0.198c-0.128,0.206-0.394,0.112-0.465-0.164
			c-0.09-0.352-0.688-0.662-0.688-0.356c0,0.11-0.093,0.425-0.205,0.698c-0.165,0.399-0.299,0.526-0.67,0.642
			c-0.255,0.08-0.614,0.145-0.798,0.145h-0.334l0.27,0.19c0.266,0.186,0.38,0.665,0.159,0.665c-0.062,0-0.148,0.16-0.19,0.356
			c-0.044,0.196-0.166,0.389-0.271,0.43c-0.174,0.067-0.172,0.095,0.008,0.294c0.109,0.122,0.2,0.316,0.2,0.433
			c0,0.115,0.048,0.18,0.108,0.144c0.143-0.088,0.456,0.295,0.818,1.006c0.046,0.089-0.033,0.265-0.179,0.402
			c-0.142,0.132-0.259,0.283-0.259,0.334c0,0.127-0.741,0.386-1.108,0.388c-0.412,0.003-0.537,0.123-0.567,0.548
			c-0.015,0.201-0.035,0.488-0.046,0.637c-0.011,0.149-0.115,0.302-0.232,0.339c-0.258,0.082-0.856-0.129-0.856-0.302
			c0-0.187-0.352-0.152-0.864,0.089c-0.323,0.151-0.477,0.313-0.526,0.555c-0.059,0.283-0.126,0.334-0.4,0.305
			c-0.292-0.031-0.372,0.05-0.732,0.758c-0.222,0.437-0.405,0.859-0.406,0.941c-0.001,0.08-0.069,0.292-0.15,0.47
			c-0.138,0.301-0.185,0.318-0.722,0.247c-0.343-0.046-0.59-0.027-0.615,0.046c-0.023,0.067-0.22,0.158-0.438,0.201
			c-0.318,0.063-0.397,0.039-0.397-0.119c0-0.109-0.083-0.199-0.183-0.199c-0.203,0-0.259-0.602-0.075-0.8
			c0.059-0.064,0.068-0.223,0.02-0.355c-0.084-0.228-0.099-0.224-0.272,0.061c-0.102,0.166-0.466,0.749-0.811,1.297
			c-0.622,0.991-0.626,1-0.599,1.918c0.024,0.819,0.055,0.926,0.272,0.958c0.198,0.029,0.243,0.128,0.24,0.524
			c-0.004,0.491,0.226,0.818,0.498,0.713c0.076-0.029,0.287,0.142,0.47,0.38c0.182,0.238,0.412,0.433,0.511,0.433
			c0.1,0,0.21,0.077,0.247,0.172c0.036,0.094,0.171,0.198,0.302,0.232c0.129,0.034,0.283,0.19,0.34,0.348
			c0.059,0.157,0.155,0.286,0.215,0.286c0.059,0,0.115,0.082,0.126,0.183c0.009,0.1,0.024,0.231,0.031,0.289
			c0.007,0.059,0.095,0.039,0.196-0.045c0.1-0.083,0.183-0.111,0.183-0.061c0,0.049,0.068,0.036,0.152-0.031
			c0.245-0.195,0.642,0.02,0.642,0.349c0,0.205,0.068,0.292,0.23,0.293c0.128,0.001,0.276,0.125,0.334,0.281
			c0.062,0.165,0.33,0.38,0.655,0.524c0.303,0.134,0.552,0.313,0.552,0.397c0,0.101,0.135,0.137,0.398,0.107
			c0.301-0.036,0.482,0.031,0.738,0.268c0.33,0.306,0.348,0.308,0.669,0.102c0.182-0.116,0.389-0.286,0.459-0.377
			c0.2-0.256,1.277-0.488,2.051-0.442c0.879,0.053,1.178,0.147,1.178,0.371c0,0.141,0.141,0.165,0.671,0.123l0.671-0.055v0.48
			c0,0.326,0.054,0.479,0.169,0.479c0.093,0,0.197,0.11,0.232,0.244c0.036,0.135,0.102,0.245,0.149,0.245
			C157.577-14.021,157.581-14.151,157.543-14.309z"/>
		<path id="path2904" fill="#16A085" d="M158.443-21.164c0.287-0.164,0.29-0.174,0.044-0.179c-0.142-0.002-0.327,0.078-0.412,0.179
			C157.887-20.935,158.043-20.935,158.443-21.164z"/>
	</g>
	<g id="g2981" transform="matrix(0.948312,0,0,0.948312,-83.88148,51.95865)">
		<path id="path2900" fill="#1ABC9C" stroke="#1ABC9C" d="M169.464-22.941c0.2-0.318-0.505-1.314-1.127-1.592
			c-0.725-0.325-0.811-0.291-0.329,0.132c0.228,0.201,0.547,0.668,0.706,1.039C169.007-22.685,169.225-22.562,169.464-22.941z"/>
		<path id="path2896" fill="#1ABC9C" stroke="#1ABC9C" d="M166.356-24.058c0.079-0.08,0.145-0.274,0.145-0.429
			c0-0.184,0.108-0.333,0.305-0.423c0.283-0.129,0.439-0.589,0.201-0.589c-0.158,0-0.016-0.581,0.179-0.744
			c0.095-0.078,0.17-0.31,0.17-0.516c0-0.292-0.033-0.343-0.146-0.23c-0.249,0.249-0.701,0.173-0.844-0.141
			c-0.105-0.23-0.079-0.389,0.128-0.793c0.141-0.278,0.298-0.506,0.348-0.506c0.156,0,0.759-0.613,0.759-0.77
			c0-0.212-1.089-0.561-1.529-0.491c-0.347,0.056-0.377,0.028-0.512-0.469c-0.142-0.528-0.141-0.53,0.37-1.056
			c0.281-0.29,0.841-0.725,1.243-0.967c0.405-0.241,0.74-0.444,0.75-0.45c0.008-0.006,0.051-0.126,0.095-0.268
			c0.07-0.229,0-0.28-0.633-0.457c-0.392-0.11-1.232-0.229-1.865-0.266c-1.344-0.078-4.199-0.619-4.612-0.875l-0.284-0.176
			l0.084,0.681c0.083,0.662,0.077,0.68-0.211,0.68c-0.299,0-0.903,0.356-0.616,0.362c0.082,0.003,0.151,0.111,0.151,0.24
			c0,0.196-0.083,0.235-0.489,0.23c-0.577-0.008-0.81,0.154-0.915,0.635c-0.092,0.419-0.503,0.974-0.722,0.974
			c-0.084,0-0.246,0.101-0.358,0.224c-0.188,0.211-0.188,0.237,0.012,0.413c0.119,0.103,0.338,0.226,0.49,0.272
			c0.153,0.046,0.275,0.181,0.275,0.305c0,0.122,0.082,0.289,0.183,0.373c0.301,0.249,0.228,0.82-0.134,1.057
			c-0.282,0.185-0.309,0.263-0.241,0.705c0.044,0.296,0.185,0.589,0.348,0.724c0.149,0.125,0.361,0.454,0.47,0.733
			c0.145,0.366,0.279,0.517,0.488,0.548c0.16,0.023,0.358,0.097,0.44,0.164c0.102,0.084,0.258,0.043,0.507-0.134
			c0.391-0.279,0.748-0.335,0.748-0.119c0,0.091,0.067,0.082,0.198-0.025c0.165-0.137,0.218-0.134,0.336,0.019
			c0.15,0.196,0.369,0.231,0.516,0.084c0.182-0.183,0.417-0.085,0.417,0.172c0,0.145,0.092,0.473,0.204,0.729l0.207,0.465
			l0.22-0.362c0.15-0.249,0.317-0.362,0.527-0.362c0.559,0,1.773,0.403,2.049,0.679C166.129-23.88,166.168-23.87,166.356-24.058z"/>
	</g>
	<g id="g3019" transform="matrix(0.948312,0,0,0.948312,-83.88148,51.95865)">
		<path id="path2938" fill="#1ABC9C" stroke="#1ABC9C" d="M179.322,71.33c0-0.064-0.089-0.305-0.199-0.533
			c-0.186-0.39-0.182-0.461,0.039-1.135c0.199-0.603,0.338-0.792,0.87-1.193c0.538-0.403,0.632-0.535,0.632-0.876
			c0-0.323-0.054-0.409-0.273-0.442c-0.399-0.056-1.331-1.979-1.441-2.968c-0.084-0.773,0.07-1.311,0.42-1.445
			c0.219-0.083,0.56-1.176,0.56-1.79c0-0.448,0.603-1.441,1.917-3.162c0.296-0.387,0.586-0.953,0.702-1.372
			c0.11-0.39,0.295-0.764,0.408-0.828c0.195-0.109,0.193-0.123-0.016-0.204c-0.155-0.06-0.795,0.192-2.058,0.809l-1.827,0.897
			l-0.586-0.207c-0.955-0.339-1.524-0.278-2.224,0.236c-1.088,0.798-3.375,1.198-5.217,0.91c-0.528-0.082-0.938-0.096-0.977-0.032
			c-0.168,0.258-0.9,0.511-1.482,0.511c-0.53,0-0.829-0.107-1.908-0.687c-0.704-0.377-1.299-0.748-1.32-0.825
			c-0.023-0.074-0.077-0.294-0.119-0.487l-0.076-0.35l-0.819,0.086c-0.949,0.101-1.287,0.323-1.19,0.789
			c0.082,0.392-0.002,0.504-0.579,0.77c-0.726,0.336-1.006,0.277-1.616-0.332l-0.547-0.546l-0.722,0.423
			c-0.567,0.332-0.781,0.546-0.999,0.996c-0.161,0.334-0.267,0.759-0.253,1.01c0.014,0.241-0.05,0.542-0.142,0.668
			c-0.307,0.418-0.022,1.095,0.757,1.793c0.647,0.581,0.714,0.612,1.176,0.534c0.918-0.154,1.681-0.066,2.135,0.245
			c0.237,0.161,0.661,0.345,0.945,0.408c0.545,0.122,1.305,0.671,1.41,1.018c0.059,0.204,1.885,1.199,2.198,1.199
			c0.089,0,0.396,0.247,0.685,0.547c0.287,0.302,0.86,0.708,1.276,0.905c0.682,0.324,0.836,0.35,1.648,0.29
			c0.783-0.059,0.959-0.032,1.405,0.216c0.889,0.492,1.475,1.052,1.848,1.766c0.413,0.789,0.618,0.959,1.933,1.579
			c0.835,0.395,0.998,0.435,1.342,0.323c0.47-0.153,1.663,0.111,1.857,0.412C179.029,71.469,179.322,71.516,179.322,71.33z"/>
		<path id="path2892" fill="#1ABC9C" stroke="#1ABC9C" d="M154.846,70.464c0.095-0.154-0.28-0.602-0.505-0.602
			c-0.257,0-0.296,0.186-0.098,0.469C154.44,70.613,154.715,70.674,154.846,70.464z"/>
		<path id="path2884" fill="#1ABC9C" stroke="#1ABC9C" d="M177.937,53.051c-0.036-0.035-0.125-0.026-0.2,0.02
			c-0.099,0.06-0.092,0.139,0.022,0.276c0.144,0.171,0.164,0.17,0.201-0.021C177.981,53.21,177.972,53.086,177.937,53.051z"/>
	</g>
	<path id="path2936" fill="#1ABC9C" stroke="#1ABC9C" d="M93.416,107.36c0.138-0.204,0.287-0.643,0.331-0.976
		c0.068-0.521,0.184-0.73,0.824-1.499c0.579-0.692,0.833-0.908,1.132-0.965c0.212-0.039,0.576-0.249,0.81-0.463
		c0.407-0.373,0.429-0.425,0.426-1.127c0-0.405-0.075-1.016-0.166-1.356c-0.174-0.655-0.137-0.861,0.262-1.443
		c0.291-0.428,1.537-1.189,2.312-1.415c0.548-0.159,0.671-0.159,1.208,0c0.475,0.142,0.618,0.148,0.691,0.034
		c0.148-0.234,0.108-0.846-0.078-1.204c-0.207-0.396-0.238-2.184-0.049-2.86c0.138-0.497,0.069-0.589-0.703-0.955
		c-0.225-0.105-0.807-0.498-1.294-0.872c-0.758-0.58-0.96-0.68-1.372-0.68c-0.641,0-1.072-0.273-1.256-0.793
		c-0.301-0.852-0.287-0.968,0.207-1.812c0.382-0.654,0.47-0.912,0.455-1.332c-0.01-0.286,0.017-0.629,0.06-0.763
		c0.071-0.227,0.032-0.241-0.606-0.249l-0.683-0.006l-0.079,0.588c-0.044,0.322-0.137,0.693-0.208,0.826
		c-0.072,0.133-0.12,0.384-0.107,0.559c0.026,0.378-0.206,0.425-0.417,0.087c-0.15-0.239-0.543-0.312-0.658-0.124
		c-0.038,0.06-0.356,0.144-0.711,0.188c-0.583,0.073-0.659,0.057-0.826-0.183c-0.457-0.652-1.158-0.838-1.652-0.438
		c-0.242,0.197-0.256,0.255-0.137,0.649c0.071,0.238,0.166,0.822,0.208,1.299c0.081,0.919,0.363,1.582,1.152,2.719
		c0.475,0.684,0.744,1.507,0.744,2.272c0,0.596,0.354,2.23,0.573,2.639c0.075,0.141,0.263,0.302,0.419,0.36
		c0.24,0.091,0.281,0.183,0.281,0.629c0,0.533-0.291,1.439-0.512,1.6c-0.068,0.048-0.374,0.057-0.676,0.018
		c-0.487-0.062-0.618-0.028-1.127,0.298l-0.575,0.369l0.359,0.443l0.355,0.444l-0.177,0.7c-0.098,0.385-0.346,1.015-0.551,1.4
		c-0.353,0.659-0.41,0.71-1.001,0.883c-0.518,0.148-0.612,0.216-0.535,0.374c0.053,0.104,0.101,0.589,0.108,1.074
		c0.009,0.485,0.055,0.946,0.103,1.024c0.173,0.279,0.749,0.408,1.809,0.408h1.078L93.416,107.36z"/>
	<g id="g3015" transform="matrix(0.948312,0,0,0.948312,-83.88148,51.95865)">
		<path id="path2930" fill="#1ABC9C" stroke="#1ABC9C" d="M181.909,37.337c0.346-0.434,0.87-0.62,1.22-0.431
			c0.244,0.13,0.589-0.27,0.589-0.681c0-0.135,0.164-0.403,0.366-0.594c0.202-0.189,0.367-0.386,0.367-0.435
			c0-0.05-0.137-0.219-0.306-0.379c-0.167-0.157-0.305-0.415-0.305-0.573c0-0.194-0.098-0.325-0.305-0.404
			c-0.167-0.063-0.306-0.171-0.306-0.241c0-0.068-0.071-0.125-0.159-0.125c-0.196,0-0.715-0.677-0.681-0.887
			c0.041-0.252-0.231-0.796-0.467-0.928c-0.189-0.109-0.198-0.162-0.059-0.387c0.167-0.275,0.089-0.393-0.483-0.728
			c-0.338-0.199-0.496-1.783-0.195-1.979c0.083-0.055,0.26-0.092,0.395-0.083c0.473,0.027,0.549-0.019,0.849-0.494
			c0.261-0.413,0.285-0.532,0.174-0.854c-0.073-0.207-0.211-0.375-0.311-0.375c-0.098,0-0.293-0.063-0.436-0.137
			c-0.141-0.077-0.497-0.159-0.793-0.181c-0.531-0.041-1.233-0.456-1.246-0.735c-0.005-0.076,0.068-0.202,0.163-0.279
			c0.094-0.076,0.196-0.276,0.228-0.443c0.051-0.271,0.008-0.311-0.411-0.378c-0.297-0.047-0.493-0.156-0.535-0.291
			c-0.039-0.118-0.179-0.244-0.31-0.278c-0.251-0.067-0.334-0.503-0.117-0.635c0.195-0.119,0.143-0.407-0.123-0.671
			c-0.271-0.271-0.391-0.295-0.703-0.136c-0.653,0.333-0.892,0.406-1.115,0.348c-0.136-0.035-0.311,0.012-0.388,0.106
			s-0.288,0.17-0.466,0.17s-0.454,0.091-0.611,0.202c-0.23,0.16-0.337,0.173-0.515,0.062c-0.125-0.078-0.338-0.141-0.477-0.141
			c-0.137,0-0.282-0.082-0.319-0.183c-0.04-0.101-0.141-0.183-0.228-0.183c-0.088,0-0.541-0.163-1.005-0.36
			c-0.649-0.276-0.933-0.339-1.205-0.266c-0.322,0.089-0.35,0.139-0.312,0.554l0.039,0.455l-0.468-0.039
			c-0.386-0.031-0.498-0.104-0.652-0.425l-0.182-0.387l-0.287,0.234c-0.226,0.184-0.291,0.365-0.308,0.856
			c-0.013,0.432-0.085,0.671-0.232,0.779c-0.116,0.084-0.211,0.213-0.211,0.284s-0.12,0.148-0.267,0.169
			c-0.265,0.039-0.265,0.042-0.03,0.272c0.359,0.351,1.348,1.965,1.895,3.095c0.474,0.976,0.503,1.007,0.915,1.007
			c0.234,0,0.547-0.079,0.696-0.177c0.253-0.165,0.327-0.138,1.098,0.392c1.045,0.718,1.152,1.016,0.555,1.547
			c-0.234,0.206-0.528,0.443-0.658,0.524c-0.23,0.145-0.23,0.147,0.008,0.07c0.134-0.043,0.366-0.157,0.516-0.252
			c0.18-0.117,0.423-0.147,0.741-0.093c0.35,0.059,0.512,0.031,0.629-0.111c0.086-0.104,0.276-0.19,0.42-0.19
			c0.145,0,0.394-0.092,0.557-0.205c0.287-0.203,0.3-0.195,0.852,0.41c0.817,0.901,1.71,3.214,1.242,3.214
			c-0.15,0-0.373,0.667-0.275,0.822c0.119,0.186,0.908,0.643,1.117,0.644c0.1,0.001,0.65,0.439,1.22,0.971
			c0.571,0.534,1.095,0.973,1.16,0.976C181.526,37.745,181.729,37.563,181.909,37.337z"/>
		<path id="path2864" fill="#1ABC9C" stroke="#1ABC9C" d="M169.866,30.235c-0.26-0.197-0.556-0.236-0.556-0.076
			c0,0.18,0.154,0.265,0.479,0.259C170.091,30.415,170.094,30.408,169.866,30.235z"/>
	</g>
	<path id="path2928" fill="#1ABC9C" stroke="#1ABC9C" d="M71.17,75.263c0.036-0.059,0.31-0.188,0.609-0.291
		c0.523-0.178,0.578-0.175,1.633,0.125c0.881,0.25,1.134,0.282,1.312,0.172c0.196-0.122,0.423-0.109,1.036,0.054
		c0.1,0.026,0.331-0.079,0.514-0.236c0.286-0.247,0.329-0.364,0.325-0.879c-0.005-0.562,0.021-0.611,0.434-0.885
		c0.241-0.16,0.47-0.373,0.508-0.475c0.226-0.584-0.396-2.112-0.858-2.112c-0.122,0-0.255-0.053-0.294-0.115
		c-0.04-0.063-0.221-0.116-0.404-0.116c-0.226,0-0.355-0.07-0.402-0.219c-0.089-0.279-0.477-0.384-0.651-0.174
		c-0.166,0.2-0.872,0.213-0.998,0.016c-0.144-0.227-0.582-0.434-0.915-0.434c-0.289,0-0.304-0.025-0.248-0.444
		c0.061-0.453-0.134-0.714-0.535-0.714c-0.088,0-0.224-0.076-0.302-0.172c-0.189-0.227-0.794-0.522-1.07-0.522
		c-0.121,0-0.322-0.054-0.445-0.119c-0.316-0.17-0.311-0.928,0.008-1.127c0.128-0.079,0.231-0.219,0.231-0.31
		c0-0.288,0.447-0.328,0.944-0.082c0.825,0.408,1.119,0.027,0.5-0.646c-0.221-0.24-0.401-0.526-0.401-0.634
		c-0.001-0.109-0.107-0.257-0.238-0.327c-0.191-0.102-0.226-0.197-0.165-0.467c0.043-0.202,0.026-0.339-0.044-0.339
		c-0.224,0-0.275-0.472-0.077-0.692c0.164-0.181,0.169-0.25,0.039-0.471c-0.121-0.204-0.122-0.269-0.007-0.31
		c0.079-0.029,0.145-0.124,0.145-0.211c0-0.259,0.345-0.377,0.796-0.272c0.23,0.053,0.48,0.098,0.557,0.1
		c0.191,0.004,0.324-0.47,0.159-0.572c-0.074-0.045-0.222-0.26-0.331-0.477c-0.143-0.286-0.274-0.396-0.477-0.396
		c-0.226,0-0.303,0.087-0.408,0.463c-0.119,0.427-0.172,0.472-0.667,0.579c-0.297,0.063-0.577,0.155-0.623,0.202
		c-0.049,0.048-0.284,0.087-0.522,0.087c-0.353,0-0.442,0.046-0.473,0.24c-0.021,0.132-0.193,0.327-0.384,0.434
		c-0.191,0.107-0.365,0.233-0.387,0.282c-0.021,0.048-0.112,0.087-0.202,0.087c-0.096,0-0.164,0.115-0.164,0.28
		c0,0.221-0.079,0.298-0.37,0.362c-0.204,0.044-0.521,0.231-0.704,0.414c-0.331,0.331-0.663,0.44-0.663,0.217
		c0-0.064-0.162-0.116-0.36-0.116c-0.272,0-0.344-0.042-0.292-0.173c0.037-0.096,0.015-0.174-0.046-0.174s-0.112-0.134-0.112-0.297
		c0-0.163-0.05-0.265-0.11-0.228c-0.061,0.039-0.205,0.02-0.318-0.042c-0.115-0.061-0.299-0.14-0.41-0.174
		c-0.12-0.037-0.203-0.177-0.203-0.342c0-0.154-0.073-0.339-0.162-0.413c-0.089-0.073-0.195-0.311-0.236-0.526
		c-0.089-0.473-0.185-0.515-0.887-0.376c-0.481,0.095-0.584,0.078-0.903-0.159c-0.374-0.277-0.454-0.545-0.228-0.771
		c0.098-0.098,0.083-0.179-0.058-0.32c-0.104-0.104-0.19-0.262-0.19-0.348c0-0.271-0.216-0.31-0.517-0.092
		c-0.289,0.211-0.392,0.499-0.178,0.499c0.149,0,0.151,0.428,0.003,0.519c-0.061,0.038-0.081,0.224-0.043,0.412
		c0.042,0.204,0.02,0.343-0.051,0.343c-0.065,0-0.303,0.178-0.526,0.395c-0.224,0.217-0.51,0.428-0.636,0.468
		c-0.263,0.083-0.412,0.37-0.246,0.473c0.06,0.038,0.11,0.218,0.11,0.402c0,0.305-0.043,0.34-0.511,0.41
		c-0.361,0.054-0.526,0.14-0.567,0.292c-0.061,0.231,0.018,0.313,0.552,0.576c0.478,0.236,1.209,1.009,1.296,1.372
		c0.04,0.167,0.223,0.603,0.405,0.969c0.292,0.588,0.373,0.666,0.679,0.666c0.41,0,1.808,0.886,2.168,1.375
		c0.131,0.177,0.312,0.536,0.4,0.8c0.092,0.272,0.332,0.615,0.561,0.801c0.746,0.607,1.557,1.448,1.969,2.045
		c0.391,0.566,0.465,0.613,1.54,0.986c1.052,0.362,1.163,0.433,1.645,1.022c0.283,0.35,0.515,0.706,0.515,0.796
		C70.541,75.386,71.064,75.433,71.17,75.263z"/>
	<path id="path2920" fill="#1ABC9C" stroke="#1ABC9C" d="M67.062,63.682c0.065-0.124,0.09-0.298,0.055-0.391
		c-0.097-0.252,0.319-0.365,0.488-0.134c0.165,0.225,0.388,0.129,0.388-0.168c0-0.128,0.218-0.325,0.578-0.521
		c0.369-0.201,0.58-0.392,0.58-0.528c0-0.243,0.219-0.352,0.703-0.352c0.186,0,0.339-0.047,0.339-0.104
		c0-0.057,0.169-0.126,0.376-0.155c0.768-0.106,0.873-0.201,0.889-0.8c0.005-0.188,0.114-0.375,0.289-0.488
		c0.193-0.127,0.26-0.254,0.217-0.418c-0.066-0.254-0.208-0.306-0.324-0.12c-0.137,0.223-0.388,0.112-0.63-0.278
		c-0.27-0.438-0.562-0.603-0.744-0.42c-0.197,0.197-0.421,0.135-0.421-0.116c0-0.129-0.073-0.263-0.165-0.298
		c-0.226-0.086-0.413-0.669-0.413-1.289c0-0.418-0.044-0.526-0.231-0.576c-0.254-0.066-0.308-0.375-0.1-0.582
		c0.098-0.098,0.068-0.237-0.116-0.55c-0.137-0.231-0.247-0.523-0.247-0.648c0-0.126-0.084-0.357-0.187-0.513
		c-0.117-0.182-0.169-0.452-0.141-0.749c0.042-0.435-0.06-0.636-0.163-0.325c-0.025,0.077-0.241,0.152-0.479,0.167
		c-0.382,0.025-0.496-0.038-0.992-0.554c-0.52-0.539-0.579-0.57-0.819-0.428c-0.206,0.122-0.271,0.124-0.313,0.01
		c-0.028-0.081-0.153-0.146-0.277-0.146c-0.299,0-0.413-0.322-0.174-0.498c0.158-0.117,0.112-0.142-0.286-0.157
		c-0.43-0.016-0.497,0.021-0.723,0.403c-0.137,0.232-0.232,0.519-0.212,0.637c0.021,0.12-0.07,0.292-0.204,0.385
		c-0.313,0.218-0.317,0.694-0.009,0.792c0.162,0.052,0.231,0.176,0.231,0.417c0,0.304,0.025,0.33,0.224,0.223
		c0.316-0.168,0.354-0.153,0.354,0.143c0,0.315-0.297,0.52-0.9,0.616c-0.356,0.057-0.473,0.14-0.573,0.407
		c-0.07,0.185-0.208,0.336-0.307,0.336c-0.261,0-0.437,0.395-0.319,0.714c0.055,0.148,0.146,0.244,0.202,0.212
		c0.185-0.104,0.184,0.469-0.001,0.931c-0.112,0.278-0.153,0.593-0.107,0.82c0.055,0.275,0.022,0.404-0.127,0.514
		c-0.169,0.125-0.178,0.189-0.06,0.417c0.079,0.149,0.213,0.312,0.3,0.363c0.204,0.12,0.198,0.305-0.016,0.542
		c-0.156,0.171-0.139,0.216,0.17,0.445c0.309,0.228,0.399,0.241,0.896,0.129c0.506-0.113,0.568-0.103,0.756,0.128
		c0.111,0.138,0.203,0.37,0.203,0.516c0,0.145,0.078,0.293,0.173,0.331c0.096,0.037,0.174,0.195,0.174,0.353
		c0,0.346,0.127,0.436,0.636,0.45c0.356,0.01,0.401,0.053,0.527,0.503c0.111,0.396,0.197,0.501,0.443,0.538
		c0.168,0.027,0.343,0.055,0.389,0.065C66.906,63.896,66.997,63.804,67.062,63.682z"/>
	<path id="path2924" fill="#1ABC9C" stroke="#1ABC9C" d="M77.946,70.685c0.075-0.093,0.317-0.227,0.534-0.299
		c0.337-0.111,0.379-0.162,0.28-0.346c-0.178-0.332-0.138-0.555,0.113-0.635c0.128-0.04,0.387-0.229,0.577-0.419
		c0.29-0.291,0.384-0.326,0.581-0.221c0.13,0.069,0.233,0.18,0.233,0.245c0,0.066,0.097,0.09,0.212,0.053
		c0.257-0.081,0.549,0.212,0.661,0.658c0.043,0.177,0.116,0.318,0.163,0.318c0.046,0,0.259-0.246,0.473-0.55
		c0.216-0.302,0.458-0.592,0.54-0.643c0.084-0.051,0.152-0.17,0.152-0.265c0-0.093,0.149-0.318,0.334-0.498
		c0.333-0.327,0.598-1.055,0.383-1.055c-0.062,0-0.145-0.177-0.186-0.394c-0.083-0.438-0.22-0.583-0.647-0.686
		c-0.159-0.039-1.078-0.84-2.04-1.783c-1.345-1.315-1.867-1.913-2.253-2.581c-0.5-0.864-1.031-2.19-1.032-2.576
		c-0.002-0.248-0.187-0.256-0.623-0.028c-0.183,0.095-0.43,0.173-0.552,0.173c-0.13,0-0.268,0.121-0.332,0.29
		c-0.104,0.277-0.348,0.347-1.124,0.321c-0.078-0.003-0.209,0.145-0.29,0.329c-0.081,0.184-0.218,0.333-0.305,0.333
		c-0.085,0-0.183,0.104-0.217,0.232c-0.042,0.164-0.157,0.231-0.394,0.231c-0.354,0-0.449,0.163-0.161,0.274
		c0.233,0.089,0.222,0.589-0.019,0.829c-0.153,0.154-0.315,0.178-0.81,0.116c-0.518-0.064-0.618-0.047-0.618,0.104
		c0,0.101-0.062,0.182-0.139,0.182c-0.107,0-0.107,0.032,0,0.14c0.192,0.191,0.174,0.498-0.038,0.675
		c-0.159,0.13-0.151,0.176,0.067,0.409c0.19,0.203,0.22,0.31,0.128,0.48c-0.093,0.172-0.07,0.25,0.105,0.359
		c0.123,0.078,0.223,0.233,0.223,0.348c0,0.225,0.626,0.871,0.956,0.986c0.271,0.095,0.259,0.426-0.015,0.426
		c-0.121,0-0.246,0.104-0.28,0.231c-0.08,0.306-0.58,0.306-1.184-0.001l-0.454-0.232l-0.087,0.235
		c-0.049,0.13-0.167,0.266-0.264,0.303c-0.236,0.091-0.231,0.693,0.007,0.784c0.102,0.039,0.231,0.041,0.29,0.007
		c0.107-0.068,0.696,0.22,1.065,0.519c0.115,0.094,0.277,0.181,0.361,0.191c0.085,0.013,0.294,0.115,0.467,0.228
		c0.271,0.178,0.304,0.261,0.241,0.592c-0.061,0.327-0.039,0.387,0.147,0.387c0.281,0,0.949,0.332,0.949,0.471
		c0,0.174,0.485,0.124,0.7-0.072c0.249-0.225,0.762-0.115,0.932,0.198c0.077,0.146,0.193,0.201,0.327,0.157
		c0.115-0.035,0.271,0.011,0.35,0.104c0.075,0.094,0.205,0.145,0.283,0.115c0.078-0.031,0.24,0.051,0.356,0.18
		C77.327,70.89,77.747,70.924,77.946,70.685z"/>
	<path id="path2934" fill="#1ABC9C" stroke="#1ABC9C" d="M110.632,88.827c0.063-0.825,0.211-1.197,0.637-1.622
		c0.345-0.343,0.329-0.655-0.074-1.546c-0.354-0.777-0.967-1.436-2.46-2.633c-0.633-0.507-0.779-0.689-0.836-1.04
		c-0.077-0.481-0.226-0.598-1.262-0.991c-1.982-0.75-2.772-1.208-3.788-2.198c-1.062-1.032-1.368-1.208-3.708-2.116
		c-2.176-0.844-2.416-0.951-4.166-1.876c-0.923-0.486-1.808-0.931-1.969-0.986c-0.802-0.277-1.427-1.406-1.126-2.029
		c0.079-0.162,0.431-0.435,0.812-0.629c1.226-0.623,1.576-1.197,1.215-1.99c-0.211-0.465-0.703-0.613-1.656-0.501
		c-0.445,0.053-1.954,0.124-3.351,0.163c-2.885,0.076-2.566-0.063-2.688,1.18c-0.051,0.504-0.03,0.608,0.122,0.608
		c0.108,0,0.185,0.097,0.185,0.231c0,0.126-0.067,0.231-0.15,0.231c-0.085,0-0.304,0.158-0.491,0.354
		c-0.257,0.267-0.422,0.344-0.688,0.316c-0.342-0.033-0.349-0.024-0.31,0.429c0.038,0.42,0.325,0.866,0.563,0.871
		c0.05,0.001,0.21,0.126,0.353,0.277c0.269,0.282,0.349,0.811,0.145,0.937c-0.174,0.107-0.14,0.289,0.054,0.289
		c0.094,0,0.227,0.105,0.296,0.235c0.069,0.129,0.169,0.208,0.222,0.176c0.166-0.103,0.818,0.293,0.818,0.495
		c-0.001,0.107-0.081,0.348-0.179,0.534c-0.163,0.313-0.159,0.356,0.038,0.556c0.138,0.138,0.398,0.221,0.729,0.23
		c0.281,0.009,0.614,0.085,0.739,0.169c0.296,0.196,0.501,0.193,0.706-0.013c0.12-0.119,0.394-0.156,0.976-0.133
		c0.447,0.018,0.812-0.003,0.812-0.048s0.14-0.144,0.31-0.222c0.262-0.119,0.328-0.111,0.41,0.039
		c0.056,0.1,0.189,0.181,0.296,0.181c0.259,0,0.979,0.82,0.914,1.041c-0.028,0.096-0.086,0.256-0.125,0.354
		c-0.096,0.229,0.647,0.621,0.832,0.437c0.203-0.203,0.585,0.015,0.716,0.409c0.068,0.208,0.414,0.682,0.766,1.051l0.642,0.673
		l0.28-0.264c0.303-0.284,1-0.402,1.385-0.234c0.128,0.056,0.324,0.129,0.436,0.165c0.17,0.055,0.202,0.211,0.202,0.979
		c0,1.28,0.086,1.641,0.392,1.641c0.165,0,0.3,0.119,0.405,0.355l0.158,0.356l0.459-0.479c0.253-0.264,0.585-0.526,0.735-0.584
		c0.353-0.134,2.391,0.13,2.454,0.318c0.024,0.076-0.146,0.217-0.38,0.314c-0.24,0.101-0.4,0.239-0.374,0.323
		c0.027,0.08,0.409,0.355,0.851,0.609c0.703,0.407,0.877,0.46,1.437,0.435c0.835-0.036,2.292,0.182,2.609,0.39
		c0.407,0.267,1.113,1.896,1.082,2.496c-0.016,0.279,0.021,0.591,0.081,0.693c0.213,0.371,1.115,1.023,1.42,1.027
		c0.17,0.002,0.438,0.079,0.598,0.169c0.159,0.092,0.321,0.169,0.36,0.171C110.54,89.606,110.6,89.257,110.632,88.827z"/>
	<path id="path2926" fill="#1ABC9C" stroke="#1ABC9C" d="M82.94,73.746c0.19,0,0.374-0.1,0.479-0.258
		c0.151-0.227,0.197-0.24,0.367-0.1c0.145,0.122,0.256,0.13,0.449,0.037c0.141-0.066,0.354-0.153,0.473-0.191
		c0.176-0.058,0.188-0.101,0.072-0.242c-0.079-0.095-0.161-0.428-0.184-0.74c-0.044-0.64,0.132-0.891,0.538-0.762
		c0.355,0.114,0.958-0.467,0.797-0.767c-0.118-0.223-0.075-0.93,0.104-1.63c0.102-0.4,0.089-0.434-0.216-0.561
		c-0.181-0.073-0.352-0.202-0.384-0.285c-0.033-0.084-0.336-0.242-0.674-0.354c-0.341-0.113-0.731-0.279-0.873-0.37
		c-0.278-0.181-0.497-0.113-0.497,0.154c0,0.094-0.155,0.323-0.348,0.51c-0.19,0.188-0.347,0.418-0.347,0.513
		s-0.065,0.213-0.145,0.264c-0.196,0.125-0.782,0.918-0.782,1.057c0,0.13-0.278,0.252-0.575,0.252c-0.133,0-0.239-0.117-0.29-0.317
		c-0.102-0.402-0.271-0.609-0.5-0.609c-0.1,0-0.277-0.088-0.396-0.194c-0.206-0.186-0.231-0.181-0.505,0.114
		c-0.16,0.172-0.366,0.313-0.459,0.313c-0.218,0-0.216,0.163,0.005,0.348c0.28,0.232,0.198,0.39-0.32,0.624
		c-0.271,0.12-0.604,0.322-0.742,0.446c-0.139,0.125-0.312,0.189-0.386,0.144c-0.074-0.045-0.051,0.08,0.054,0.281
		c0.104,0.2,0.16,0.406,0.128,0.459c-0.032,0.054-0.01,0.264,0.048,0.471c0.072,0.249,0.066,0.44-0.018,0.576
		c-0.188,0.301,0.031,0.868,0.354,0.915c0.23,0.033,0.243,0.013,0.119-0.186c-0.114-0.183-0.105-0.276,0.051-0.498
		c0.282-0.402,0.875-0.397,1.844,0.015c0.442,0.188,0.878,0.342,0.97,0.342c0.091,0,0.194,0.079,0.231,0.174
		c0.037,0.096,0.188,0.174,0.337,0.174s0.304,0.054,0.344,0.117c0.044,0.074,0.163,0.053,0.32-0.059
		C82.522,73.825,82.772,73.746,82.94,73.746z"/>
	<path id="path2932" fill="#1ABC9C" stroke="#1ABC9C" d="M94.22,88.39c0.254-0.093,0.598-0.168,0.763-0.169
		c0.353-0.003,0.513-0.284,0.629-1.116c0.094-0.66,0.293-0.865,0.729-0.753c0.365,0.094,1.342,0.072,1.517-0.036
		c0.065-0.041,0.182-0.294,0.258-0.562c0.075-0.267,0.329-0.773,0.563-1.124c0.412-0.619,0.419-0.643,0.212-0.859
		c-0.118-0.123-0.212-0.292-0.212-0.377s-0.125-0.153-0.281-0.153c-0.254,0-0.289-0.06-0.347-0.606
		c-0.036-0.336-0.083-0.922-0.103-1.303c-0.031-0.614-0.064-0.701-0.289-0.733c-0.141-0.02-0.254-0.084-0.254-0.145
		c0-0.165-0.196-0.128-0.397,0.074c-0.104,0.103-0.275,0.152-0.397,0.112c-0.125-0.038-0.276,0.006-0.362,0.109
		c-0.08,0.097-0.244,0.176-0.364,0.176c-0.289,0-1.309-1.085-1.605-1.708c-0.204-0.433-0.26-0.476-0.447-0.359
		c-0.172,0.106-0.333,0.079-0.811-0.136c-0.642-0.29-0.688-0.354-0.423-0.575c0.096-0.079,0.175-0.21,0.175-0.292
		c0-0.198-0.562-0.77-0.957-0.974c-0.287-0.148-0.335-0.145-0.475,0.046c-0.131,0.181-0.272,0.202-0.976,0.151
		c-0.927-0.065-1.025,0.01-0.813,0.616c0.104,0.299,0.089,0.43-0.078,0.728c-0.373,0.651-0.72,0.907-1.113,0.821l-0.351-0.077
		l0.083,0.734c0.053,0.466,0.15,0.782,0.268,0.865c0.102,0.072,0.315,0.238,0.475,0.37c0.271,0.221,0.277,0.251,0.097,0.433
		c-0.179,0.183-0.173,0.212,0.099,0.446c0.168,0.144,0.302,0.395,0.318,0.593c0.033,0.404,0.293,0.864,0.492,0.864
		c0.077,0,0.183,0.064,0.233,0.146c0.051,0.079,0.195,0.201,0.324,0.272c0.128,0.07,0.248,0.251,0.271,0.403
		c0.021,0.153,0.172,0.419,0.333,0.59c0.353,0.374,0.302,0.778-0.139,1.066c-0.161,0.104-0.291,0.292-0.291,0.414
		c0,0.123-0.061,0.355-0.134,0.518c-0.109,0.238-0.095,0.38,0.074,0.759c0.116,0.255,0.26,0.464,0.32,0.464s0.266-0.13,0.455-0.29
		c0.371-0.313,0.505-0.352,0.614-0.176c0.043,0.072,0.151,0.062,0.293-0.026c0.186-0.116,0.25-0.103,0.382,0.077
		c0.088,0.121,0.22,0.183,0.293,0.136c0.08-0.049,0.134-0.007,0.134,0.106C93.003,88.539,93.395,88.687,94.22,88.39z"/>
	<g id="g3044" transform="matrix(0.948312,0,0,0.948312,-83.88148,51.95865)">
		<path id="path2870" fill="#1ABC9C" stroke="#1ABC9C" d="M125.23,46.46c0-0.081-0.102-0.115-0.239-0.078
			c-0.201,0.051-0.22,0.104-0.109,0.309c0.107,0.2,0.152,0.216,0.239,0.08C125.18,46.677,125.229,46.539,125.23,46.46z"/>
		<path id="path2874" fill="#1ABC9C" stroke="#1ABC9C" d="M130.391,48.496c0.522-0.521,0.598-0.656,0.531-0.946
			c-0.145-0.637-0.229-2.197-0.12-2.262c0.06-0.038,0.654,0.055,1.321,0.204c1.02,0.228,1.293,0.341,1.729,0.721
			c0.295,0.256,0.647,0.45,0.819,0.45c0.333,0,0.639-0.285,0.515-0.484c-0.043-0.071,0.116-0.999,0.356-2.064
			c0.322-1.427,0.436-2.217,0.436-3.02c0-0.598,0.082-1.517,0.183-2.044c0.241-1.257,0.238-2.081-0.007-2.284
			c-0.252-0.21-0.542-0.919-0.542-1.329c0-0.382,0.584-1.356,0.984-1.634c0.256-0.18,0.596-0.906,0.601-1.281
			c0.001-0.089-0.135-0.341-0.303-0.562c-0.215-0.28-0.308-0.56-0.313-0.936c-0.005-0.34-0.174-0.922-0.459-1.577l-0.451-1.038
			l-0.519-0.037c-0.6-0.043-0.658-0.185-0.182-0.445c0.825-0.452,0.839-0.483,0.519-1.165c-0.272-0.582-0.352-0.646-1.618-1.294
			c-0.731-0.373-1.409-0.649-1.505-0.612c-0.096,0.036-0.174,0.205-0.174,0.375c0,0.245-0.136,0.384-0.678,0.689
			c-0.614,0.346-0.924,0.668-2,2.077c-0.171,0.223-0.398,0.339-0.767,0.387c-0.348,0.047-0.604,0.171-0.768,0.369
			c-0.36,0.438-0.7,0.573-1.439,0.573c-0.89,0-1.4-0.198-1.621-0.624c-0.099-0.195-0.229-0.353-0.284-0.353
			c-0.152,0-0.481,1.791-0.362,1.977c0.055,0.088,0.102,0.3,0.102,0.471c0.003,0.396,0.212,0.603,0.608,0.606
			c0.337,0.001,0.303-0.058,1.238,2.135c0.406,0.952,0.47,1.226,0.473,2.041c0.003,0.637-0.073,1.15-0.233,1.587
			c-0.429,1.168-0.457,1.832-0.063,1.45c0.201-0.197,0.752-0.003,0.896,0.313c0.141,0.308,0.071,1.149-0.129,1.54
			c-0.127,0.246-0.535,0.285-0.64,0.061c-0.039-0.084-0.04,0.16-0.002,0.543c0.048,0.491-0.004,0.973-0.179,1.648
			c-0.338,1.298-0.352,1.529-0.104,1.777c0.282,0.282,0.271,0.734-0.024,1.001c-0.234,0.212-0.234,0.22,0.053,0.659
			c0.35,0.534,0.516,1.117,0.319,1.117c-0.075,0-0.246-0.067-0.377-0.149c-0.404-0.252-0.538,0.026-0.3,0.62
			c0.241,0.601,0.372,0.638,0.481,0.14c0.086-0.392,0.422-0.652,0.703-0.544c0.094,0.037,0.295,0.362,0.445,0.724
			c0.342,0.827,0.516,0.988,0.85,0.779c0.204-0.127,0.317-0.119,0.65,0.047C129.639,49.185,129.729,49.158,130.391,48.496z"/>
		<path id="path2858" fill="#1ABC9C" stroke="#1ABC9C" d="M125.476,26.387c0-0.071-0.056-0.097-0.122-0.054
			c-0.157,0.096-0.157,0.182,0,0.182C125.42,26.515,125.476,26.458,125.476,26.387z"/>
	</g>
</g>
<ellipse id="Oval-1_1_" sketch:type="MSShapeGroup" fill="none" stroke="#1ABC9C" stroke-width="2" cx="67" cy="67" rx="65.638" ry="65.638">
</ellipse>
</svg>
