<?xml version="1.0" encoding="UTF-8" standalone="no"?>
<svg width="213px" height="40px" viewBox="0 0 213 40" version="1.1" xmlns="http://www.w3.org/2000/svg" xmlns:xlink="http://www.w3.org/1999/xlink" xmlns:sketch="http://www.bohemiancoding.com/sketch/ns">
    <!-- Generator: Sketch 3.3.3 (12072) - http://www.bohemiancoding.com/sketch -->
    <title>KPV</title>
    <desc>Created with Sketch.</desc>
    <defs></defs>
    <g id="Page-1" stroke="none" stroke-width="1" fill="none" fill-rule="evenodd" sketch:type="MSPage">
        <g id="Artboard-9" sketch:type="MSArtboardGroup" transform="translate(-28.000000, -10.000000)" fill="#F6F4F4">
            <g id="KPV" sketch:type="MSLayerGroup" transform="translate(28.000000, 10.000000)">
                <path d="M0.319493671,0.131139241 L1.72,0.131139241 L1.72,11.7043038 L0.319493671,11.7043038 L0.319493671,0.131139241 Z M6.24101266,0.131139241 L8.0121519,0.131139241 L3.35594937,5.5635443 L7.97873418,11.7043038 L6.20708861,11.7043038 L1.78683544,5.58075949 L6.24101266,0.131139241 L6.24101266,0.131139241 Z" id="Fill-1" sketch:type="MSShapeGroup"></path>
                <path d="M14.2881013,0.131139241 L18.1179747,11.7043038 L16.5488608,11.7043038 L15.4521519,8.14481013 L11.1331646,8.14481013 L10.0202532,11.7043038 L8.61974684,11.7043038 L12.483038,0.131139241 L14.2881013,0.131139241 L14.2881013,0.131139241 Z M12.5503797,3.73316456 C12.4263291,4.13265823 12.2916456,4.56810127 12.1458228,5.04050633 C11.9878481,5.5356962 11.7802532,6.19341772 11.521519,7.01468354 L15.0977215,7.01468354 C14.8283544,6.14835443 14.6086076,5.45113924 14.44,4.92253165 C14.3275949,4.57417722 14.2207595,4.23949367 14.1194937,3.91848101 C14.0182278,3.59797468 13.9392405,3.33670886 13.883038,3.13417722 L13.3265823,1.34582278 L12.7529114,3.04962025 C12.7417722,3.10632911 12.6739241,3.33417722 12.5503797,3.73316456 L12.5503797,3.73316456 Z" id="Fill-2" sketch:type="MSShapeGroup"></path>
                <path d="M19.7205063,0.131139241 L22.4197468,0.131139241 C23.2182278,0.131139241 23.8339241,0.198987342 24.2673418,0.333670886 C24.7002532,0.468860759 25.0572152,0.648607595 25.3387342,0.873417722 C25.3721519,0.907848101 25.4086076,0.939240506 25.4481013,0.967594937 C25.4870886,0.995949367 25.5240506,1.03341772 25.5579747,1.07898734 C25.7939241,1.30683544 26.0075949,1.60607595 26.1989873,1.97670886 C26.3898734,2.34734177 26.4855696,2.80050633 26.4855696,3.33670886 C26.4855696,4.28759494 26.2040506,5.05113924 25.6420253,5.62734177 C25.0794937,6.2035443 24.3372152,6.49113924 23.4151899,6.49113924 L23.3392405,6.49113924 L23.2465823,6.49113924 C23.3362025,6.55898734 23.4177215,6.62936709 23.4911392,6.70227848 C23.5640506,6.7756962 23.64,6.85164557 23.7189873,6.93012658 C23.8648101,7.08759494 23.9974684,7.24202532 24.115443,7.39392405 C24.2334177,7.54582278 24.3316456,7.67848101 24.4106329,7.79037975 C24.5341772,7.9478481 24.6718987,8.13924051 24.8237975,8.36405063 C24.9756962,8.58886076 25.1529114,8.84759494 25.355443,9.14025316 C25.4450633,9.26379747 25.5605063,9.43240506 25.7012658,9.64607595 C25.841519,9.86025316 25.9903797,10.0850633 26.1483544,10.3210127 C26.3843038,10.6698734 26.6936709,11.1306329 27.0759494,11.7043038 L25.3387342,11.7043038 C25.3048101,11.6146835 25.2708861,11.5356962 25.236962,11.4683544 C25.2035443,11.4010127 25.1696203,11.3331646 25.1362025,11.2658228 C25.124557,11.2318987 25.1108861,11.201519 25.0936709,11.1731646 C25.076962,11.1448101 25.0627848,11.1139241 25.0516456,11.08 C24.9726582,10.9564557 24.8886076,10.8187342 24.798481,10.6668354 C24.7083544,10.5149367 24.5903797,10.3270886 24.4440506,10.1017722 C24.0840506,9.55088608 23.7301266,9.03037975 23.3812658,8.54126582 C23.0329114,8.05164557 22.7007595,7.61620253 22.3858228,7.23392405 C22.2962025,7.12151899 22.2141772,7.02582278 22.1417722,6.94683544 C22.0683544,6.86835443 21.9924051,6.80101266 21.9139241,6.7443038 C21.8010127,6.65468354 21.683038,6.58987342 21.5594937,6.55037975 C21.435443,6.51088608 21.2835443,6.49113924 21.1037975,6.49113924 L21.1037975,11.7043038 L19.7205063,11.7043038 L19.7205063,0.131139241 L19.7205063,0.131139241 Z M21.1205063,1.31189873 L21.1205063,5.63088608 L22.3524051,5.63088608 C22.8693671,5.63088608 23.2941772,5.58632911 23.6263291,5.49721519 C23.9574684,5.40759494 24.2303797,5.25670886 24.4440506,5.04455696 C24.635443,4.86632911 24.7817722,4.62936709 24.883038,4.33316456 C24.9843038,4.03746835 25.0349367,3.69924051 25.0349367,3.32 C25.0349367,2.93417722 24.9275949,2.57417722 24.7144304,2.23949367 C24.5002532,1.90481013 24.2303797,1.67544304 23.9043038,1.55037975 C23.7240506,1.47088608 23.5164557,1.41164557 23.28,1.37164557 C23.0440506,1.3321519 22.7681013,1.31189873 22.4536709,1.31189873 L21.1205063,1.31189873 L21.1205063,1.31189873 Z" id="Fill-3" sketch:type="MSShapeGroup"></path>
                <path d="M29.3534177,0.131139241 L32.0526582,0.131139241 C32.8511392,0.131139241 33.4668354,0.198987342 33.9002532,0.333670886 C34.3331646,0.468860759 34.6901266,0.648607595 34.9711392,0.873417722 C35.0050633,0.907848101 35.041519,0.939240506 35.0810127,0.967594937 C35.12,0.995949367 35.156962,1.03341772 35.1903797,1.07898734 C35.4268354,1.30683544 35.6405063,1.60607595 35.8318987,1.97670886 C36.0227848,2.34734177 36.118481,2.80050633 36.118481,3.33670886 C36.118481,4.28759494 35.836962,5.05113924 35.2749367,5.62734177 C34.7124051,6.2035443 33.9701266,6.49113924 33.0481013,6.49113924 L32.9721519,6.49113924 L32.8789873,6.49113924 C32.9691139,6.55898734 33.0506329,6.62936709 33.1240506,6.70227848 C33.196962,6.7756962 33.2729114,6.85164557 33.3518987,6.93012658 C33.4977215,7.08759494 33.6298734,7.24202532 33.7483544,7.39392405 C33.8663291,7.54582278 33.964557,7.67848101 34.0435443,7.79037975 C34.1670886,7.9478481 34.3048101,8.13924051 34.4567089,8.36405063 C34.6086076,8.58886076 34.7858228,8.84759494 34.9883544,9.14025316 C35.0779747,9.26379747 35.1934177,9.43240506 35.3341772,9.64607595 C35.4744304,9.86025316 35.6232911,10.0850633 35.7807595,10.3210127 C36.0172152,10.6698734 36.3265823,11.1306329 36.7088608,11.7043038 L34.9711392,11.7043038 C34.9372152,11.6146835 34.9037975,11.5356962 34.8698734,11.4683544 C34.8364557,11.4010127 34.8025316,11.3331646 34.7691139,11.2658228 C34.7574684,11.2318987 34.7437975,11.201519 34.7265823,11.1731646 C34.7098734,11.1448101 34.6956962,11.1139241 34.684557,11.08 C34.6055696,10.9564557 34.521519,10.8187342 34.4313924,10.6668354 C34.3412658,10.5149367 34.2232911,10.3270886 34.076962,10.1017722 C33.716962,9.55088608 33.363038,9.03037975 33.0141772,8.54126582 C32.6658228,8.05164557 32.3336709,7.61620253 32.0187342,7.23392405 C31.9291139,7.12151899 31.8470886,7.02582278 31.7741772,6.94683544 C31.7007595,6.86835443 31.6253165,6.80101266 31.5468354,6.7443038 C31.4339241,6.65468354 31.3159494,6.58987342 31.1924051,6.55037975 C31.0683544,6.51088608 30.9164557,6.49113924 30.7367089,6.49113924 L30.7367089,11.7043038 L29.3534177,11.7043038 L29.3534177,0.131139241 L29.3534177,0.131139241 Z M30.7534177,1.31189873 L30.7534177,5.63088608 L31.9853165,5.63088608 C32.5022785,5.63088608 32.9270886,5.58632911 33.2587342,5.49721519 C33.5903797,5.40759494 33.8632911,5.25670886 34.076962,5.04455696 C34.2683544,4.86632911 34.4146835,4.62936709 34.5159494,4.33316456 C34.6172152,4.03746835 34.6678481,3.69924051 34.6678481,3.32 C34.6678481,2.93417722 34.5605063,2.57417722 34.3468354,2.23949367 C34.1331646,1.90481013 33.8632911,1.67544304 33.5372152,1.55037975 C33.356962,1.47088608 33.1493671,1.41164557 32.9129114,1.37164557 C32.676962,1.3321519 32.4010127,1.31189873 32.0865823,1.31189873 L30.7534177,1.31189873 L30.7534177,1.31189873 Z" id="Fill-4" sketch:type="MSShapeGroup"></path>
                <path d="M39.036962,0.131139241 L40.3868354,0.131139241 L40.3868354,11.7043038 L39.036962,11.7043038 L39.036962,0.131139241 Z" id="Fill-5" sketch:type="MSShapeGroup"></path>
                <path d="M43.524557,0.215696203 L49.8511392,0.215696203 L49.6653165,1.36253165 L44.9250633,1.36253165 L44.9250633,5.1078481 L48.8896203,5.1078481 L48.8896203,6.30582278 L44.9250633,6.30582278 L44.9250633,10.5063291 L50.0197468,10.5063291 L50.0197468,11.7043038 L43.524557,11.7043038 L43.524557,0.215696203" id="Fill-6" sketch:type="MSShapeGroup"></path>
                <path d="M52.2465823,0.131139241 L54.9458228,0.131139241 C55.7443038,0.131139241 56.36,0.198987342 56.7934177,0.333670886 C57.2263291,0.468860759 57.5832911,0.648607595 57.8643038,0.873417722 C57.8982278,0.907848101 57.9346835,0.939240506 57.9741772,0.967594937 C58.0131646,0.995949367 58.0501266,1.03341772 58.0835443,1.07898734 C58.32,1.30683544 58.5336709,1.60607595 58.724557,1.97670886 C58.9159494,2.34734177 59.0116456,2.80050633 59.0116456,3.33670886 C59.0116456,4.28759494 58.7301266,5.05113924 58.1681013,5.62734177 C57.6055696,6.2035443 56.8632911,6.49113924 55.9412658,6.49113924 L55.8653165,6.49113924 L55.7721519,6.49113924 C55.8622785,6.55898734 55.9437975,6.62936709 56.0172152,6.70227848 C56.0901266,6.7756962 56.1660759,6.85164557 56.2450633,6.93012658 C56.3908861,7.08759494 56.523038,7.24202532 56.641519,7.39392405 C56.7594937,7.54582278 56.8577215,7.67848101 56.9367089,7.79037975 C57.0602532,7.9478481 57.1979747,8.13924051 57.3498734,8.36405063 C57.5017722,8.58886076 57.678481,8.84759494 57.8810127,9.14025316 C57.9711392,9.26379747 58.0865823,9.43240506 58.2273418,9.64607595 C58.3675949,9.86025316 58.5164557,10.0850633 58.6739241,10.3210127 C58.9103797,10.6698734 59.2192405,11.1306329 59.6020253,11.7043038 L57.8643038,11.7043038 C57.8303797,11.6146835 57.796962,11.5356962 57.763038,11.4683544 C57.7296203,11.4010127 57.6956962,11.3331646 57.6617722,11.2658228 C57.6506329,11.2318987 57.636962,11.201519 57.6197468,11.1731646 C57.603038,11.1448101 57.5888608,11.1139241 57.5777215,11.08 C57.4987342,10.9564557 57.4146835,10.8187342 57.324557,10.6668354 C57.2344304,10.5149367 57.1164557,10.3270886 56.9701266,10.1017722 C56.6101266,9.55088608 56.2562025,9.03037975 55.9073418,8.54126582 C55.558481,8.05164557 55.2268354,7.61620253 54.9118987,7.23392405 C54.8217722,7.12151899 54.7402532,7.02582278 54.6673418,6.94683544 C54.5939241,6.86835443 54.5179747,6.80101266 54.44,6.7443038 C54.3270886,6.65468354 54.2091139,6.58987342 54.0855696,6.55037975 C53.961519,6.51088608 53.8096203,6.49113924 53.6298734,6.49113924 L53.6298734,11.7043038 L52.2465823,11.7043038 L52.2465823,0.131139241 L52.2465823,0.131139241 Z M53.6465823,1.31189873 L53.6465823,5.63088608 L54.878481,5.63088608 C55.395443,5.63088608 55.8202532,5.58632911 56.1518987,5.49721519 C56.4835443,5.40759494 56.7564557,5.25670886 56.9701266,5.04455696 C57.161519,4.86632911 57.3078481,4.62936709 57.4086076,4.33316456 C57.5098734,4.03746835 57.5610127,3.69924051 57.5610127,3.32 C57.5610127,2.93417722 57.4536709,2.57417722 57.24,2.23949367 C57.0263291,1.90481013 56.7564557,1.67544304 56.4303797,1.55037975 C56.2501266,1.47088608 56.0425316,1.41164557 55.8060759,1.37164557 C55.5701266,1.3321519 55.2941772,1.31189873 54.9797468,1.31189873 L53.6465823,1.31189873 L53.6465823,1.31189873 Z" id="Fill-7" sketch:type="MSShapeGroup"></path>
                <path d="M61.8967089,0.215696203 L68.2227848,0.215696203 L68.0374684,1.36253165 L63.2967089,1.36253165 L63.2967089,5.1078481 L67.2612658,5.1078481 L67.2612658,6.30582278 L63.2967089,6.30582278 L63.2967089,10.5063291 L68.3918987,10.5063291 L68.3918987,11.7043038 L61.8967089,11.7043038 L61.8967089,0.215696203" id="Fill-8" sketch:type="MSShapeGroup"></path>
                <path d="M0.464810127,23.4121519 L4.68708861,23.4121519 C5.99392405,23.4121519 6.93974684,23.4734177 7.52506329,23.5964557 C8.10936709,23.72 8.61670886,23.9048101 9.04759494,24.1503797 C9.06278481,24.1503797 9.07848101,24.1544304 9.09367089,24.1620253 C9.10886076,24.1696203 9.12455696,24.1817722 9.13974684,24.1964557 C9.89367089,24.6116456 10.4663291,25.1772152 10.8587342,25.8926582 C11.2511392,26.6075949 11.4470886,27.4268354 11.4470886,28.3493671 C11.4470886,29.4111392 11.2050633,30.356962 10.7205063,31.1878481 C10.2359494,32.0182278 9.55544304,32.6410127 8.67848101,33.0562025 C8.66278481,33.0562025 8.64759494,33.0602532 8.63240506,33.0683544 C8.61670886,33.0759494 8.60151899,33.0875949 8.58632911,33.1027848 C8.23240506,33.2567089 7.8364557,33.3756962 7.39797468,33.4602532 C6.95949367,33.5448101 6.31746835,33.5873418 5.47139241,33.5873418 L3.69468354,33.5873418 L3.69468354,39.4936709 L0.464810127,39.4936709 L0.464810127,23.4121519 L0.464810127,23.4121519 Z M3.69468354,26.0197468 L3.69468354,30.956962 L5.37924051,30.956962 C6.00962025,30.956962 6.46379747,30.9073418 6.74075949,30.8070886 C7.01721519,30.7073418 7.2556962,30.5108861 7.4556962,30.2187342 C7.47088608,30.203038 7.48253165,30.1878481 7.49063291,30.1726582 C7.49772152,30.156962 7.50936709,30.1417722 7.52506329,30.1260759 C7.66329114,29.9108861 7.76303797,29.6688608 7.82481013,29.3994937 C7.88607595,29.1306329 7.91696203,28.8035443 7.91696203,28.4187342 C7.91696203,27.6658228 7.72455696,27.0774684 7.34025316,26.6541772 C6.95544304,26.2313924 6.42481013,26.0197468 5.74835443,26.0197468 L3.69468354,26.0197468 L3.69468354,26.0197468 Z" id="Fill-9" sketch:type="MSShapeGroup"></path>
                <path d="M15.6926582,23.4121519 L19.1762025,23.4121519 L24.2288608,39.4936709 L20.7686076,39.4936709 L19.6379747,35.6865823 L14.9311392,35.6865823 L13.8005063,39.4936709 L10.4318987,39.4936709 L15.6926582,23.4121519 L15.6926582,23.4121519 Z M16.3959494,30.68 C16.3417722,30.88 16.2921519,31.0805063 16.2460759,31.2794937 C16.2151899,31.356962 16.1883544,31.4339241 16.1655696,31.5103797 C16.1422785,31.5878481 16.123038,31.6643038 16.1073418,31.7417722 C16.0460759,31.9412658 15.9843038,32.1448101 15.923038,32.3529114 C15.8612658,32.5605063 15.7918987,32.7792405 15.715443,33.0101266 L18.8531646,33.0101266 C18.6070886,32.2106329 18.4151899,31.5336709 18.2764557,30.9802532 C18.2303797,30.841519 18.1918987,30.7032911 18.1610127,30.564557 C18.1301266,30.4263291 18.0997468,30.2805063 18.0688608,30.1260759 C18.0531646,30.0648101 18.0379747,30.0075949 18.0227848,29.9529114 C18.0070886,29.8997468 17.9918987,29.8420253 17.9767089,29.7797468 C17.9453165,29.6268354 17.9032911,29.4303797 17.8496203,29.1918987 C17.795443,28.9539241 17.7377215,28.7113924 17.6764557,28.4653165 C17.5843038,28.0805063 17.4688608,27.5731646 17.3306329,26.9422785 C17.1149367,27.8040506 16.9458228,28.4881013 16.8227848,28.9959494 C16.7767089,29.1802532 16.7341772,29.3610127 16.6962025,29.5377215 C16.6572152,29.7149367 16.6151899,29.8805063 16.5691139,30.0339241 C16.5073418,30.2643038 16.4496203,30.48 16.3959494,30.68 L16.3959494,30.68 Z" id="Fill-10" sketch:type="MSShapeGroup"></path>
                <path d="M25.4288608,23.4121519 L29.6511392,23.4121519 C30.9579747,23.4121519 31.9037975,23.4734177 32.4886076,23.5964557 C33.0729114,23.72 33.5807595,23.9048101 34.0116456,24.1503797 C34.0268354,24.1503797 34.0420253,24.1544304 34.0577215,24.1620253 C34.0729114,24.1696203 34.0886076,24.1817722 34.1037975,24.1964557 C34.8572152,24.6116456 35.4303797,25.1772152 35.8227848,25.8926582 C36.2146835,26.6075949 36.4111392,27.4268354 36.4111392,28.3493671 C36.4111392,29.4111392 36.1691139,30.356962 35.684557,31.1878481 C35.2,32.0182278 34.5189873,32.6410127 33.6425316,33.0562025 C33.6268354,33.0562025 33.6111392,33.0602532 33.5959494,33.0683544 C33.5807595,33.0759494 33.5655696,33.0875949 33.5503797,33.1027848 C33.1964557,33.2567089 32.8005063,33.3756962 32.3620253,33.4602532 C31.9235443,33.5448101 31.2810127,33.5873418 30.435443,33.5873418 L28.6587342,33.5873418 L28.6587342,39.4936709 L25.4288608,39.4936709 L25.4288608,23.4121519 L25.4288608,23.4121519 Z M28.6587342,26.0197468 L28.6587342,30.956962 L30.3432911,30.956962 C30.9736709,30.956962 31.4273418,30.9073418 31.7043038,30.8070886 C31.9812658,30.7073418 32.2192405,30.5108861 32.4197468,30.2187342 C32.4349367,30.203038 32.4460759,30.1878481 32.4541772,30.1726582 C32.4617722,30.156962 32.4734177,30.1417722 32.4886076,30.1260759 C32.6273418,29.9108861 32.7270886,29.6688608 32.7888608,29.3994937 C32.8501266,29.1306329 32.8810127,28.8035443 32.8810127,28.4187342 C32.8810127,27.6658228 32.6886076,27.0774684 32.3043038,26.6541772 C31.9194937,26.2313924 31.3888608,26.0197468 30.7124051,26.0197468 L28.6587342,26.0197468 L28.6587342,26.0197468 Z" id="Fill-11" sketch:type="MSShapeGroup"></path>
                <path d="M38.2567089,23.4582278 L41.6253165,23.4582278 L41.6253165,39.4936709 L38.2567089,39.4936709 L38.2567089,23.4582278 Z" id="Fill-12" sketch:type="MSShapeGroup"></path>
                <path d="M43.8632911,23.4582278 L53,23.4582278 L52.5848101,26.0886076 L47.0931646,26.0886076 L47.0931646,29.803038 L51.6850633,29.803038 L51.6850633,32.4339241 L47.1397468,32.4339241 L47.1397468,36.7250633 L53.2075949,36.7250633 L53.2075949,39.4936709 L43.8632911,39.4936709 L43.8632911,23.4582278" id="Fill-13" sketch:type="MSShapeGroup"></path>
                <path d="M54.7994937,23.4349367 L60.7751899,23.4582278 C62.1903797,23.4582278 63.3286076,23.8891139 64.1898734,24.7503797 C65.0511392,25.6121519 65.4820253,26.7498734 65.4820253,28.1650633 C65.4820253,29.364557 65.1362025,30.395443 64.4435443,31.2567089 C63.7518987,32.118481 62.9053165,32.564557 61.9058228,32.5949367 C61.9822785,32.6567089 62.0475949,32.7103797 62.1017722,32.7564557 C62.155443,32.8025316 62.2055696,32.8486076 62.2521519,32.8951899 C62.2825316,32.9255696 62.3093671,32.9524051 62.3326582,32.9756962 C62.355443,32.9989873 62.3822785,33.0258228 62.4136709,33.0562025 C62.4440506,33.0875949 62.4708861,33.1220253 62.4941772,33.16 C62.5174684,33.198481 62.5437975,33.2334177 62.5746835,33.2637975 C62.7594937,33.4946835 63.0167089,33.8643038 63.3478481,34.3716456 C63.678481,34.8794937 64.0202532,35.4253165 64.3746835,36.0096203 C64.3898734,36.0556962 64.4126582,36.0982278 64.4435443,36.1367089 C64.4744304,36.1751899 64.4977215,36.2172152 64.5129114,36.2632911 C65.0050633,37.0632911 65.6435443,38.1402532 66.4278481,39.4936709 L62.6212658,39.4936709 C62.4673418,39.2481013 62.3362025,39.0283544 62.2288608,38.8359494 C62.1210127,38.6440506 62.0131646,38.4551899 61.9058228,38.2708861 C61.9058228,38.2556962 61.9017722,38.2440506 61.8941772,38.2364557 C61.8865823,38.2288608 61.8825316,38.2167089 61.8825316,38.201519 C61.7594937,38.0172152 61.6405063,37.8177215 61.5250633,37.6020253 C61.4096203,37.3863291 61.2749367,37.1407595 61.121519,36.8637975 C60.3518987,35.4789873 59.7949367,34.5255696 59.4486076,34.0025316 C59.1022785,33.4794937 58.798481,33.1412658 58.5372152,32.9868354 C58.5220253,32.9721519 58.5103797,32.9605063 58.5027848,32.9524051 C58.4946835,32.9448101 58.483038,32.9412658 58.4678481,32.9412658 C58.436962,32.9255696 58.4141772,32.9144304 58.3989873,32.9063291 C58.3832911,32.8992405 58.36,32.8951899 58.3296203,32.8951899 C58.2835443,32.8643038 58.2334177,32.8450633 58.1797468,32.8374684 C58.1255696,32.8298734 58.0526582,32.8177215 57.9605063,32.8025316 L57.9605063,39.4936709 L54.7994937,39.4936709 L54.7994937,23.4349367 L54.7994937,23.4349367 Z M57.9837975,26.0425316 L57.9605063,30.3802532 L59.0450633,30.3802532 C59.7367089,30.3802532 60.2597468,30.3417722 60.6136709,30.2643038 C60.9675949,30.1878481 61.2521519,30.0496203 61.4673418,29.8491139 C61.6668354,29.6648101 61.8212658,29.4339241 61.9291139,29.1574684 C62.0364557,28.8805063 62.0901266,28.5731646 62.0901266,28.2344304 C62.0901266,27.7422785 61.9944304,27.3311392 61.8020253,27 C61.6096203,26.6693671 61.3210127,26.4268354 60.9367089,26.2734177 C60.7524051,26.1964557 60.5022785,26.1387342 60.1868354,26.1002532 C59.8713924,26.0622785 59.5139241,26.0425316 59.1144304,26.0425316 L57.9837975,26.0425316 L57.9837975,26.0425316 Z" id="Fill-14" sketch:type="MSShapeGroup"></path>
                <path d="M76.4182278,34.3255696 L76.4182278,38.7321519 L74.2956962,38.7321519 L74.2956962,34.3255696 L69.9118987,34.3255696 L69.9118987,32.203038 L74.2956962,32.203038 L74.2956962,27.7959494 L76.4182278,27.7959494 L76.4182278,32.203038 L80.8020253,32.203038 L80.8020253,34.3255696 L76.4182278,34.3255696" id="Fill-15" sketch:type="MSShapeGroup"></path>
                <path d="M90.7453165,39.6091139 L87.8151899,39.6091139 L82.3711392,23.4602532 L85.9007595,23.4602532 L88.5539241,31.8111392 C88.7843038,32.5265823 89.0379747,33.4263291 89.2921519,34.603038 C89.4992405,33.6111392 89.9144304,32.2729114 90.2146835,31.3964557 L92.9367089,23.4602532 L96.3281013,23.4602532 L90.7453165,39.6091139" id="Fill-16" sketch:type="MSShapeGroup"></path>
                <path d="M97.483038,39.4936709 L97.483038,23.4602532 L106.618734,23.4602532 L106.203038,26.0901266 L100.712911,26.0901266 L100.712911,29.8040506 L105.303797,29.8040506 L105.303797,32.4344304 L100.758987,32.4344304 L100.758987,36.7250633 L106.825823,36.7250633 L106.825823,39.4936709 L97.483038,39.4936709" id="Fill-17" sketch:type="MSShapeGroup"></path>
                <path d="M116.724051,39.4936709 C116.101266,38.4324051 115.847595,37.9939241 115.224304,36.8637975 C113.632911,33.9797468 113.148354,33.195443 112.571646,32.9417722 C112.410127,32.8729114 112.271392,32.8263291 112.064304,32.8035443 L112.064304,39.4936709 L108.903797,39.4936709 L108.903797,23.4602532 L114.878481,23.4602532 C117.715949,23.4602532 119.58481,25.3518987 119.58481,28.1665823 C119.58481,30.5655696 117.992911,32.5493671 116.009114,32.5959494 C116.332152,32.8496203 116.47038,32.9878481 116.677975,33.2648101 C117.601013,34.4187342 120.530633,39.4936709 120.530633,39.4936709 L116.724051,39.4936709 L116.724051,39.4936709 Z M115.04,26.2749367 C114.670886,26.1362025 114.001519,26.0440506 113.217215,26.0440506 L112.064304,26.0440506 L112.064304,30.3812658 L113.148354,30.3812658 C114.532658,30.3812658 115.132658,30.243038 115.570633,29.8506329 C115.962532,29.481519 116.193418,28.9048101 116.193418,28.2359494 C116.193418,27.2440506 115.801519,26.5518987 115.04,26.2749367 L115.04,26.2749367 Z" id="Fill-18" sketch:type="MSShapeGroup"></path>
                <path d="M129.668354,33.0572152 C128.930127,33.4035443 128.237975,33.5878481 126.461266,33.5878481 L124.685063,33.5878481 L124.685063,39.4936709 L121.45519,39.4936709 L121.45519,23.4602532 L125.676962,23.4602532 C128.398987,23.4602532 129.229873,23.7372152 130.12962,24.244557 C131.628861,25.0749367 132.435949,26.5518987 132.435949,28.396962 C132.435949,30.5194937 131.421266,32.2268354 129.668354,33.0572152 L129.668354,33.0572152 Z M126.738228,26.0668354 L124.685063,26.0668354 L124.685063,30.9579747 L126.369114,30.9579747 C127.684051,30.9579747 128.075949,30.7964557 128.51443,30.1275949 C128.791392,29.6891139 128.906835,29.2278481 128.906835,28.4663291 C128.906835,26.9670886 128.099241,26.0668354 126.738228,26.0668354 L126.738228,26.0668354 Z" id="Fill-19" sketch:type="MSShapeGroup"></path>
                <path d="M142.126582,39.4936709 L140.996456,35.6870886 L136.290127,35.6870886 L135.159494,39.4936709 L131.791392,39.4936709 L137.051139,23.4141772 L140.534684,23.4141772 L145.586835,39.4936709 L142.126582,39.4936709 L142.126582,39.4936709 Z M139.334684,29.7812658 C139.173671,29.043038 138.689114,26.9437975 138.689114,26.9437975 C138.689114,26.9437975 138.227848,28.835443 137.927595,30.0349367 C137.627848,31.1888608 137.420253,31.9498734 137.07443,33.0111392 L140.211646,33.0111392 C140.211646,33.0111392 139.681013,31.3270886 139.334684,29.7812658 L139.334684,29.7812658 Z" id="Fill-20" sketch:type="MSShapeGroup"></path>
                <path d="M152.924051,39.7706329 C150.709367,39.7706329 149.002532,39.0556962 147.687595,37.5559494 C146.395949,36.1027848 145.749367,34.164557 145.749367,31.8111392 C145.749367,29.8040506 146.095696,28.2126582 146.833924,26.8283544 C148.08,24.4982278 150.386835,23.1139241 152.970633,23.1139241 C154.562532,23.1139241 156.153924,23.6212658 157.030886,24.3827848 L155.577722,26.5741772 C154.770127,25.9746835 153.916456,25.6749367 153.016709,25.6749367 C151.932152,25.6749367 150.871392,26.2055696 150.294684,27.0587342 C149.671899,27.9822785 149.394937,29.32 149.394937,31.1888608 C149.394937,33.3802532 149.579241,34.603038 150.063797,35.4794937 C150.709367,36.6562025 151.771139,37.2789873 153.154937,37.2789873 C154.101266,37.2789873 154.95443,37.0020253 155.900253,36.2405063 L157.376709,38.2708861 C156.108354,39.3093671 154.746835,39.7706329 152.924051,39.7706329" id="Fill-21" sketch:type="MSShapeGroup"></path>
                <path d="M167.621266,39.4936709 L162.753924,31.1194937 L162.753924,39.4936709 L159.454684,39.4936709 L159.454684,23.4602532 L162.753924,23.4602532 L162.753924,30.7731646 L167.321519,23.4602532 L171.28962,23.4602532 L166.168101,30.8886076 L171.865823,39.4936709 L167.621266,39.4936709" id="Fill-22" sketch:type="MSShapeGroup"></path>
                <path d="M184.256203,36.7716456 C183.841013,38.0405063 182.271899,39.7939241 178.811646,39.7939241 C176.366076,39.7939241 174.567089,39.0556962 173.666835,37.6486076 C173.136203,36.8177215 172.97519,36.1721519 172.97519,34.6263291 L172.97519,23.4602532 L176.273924,23.4602532 L176.273924,34.003038 C176.273924,34.9949367 176.366076,35.5716456 176.55038,35.9174684 C176.92,36.6334177 177.681013,37.0253165 178.742785,37.0253165 C180.149873,37.0253165 181.049114,36.3331646 181.187848,35.156962 C181.23443,34.8106329 181.23443,34.5797468 181.23443,33.7260759 L181.23443,23.4602532 L184.509873,23.4602532 L184.509873,34.2567089 C184.509873,35.7792405 184.486582,36.0794937 184.256203,36.7716456" id="Fill-23" sketch:type="MSShapeGroup"></path>
                <path d="M195.008101,39.4936709 L192.262785,33.356962 C191.362532,31.3498734 190.393924,29.0891139 190.093671,28.0972152 C190.20962,29.4121519 190.232405,31.3037975 190.255696,32.6420253 L190.347848,39.4936709 L187.233418,39.4936709 L187.233418,23.4602532 L190.80962,23.4602532 L193.877468,29.8734177 C194.685063,31.5807595 195.307848,33.2648101 195.630886,34.4187342 C195.515949,33.1726582 195.4,31.1194937 195.377215,30.0116456 L195.307848,23.4602532 L198.376203,23.4602532 L198.376203,39.4936709 L195.008101,39.4936709" id="Fill-24" sketch:type="MSShapeGroup"></path>
                <path d="M207.628354,39.6779747 C205.229367,39.6779747 203.453165,38.8936709 202.161519,37.2329114 C200.984304,35.7331646 200.454177,34.0258228 200.454177,31.6268354 C200.454177,28.2359494 201.561519,25.8364557 203.798987,24.3367089 C204.975696,23.5529114 206.17519,23.2065823 207.697722,23.2065823 C209.635443,23.2065823 211.388861,23.8293671 212.795949,25.0521519 L211.089114,27.0587342 C210.051139,26.2055696 208.966582,25.8131646 207.744304,25.8131646 C206.798481,25.8131646 205.990886,26.0901266 205.436962,26.6207595 C204.352911,27.6587342 204.075949,29.3893671 204.075949,31.7883544 C204.075949,34.0724051 204.467848,35.5488608 205.275443,36.3564557 C205.875443,36.9326582 206.751899,37.2556962 207.79038,37.2556962 C208.505316,37.2556962 209.082025,37.1407595 209.612658,36.8637975 L209.612658,33.2187342 L207.167089,33.2187342 L206.751899,30.5888608 L212.957975,30.5888608 L212.957975,38.2481013 C211.319494,39.2167089 209.520506,39.6779747 207.628354,39.6779747" id="Fill-25" sketch:type="MSShapeGroup"></path>
            </g>
        </g>
    </g>
</svg>