<?xml version="1.0" encoding="UTF-8" standalone="no"?>
<svg width="166px" height="170px" viewBox="0 0 166 170" version="1.1" xmlns="http://www.w3.org/2000/svg" xmlns:xlink="http://www.w3.org/1999/xlink" xmlns:sketch="http://www.bohemiancoding.com/sketch/ns">
    <!-- Generator: Sketch 3.1.1 (8761) - http://www.bohemiancoding.com/sketch -->
    <title>Mobile</title>
    <desc>Created with Sketch.</desc>
    <defs></defs>
    <g id="Page-1" stroke="none" stroke-width="1" fill="none" fill-rule="evenodd" sketch:type="MSPage">
        <g id="Desktop-HD" sketch:type="MSArtboardGroup" transform="translate(-489.000000, -1866.000000)">
            <rect id="Rectangle-10" fill="#16A085" sketch:type="MSShapeGroup" x="0" y="1731" width="1440" height="401"></rect>
            <g id="Mobile" sketch:type="MSLayerGroup" transform="translate(489.000000, 1866.000000)" fill="#F6F4F4">
                <path d="M16.06345,83.1253861 L16.09049,83.1253861 C16.4099,87.0030495 19.95045,90.0854257 24.23629,90.0854257 L28.77901,90.0854257 L28.77901,104.286495 C28.77901,108.816396 31.90889,112.522059 35.73674,112.522059 C39.5629,112.522059 42.69447,108.816396 42.69447,104.286495 L42.69447,90.0854257 L51.97088,90.0854257 L51.97088,104.286495 C51.97088,108.816396 55.10245,112.522059 58.9303,112.522059 C62.75646,112.522059 65.88803,108.816396 65.88803,104.286495 L65.88803,90.0854257 L70.05219,90.0854257 C74.33634,90.0854257 77.87689,87.0030495 78.19799,83.1253861 L78.22334,83.1253861 L78.22334,37.2133069 L16.06345,37.2133069 L16.06345,83.1253861" id="Fill-1" sketch:type="MSShapeGroup"></path>
                <path d="M6.73634,35.6550891 C2.90849,35.6550891 -0.22308,39.3607525 -0.22308,43.8889505 L-0.22308,70.8401584 C-0.22308,75.3683564 2.90849,79.0740198 6.73634,79.0740198 C10.5625,79.0740198 13.69407,75.3683564 13.69407,70.8401584 L13.69407,43.8889505 C13.69407,39.3607525 10.5625,35.6550891 6.73634,35.6550891" id="Fill-2" sketch:type="MSShapeGroup"></path>
                <path d="M87.86141,35.6550891 C84.03525,35.6550891 80.90368,39.3607525 80.90368,43.8889505 L80.90368,70.8401584 C80.90368,75.3683564 84.03525,79.0740198 87.86141,79.0740198 C91.68757,79.0740198 94.81914,75.3683564 94.81914,70.8401584 L94.81914,43.8889505 C94.81914,39.3607525 91.68757,35.6550891 87.86141,35.6550891" id="Fill-3" sketch:type="MSShapeGroup"></path>
                <path d="M62.51141,9.60475248 L66.97639,1.5309703 C67.33974,0.871920792 67.23327,0.105584158 66.7381,-0.17370297 C66.24124,-0.452990099 65.53651,-0.139643564 65.17316,0.519405941 L60.6034,8.77881188 C56.53219,7.16439604 51.9675,6.25841584 47.14424,6.25841584 C42.28718,6.25841584 37.68869,7.17631683 33.59213,8.81627723 L29.00378,0.519405941 C28.63874,-0.139643564 27.93401,-0.452990099 27.43884,-0.17370297 C26.94198,0.105584158 26.83551,0.871920792 27.20055,1.5309703 L31.6875,9.64562376 C22.35194,14.0614257 16.06345,22.358297 16.06345,31.8625743 C16.06345,32.8298614 16.13105,33.7818218 16.2578,34.7201584 L78.02899,34.7201584 C78.15743,33.7818218 78.22334,32.8298614 78.22334,31.8625743 C78.22334,22.3276436 71.89598,14.0103366 62.51141,9.60475248 L62.51141,9.60475248 Z M33.0395,23.6934257 C31.53878,23.6934257 30.32198,22.4672871 30.32198,20.9550495 C30.32198,19.4428119 31.53878,18.2149703 33.0395,18.2149703 C34.54022,18.2149703 35.75702,19.4428119 35.75702,20.9550495 C35.75702,22.4672871 34.54022,23.6934257 33.0395,23.6934257 L33.0395,23.6934257 Z M61.40277,23.6934257 C59.90036,23.6934257 58.68356,22.4672871 58.68356,20.9550495 C58.68356,19.4428119 59.90036,18.2149703 61.40277,18.2149703 C62.90349,18.2149703 64.12029,19.4428119 64.12029,20.9550495 C64.12029,22.4672871 62.90349,23.6934257 61.40277,23.6934257 L61.40277,23.6934257 Z" id="Fill-4" sketch:type="MSShapeGroup"></path>
                <path d="M142.93175,66.9335446 C143.63648,80.8331881 136.72607,90.6303762 123.30071,91.6657822 C123.75701,77.287604 131.27244,70.0210297 142.93175,66.9335446" id="Fill-5" sketch:type="MSShapeGroup"></path>
                <path d="M152.03409,120.394891 C152.03409,111.731881 156.53794,104.129822 163.30977,99.8281188 C157.2714,93.450495 151.44259,89.3718812 141.29583,90.4294257 C135.25915,91.0561188 130.30069,94.5182574 124.93663,94.5506139 C114.81184,94.6136238 107.44682,88.2155644 97.5299,92.077901 C88.18758,95.7171485 82.34356,106.830733 81.5763,117.63097 C80.25979,136.137149 89.29453,157.444713 99.16582,165.857386 C100.89976,167.335564 104.35919,169.171366 106.52915,169.566455 C112.44246,170.646139 116.08272,166.800832 122.47937,165.857386 C131.19301,164.57505 137.47305,170.57802 144.97665,169.566455 C156.62751,167.996317 162.18592,151.770416 166.18108,142.518178 C157.83755,138.700119 152.03409,130.23295 152.03409,120.394891" id="Fill-6" sketch:type="MSShapeGroup"></path>
            </g>
        </g>
    </g>
</svg>