<?xml version="1.0" encoding="UTF-8" standalone="no"?>
<svg width="268px" height="60px" viewBox="0 0 268 60" version="1.1" xmlns="http://www.w3.org/2000/svg" xmlns:xlink="http://www.w3.org/1999/xlink" xmlns:sketch="http://www.bohemiancoding.com/sketch/ns">
    <!-- Generator: Sketch 3.3.3 (12072) - http://www.bohemiancoding.com/sketch -->
    <title>Artboard 9</title>
    <desc>Created with Sketch.</desc>
    <defs>
        <path id="path-1" d="M0,60 L199.926279,60 L199.926279,0.112325581 L0,0.112325581"></path>
    </defs>
    <g id="Page-1" stroke="none" stroke-width="1" fill="none" fill-rule="evenodd" sketch:type="MSPage">
        <g id="Artboard-9" sketch:type="MSArtboardGroup">
            <g id="mondayreplay" sketch:type="MSLayerGroup" transform="translate(34.000000, 0.000000)">
                <path d="M38.4572093,29.852093 L37.4002326,29.852093 C36.6174419,29.852093 36.0837209,30.0969767 35.8172093,30.5769767 L32.5053488,36.4011628 L29.2318605,30.5804651 C28.9639535,30.0976744 28.4309302,29.852093 27.6474419,29.852093 L26.5709302,29.852093 C25.2746512,29.852093 25.0025581,30.3955814 25.0025581,30.8518605 L25.0025581,43.8551163 C25.0025581,44.3113953 25.2746512,44.8548837 26.5709302,44.8548837 L27.1597674,44.8548837 C28.4553488,44.8548837 28.7274419,44.3113953 28.7274419,43.8551163 L28.7274419,36.6146512 L31.1253488,40.8927907 C31.38,41.2374419 31.7581395,41.4202326 32.2193023,41.4202326 L32.8081395,41.4202326 C33.2693023,41.4202326 33.6474419,41.2374419 33.925814,40.8565116 L36.3,36.6153488 L36.3,43.8551163 C36.3,44.3113953 36.572093,44.8548837 37.8676744,44.8548837 L38.4572093,44.8548837 C39.7527907,44.8548837 40.0248837,44.3113953 40.0248837,43.8551163 L40.0248837,30.8518605 C40.0248837,30.3955814 39.7527907,29.852093 38.4572093,29.852093" id="Fill-1" fill="#F6F4F4" sketch:type="MSShapeGroup"></path>
                <g id="Group-5">
                    <mask id="mask-2" sketch:name="Clip 3" fill="white">
                        <use xlink:href="#path-1"></use>
                    </mask>
                    <g id="Clip-3"></g>
                    <path d="M33.0062791,5.03651163 L33.0244186,4.61372093 L32.1669767,4.57604651 L32.1481395,4.99953488 C29.6853488,5.1 27.6432558,6.96697674 27.3265116,9.41093023 C27.295814,9.64674419 27.4751163,9.85813953 27.7123256,9.86860465 L27.7381395,9.86930233 L36.9809302,10.2676744 L37.0074419,10.2690698 C37.2446512,10.2795349 37.4413953,10.084186 37.4309302,9.84627907 C37.3255814,7.38418605 35.4523256,5.34837209 33.0062791,5.03651163" id="Fill-2" fill="#FFFFFF" sketch:type="MSShapeGroup" mask="url(#mask-2)"></path>
                    <path d="M34.1260465,3.78767442 C33.4283721,3.75767442 32.8876744,3.16744186 32.9176744,2.47046512 C32.9476744,1.77348837 33.537907,1.23209302 34.2348837,1.26209302 C34.9318605,1.2927907 35.4732558,1.88232558 35.4425581,2.57930233 C35.4125581,3.27697674 34.8230233,3.81767442 34.1260465,3.78767442 L34.1260465,3.78767442 Z M31.7637209,2.42093023 L30.4102326,2.36232558 L30.4688372,1.00883721 L31.8223256,1.06744186 L31.7637209,2.42093023 L31.7637209,2.42093023 Z M35.522093,0.336976744 L30.3244186,0.113023256 C29.8730233,0.0934883721 29.487907,0.447209302 29.4683721,0.898604651 L29.3462791,3.74023256 C29.3267442,4.19162791 29.6797674,4.57674419 30.1311628,4.59627907 L32.0393023,4.67790698 L33.4206977,4.73790698 L35.3288372,4.82023256 C35.7802326,4.83976744 36.1653488,4.48604651 36.1848837,4.03465116 L36.3076744,1.19302326 C36.3272093,0.741627907 35.9734884,0.356511628 35.522093,0.336976744 L35.522093,0.336976744 Z" id="Fill-4" fill="#FFFFFF" sketch:type="MSShapeGroup" mask="url(#mask-2)"></path>
                </g>
                <path d="M14.704186,7.60813953 L14.4348837,7.28162791 L13.772093,7.82790698 L14.042093,8.15511628 C12.2776744,9.87697674 12.0083721,12.6306977 13.407907,14.6595349 C13.5432558,14.8548837 13.8174419,14.8925581 14.0009302,14.7411628 L14.0211628,14.7244186 L21.1583721,8.83813953 L21.1786047,8.82209302 C21.3613953,8.67069767 21.3767442,8.39372093 21.2106977,8.22418605 C19.4860465,6.46395349 16.7309302,6.2044186 14.704186,7.60813953" id="Fill-6" fill="#F6F4F4" sketch:type="MSShapeGroup"></path>
                <path d="M14.7013953,5.93093023 C14.1627907,6.37465116 13.3660465,6.29860465 12.9223256,5.76 C12.477907,5.22139535 12.5546512,4.42534884 13.0932558,3.98093023 C13.6311628,3.5372093 14.427907,3.61325581 14.8716279,4.15186047 C15.3160465,4.69046512 15.2393023,5.48651163 14.7013953,5.93093023 L14.7013953,5.93093023 Z M12.0313953,6.49465116 L10.9855814,7.35697674 L10.1239535,6.31186047 L11.1690698,5.44953488 L12.0313953,6.49465116 L12.0313953,6.49465116 Z M13.4309302,2.43209302 L9.4172093,5.74255814 C9.06906977,6.03 9.01883721,6.55046512 9.30627907,6.89860465 L11.1160465,9.0927907 C11.4034884,9.44162791 11.9239535,9.49116279 12.272093,9.20372093 L16.285814,5.89395349 C16.6346512,5.60651163 16.684186,5.08604651 16.3967442,4.7372093 L14.5876744,2.54302326 C14.3002326,2.19488372 13.7797674,2.14465116 13.4309302,2.43209302 L13.4309302,2.43209302 Z" id="Fill-7" fill="#F6F4F4" sketch:type="MSShapeGroup"></path>
                <path d="M3.18627907,21.2218605 L3.55953488,20.4669767 L2.80534884,20.0937209 L2.43139535,20.847907 L3.18627907,21.2218605" id="Fill-8" fill="#F6F4F4" sketch:type="MSShapeGroup"></path>
                <g id="Group-12" fill="#FFFFFF" sketch:type="MSShapeGroup">
                    <path d="M5.6727907,20.2974419 L5.29325581,20.1090698 L4.91162791,20.8786047 L5.29116279,21.0669767 C4.3855814,23.3595349 5.26604651,25.9827907 7.37232558,27.2623256 C7.57534884,27.385814 7.84116279,27.3076744 7.94651163,27.094186 L12.0767442,18.7576744 C12.1827907,18.5448837 12.0837209,18.2860465 11.8625581,18.1995349 C9.56860465,17.2981395 6.94813953,18.1869767 5.6727907,20.2974419" id="Fill-9"></path>
                    <path d="M4.98418605,18.7674419 C4.6744186,19.3932558 3.91604651,19.6486047 3.29023256,19.3388372 C2.66511628,19.0290698 2.40906977,18.2713953 2.71883721,17.6455814 C3.02930233,17.0204651 3.78697674,16.7644186 4.4127907,17.074186 C5.03790698,17.3839535 5.29395349,18.1423256 4.98418605,18.7674419 L4.98418605,18.7674419 Z M2.77744186,20.374186 L2.17604651,21.5881395 L0.962093023,20.9867442 L1.56348837,19.7727907 L2.77744186,20.374186 L2.77744186,20.374186 Z M2.3944186,16.0939535 L0.0851162791,20.755814 C-0.115813953,21.1604651 0.051627907,21.655814 0.45627907,21.8567442 L3.00488372,23.1188372 C3.40953488,23.3197674 3.90488372,23.1523256 4.10581395,22.7476744 L6.41511628,18.085814 C6.61534884,17.6811628 6.44860465,17.185814 6.04395349,16.9855814 L3.49534884,15.7227907 C3.09,15.5218605 2.59534884,15.6893023 2.3944186,16.0939535 L2.3944186,16.0939535 Z" id="Fill-11"></path>
                </g>
                <path d="M10.1881395,36.3767442 C10.5195349,35.0148837 11.0337209,33.745814 11.6448837,32.6204651 C10.832093,32.8346512 10.0193023,33.0893023 9.20860465,33.3830233 C8.95255814,33.6502326 8.70069767,33.925814 8.45302326,34.2104651 C8.64069767,34.4455814 10.2265116,34.6751163 10.4211628,34.8997674 C10.0904651,35.157907 8.44116279,36.9027907 8.16348837,37.0639535 C8.63651163,37.3451163 9.11581395,37.6046512 9.59860465,37.8523256 C9.70534884,37.7923256 9.81348837,37.737907 9.92023256,37.68 C9.99348837,37.2397674 10.0793023,36.8030233 10.1881395,36.3767442" id="Fill-13" fill="#F6F4F4" sketch:type="MSShapeGroup"></path>
                <path d="M8.12581395,33.7911628 C8.12511628,33.7925581 8.1244186,33.7946512 8.12302326,33.7960465 C8.15232558,33.784186 8.18093023,33.7709302 8.20953488,33.7597674 C8.18162791,33.7709302 8.15372093,33.7793023 8.12581395,33.7911628" id="Fill-14" fill="#F6F4F4" sketch:type="MSShapeGroup"></path>
                <g id="Group-18" fill="#FFFFFF" sketch:type="MSShapeGroup">
                    <path d="M9.21767442,33.3732558 C8.88069767,33.4946512 8.54511628,33.6237209 8.20953488,33.7597674 C8.18093023,33.7709302 8.15232558,33.784186 8.12302326,33.7960465 C7.17767442,34.1825581 6.2372093,34.6227907 5.30790698,35.1209302 C6.23372093,35.8374419 7.18744186,36.4855814 8.16348837,37.0639535 C8.44116279,36.9027907 10.0904651,35.157907 10.4211628,34.8997674 C10.2265116,34.6751163 8.64069767,34.4455814 8.45302326,34.2104651 C8.70069767,33.925814 8.95255814,33.6502326 9.20860465,33.3830233 C9.21139535,33.3795349 9.21488372,33.3760465 9.21767442,33.3732558 L9.21767442,33.3732558 Z M9.21767442,33.3732558 L9.22116279,33.3732558 L9.21767442,33.3732558 L9.21767442,33.3732558 Z M7.90604651,34.6437209 C7.90674419,34.6444186 7.90744186,34.6451163 7.90744186,34.645814 C8.12023256,34.9116279 8.45790698,35.0246512 9.10813953,35.1948837 C9.05790698,35.245814 9.0055814,35.2981395 8.95116279,35.3525581 C8.68813953,35.6162791 8.33790698,35.9665116 8.09162791,36.2051163 C7.59627907,35.8981395 7.10651163,35.5730233 6.62581395,35.2304651 C7.0472093,35.0246512 7.47488372,34.8286047 7.90604651,34.6437209 L7.90604651,34.6437209 Z" id="Fill-15"></path>
                    <path d="M39.692093,18.9886047 C39.6997674,18.9704651 39.7067442,18.9523256 39.7137209,18.9334884 C39.2560465,18.7562791 38.8032558,18.6006977 38.3525581,18.4548837 C39.0174419,19.7476744 39.1897674,20.7586047 39.1423256,20.8813953 C39.1353488,20.8786047 39.1290698,20.8751163 39.122093,20.8723256 C39.1039535,20.9183721 39.0865116,20.9637209 39.0690698,21.0090698 C36.3069767,19.9416279 33.692093,19.5369767 31.2739535,19.6569767 C33.6425581,19.5669767 36.1981395,19.9827907 38.8911628,21.0313953 C38.8932558,21.0265116 38.8953488,21.0209302 38.8974419,21.0160465 C41.697907,22.1211628 43.9213953,23.6267442 45.6286047,25.3925581 C45.2930233,25.444186 44.9965116,25.5816279 44.7725581,25.8090698 C43.8809302,26.7062791 44.0867442,28.3116279 44.8709302,29.5569767 C45.2846512,30.1925581 45.8406977,30.6990698 46.4455814,30.985814 C46.3276744,31.3318605 46.2244186,31.6981395 46.1309302,32.074186 C45.7897674,33.5372093 45.5832558,35.1334884 45.5937209,36.8009302 C45.6111628,38.4690698 45.8581395,40.0332558 46.2760465,41.4474419 C46.7051163,42.835814 47.3051163,44.074186 48.265814,44.5165116 C48.3202326,44.5444186 48.3739535,44.5674419 48.4276744,44.5862791 C44.995814,52.264186 36.6613953,57.7095349 26.2444186,53.7146512 C26.2444186,53.7153488 26.2451163,53.7153488 26.2451163,53.7153488 C26.1830233,53.8723256 24.0669767,54.2030233 21.7416279,54.1304651 C22.4672093,54.5434884 23.252093,54.9174419 24.0697674,55.2704651 C24.3265116,55.3813953 24.5727907,55.4993023 24.8393023,55.6039535 C24.8323256,55.622093 25.3206977,55.7546512 25.3137209,55.7734884 C49.8446512,65.2737209 64.0960465,28.5551163 39.692093,18.9886047" id="Fill-17"></path>
                </g>
                <path d="M6.45209302,49.2809302 C6.4527907,49.285814 6.45348837,49.2906977 6.45418605,49.2962791 C6.48906977,49.2383721 6.51976744,49.1769767 6.55534884,49.1197674 C6.52186047,49.174186 6.4855814,49.225814 6.45209302,49.2809302" id="Fill-19" fill="#F6F4F4" sketch:type="MSShapeGroup"></path>
                <path d="M16.5572093,52.8230233 C13.9032558,51.2616279 11.5123256,48.5769767 10.4693023,45.3188372 C10.1469767,45.2672093 9.82465116,45.2162791 9.50162791,45.1527907 C8.8227907,45.9167442 8.17883721,46.7295349 7.57255814,47.5869767 C7.54744186,47.8897674 9.96767442,48.6955814 9.96767442,48.6955814 L8.48511628,52.4302326 C8.48511628,52.4302326 10.0702326,52.7344186 10.8593023,52.8327907 C10.6751163,53.3483721 10.5062791,53.8737209 10.3534884,54.4088372 C12.2651163,54.2839535 14.1230233,53.9783721 15.9062791,53.5262791 C16.0472093,53.4906977 16.1909302,53.4606977 16.3304651,53.4237209 C16.3988372,53.2193023 16.4839535,53.0246512 16.5572093,52.8230233" id="Fill-20" fill="#F6F4F4" sketch:type="MSShapeGroup"></path>
                <path d="M7.57116279,47.5827907 C7.55093023,47.6113953 7.5327907,47.642093 7.51255814,47.6706977 C7.18883721,48.1318605 6.87418605,48.6034884 6.57418605,49.0904651 C6.56790698,49.1002326 6.56162791,49.11 6.55534884,49.1197674 C6.51976744,49.1769767 6.48906977,49.2383721 6.45418605,49.2962791 C5.53046512,50.82 4.72116279,52.4616279 4.06465116,54.2148837 C5.46767442,54.3906977 6.86302326,54.4772093 8.23953488,54.4772093 C8.94976744,54.4772093 9.6544186,54.454186 10.3534884,54.4088372 C10.5062791,53.8737209 10.6751163,53.3483721 10.8593023,52.8327907 C10.0702326,52.7344186 8.48511628,52.4302326 8.48511628,52.4302326 L9.96767442,48.6955814 C9.96767442,48.6955814 7.54744186,47.8897674 7.57255814,47.5869767 C7.57255814,47.5855814 7.57046512,47.584186 7.57116279,47.5827907 L7.57116279,47.5827907 Z M7.57116279,47.5827907 L7.57465116,47.5827907 L7.57116279,47.5827907 L7.57116279,47.5827907 Z M7.73860465,48.5727907 C8.05325581,48.7325581 8.47744186,48.9104651 9.05023256,49.1162791 L7.83697674,52.1727907 C7.76023256,52.3660465 7.77348837,52.5837209 7.87395349,52.765814 C7.97372093,52.947907 8.14953488,53.0762791 8.35395349,53.1153488 C8.4,53.1244186 9.18906977,53.275814 9.93069767,53.3986047 C9.8944186,53.5123256 9.85883721,53.6260465 9.82395349,53.7404651 C9.29790698,53.7662791 8.76697674,53.7795349 8.23953488,53.7795349 C7.18325581,53.7795349 6.11302326,53.7272093 5.04697674,53.6225581 C5.60790698,52.2593023 6.28046512,50.9288372 7.05069767,49.6576744 C7.07232558,49.622093 7.09255814,49.585814 7.1127907,49.5488372 L7.14697674,49.4895349 C7.14906977,49.4860465 7.16511628,49.4602326 7.16790698,49.4567442 C7.34860465,49.1637209 7.53697674,48.8713953 7.73860465,48.5727907 L7.73860465,48.5727907 Z" id="Fill-21" fill="#F6F4F4" sketch:type="MSShapeGroup"></path>
                <path d="M19.862093,50.3169767 C19.6381395,50.2032558 17.4955814,49.6325581 17.2744186,49.5027907 C17.2011628,49.7044186 15.5113953,51.4206977 15.4430233,51.6251163 C15.3034884,51.6627907 15.4925581,53.7683721 15.3516279,53.8039535 C15.145814,54.4486047 14.9525581,55.1009302 14.7976744,55.772093 C14.8130233,55.6709302 16.7623256,53.6553488 16.7623256,53.6553488 L17.0462791,56.6546512 L18.9865116,57.1486047 C18.9865116,57.1486047 18.2881395,58.7288372 18.2539535,58.7483721 C18.2525581,58.7490698 18.2504651,58.7497674 18.2490698,58.7504651 C18.2553488,58.7518605 18.2609302,58.7539535 18.267907,58.7553488 C20.3344186,57.7465116 24.4904651,54.9997674 26.2004651,53.7146512 C25.3827907,53.3623256 23.224186,52.2265116 22.4986047,51.8134884 C20.8883721,51.7632558 21.0627907,50.9511628 19.862093,50.3169767" id="Fill-22" fill="#F6F4F4" sketch:type="MSShapeGroup"></path>
                <path d="M16.7623256,53.6553488 C16.7623256,53.6553488 14.8130233,55.6709302 14.7976744,55.772093 C14.5974419,57.1360465 14.5081395,58.5488372 14.545814,60 C15.7423256,59.6727907 17.1655814,59.3644186 18.2490698,58.7504651 C18.2504651,58.7497674 18.2525581,58.7490698 18.2539535,58.7483721 C18.2881395,58.7288372 18.9865116,57.1486047 18.9865116,57.1486047 L17.0462791,56.6546512 L16.7623256,53.6553488 L16.7623256,53.6553488 Z M16.2118605,55.2404651 L16.352093,56.7202326 C16.38,57.0132558 16.5886047,57.2574419 16.8746512,57.3306977 L18.0125581,57.6202326 C17.8988372,57.8734884 17.7976744,58.0953488 17.7306977,58.2376744 C17.0037209,58.6130233 16.1162791,58.8627907 15.2365116,59.0951163 C15.2476744,58.0716279 15.3230233,57.0523256 15.4625581,56.0511628 C15.6006977,55.8927907 15.8776744,55.594186 16.2118605,55.2404651 L16.2118605,55.2404651 Z" id="Fill-23" fill="#F6F4F4" sketch:type="MSShapeGroup"></path>
                <path d="M10.4344186,45.2267442 C9.66,42.964186 9.49395349,40.234186 9.92023256,37.68 C9.81348837,37.737907 9.70534884,37.7923256 9.59860465,37.8523256 C8.55627907,38.4334884 7.53139535,39.0809302 6.53581395,39.812093 C6.90976744,40.0081395 7.28651163,40.1944186 7.66465116,40.3709302 C7.24953488,40.8111628 6.84488372,41.2709302 6.4527907,41.7502326 C6.90069767,42.1060465 7.35697674,42.4416279 7.81953488,42.7569767 C7.4455814,43.3039535 7.08976744,43.8739535 6.75348837,44.4655814 C7.66674419,44.7453488 8.58418605,44.9713953 9.50162791,45.1527907 C9.82465116,45.2162791 10.1469767,45.2672093 10.4693023,45.3188372 C10.4588372,45.2874419 10.444186,45.2581395 10.4344186,45.2267442" id="Fill-24" fill="#F6F4F4" sketch:type="MSShapeGroup"></path>
                <path d="M6.53581395,39.812093 C5.26465116,40.7448837 4.03813953,41.7983721 2.87581395,42.9676744 C4.15186047,43.5669767 5.44813953,44.0665116 6.75348837,44.4655814 C7.08976744,43.8739535 7.4455814,43.3039535 7.81953488,42.7569767 C7.35697674,42.4416279 6.90069767,42.1060465 6.4527907,41.7502326 C6.84488372,41.2709302 7.24953488,40.8111628 7.66465116,40.3709302 C7.28651163,40.1944186 6.90976744,40.0081395 6.53581395,39.812093 L6.53581395,39.812093 Z M6.25255814,40.9011628 C6.13813953,41.035814 6.0244186,41.1718605 5.9127907,41.3086047 C5.79488372,41.4530233 5.73906977,41.6393023 5.75930233,41.8248837 C5.77953488,42.0104651 5.87302326,42.1806977 6.01883721,42.2965116 C6.29511628,42.5162791 6.57767442,42.7304651 6.86302326,42.9369767 C6.71581395,43.165814 6.57209302,43.3981395 6.43186047,43.6318605 C5.64767442,43.3751163 4.86697674,43.08 4.09813953,42.7513953 C4.79162791,42.0983721 5.51232558,41.4795349 6.25255814,40.9011628 L6.25255814,40.9011628 Z" id="Fill-25" fill="#F6F4F4" sketch:type="MSShapeGroup"></path>
                <path d="M9.92023256,37.68 C9.49395349,40.234186 9.66,42.964186 10.4344186,45.2267442 C10.444186,45.2581395 10.4588372,45.2874419 10.4693023,45.3188372 C11.5123256,48.5769767 13.9032558,51.2616279 16.5572093,52.8230233 C16.7776744,52.9534884 16.9967442,53.0902326 17.2206977,53.2039535 C18.4213953,53.8381395 20.1313953,54.0802326 21.7416279,54.1304651 C24.0669767,54.2030233 26.1830233,53.8723256 26.2451163,53.7153488 C26.2451163,53.7153488 26.2444186,53.7153488 26.2444186,53.7146512 C7.3744186,46.232093 14.6469767,20.4809302 31.2739535,19.6569767 C33.692093,19.5369767 36.3069767,19.9416279 39.0690698,21.0090698 C39.0865116,20.9637209 39.1039535,20.9183721 39.122093,20.8723256 C39.1290698,20.8751163 39.1353488,20.8786047 39.1423256,20.8813953 C39.1897674,20.7586047 39.0174419,19.7476744 38.3525581,18.4548837 C37.8397674,17.4586047 37.0353488,16.294186 35.8123256,15.237907 C35.5897674,15.5330233 35.344186,15.814186 35.0525581,16.0576744 C34.2244186,16.7469767 33.1897674,17.1418605 32.2130233,17.1418605 L32.0553488,17.1383721 C31.35,17.1076744 30.5993023,16.8565116 29.94,16.4323256 C29.1404651,15.9181395 28.5432558,15.2016279 28.2125581,14.3616279 C28.112093,14.1062791 28.0067442,13.8530233 27.902093,13.6011628 L27.8183721,13.3981395 C27.4862791,13.2383721 27.1890698,12.9111628 26.967907,12.4506977 C26.9267442,12.364186 26.8960465,12.265814 26.8611628,12.1730233 C25.7860465,12.1967442 24.6648837,12.3467442 23.5262791,12.6572093 L23.5318605,12.6865116 C23.6595349,13.2474419 23.6825581,13.8404651 23.5967442,14.4334884 C23.4334884,15.5623256 22.8851163,16.585814 22.0918605,17.2402326 C21.5483721,17.6888372 20.822093,18.0048837 20.0476744,18.1311628 C19.7993023,18.1709302 19.5474419,18.1918605 19.2990698,18.1918605 C18.6160465,18.1918605 17.97,18.0418605 17.3790698,17.7467442 C17.1348837,17.6246512 16.8893023,17.5081395 16.645814,17.3923256 L16.4406977,17.2939535 C16.3813953,17.3113953 16.3116279,17.3190698 16.2418605,17.3274419 C15.655814,18.0244186 15.1646512,18.7416279 14.7648837,19.4588372 C14.9811628,19.7937209 15.1109302,20.1376744 15.12,20.4523256 C15.3265116,20.704186 15.5316279,20.9644186 15.7388372,21.2281395 L15.8044186,21.3223256 C16.1497674,21.7806977 16.4134884,22.3130233 16.5781395,22.89 C16.8062791,23.6909302 16.8188372,24.5218605 16.6346512,25.2718605 C16.5662791,25.5495349 16.4755814,25.8181395 16.352093,26.0672093 C16.1030233,26.5695349 15.7116279,27.0383721 15.2344186,27.4276744 C15.1102326,27.5281395 14.9846512,27.6272093 14.85,27.715814 C14.4572093,27.9746512 14.035814,28.1637209 13.6011628,28.2886047 C13.7323256,28.714186 13.8788372,29.097907 14.0260465,29.4334884 C13.1734884,30.2351163 12.3446512,31.3332558 11.6448837,32.6204651 C11.0337209,33.745814 10.5195349,35.0148837 10.1881395,36.3767442 C10.0793023,36.8030233 9.99348837,37.2397674 9.92023256,37.68" id="Fill-26" fill="#F6F4F4" sketch:type="MSShapeGroup"></path>
                <path d="M61.707907,44.4467442 L61.707907,30.6990698 C61.707907,30.2406977 62.1369767,30.0111628 62.9965116,30.0111628 L64.1351163,30.0111628 C64.8223256,30.0111628 65.2737209,30.2044186 65.487907,30.5916279 L69.2693023,37.3151163 L73.0925581,30.5916279 C73.3074419,30.2044186 73.7588372,30.0111628 74.4460465,30.0111628 L75.5630233,30.0111628 C76.4225581,30.0111628 76.8516279,30.2406977 76.8516279,30.6990698 L76.8516279,44.4467442 C76.8516279,44.9051163 76.4225581,45.1346512 75.5630233,45.1346512 L74.94,45.1346512 C74.0804651,45.1346512 73.6513953,44.9051163 73.6513953,44.4467442 L73.6513953,35.5534884 L73.5655814,35.5318605 L70.4504651,41.095814 C70.2495349,41.367907 69.9634884,41.5039535 69.5909302,41.5039535 L68.967907,41.5039535 C68.5953488,41.5039535 68.3093023,41.367907 68.1090698,41.095814 L64.9939535,35.5318605 L64.9081395,35.5534884 L64.9081395,44.4467442 C64.9081395,44.9051163 64.4783721,45.1346512 63.6195349,45.1346512 L62.9965116,45.1346512 C62.1369767,45.1346512 61.707907,44.9051163 61.707907,44.4467442" id="Fill-27" fill="#F6F4F4" sketch:type="MSShapeGroup"></path>
                <path d="M82.3297674,39.4737209 C82.3297674,41.6581395 82.9918605,42.75 84.3167442,42.75 C85.6409302,42.75 86.3037209,41.6581395 86.3037209,39.4737209 C86.3037209,37.29 85.6409302,36.1974419 84.3167442,36.1974419 C82.9918605,36.1974419 82.3297674,37.29 82.3297674,39.4737209 L82.3297674,39.4737209 Z M80.4390698,43.77 C79.5509302,42.7744186 79.1072093,41.3393023 79.1072093,39.4632558 C79.1072093,37.5872093 79.5509302,36.1548837 80.4390698,35.1669767 C81.3265116,34.1783721 82.6227907,33.6844186 84.3272093,33.6844186 C86.0309302,33.6844186 87.3237209,34.1783721 88.2048837,35.1669767 C89.0853488,36.1548837 89.5255814,37.5872093 89.5255814,39.4632558 C89.5255814,41.3393023 89.0853488,42.7744186 88.2048837,43.77 C87.3237209,44.7655814 86.0309302,45.2630233 84.3272093,45.2630233 C82.6227907,45.2630233 81.3265116,44.7655814 80.4390698,43.77 L80.4390698,43.77 Z" id="Fill-28" fill="#F6F4F4" sketch:type="MSShapeGroup"></path>
                <path d="M91.5516279,44.4467442 L91.5516279,37.6374419 C91.5516279,36.5630233 91.5083721,35.8109302 91.4225581,35.3818605 C91.3367442,34.952093 91.2934884,34.6939535 91.2934884,34.6081395 C91.2934884,34.3793023 91.5837209,34.2076744 92.1634884,34.0925581 C92.7432558,33.9781395 93.1765116,33.9209302 93.4632558,33.9209302 C93.7493023,33.9209302 93.9390698,33.9495349 94.0325581,34.0067442 C94.1253488,34.0639535 94.2006977,34.1539535 94.257907,34.2753488 C94.3151163,34.3967442 94.3576744,34.4972093 94.3869767,34.5760465 C94.4155814,34.6548837 94.4476744,34.7874419 94.4832558,34.9730233 C94.5188372,35.1593023 94.5446512,35.2737209 94.5586047,35.3169767 C94.9025581,34.8586047 95.3602326,34.472093 95.9337209,34.1567442 C96.505814,33.842093 97.1148837,33.6844186 97.7595349,33.6844186 C98.8332558,33.6844186 99.6286047,33.9669767 100.144186,34.5334884 C100.659767,35.0993023 100.917209,35.9762791 100.917209,37.1644186 L100.917209,44.4467442 C100.917209,44.9051163 100.487442,45.1346512 99.6286047,45.1346512 L99.0265116,45.1346512 C98.1676744,45.1346512 97.737907,44.9051163 97.737907,44.4467442 L97.737907,37.6374419 C97.737907,36.7493023 97.3081395,36.3048837 96.4493023,36.3048837 C95.7327907,36.3048837 95.16,36.7206977 94.7309302,37.5516279 L94.7309302,44.4467442 C94.7309302,44.9051163 94.3011628,45.1346512 93.4416279,45.1346512 L92.8402326,45.1346512 C91.9806977,45.1346512 91.5516279,44.9051163 91.5516279,44.4467442" id="Fill-29" fill="#F6F4F4" sketch:type="MSShapeGroup"></path>
                <path d="M107.903023,42.6634884 C108.590233,42.6634884 109.176977,42.2413953 109.664651,41.3965116 L109.664651,36.6062791 C109.176977,36.334186 108.676047,36.1974419 108.160465,36.1974419 C106.828605,36.1974419 106.163023,37.2760465 106.163023,39.4311628 C106.163023,41.5862791 106.742791,42.6634884 107.903023,42.6634884 L107.903023,42.6634884 Z M106.957674,45.2630233 C105.768837,45.2630233 104.80186,44.7516279 104.057442,43.7274419 C103.313023,42.7032558 102.940465,41.2925581 102.940465,39.4953488 C102.940465,37.6981395 103.33814,36.2804651 104.132791,35.2416279 C104.927442,34.2034884 106.04093,33.6844186 107.473256,33.6844186 C108.31814,33.6844186 109.048605,33.9069767 109.664651,34.35 L109.664651,29.5813953 C109.664651,29.1237209 110.093721,28.894186 110.953256,28.894186 L111.554651,28.894186 C112.414186,28.894186 112.843953,29.1237209 112.843953,29.5813953 L112.843953,41.3106977 C112.843953,42.1981395 112.886512,42.9432558 112.972326,43.5446512 L113.101395,44.4251163 C113.101395,44.6546512 112.811163,44.8269767 112.231395,44.9413953 C111.651628,45.055814 111.218372,45.1123256 110.931628,45.1123256 C110.644884,45.1123256 110.455814,45.0844186 110.362326,45.0265116 C110.268837,44.97 110.194186,44.8765116 110.136977,44.7474419 C110.07907,44.6183721 110.036512,44.5116279 110.007907,44.4251163 C109.979302,44.3393023 109.946512,44.1997674 109.911628,44.0065116 C109.875349,43.8132558 109.850233,43.6946512 109.836279,43.652093 C109.57814,44.1244186 109.195116,44.5116279 108.687209,44.8116279 C108.178605,45.1123256 107.602326,45.2630233 106.957674,45.2630233 L106.957674,45.2630233 Z" id="Fill-30" fill="#F6F4F4" sketch:type="MSShapeGroup"></path>
                <path d="M117.994884,41.8046512 C117.994884,42.0913953 118.087674,42.3202326 118.273953,42.4918605 C118.460233,42.6634884 118.739302,42.75 119.111163,42.75 C119.483721,42.75 119.849302,42.6209302 120.207209,42.3627907 C120.565116,42.1053488 120.830233,41.7830233 121.00186,41.3965116 L121.00186,40.2146512 C118.996744,40.2146512 117.994884,40.7448837 117.994884,41.8046512 L117.994884,41.8046512 Z M114.837209,42.1262791 C114.837209,41.7265116 114.872093,41.3609302 114.943953,41.0316279 C115.015814,40.7016279 115.180465,40.347907 115.437907,39.9683721 C115.696047,39.5888372 116.04,39.2769767 116.46907,39.0334884 C117.486279,38.432093 118.996744,38.1313953 121.00186,38.1313953 L121.00186,37.4225581 C121.00186,36.6062791 120.443721,36.1974419 119.326047,36.1974419 C118.538372,36.1974419 117.772326,36.3697674 117.027907,36.7137209 C116.770465,36.8281395 116.619767,36.8853488 116.576512,36.8853488 C116.361628,36.8853488 116.122326,36.6634884 115.857209,36.2197674 C115.592093,35.7753488 115.459535,35.4244186 115.459535,35.1669767 C115.459535,34.7797674 115.857209,34.4365116 116.65186,34.135814 C117.446512,33.8351163 118.416977,33.6844186 119.562558,33.6844186 C122.641395,33.6844186 124.181163,34.8802326 124.181163,37.2718605 L124.181163,41.3106977 C124.181163,42.1981395 124.224419,42.9432558 124.310233,43.5446512 L124.439302,44.4251163 C124.439302,44.6546512 124.14907,44.8269767 123.569302,44.9413953 C122.988837,45.055814 122.555581,45.1123256 122.269535,45.1123256 C121.982791,45.1123256 121.793023,45.0844186 121.700233,45.0265116 C121.606744,44.97 121.531395,44.8730233 121.474884,44.7369767 C121.416977,44.6009302 121.374419,44.4934884 121.345814,44.4146512 C121.316512,44.335814 121.284419,44.1962791 121.248837,43.9953488 C121.213256,43.795814 121.18814,43.6737209 121.174186,43.6304651 C120.916047,44.0888372 120.471628,44.4760465 119.841628,44.7906977 C119.211628,45.1053488 118.603256,45.2630233 118.015814,45.2630233 C116.912791,45.2630233 116.107674,44.9769767 115.59907,44.404186 C115.091163,43.8313953 114.837209,43.0723256 114.837209,42.1262791 L114.837209,42.1262791 Z" id="Fill-31" fill="#F6F4F4" sketch:type="MSShapeGroup"></path>
                <path d="M125.431395,34.285814 C125.431395,33.9711628 125.86814,33.8134884 126.741628,33.8134884 L127.428837,33.8134884 C128.130698,33.8134884 128.53186,33.964186 128.632326,34.2648837 L129.899302,38.2388372 C130.028372,38.6393023 130.228605,39.5065116 130.501395,40.8376744 L130.587209,40.8376744 C130.873256,39.4632558 131.073488,38.5967442 131.188605,38.2388372 L132.455581,34.2648837 C132.556047,33.964186 132.957209,33.8134884 133.65907,33.8134884 L134.174651,33.8134884 C135.033488,33.8134884 135.463256,33.9711628 135.463256,34.285814 C135.463256,34.3862791 135.441628,34.5153488 135.39907,34.6730233 L130.479767,49.0653488 C130.364651,49.3660465 129.964186,49.5160465 129.276279,49.5160465 L128.911395,49.5160465 C128.05186,49.5160465 127.622791,49.3660465 127.622791,49.0653488 C127.622791,48.9362791 127.651395,48.807907 127.708605,48.6788372 L129.062093,45.0913953 L125.517209,34.6730233 C125.46,34.472093 125.431395,34.3437209 125.431395,34.285814" id="Fill-32" fill="#F6F4F4" sketch:type="MSShapeGroup"></path>
                <path d="M140.292558,36.3481395 L142.333256,36.3481395 C142.776279,36.3481395 143.163488,36.1695349 143.492791,35.8109302 C143.822093,35.4537209 143.987442,35.0204651 143.987442,34.5111628 C143.987442,34.0032558 143.825581,33.602093 143.503953,33.3090698 C143.181628,33.0153488 142.741395,32.8681395 142.182558,32.8681395 L140.292558,32.8681395 L140.292558,36.3481395 L140.292558,36.3481395 Z M136.984186,44.4467442 L136.984186,30.9132558 C136.984186,30.3404651 137.270233,30.0544186 137.843721,30.0544186 L142.032558,30.0544186 C145.598372,30.0544186 147.38093,31.4002326 147.38093,34.0925581 C147.38093,34.8948837 147.155581,35.5932558 146.704884,36.1869767 C146.253488,36.7813953 145.64093,37.2216279 144.867907,37.5083721 L144.867907,37.594186 C145.14,37.6946512 145.41907,37.9346512 145.705814,38.314186 C145.99186,38.6937209 146.228372,39.1123256 146.414651,39.5706977 L148.304651,44.2967442 C148.376512,44.4830233 148.412093,44.6183721 148.412093,44.7048837 C148.412093,44.9909302 147.982326,45.1346512 147.123488,45.1346512 L146.242326,45.1346512 C145.526512,45.1346512 145.111395,44.9839535 144.996977,44.6832558 L143.299535,40.4944186 C143.056047,40.0213953 142.795116,39.6886047 142.516047,39.4953488 C142.236279,39.302093 141.774419,39.2051163 141.129767,39.2051163 L140.292558,39.2051163 L140.292558,44.4467442 C140.292558,44.9051163 139.862791,45.1346512 139.003256,45.1346512 L138.272791,45.1346512 C137.413953,45.1346512 136.984186,44.9051163 136.984186,44.4467442 L136.984186,44.4467442 Z" id="Fill-33" fill="#F6F4F4" sketch:type="MSShapeGroup"></path>
                <path d="M156.048837,38.3672093 C156.048837,37.7093023 155.919767,37.1825581 155.661628,36.7890698 C155.404186,36.3948837 155.017674,36.1974419 154.502093,36.1974419 C153.441628,36.1974419 152.797674,36.9209302 152.568837,38.3672093 L156.048837,38.3672093 L156.048837,38.3672093 Z M150.667674,43.7490698 C149.743953,42.7388372 149.282093,41.282093 149.282093,39.3774419 C149.282093,37.4727907 149.743953,36.0474419 150.667674,35.1027907 C151.591395,34.1567442 152.85907,33.6844186 154.47,33.6844186 C156.08093,33.6844186 157.262093,34.2 158.014186,35.2311628 C158.766279,36.2623256 159.141628,37.594186 159.141628,39.2267442 C159.141628,39.3983721 158.995116,39.6530233 158.701395,39.9893023 C158.407674,40.3255814 158.189302,40.4944186 158.046279,40.4944186 L152.568837,40.4944186 C152.64,41.3106977 152.883488,41.8904651 153.299302,42.2344186 C153.714419,42.5776744 154.243953,42.75 154.888605,42.75 C155.533256,42.75 156.148605,42.6390698 156.736047,42.4172093 C157.322791,42.1946512 157.624186,42.0837209 157.63814,42.0837209 C157.853023,42.0837209 158.093023,42.295814 158.35814,42.717907 C158.622558,43.14 158.755116,43.4727907 158.755116,43.7169767 C158.755116,44.1886047 158.307209,44.5653488 157.412791,44.8437209 C156.517674,45.1234884 155.676279,45.2630233 154.888605,45.2630233 C152.997907,45.2630233 151.591395,44.7586047 150.667674,43.7490698 L150.667674,43.7490698 Z" id="Fill-34" fill="#F6F4F4" sketch:type="MSShapeGroup"></path>
                <path d="M165.858837,42.75 C167.190698,42.75 167.856977,41.672093 167.856977,39.5169767 C167.856977,37.3618605 167.276512,36.2839535 166.116977,36.2839535 C165.42907,36.2839535 164.841628,36.7067442 164.355349,37.5516279 L164.355349,42.3418605 C164.841628,42.6139535 165.343256,42.75 165.858837,42.75 L165.858837,42.75 Z M161.176047,48.8288372 L161.176047,37.6374419 C161.176047,36.5630233 161.132791,35.8109302 161.046977,35.3818605 C160.961163,34.952093 160.917907,34.6939535 160.917907,34.6081395 C160.917907,34.3793023 161.20814,34.2076744 161.787907,34.0925581 C162.368372,33.9781395 162.80093,33.9209302 163.087674,33.9209302 C163.373721,33.9209302 163.563488,33.9495349 163.656977,34.0067442 C163.749767,34.0639535 163.825116,34.1539535 163.882326,34.2753488 C163.939535,34.3967442 163.982791,34.5006977 164.011395,34.5865116 C164.04,34.6730233 164.072093,34.802093 164.108372,34.9730233 C164.143953,35.1453488 164.16907,35.2527907 164.183023,35.2960465 C164.441163,34.8230233 164.824186,34.4365116 165.332791,34.135814 C165.840698,33.8351163 166.417674,33.6844186 167.061628,33.6844186 C168.250465,33.6844186 169.217442,34.1965116 169.96186,35.2206977 C170.706279,36.2448837 171.078837,37.6555814 171.078837,39.452093 C171.078837,41.25 170.681163,42.6676744 169.886512,43.705814 C169.09186,44.7446512 167.978372,45.2630233 166.546047,45.2630233 C165.701163,45.2630233 164.970698,45.0411628 164.355349,44.5974419 L164.355349,48.8288372 C164.355349,49.2872093 163.925581,49.5160465 163.066047,49.5160465 L162.464651,49.5160465 C161.605116,49.5160465 161.176047,49.2872093 161.176047,48.8288372 L161.176047,48.8288372 Z" id="Fill-35" fill="#F6F4F4" sketch:type="MSShapeGroup"></path>
                <path d="M177.083023,42.75 L177.662791,42.6634884 C177.84907,42.6634884 178.006744,42.8755814 178.135814,43.2976744 C178.264186,43.7204651 178.32907,44.0246512 178.32907,44.2109302 C178.32907,44.912093 177.641163,45.2630233 176.266744,45.2630233 C174.175814,45.2630233 173.13,44.1034884 173.13,41.7830233 L173.13,29.5813953 C173.13,29.1237209 173.559767,28.894186 174.419302,28.894186 L175.020698,28.894186 C175.880233,28.894186 176.309302,29.1237209 176.309302,29.5813953 L176.309302,41.8262791 C176.309302,42.4423256 176.567442,42.75 177.083023,42.75" id="Fill-36" fill="#F6F4F4" sketch:type="MSShapeGroup"></path>
                <path d="M182.457907,41.8046512 C182.457907,42.0913953 182.550698,42.3202326 182.736977,42.4918605 C182.923256,42.6634884 183.202326,42.75 183.574884,42.75 C183.946744,42.75 184.312326,42.6209302 184.670233,42.3627907 C185.02814,42.1053488 185.293256,41.7830233 185.464884,41.3965116 L185.464884,40.2146512 C183.459767,40.2146512 182.457907,40.7448837 182.457907,41.8046512 L182.457907,41.8046512 Z M179.300233,42.1262791 C179.300233,41.7265116 179.335116,41.3609302 179.406977,41.0316279 C179.478837,40.7016279 179.643488,40.347907 179.901628,39.9683721 C180.15907,39.5888372 180.503023,39.2769767 180.932791,39.0334884 C181.949302,38.432093 183.459767,38.1313953 185.464884,38.1313953 L185.464884,37.4225581 C185.464884,36.6062791 184.906744,36.1974419 183.78907,36.1974419 C183.002093,36.1974419 182.235349,36.3697674 181.49093,36.7137209 C181.233488,36.8281395 181.082791,36.8853488 181.039535,36.8853488 C180.824651,36.8853488 180.585349,36.6634884 180.320233,36.2197674 C180.055116,35.7753488 179.922558,35.4244186 179.922558,35.1669767 C179.922558,34.7797674 180.320233,34.4365116 181.114884,34.135814 C181.910233,33.8351163 182.88,33.6844186 184.025581,33.6844186 C187.104419,33.6844186 188.644186,34.8802326 188.644186,37.2718605 L188.644186,41.3106977 C188.644186,42.1981395 188.687442,42.9432558 188.773256,43.5446512 L188.902326,44.4251163 C188.902326,44.6546512 188.612093,44.8269767 188.032326,44.9413953 C187.45186,45.055814 187.018605,45.1123256 186.732558,45.1123256 C186.445814,45.1123256 186.256047,45.0844186 186.163256,45.0265116 C186.069767,44.97 185.994419,44.8730233 185.937907,44.7369767 C185.88,44.6009302 185.837442,44.4934884 185.808837,44.4146512 C185.780233,44.335814 185.747442,44.1962791 185.71186,43.9953488 C185.676279,43.795814 185.651163,43.6737209 185.637209,43.6304651 C185.37907,44.0888372 184.935349,44.4760465 184.305349,44.7906977 C183.674651,45.1053488 183.066279,45.2630233 182.479535,45.2630233 C181.376512,45.2630233 180.570698,44.9769767 180.062093,44.404186 C179.554186,43.8313953 179.300233,43.0723256 179.300233,42.1262791 L179.300233,42.1262791 Z" id="Fill-37" fill="#F6F4F4" sketch:type="MSShapeGroup"></path>
                <path d="M189.894419,34.285814 C189.894419,33.9711628 190.331163,33.8134884 191.204651,33.8134884 L191.89186,33.8134884 C192.593721,33.8134884 192.994884,33.964186 193.095349,34.2648837 L194.362326,38.2388372 C194.491395,38.6393023 194.691628,39.5065116 194.964419,40.8376744 L195.050233,40.8376744 C195.336279,39.4632558 195.536512,38.5967442 195.651628,38.2388372 L196.919302,34.2648837 C197.01907,33.964186 197.420233,33.8134884 198.122093,33.8134884 L198.637674,33.8134884 C199.496512,33.8134884 199.926279,33.9711628 199.926279,34.285814 C199.926279,34.3862791 199.905349,34.5153488 199.862093,34.6730233 L194.942791,49.0653488 C194.827674,49.3660465 194.427209,49.5160465 193.74,49.5160465 L193.374419,49.5160465 C192.515581,49.5160465 192.085814,49.3660465 192.085814,49.0653488 C192.085814,48.9362791 192.114419,48.807907 192.171628,48.6788372 L193.525116,45.0913953 L189.980233,34.6730233 C189.923023,34.472093 189.894419,34.3437209 189.894419,34.285814" id="Fill-38" fill="#F6F4F4" sketch:type="MSShapeGroup"></path>
            </g>
        </g>
    </g>
</svg>