<?xml version="1.0" encoding="UTF-8" standalone="no"?>
<svg width="169px" height="170px" viewBox="0 0 169 170" version="1.1" xmlns="http://www.w3.org/2000/svg" xmlns:xlink="http://www.w3.org/1999/xlink" xmlns:sketch="http://www.bohemiancoding.com/sketch/ns">
    <!-- Generator: Sketch 3.2.1 (9971) - http://www.bohemiancoding.com/sketch -->
    <title>offline</title>
    <desc>Created with Sketch.</desc>
    <defs></defs>
    <g id="Page-1" stroke="none" stroke-width="1" fill="none" fill-rule="evenodd" sketch:type="MSPage">
        <g id="Desktop-HD" sketch:type="MSArtboardGroup" transform="translate(-1072.000000, -1864.000000)">
            <rect id="Rectangle-10" fill="#16A085" sketch:type="MSShapeGroup" x="0" y="1731" width="1440" height="401"></rect>
            <g id="offline" sketch:type="MSLayerGroup" transform="translate(1084.000000, 1865.000000)">
                <path d="M42.4304659,167.098039 L143.357648,167.098039 L143.357648,30.7914118 L42.4304659,30.7914118 L42.4304659,167.098039 Z" id="Fill-1" fill="#F6F4F4" sketch:type="MSShapeGroup"></path>
                <path d="M42.4304659,167.098039 L143.357648,167.098039 L143.357648,30.7914118 L42.4304659,30.7914118 L42.4304659,167.098039 Z" id="Stroke-2" stroke="#16A085" stroke-width="2" sketch:type="MSShapeGroup"></path>
                <path d="M0.187272727,136.745098 L101.112761,136.745098 L101.112761,0.438470588 L0.187272727,0.438470588 L0.187272727,136.745098 Z" id="Fill-3" fill="#F6F4F4" sketch:type="MSShapeGroup"></path>
                <path d="M0.187272727,136.745098 L101.112761,136.745098 L101.112761,0.438470588 L0.187272727,0.438470588 L0.187272727,136.745098 Z" id="Stroke-4" stroke="#16A085" stroke-width="2" sketch:type="MSShapeGroup"></path>
                <path d="M42.4304659,167.098039 L102.037239,136.745098" id="Stroke-5" stroke="#16A085" stroke-width="2" sketch:type="MSShapeGroup"></path>
                <path d="M21.0201818,17.4411765 L80.2815455,17.4411765 L80.2815455,46.9509804 L21.0201818,46.9509804 L21.0201818,17.4411765 Z" id="Fill-6" fill="#F6F4F4" sketch:type="MSShapeGroup"></path>
                <path d="M21.0201818,17.4411765 L80.2815455,17.4411765 L80.2815455,46.9509804 L21.0201818,46.9509804 L21.0201818,17.4411765 Z" id="Stroke-7" stroke="#16A085" sketch:type="MSShapeGroup"></path>
                <path d="M21.655125,56.5762353 L80.4931932,56.5762353 M20.8085341,67.5370196 L80.4931932,67.5370196 M21.1861136,97.0485098 L47.4761477,97.0485098 M20.8085341,108.01098 L47.4761477,108.01098 M54.2031591,97.0485098 L80.4931932,97.0485098 M53.8255795,108.01098 L80.4931932,108.01098 M21.1861136,76.8132157 L47.4761477,76.8132157 M20.8085341,87.774 L47.4761477,87.774 M54.2031591,76.8132157 L80.4931932,76.8132157 M53.8255795,87.774 L80.4931932,87.774" id="Stroke-8" stroke="#16A085" sketch:type="MSShapeGroup"></path>
            </g>
        </g>
    </g>
</svg>