<?xml version="1.0" encoding="utf-8"?>
<!-- Generator: Adobe Illustrator 16.0.0, SVG Export Plug-In . SVG Version: 6.00 Build 0)  -->
<!DOCTYPE svg PUBLIC "-//W3C//DTD SVG 1.1//EN" "http://www.w3.org/Graphics/SVG/1.1/DTD/svg11.dtd">
<svg version="1.1" id="Layer_1" xmlns:sketch="http://www.bohemiancoding.com/sketch/ns"
	 xmlns="http://www.w3.org/2000/svg" xmlns:xlink="http://www.w3.org/1999/xlink" x="0px" y="0px" width="363px" height="363px"
	 viewBox="0 0 363 363" enable-background="new 0 0 363 363" xml:space="preserve">
<title>logo</title>
<desc>Created with Sketch.</desc>
<g id="Page-1" sketch:type="MSPage">
	
		<g id="Desktop-Portfolio_Detail_Retale-Brochure" transform="translate(-117.000000, -1083.000000)" sketch:type="MSArtboardGroup">
		<g id="logo" transform="translate(117.000000, 1083.000000)" sketch:type="MSLayerGroup">
			<rect id="Rectangle-242" x="0" sketch:type="MSShapeGroup" fill="#FFFFFE" width="363" height="363">
			</rect>
			<g id="Imported-Layers" transform="translate(97.000000, 121.000000)" sketch:type="MSShapeGroup">
				<path id="Fill-1" fill="#B0C6C9" d="M73.472,30.513l-3.069-12.574c-0.06-0.255-0.291-0.431-0.546-0.431
					c-0.041,0-0.087,0.007-0.133,0.017l-27.743,6.747c-0.301,0.075-0.485,0.377-0.412,0.678l1.111,4.559v-1.43
					c0-0.312,0.251-0.562,0.563-0.562h0.267l-0.531-2.171l26.351-6.41l2.093,8.581h0.376c0.311,0,0.562,0.25,0.562,0.562v3.283
					l0.698-0.17C73.362,31.117,73.547,30.816,73.472,30.513"/>
				<path id="Fill-2" fill="#B0C6C9" d="M54.786,24.354l-9.182,2.234c-0.241,0.056-0.399,0.24-0.358,0.407l0.128,0.523h7.791
					C53.232,26.276,53.834,25.127,54.786,24.354"/>
				<path id="Fill-3" fill="#B0C6C9" d="M68.076,21.444c-0.041-0.169-0.265-0.259-0.507-0.199l-9.181,2.232
					c1.601,0.329,2.953,1.535,3.366,3.228c0.066,0.273,0.096,0.542,0.107,0.813h7.697L68.076,21.444L68.076,21.444z M64.435,26.922
					c-0.455,0.109-0.915-0.169-1.024-0.622c-0.11-0.455,0.17-0.912,0.622-1.022c0.455-0.113,0.913,0.165,1.025,0.62
					C65.167,26.353,64.888,26.811,64.435,26.922L64.435,26.922z"/>
				<path id="Fill-4" fill="#B0C6C9" d="M50.818,28.488c-0.192,0.048-0.341,0.164-0.456,0.307h1.32
					C51.484,28.541,51.149,28.409,50.818,28.488"/>
				<path id="Fill-5" fill="#B0C6C9" d="M71.796,27.517H43.241c-0.312,0-0.564,0.25-0.564,0.562v12.94
					c0,0.312,0.252,0.562,0.564,0.562h28.555c0.311,0,0.562-0.25,0.562-0.562v-12.94C72.358,27.769,72.107,27.517,71.796,27.517
					L71.796,27.517z M71.077,40.303H43.96V28.794h6.403c0.113-0.143,0.262-0.257,0.456-0.307c0.331-0.08,0.667,0.051,0.865,0.307
					h19.395v11.509H71.077L71.077,40.303z"/>
				<path id="Fill-6" fill="#B0C6C9" d="M53.159,34.55c0-1.74,1.031-3.231,2.508-3.932h-9.452c-0.247,0-0.443,0.142-0.443,0.315
					v7.231c0,0.174,0.196,0.315,0.443,0.315h9.456C54.193,37.781,53.159,36.29,53.159,34.55L53.159,34.55z M50.826,35.396
					c-0.468,0-0.849-0.381-0.849-0.847c0-0.467,0.381-0.849,0.849-0.849s0.85,0.382,0.85,0.849
					C51.676,35.015,51.294,35.396,50.826,35.396L50.826,35.396z"/>
				<path id="Fill-7" fill="#B0C6C9" d="M68.823,30.618H59.37c1.479,0.697,2.511,2.19,2.511,3.932c0,1.74-1.031,3.231-2.515,3.93
					h9.456c0.247,0,0.447-0.141,0.447-0.315v-7.231C69.27,30.76,69.07,30.618,68.823,30.618L68.823,30.618z M64.43,35.396
					c-0.468,0-0.847-0.381-0.847-0.847c0-0.467,0.379-0.849,0.847-0.849c0.47,0,0.849,0.382,0.849,0.849
					C65.279,35.015,64.9,35.396,64.43,35.396L64.43,35.396z"/>
				<path id="Fill-8" fill="#B0C6C9" d="M33.6,4.84h52.352v52.264H33.6V4.84z M85.951,1.432H33.6c-1.884,0-3.414,1.527-3.414,3.408
					v52.264c0,1.881,1.53,3.408,3.414,3.408h52.352c1.883,0,3.414-1.527,3.414-3.408V4.84C89.365,2.958,87.837,1.432,85.951,1.432
					L85.951,1.432z"/>
				<path id="Fill-9" fill="#B0C6C9" d="M42.448,79.051V57.386l16.758,0.285L42.448,79.051"/>
				<path id="Fill-10" fill="#3FADBE" d="M135.687,15.348H83.334c-1.885,0-3.414,1.527-3.414,3.409v52.265
					c0,1.882,1.529,3.408,3.414,3.408h29.569l14.531,18.537V74.43h8.252c1.886,0,3.414-1.526,3.414-3.408V18.757
					C139.101,16.875,137.57,15.348,135.687,15.348L135.687,15.348z M113.167,53.77v-6.213c0,0-6.139,0.061-12.45,3.995
					c-3.451,2.135-5.787,4.942-7.221,7.154c0,0,0.466-7.666,4.884-14.65c5.522-8.73,14.838-8.887,14.838-8.887v-6.023l12.31,12.284
					L113.167,53.77L113.167,53.77z"/>
				<path id="Fill-11" fill="#3FADBE" d="M0.571,111.438h2.488V95.887H0.571v-2.173h9.3c1.217,0,2.435,0.085,3.423,0.535
					c2.063,0.876,3.39,2.994,3.39,5.644c0,2.794-1.468,5.054-3.761,5.846c-0.932,0.336-1.893,0.423-2.995,0.423H5.884v5.276h2.517
					v2.203h-7.83V111.438L0.571,111.438z M9.588,103.848c0.905,0,1.612-0.143,2.235-0.396c1.27-0.562,2.007-1.834,2.007-3.557
					c0-1.605-0.651-2.791-1.78-3.386c-0.625-0.336-1.472-0.479-2.435-0.479H5.884v7.818H9.588L9.588,103.848z"/>
				<path id="Fill-12" fill="#3FADBE" d="M27.317,104.864h0.904v-0.536c0-2.257-1.299-3.049-3.052-3.049
					c-2.264,0-4.101,1.381-4.101,1.381l-1.103-1.947c0,0,2.093-1.692,5.43-1.692c3.646,0,5.57,1.888,5.57,5.503v6.377
					c0,0.423,0.226,0.621,0.62,0.621h1.444v2.119h-2.858c-1.271,0-1.78-0.623-1.78-1.554v-0.198c0-0.565,0.111-0.932,0.111-0.932
					h-0.055c0,0-1.244,3.02-4.724,3.02c-2.375,0-4.749-1.383-4.749-4.316C18.976,105.173,24.942,104.864,27.317,104.864
					L27.317,104.864z M24.321,111.86c2.431,0,3.93-2.483,3.93-4.627v-0.593h-0.707c-1.299,0-5.797,0.056-5.797,2.793
					C21.746,110.705,22.682,111.86,24.321,111.86L24.321,111.86z"/>
				<path id="Fill-13" fill="#3FADBE" d="M37.89,117.279c1.218,0,2.151-0.845,2.629-1.973l0.596-1.41l-5.005-12.418H34.3v-2.117
					h6.529v2.117h-1.891l3.191,8.492c0.198,0.623,0.257,1.244,0.257,1.244h0.083c0,0,0.113-0.619,0.34-1.244l3.167-8.492h-1.839
					v-2.117h6.333v2.117h-1.78L43.037,115.9c-0.96,2.428-2.824,3.666-5.029,3.666c-1.839,0-3.083-0.899-3.083-0.899l0.932-2.061
					C35.856,116.606,36.675,117.279,37.89,117.279"/>
				<path id="Fill-14" fill="#B0C6C9" d="M63.056,93.376c5.767,0,10.261,4.435,10.261,10.163c0,5.865-4.494,10.441-10.261,10.441
					c-5.796,0-10.265-4.576-10.265-10.441C52.791,97.807,57.26,93.376,63.056,93.376L63.056,93.376z M63.056,111.469
					c4.044,0,7.323-3.443,7.323-7.93c0-4.348-3.279-7.68-7.323-7.68c-4.073,0-7.353,3.332-7.353,7.68
					C55.703,108.022,58.983,111.469,63.056,111.469L63.056,111.469z"/>
				<path id="Fill-15" fill="#B0C6C9" d="M76.796,111.523h2.15v-9.428c0-0.424-0.229-0.617-0.623-0.617h-1.782v-2.117h3.227
					c1.244,0,1.835,0.506,1.835,1.664v0.902c0,0.566-0.053,0.988-0.053,0.988h0.053c0.652-2.088,2.32-3.725,4.524-3.725
					c0.37,0,0.705,0.055,0.705,0.055v2.709c0,0-0.335-0.084-0.791-0.084c-3.054,0-4.353,3.078-4.353,5.868v3.784h2.118v2.117h-7.011
					V111.523"/>
				<path id="Fill-16" fill="#3FADBE" d="M92.15,107.659v1.466c0,1.469,1.893,2.344,3.987,2.344c2.288,0,3.957-1.076,3.957-3.048
					c0-2.315-2.347-3.076-4.807-4.037c-2.628-0.988-5.312-2.113-5.312-5.645c0-3.756,3.022-5.363,6.388-5.363
					c2.997,0,6.05,1.128,6.05,3.304v2.344h-2.629v-1.383c0-1.159-1.782-1.781-3.421-1.781c-1.949,0-3.505,0.901-3.505,2.74
					c0,2.117,2.006,2.822,4.239,3.671c2.942,1.098,5.854,2.226,5.854,5.924c0,3.812-3.11,5.786-6.813,5.786
					c-3.108,0-6.586-1.383-6.586-4.23v-2.091H92.15"/>
				<path id="Fill-17" fill="#3FADBE" d="M106.006,111.523h2.26V95.83h-2.403v-2.116h5.117v7.397c0,0.676-0.087,1.184-0.087,1.184
					h0.057c0.623-1.383,2.49-3.274,5.345-3.274c3.364,0,4.918,1.832,4.918,5.474v7.029h2.234v2.117h-4.975v-8.523
					c0-2.005-0.425-3.588-2.712-3.588c-2.803,0-4.78,2.375-4.78,5.424v4.571h2.261v2.12h-7.234V111.523"/>
				<path id="Fill-18" fill="#3FADBE" d="M134.138,104.864h0.901v-0.536c0-2.257-1.301-3.049-3.054-3.049
					c-2.259,0-4.096,1.381-4.096,1.381l-1.103-1.947c0,0,2.093-1.692,5.427-1.692c3.648,0,5.572,1.888,5.572,5.503v6.377
					c0,0.423,0.227,0.621,0.619,0.621h1.444v2.119h-2.857c-1.271,0-1.78-0.623-1.78-1.554v-0.198c0-0.565,0.112-0.932,0.112-0.932
					h-0.057c0,0-1.242,3.02-4.72,3.02c-2.378,0-4.752-1.383-4.752-4.316C125.794,105.173,131.764,104.864,134.138,104.864
					L134.138,104.864z M131.139,111.86c2.433,0,3.933-2.483,3.933-4.627v-0.593h-0.706c-1.303,0-5.798,0.056-5.798,2.793
					C128.567,110.705,129.498,111.86,131.139,111.86L131.139,111.86z"/>
				<path id="Fill-19" fill="#3FADBE" d="M142.677,111.523h2.147v-9.428c0-0.424-0.224-0.617-0.62-0.617h-1.78v-2.117h3.222
					c1.246,0,1.838,0.506,1.838,1.664v0.902c0,0.566-0.056,0.988-0.056,0.988h0.056c0.65-2.088,2.318-3.725,4.522-3.725
					c0.367,0,0.707,0.055,0.707,0.055v2.709c0,0-0.34-0.084-0.791-0.084c-3.054,0-4.356,3.078-4.356,5.868v3.784h2.122v2.117h-7.011
					V111.523"/>
				<path id="Fill-20" fill="#3FADBE" d="M162.241,99.021c4.071,0,6.191,2.991,6.191,6.689c0,0.368-0.085,1.041-0.085,1.041h-10.461
					c0.171,3.161,2.403,4.856,4.949,4.856c2.486,0,4.268-1.605,4.268-1.605l1.13,2.005c0,0-2.147,1.974-5.572,1.974
					c-4.494,0-7.574-3.245-7.574-7.481C155.089,101.955,158.168,99.021,162.241,99.021L162.241,99.021z M165.603,105.001
					c-0.084-2.511-1.609-3.806-3.421-3.806c-2.091,0-3.788,1.411-4.181,3.806H165.603L165.603,105.001z"/>
			</g>
		</g>
	</g>
</g>
</svg>
