<?xml version="1.0" encoding="UTF-8" standalone="no"?>
<svg width="275px" height="275px" viewBox="0 0 275 275" version="1.1" xmlns="http://www.w3.org/2000/svg" xmlns:xlink="http://www.w3.org/1999/xlink" xmlns:sketch="http://www.bohemiancoding.com/sketch/ns">
    <!-- Generator: Sketch 3.1.1 (8761) - http://www.bohemiancoding.com/sketch -->
    <title>Rectangle 80 + Logo 4</title>
    <desc>Created with Sketch.</desc>
    <defs>
        <radialGradient cx="50%" cy="50%" fx="50%" fy="50%" r="59.9973958%" id="radialGradient-1">
            <stop stop-color="#FFD687" stop-opacity="0.601449275" offset="0%"></stop>
            <stop stop-color="#CFA049" stop-opacity="0.68115942" offset="100%"></stop>
        </radialGradient>
        <rect id="path-2" x="0" y="0" width="275" height="275"></rect>
    </defs>
    <g id="Page-1" stroke="none" stroke-width="1" fill="none" fill-rule="evenodd" sketch:type="MSPage">
        <g id="Desktop-Portfolio_Detail_Pickers" sketch:type="MSArtboardGroup" transform="translate(-81.000000, -1139.000000)">
            <g id="Rectangle-80-+-Logo-4" sketch:type="MSLayerGroup" transform="translate(81.000000, 1139.000000)">
                <g id="Rectangle-80">
                    <use fill="#DCAD55" sketch:type="MSShapeGroup" xlink:href="#path-2"></use>
                    <use fill="url(#radialGradient-1)" xlink:href="#path-2"></use>
                </g>
                <g id="Logo-4" transform="translate(46.000000, 97.000000)" sketch:type="MSShapeGroup">
                    <path d="M-0.123223557,51.0819165 C-0.123223557,50.5023119 0.367953592,50.0113527 0.947815505,50.0113527 L9.77877134,50.0113527 C14.6854264,50.0113527 18.6540695,54.0225574 18.6540695,58.9270351 C18.6540695,63.8315128 14.6854264,67.8000995 9.77877134,67.8000995 L2.06149147,67.8887449 L2.06149147,80.1507915 C2.06149147,80.7286913 1.5720198,81.2196505 0.947815505,81.2196505 C0.367953592,81.2196505 -0.123223557,80.7286913 -0.123223557,80.1507915 L-0.123223557,51.0819165 L-0.123223557,51.0819165 Z M9.77877134,65.7049994 C13.4796547,65.6606767 16.5154024,62.6279809 16.5154024,58.9270351 C16.5154024,55.227794 13.4796547,52.1950982 9.77877134,52.1950982 L2.06149147,52.1950982 L2.06149147,65.7049994 L9.77877134,65.7049994 L9.77877134,65.7049994 Z" id="Fill-1" fill="#2E2E2E"></path>
                    <path d="M-0.123223557,51.0819165 C-0.123223557,50.5023119 0.367953592,50.0113527 0.947815505,50.0113527 L9.77877134,50.0113527 C14.6854264,50.0113527 18.6540695,54.0225574 18.6540695,58.9270351 C18.6540695,63.8315128 14.6854264,67.8000995 9.77877134,67.8000995 L2.06149147,67.8887449 L2.06149147,80.1507915 C2.06149147,80.7286913 1.5720198,81.2196505 0.947815505,81.2196505 C0.367953592,81.2196505 -0.123223557,80.7286913 -0.123223557,80.1507915 L-0.123223557,51.0819165 L-0.123223557,51.0819165 Z M9.77877134,65.7049994 C13.4796547,65.6606767 16.5154024,62.6279809 16.5154024,58.9270351 C16.5154024,55.227794 13.4796547,52.1950982 9.77877134,52.1950982 L2.06149147,52.1950982 L2.06149147,65.7049994 L9.77877134,65.7049994 L9.77877134,65.7049994 Z" id="Stroke-2" stroke="#2E2E2E" stroke-width="0.5"></path>
                    <path d="M26.183747,51.0819165 C26.183747,50.5023119 26.6783351,50.0113527 27.2564916,50.0113527 C27.8806959,50.0113527 28.371873,50.5023119 28.371873,51.0819165 L28.371873,80.1507915 C28.371873,80.7286913 27.8806959,81.2196505 27.2564916,81.2196505 C26.6783351,81.2196505 26.183747,80.7286913 26.183747,80.1507915 L26.183747,51.0819165 L26.183747,51.0819165 Z" id="Fill-3" fill="#2E2E2E"></path>
                    <path d="M26.183747,51.0819165 C26.183747,50.5023119 26.6783351,50.0113527 27.2564916,50.0113527 C27.8806959,50.0113527 28.371873,50.5023119 28.371873,51.0819165 L28.371873,80.1507915 C28.371873,80.7286913 27.8806959,81.2196505 27.2564916,81.2196505 C26.6783351,81.2196505 26.183747,80.7286913 26.183747,80.1507915 L26.183747,51.0819165 L26.183747,51.0819165 Z" id="Stroke-4" stroke="#2E2E2E" stroke-width="0.5"></path>
                    <path d="M54.32581,49.5647162 C58.161426,49.5647162 61.6866454,50.9029209 64.4068799,52.998021 C64.8980571,53.4003348 64.9850364,54.1589349 64.5859549,54.559544 C64.2295104,55.0931212 63.5149159,55.1391486 63.0680811,54.7828622 C60.6599487,52.9093756 57.627612,51.7501665 54.32581,51.7501665 C46.5198454,51.7501665 40.276097,57.858176 40.276097,65.4816811 C40.276097,72.9278954 46.5198454,79.035905 54.32581,79.035905 C57.627612,79.035905 60.6599487,77.9653412 62.9811018,76.0049139 C63.5149159,75.6469228 64.2295104,75.737273 64.5416125,76.2708501 C64.9850364,76.6731639 64.8980571,77.474382 64.4068799,77.8323731 C61.6866454,79.9274732 58.161426,81.2196505 54.32581,81.2196505 C45.361827,81.2196505 38.0896765,74.1774547 38.0896765,65.4816811 C38.0896765,56.6103214 45.361827,49.6107436 54.32581,49.5647162 L54.32581,49.5647162 Z" id="Fill-5" fill="#2E2E2E"></path>
                    <path d="M54.32581,49.5647162 C58.161426,49.5647162 61.6866454,50.9029209 64.4068799,52.998021 C64.8980571,53.4003348 64.9850364,54.1589349 64.5859549,54.559544 C64.2295104,55.0931212 63.5149159,55.1391486 63.0680811,54.7828622 C60.6599487,52.9093756 57.627612,51.7501665 54.32581,51.7501665 C46.5198454,51.7501665 40.276097,57.858176 40.276097,65.4816811 C40.276097,72.9278954 46.5198454,79.035905 54.32581,79.035905 C57.627612,79.035905 60.6599487,77.9653412 62.9811018,76.0049139 C63.5149159,75.6469228 64.2295104,75.737273 64.5416125,76.2708501 C64.9850364,76.6731639 64.8980571,77.474382 64.4068799,77.8323731 C61.6866454,79.9274732 58.161426,81.2196505 54.32581,81.2196505 C45.361827,81.2196505 38.0896765,74.1774547 38.0896765,65.4816811 C38.0896765,56.6103214 45.361827,49.6107436 54.32581,49.5647162 L54.32581,49.5647162 Z" id="Stroke-6" stroke="#2E2E2E" stroke-width="0.5"></path>
                    <path d="M67.7479078,53.2895281 C67.3982852,52.7712934 67.5330178,52.0928151 68.0139621,51.7689184 C68.5341323,51.4194509 69.2129119,51.552419 69.560829,52.0706537 L79.6470154,67.0517277 L84.7668549,40.8757615 C84.9135259,40.2944522 85.5053261,39.8955478 86.0254964,40.0285159 C86.6190021,40.1137519 87.0180835,40.7069943 86.8969947,41.3241027 L83.653179,57.9093176 L102.45776,63.9627761 C103.027389,64.1690472 103.30197,64.7384235 103.180882,65.3572366 C103.093902,65.628287 102.935293,65.7902353 102.711876,65.9402506 C102.454349,66.1124273 102.183178,66.1874349 101.823323,66.0544668 L83.2285154,60.0743112 L81.3644299,69.6053973 L85.7219216,76.0765121 C86.0459621,76.557243 85.912935,77.2391307 85.3927647,77.5885982 C84.9135259,77.9107902 84.2330409,77.7761173 83.9090004,77.2970912 L67.7479078,53.2895281 L67.7479078,53.2895281 Z" id="Fill-7" fill="#2E2E2E"></path>
                    <path d="M67.7479078,53.2895281 C67.3982852,52.7712934 67.5330178,52.0928151 68.0139621,51.7689184 C68.5341323,51.4194509 69.2129119,51.552419 69.560829,52.0706537 L79.6470154,67.0517277 L84.7668549,40.8757615 C84.9135259,40.2944522 85.5053261,39.8955478 86.0254964,40.0285159 C86.6190021,40.1137519 87.0180835,40.7069943 86.8969947,41.3241027 L83.653179,57.9093176 L102.45776,63.9627761 C103.027389,64.1690472 103.30197,64.7384235 103.180882,65.3572366 C103.093902,65.628287 102.935293,65.7902353 102.711876,65.9402506 C102.454349,66.1124273 102.183178,66.1874349 101.823323,66.0544668 L83.2285154,60.0743112 L81.3644299,69.6053973 L85.7219216,76.0765121 C86.0459621,76.557243 85.912935,77.2391307 85.3927647,77.5885982 C84.9135259,77.9107902 84.2330409,77.7761173 83.9090004,77.2970912 L67.7479078,53.2895281 L67.7479078,53.2895281 Z" id="Stroke-8" stroke="#2E2E2E" stroke-width="0.5"></path>
                    <path d="M106.871532,51.0819165 C106.871532,50.5023119 107.362709,50.0113527 107.942571,50.0113527 L123.99963,50.0113527 C124.623834,50.0113527 125.070669,50.5023119 125.070669,51.0819165 C125.070669,51.7058437 124.623834,52.1950982 123.99963,52.1950982 L109.056247,52.1950982 L109.056247,64.5457902 L122.125311,64.5457902 C122.705173,64.5457902 123.194645,65.0350446 123.194645,65.6606767 C123.194645,66.2385765 122.705173,66.7295357 122.125311,66.7295357 L109.056247,66.7295357 L109.056247,79.035905 L123.99963,79.035905 C124.623834,79.035905 125.070669,79.5251594 125.070669,80.1507915 C125.070669,80.7286913 124.623834,81.2196505 123.99963,81.2196505 L107.852181,81.2196505 C107.316661,81.1753278 106.871532,80.7286913 106.871532,80.1507915 L106.871532,51.0819165 L106.871532,51.0819165 Z" id="Fill-9" fill="#2E2E2E"></path>
                    <path d="M106.871532,51.0819165 C106.871532,50.5023119 107.362709,50.0113527 107.942571,50.0113527 L123.99963,50.0113527 C124.623834,50.0113527 125.070669,50.5023119 125.070669,51.0819165 C125.070669,51.7058437 124.623834,52.1950982 123.99963,52.1950982 L109.056247,52.1950982 L109.056247,64.5457902 L122.125311,64.5457902 C122.705173,64.5457902 123.194645,65.0350446 123.194645,65.6606767 C123.194645,66.2385765 122.705173,66.7295357 122.125311,66.7295357 L109.056247,66.7295357 L109.056247,79.035905 L123.99963,79.035905 C124.623834,79.035905 125.070669,79.5251594 125.070669,80.1507915 C125.070669,80.7286913 124.623834,81.2196505 123.99963,81.2196505 L107.852181,81.2196505 C107.316661,81.1753278 106.871532,80.7286913 106.871532,80.1507915 L106.871532,51.0819165 L106.871532,51.0819165 Z" id="Stroke-10" stroke="#2E2E2E" stroke-width="0.5"></path>
                    <path d="M149.726738,74.1774547 C149.726738,71.9033591 148.567015,70.4765089 147.185579,69.4502679 C145.802438,68.4700542 144.149831,67.979095 143.571675,67.8887449 C143.436942,67.8461269 143.3926,67.8000995 143.348257,67.8000995 L135.76571,67.8000995 L135.76571,80.1507915 C135.76571,80.7286913 135.274533,81.2196505 134.650329,81.2196505 C134.070467,81.2196505 133.580995,80.7286913 133.580995,80.1507915 L133.580995,51.0819165 C133.580995,50.5466346 134.026124,50.0556754 134.559938,50.0113527 L143.48299,50.0113527 C148.38794,50.0113527 152.358288,53.9799394 152.358288,58.9270351 C152.358288,62.4950128 150.262258,65.5720312 147.228216,66.9988814 C147.361243,67.0858221 147.495976,67.1318495 147.675051,67.2221996 C149.726738,68.3797041 151.868817,70.6537997 151.868817,74.1774547 C151.868817,76.0049139 152.046186,77.1180957 152.267898,77.7880504 C152.448678,78.3216276 152.67039,78.5006231 152.714733,78.5449458 C153.20591,78.5006231 153.739724,78.768264 153.920504,79.2592232 C154.053532,79.8388278 153.785772,80.4627551 153.20591,80.6860733 C153.161568,80.6860733 152.93815,80.7286913 152.67039,80.7286913 L152.581706,80.7286913 C152.001844,80.7286913 151.065537,80.2854643 150.57436,79.3018412 C150.038841,78.2773048 149.726738,76.8078367 149.726738,74.1774547 L149.726738,74.1774547 Z M143.48299,52.1950982 L135.76571,52.1950982 L135.76571,65.6606767 L143.66036,65.6606767 C147.272558,65.5720312 150.21621,62.5836582 150.21621,58.9270351 C150.21621,55.1834713 147.185579,52.1950982 143.48299,52.1950982 L143.48299,52.1950982 Z" id="Fill-11" fill="#2E2E2E"></path>
                    <path d="M149.726738,74.1774547 C149.726738,71.9033591 148.567015,70.4765089 147.185579,69.4502679 C145.802438,68.4700542 144.149831,67.979095 143.571675,67.8887449 C143.436942,67.8461269 143.3926,67.8000995 143.348257,67.8000995 L135.76571,67.8000995 L135.76571,80.1507915 C135.76571,80.7286913 135.274533,81.2196505 134.650329,81.2196505 C134.070467,81.2196505 133.580995,80.7286913 133.580995,80.1507915 L133.580995,51.0819165 C133.580995,50.5466346 134.026124,50.0556754 134.559938,50.0113527 L143.48299,50.0113527 C148.38794,50.0113527 152.358288,53.9799394 152.358288,58.9270351 C152.358288,62.4950128 150.262258,65.5720312 147.228216,66.9988814 C147.361243,67.0858221 147.495976,67.1318495 147.675051,67.2221996 C149.726738,68.3797041 151.868817,70.6537997 151.868817,74.1774547 C151.868817,76.0049139 152.046186,77.1180957 152.267898,77.7880504 C152.448678,78.3216276 152.67039,78.5006231 152.714733,78.5449458 C153.20591,78.5006231 153.739724,78.768264 153.920504,79.2592232 C154.053532,79.8388278 153.785772,80.4627551 153.20591,80.6860733 C153.161568,80.6860733 152.93815,80.7286913 152.67039,80.7286913 L152.581706,80.7286913 C152.001844,80.7286913 151.065537,80.2854643 150.57436,79.3018412 C150.038841,78.2773048 149.726738,76.8078367 149.726738,74.1774547 L149.726738,74.1774547 Z M143.48299,52.1950982 L135.76571,52.1950982 L135.76571,65.6606767 L143.66036,65.6606767 C147.272558,65.5720312 150.21621,62.5836582 150.21621,58.9270351 C150.21621,55.1834713 147.185579,52.1950982 143.48299,52.1950982 L143.48299,52.1950982 Z" id="Stroke-12" stroke="#2E2E2E" stroke-width="0.5"></path>
                    <path d="M160.646903,75.3809866 C161.003347,74.9343501 161.627551,74.8900274 162.030044,75.2463138 C164.349491,77.1180957 168.231155,79.3018412 172.286778,79.2592232 C175.008718,79.2592232 177.464604,78.4563004 179.158141,77.2084458 C180.897727,75.9605912 181.834034,74.3104228 181.834034,72.5699043 C181.834034,70.7867679 180.986412,69.4502679 179.292874,68.2910587 C177.597631,67.1761722 175.099108,66.3289267 172.066771,65.7493221 L171.976381,65.7493221 C169.077072,65.2157449 166.534207,64.4111173 164.615546,63.1189401 C162.696885,61.8710855 161.40584,59.9975989 161.40584,57.6791805 C161.40584,55.3164394 162.696885,53.265662 164.661594,51.8388119 C166.624597,50.4119617 169.256147,49.5647162 172.199798,49.5647162 C176.303174,49.5647162 179.381559,51.5711709 181.834034,53.1770166 C182.280868,53.4889802 182.413896,54.0685848 182.100088,54.559544 C181.834034,55.0061805 181.209829,55.1391486 180.762995,54.8254802 C178.31052,53.2213393 175.632922,51.5285529 172.199798,51.5285529 C169.655228,51.5285529 167.380123,52.2854483 165.821317,53.4003348 C164.259101,54.559544 163.367137,56.0750395 163.367137,57.6791805 C163.41148,59.2407034 164.126074,60.3999126 165.686585,61.4704764 C167.247096,62.5393355 169.568249,63.2979356 172.377168,63.8315128 L172.467558,63.8315128 C175.58858,64.4111173 178.354862,65.3043903 180.40655,66.685213 C182.458238,68.0234177 183.841379,70.0741952 183.841379,72.5699043 C183.841379,75.0673182 182.413896,77.2970912 180.317865,78.8125867 C178.22013,80.3280823 175.41121,81.2656779 172.286778,81.2656779 C167.516561,81.2196505 163.367137,78.8125867 160.77993,76.7618093 C160.379143,76.405523 160.336506,75.7815957 160.646903,75.3809866 L160.646903,75.3809866 Z" id="Fill-13" fill="#2E2E2E"></path>
                    <path d="M160.646903,75.3809866 C161.003347,74.9343501 161.627551,74.8900274 162.030044,75.2463138 C164.349491,77.1180957 168.231155,79.3018412 172.286778,79.2592232 C175.008718,79.2592232 177.464604,78.4563004 179.158141,77.2084458 C180.897727,75.9605912 181.834034,74.3104228 181.834034,72.5699043 C181.834034,70.7867679 180.986412,69.4502679 179.292874,68.2910587 C177.597631,67.1761722 175.099108,66.3289267 172.066771,65.7493221 L171.976381,65.7493221 C169.077072,65.2157449 166.534207,64.4111173 164.615546,63.1189401 C162.696885,61.8710855 161.40584,59.9975989 161.40584,57.6791805 C161.40584,55.3164394 162.696885,53.265662 164.661594,51.8388119 C166.624597,50.4119617 169.256147,49.5647162 172.199798,49.5647162 C176.303174,49.5647162 179.381559,51.5711709 181.834034,53.1770166 C182.280868,53.4889802 182.413896,54.0685848 182.100088,54.559544 C181.834034,55.0061805 181.209829,55.1391486 180.762995,54.8254802 C178.31052,53.2213393 175.632922,51.5285529 172.199798,51.5285529 C169.655228,51.5285529 167.380123,52.2854483 165.821317,53.4003348 C164.259101,54.559544 163.367137,56.0750395 163.367137,57.6791805 C163.41148,59.2407034 164.126074,60.3999126 165.686585,61.4704764 C167.247096,62.5393355 169.568249,63.2979356 172.377168,63.8315128 L172.467558,63.8315128 C175.58858,64.4111173 178.354862,65.3043903 180.40655,66.685213 C182.458238,68.0234177 183.841379,70.0741952 183.841379,72.5699043 C183.841379,75.0673182 182.413896,77.2970912 180.317865,78.8125867 C178.22013,80.3280823 175.41121,81.2656779 172.286778,81.2656779 C167.516561,81.2196505 163.367137,78.8125867 160.77993,76.7618093 C160.379143,76.405523 160.336506,75.7815957 160.646903,75.3809866 L160.646903,75.3809866 Z" id="Stroke-14" stroke="#2E2E2E" stroke-width="0.5"></path>
                    <path d="M124.611896,18.2524305 C124.82508,15.5879541 124.255451,12.4154713 121.840497,9.62143622 C117.789991,4.93516263 109.475794,3.82368559 105.319549,3.50660778 C101.154776,3.18952997 66.7740809,-0.178995536 66.7740809,-0.178995536 C66.7740809,-0.178995536 63.0578482,1.96554145 67.1356419,4.3879477 L84.9493409,6.5597602 L51.7420136,12.6029904 C51.7420136,12.6029904 49.3952783,15.9715159 57.5662148,17.0454892 L83.5747271,14.2037219 L51.3054116,29.2171856 C51.3054116,29.2171856 51.1143983,34.0313131 57.5662148,32.5294554 L79.169482,25.1429062 C79.169482,25.1429062 77.8903749,38.4959732 79.4116596,46.0257187 C79.4116596,46.0257187 81.0369785,48.405507 83.3240221,43.7891269 C86.09201,38.1959426 87.3404186,27.4084783 95.2470063,26.8067124 C97.4845911,26.6345357 100.073504,27.6079305 101.932473,28.8165765 C104.352544,30.9355427 104.997214,34.7302481 102.447527,37.0043437 C98.4430687,40.5740261 92.3340529,41.7161881 87.2176243,42.5804809 C85.2205116,42.91972 84.1085411,47.542919 89.5438938,47.9776224 C89.5438938,47.9776224 122.737577,41.6820937 124.611896,18.2524305" id="Fill-15" fill="#2E2E2E"></path>
                </g>
            </g>
        </g>
    </g>
</svg>