<?xml version="1.0" encoding="UTF-8" standalone="no"?>
<svg width="268px" height="60px" viewBox="0 0 268 60" version="1.1" xmlns="http://www.w3.org/2000/svg" xmlns:xlink="http://www.w3.org/1999/xlink" xmlns:sketch="http://www.bohemiancoding.com/sketch/ns">
    <!-- Generator: Sketch 3.3.3 (12072) - http://www.bohemiancoding.com/sketch -->
    <title>Artboard 9</title>
    <desc>Created with Sketch.</desc>
    <defs></defs>
    <g id="Page-1" stroke="none" stroke-width="1" fill="none" fill-rule="evenodd" sketch:type="MSPage">
        <g id="Artboard-9" sketch:type="MSArtboardGroup" fill="#F6F4F4">
            <g id="teambay" sketch:type="MSLayerGroup" transform="translate(31.000000, 10.000000)">
                <path d="M54.7310345,12.9775862 L51.0341379,12.9775862 L51.0341379,11.0293103 L54.7310345,11.0293103 L54.822069,6.07482759 L57.7368966,5.21931034 L57.7368966,11.0293103 L63.6362069,11.0293103 L63.6362069,12.9775862 L57.7368966,12.9775862 L57.7368966,24.142069 C57.7368966,24.5555172 57.7482759,24.9772414 57.7731034,25.4072414 C57.7972414,25.8393103 57.8789655,26.2341379 58.0189655,26.592069 C58.157931,26.95 58.3737931,27.2413793 58.6655172,27.4662069 C58.9562069,27.6910345 59.3689655,27.8031034 59.9034483,27.8031034 C60.2927586,27.8031034 60.6989655,27.7510345 61.1241379,27.6482759 C61.5489655,27.5451724 62.0165517,27.4024138 62.5262069,27.2196552 L62.5082759,29.46 C62.0827586,29.7031034 61.6213793,29.8755172 61.1241379,29.9793103 C60.6265517,30.0824138 60.0613793,30.1341379 59.4306897,30.1341379 C58.4103448,30.1341379 57.5941379,29.9610345 56.9806897,29.6151724 C56.3675862,29.2689655 55.8937931,28.8048276 55.56,28.2217241 C55.2255172,27.6386207 55.0044828,26.9593103 54.8955172,26.182069 C54.7865517,25.4051724 54.7310345,24.5855172 54.7310345,23.7234483 L54.7310345,12.9775862" id="Fill-1" sketch:type="MSShapeGroup"></path>
                <path d="M79.7917241,18.6237931 L79.7734483,18.3682759 C79.7127586,17.5796552 79.5582759,16.8565517 79.3103448,16.2017241 C79.0606897,15.5455172 78.7186207,14.9810345 78.2824138,14.5082759 C77.8462069,14.0337931 77.3151724,13.6668966 76.6910345,13.4055172 C76.0662069,13.1451724 75.3606897,13.0137931 74.5731034,13.0137931 C73.7244828,13.0137931 72.9610345,13.1634483 72.2827586,13.4603448 C71.6031034,13.757931 71.0172414,14.1617241 70.5275862,14.6713793 C70.0365517,15.1817241 69.6393103,15.7768966 69.3368966,16.4558621 C69.0334483,17.1368966 68.827931,17.8586207 68.7186207,18.6237931 L79.7917241,18.6237931 L79.7917241,18.6237931 Z M82.2141379,27.6210345 C81.2055172,28.4951724 80.0886207,29.1327586 78.8624138,29.5334483 C77.6365517,29.9341379 76.2458621,30.1341379 74.692069,30.1341379 C73.2224138,30.1341379 71.9113793,29.8944828 70.7582759,29.4148276 C69.6051724,28.9351724 68.63,28.2675862 67.8348276,27.4113793 C67.0403448,26.5551724 66.4327586,25.5327586 66.0141379,24.342069 C65.5955172,23.1527586 65.3855172,21.8472414 65.3855172,20.4272414 C65.3855172,19.0786207 65.5917241,17.8103448 66.0044828,16.6203448 C66.4172414,15.4306897 67.017931,14.3865517 67.8075862,13.4882759 C68.5968966,12.5889655 69.5593103,11.8789655 70.6944828,11.3568966 C71.8296552,10.8348276 73.1262069,10.5737931 74.5831034,10.5737931 C76.0155172,10.5737931 77.2593103,10.8082759 78.3162069,11.2751724 C79.3727586,11.7427586 80.2403448,12.3862069 80.9213793,13.2055172 C81.6003448,14.0248276 82.1075862,14.9996552 82.442069,16.1289655 C82.7758621,17.2572414 82.9427586,18.4848276 82.9427586,19.8075862 C82.9427586,19.9413793 82.9389655,20.0958621 82.9334483,20.2717241 C82.9268966,20.4482759 82.917931,20.6089655 82.9058621,20.7548276 L68.5910345,20.7548276 L68.6451724,21.5741379 C68.7182759,22.4851724 68.9031034,23.3165517 69.2003448,24.0693103 C69.4972414,24.8224138 69.9062069,25.4717241 70.427931,26.0182759 C70.9493103,26.5641379 71.5831034,26.9858621 72.3282759,27.2834483 C73.0737931,27.5813793 73.9255172,27.7296552 74.8831034,27.7296552 C76.1686207,27.7296552 77.3448276,27.5051724 78.4113793,27.0558621 C79.4782759,26.6068966 80.4362069,25.9634483 81.2851724,25.1255172 L82.2141379,27.6210345 L82.2141379,27.6210345 Z" id="Fill-2" sketch:type="MSShapeGroup"></path>
                <path d="M95.6,27.7296552 C96.4496552,27.7296552 97.247931,27.5572414 97.9944828,27.2113793 C98.7417241,26.8648276 99.3965517,26.3551724 99.9617241,25.6810345 C100.526207,25.0072414 100.975172,24.17 101.30931,23.167931 C101.643793,22.1665517 101.816897,21.0096552 101.828276,19.6982759 C101.828276,18.7148276 101.68,17.8158621 101.382414,17.0031034 C101.084483,16.1889655 100.663103,15.4855172 100.116552,14.89 C99.5706897,14.2955172 98.9055172,13.8337931 98.1217241,13.5062069 C97.3396552,13.1782759 96.4617241,13.0137931 95.49,13.0137931 C94.75,13.0137931 94.0824138,13.1137931 93.4872414,13.3151724 C92.8917241,13.5151724 92.3641379,13.7910345 91.9031034,14.1437931 C91.4410345,14.4955172 91.0403448,14.9089655 90.7010345,15.3817241 C90.3606897,15.8551724 90.0817241,16.3627586 89.8631034,16.9024138 C89.6444828,17.4427586 89.4827586,18.0044828 89.3803448,18.5872414 C89.2768966,19.1696552 89.2255172,19.7468966 89.2255172,20.3175862 C89.2255172,20.8758621 89.2648276,21.4496552 89.3437931,22.0386207 C89.4231034,22.6275862 89.5534483,23.1951724 89.7351724,23.7413793 C89.917931,24.287931 90.1665517,24.8044828 90.4831034,25.29 C90.7975862,25.7748276 91.1893103,26.1972414 91.6565517,26.5551724 C92.1241379,26.9137931 92.6827586,27.1993103 93.3327586,27.4113793 C93.9817241,27.6241379 94.7372414,27.7296552 95.6,27.7296552 L95.6,27.7296552 Z M95.2537931,10.5737931 C96.0189655,10.5737931 96.7165517,10.6437931 97.3486207,10.7834483 C97.9793103,10.9231034 98.562069,11.1203448 99.0965517,11.3751724 C99.6306897,11.63 100.123103,11.9458621 100.572069,12.3224138 C101.02069,12.6989655 101.44,13.1234483 101.828276,13.5972414 L101.937931,11.0293103 L104.906897,11.0293103 L104.833448,15.6365517 L104.833448,29.7151724 L101.828276,29.7151724 L101.864483,27.0927586 C101.573793,27.4813793 101.206552,27.8610345 100.763448,28.2306897 C100.32,28.6013793 99.8189655,28.9262069 99.2610345,29.2055172 C98.7024138,29.4844828 98.0855172,29.7093103 97.4117241,29.8793103 C96.7382759,30.0489655 96.0306897,30.1341379 95.2903448,30.1341379 C94.2451724,30.1341379 93.2989655,29.9972414 92.4489655,29.7244828 C91.5989655,29.4506897 90.8403448,29.0748276 90.1727586,28.5951724 C89.5044828,28.1155172 88.9248276,27.5548276 88.4334483,26.9106897 C87.9417241,26.2672414 87.5372414,25.5748276 87.2224138,24.8337931 C86.9065517,24.0941379 86.6693103,23.3258621 86.5113793,22.5303448 C86.3541379,21.7351724 86.2751724,20.9489655 86.2751724,20.1717241 C86.2751724,18.9696552 86.4596552,17.7917241 86.8306897,16.6386207 C87.2010345,15.4855172 87.7596552,14.4593103 88.5055172,13.5603448 C89.2527586,12.662069 90.187931,11.9396552 91.3110345,11.3931034 C92.4337931,10.8472414 93.7486207,10.5737931 95.2537931,10.5737931 L95.2537931,10.5737931 Z" id="Fill-3" sketch:type="MSShapeGroup"></path>
                <path d="M113.320345,11.0293103 L113.393793,13.5424138 C114.121724,12.522069 114.986897,11.7727586 115.988966,11.2931034 C116.990345,10.8134483 118.134483,10.5737931 119.421724,10.5737931 C120.126207,10.5737931 120.791379,10.6617241 121.416207,10.8375862 C122.041034,11.0141379 122.611379,11.2593103 123.127931,11.5758621 C123.643793,11.8913793 124.096207,12.2772414 124.484828,12.732069 C124.873448,13.1872414 125.183103,13.6941379 125.413793,14.2527586 C126.117586,12.9775862 127.022414,12.0458621 128.127586,11.4572414 C129.231724,10.8682759 130.585862,10.5737931 132.188276,10.5737931 C133.512069,10.5737931 134.604483,10.7893103 135.467241,11.2203448 C136.328621,11.6517241 137.012069,12.2193103 137.515862,12.9227586 C138.01931,13.6272414 138.371724,14.432069 138.572414,15.3358621 C138.772414,16.2410345 138.872414,17.1734483 138.872414,18.132069 L138.872414,29.7151724 L135.867931,29.7151724 L135.867931,19.5527586 C135.867931,18.7758621 135.822069,17.9989655 135.731034,17.2217241 C135.64,16.4444828 135.43931,15.7431034 135.129655,15.117931 C134.82,14.4924138 134.362069,13.9858621 133.754828,13.5972414 C133.147586,13.2086207 132.328276,13.0137931 131.296207,13.0137931 C130.483103,13.0137931 129.757241,13.1813793 129.120345,13.5151724 C128.482414,13.8489655 127.942414,14.2955172 127.498966,14.8534483 C127.055517,15.4124138 126.718966,16.0531034 126.487931,16.7751724 C126.257241,17.4975862 126.141724,18.247931 126.141724,19.0244828 L126.141724,29.7151724 L123.136897,29.7151724 L123.136897,18.1496552 C123.136897,17.4465517 123.052069,16.7813793 122.882069,16.1558621 C122.712069,15.5306897 122.441724,14.9872414 122.071034,14.5262069 C121.701034,14.0644828 121.224483,13.697931 120.642069,13.4234483 C120.058621,13.1506897 119.355172,13.0137931 118.529655,13.0137931 C117.703448,13.0137931 116.972069,13.1755172 116.334828,13.4972414 C115.697241,13.8189655 115.159655,14.2527586 114.723103,14.7993103 C114.286207,15.3455172 113.954828,15.9831034 113.73,16.7113793 C113.504828,17.44 113.393793,18.2110345 113.393793,19.0244828 L113.393793,29.7151724 L110.388621,29.7151724 L110.388621,15.8551724 C110.388621,15.0541379 110.378966,14.2406897 110.36069,13.4151724 C110.342759,12.5889655 110.315172,11.7944828 110.278966,11.0293103 L113.320345,11.0293103" id="Fill-4" sketch:type="MSShapeGroup"></path>
                <path d="M159.58069,19.6982759 C159.58069,18.7758621 159.446897,17.9075862 159.17931,17.0941379 C158.913103,16.28 158.526897,15.5734483 158.023103,14.972069 C157.518966,14.3713793 156.90931,13.8948276 156.192759,13.5424138 C155.476207,13.1903448 154.668966,13.0137931 153.77069,13.0137931 C152.787241,13.0137931 151.921724,13.212069 151.175172,13.6062069 C150.428621,14.0006897 149.803103,14.5344828 149.299655,15.2089655 C148.795862,15.8831034 148.41931,16.6627586 148.170345,17.5496552 C147.921034,18.4351724 147.796897,19.3644828 147.796897,20.3362069 C147.796897,21.3917241 147.896897,22.3455172 148.096897,23.1951724 C148.298276,24.0451724 148.632069,24.7706897 149.099655,25.372069 C149.566552,25.9724138 150.176897,26.4365517 150.92931,26.7648276 C151.681724,27.0927586 152.611034,27.2565517 153.715862,27.2565517 C154.808966,27.2565517 155.731379,27.0406897 156.484483,26.61 C157.236897,26.1793103 157.841034,25.6110345 158.296207,24.9072414 C158.751724,24.2031034 159.07931,23.3986207 159.28,22.4937931 C159.48069,21.59 159.58069,20.6572414 159.58069,19.6982759 L159.58069,19.6982759 Z M147.724138,29.7151724 L144.663793,29.7151724 C144.676552,28.89 144.694483,28.1427586 144.71931,27.4751724 C144.731379,27.1834483 144.739655,26.8948276 144.746207,26.61 C144.752414,26.3251724 144.757931,26.0606897 144.765172,25.8175862 C144.770345,25.5748276 144.775862,25.362069 144.782414,25.1803448 C144.788966,24.9982759 144.791379,24.8706897 144.791379,24.7975862 L144.791379,2.54172414 L147.796897,2.54172414 L147.796897,13.67 C148.562069,12.6131034 149.523793,11.8334483 150.683448,11.3293103 C151.842759,10.8255172 153.102414,10.5737931 154.461724,10.5737931 C155.907241,10.5737931 157.145172,10.8348276 158.177931,11.3568966 C159.21,11.8789655 160.054138,12.5772414 160.708966,13.4513793 C161.365172,14.3255172 161.847931,15.3424138 162.157586,16.5017241 C162.467241,17.6617241 162.621379,18.8786207 162.621379,20.1537931 C162.621379,21.5134483 162.442414,22.7972414 162.084483,24.0055172 C161.726897,25.2141379 161.192414,26.2731034 160.482069,27.1834483 C159.771724,28.0944828 158.881724,28.8141379 157.813448,29.3417241 C156.745172,29.8696552 155.506552,30.1341379 154.098276,30.1341379 C152.774828,30.1341379 151.585517,29.8882759 150.528621,29.3965517 C149.472414,28.9048276 148.562069,28.1796552 147.796897,27.2196552 L147.724138,29.7151724 L147.724138,29.7151724 Z" id="Fill-5" sketch:type="MSShapeGroup"></path>
                <path d="M174.951724,27.7296552 C175.801379,27.7296552 176.600345,27.5572414 177.346207,27.2113793 C178.093103,26.8648276 178.748621,26.3551724 179.313793,25.6810345 C179.877931,25.0072414 180.327241,24.17 180.661034,23.167931 C180.994828,22.1665517 181.168276,21.0096552 181.179655,19.6982759 C181.179655,18.7148276 181.031724,17.8158621 180.734138,17.0031034 C180.436207,16.1889655 180.014138,15.4855172 179.467931,14.89 C178.922414,14.2955172 178.256897,13.8337931 177.473793,13.5062069 C176.691034,13.1782759 175.813448,13.0137931 174.842069,13.0137931 C174.101034,13.0137931 173.433448,13.1137931 172.838621,13.3151724 C172.243448,13.5151724 171.716207,13.7910345 171.254828,14.1437931 C170.792759,14.4955172 170.392069,14.9089655 170.052759,15.3817241 C169.712414,15.8551724 169.432759,16.3627586 169.214828,16.9024138 C168.995862,17.4427586 168.835172,18.0044828 168.732069,18.5872414 C168.628276,19.1696552 168.577241,19.7468966 168.577241,20.3175862 C168.577241,20.8758621 168.616552,21.4496552 168.695172,22.0386207 C168.774828,22.6275862 168.904828,23.1951724 169.086897,23.7413793 C169.268966,24.287931 169.518276,24.8044828 169.834138,25.29 C170.14931,25.7748276 170.54069,26.1972414 171.008276,26.5551724 C171.475862,26.9137931 172.034483,27.1993103 172.684483,27.4113793 C173.333448,27.6241379 174.088966,27.7296552 174.951724,27.7296552 L174.951724,27.7296552 Z M174.605862,10.5737931 C175.370345,10.5737931 176.068276,10.6437931 176.700345,10.7834483 C177.330345,10.9231034 177.913793,11.1203448 178.448621,11.3751724 C178.982414,11.63 179.474828,11.9458621 179.923448,12.3224138 C180.371724,12.6989655 180.791724,13.1234483 181.179655,13.5972414 L181.288966,11.0293103 L184.258621,11.0293103 L184.185862,15.6365517 L184.185862,29.7151724 L181.179655,29.7151724 L181.216552,27.0927586 C180.925517,27.4813793 180.557931,27.8610345 180.115172,28.2306897 C179.671724,28.6013793 179.170345,28.9262069 178.612414,29.2055172 C178.054138,29.4844828 177.437586,29.7093103 176.762759,29.8793103 C176.09,30.0489655 175.382414,30.1341379 174.642069,30.1341379 C173.597241,30.1341379 172.65069,29.9972414 171.80069,29.7244828 C170.95069,29.4506897 170.192069,29.0748276 169.524483,28.5951724 C168.856207,28.1155172 168.276552,27.5548276 167.784828,26.9106897 C167.293448,26.2672414 166.888966,25.5748276 166.573793,24.8337931 C166.258276,24.0941379 166.020345,23.3258621 165.863448,22.5303448 C165.705862,21.7351724 165.626897,20.9489655 165.626897,20.1717241 C165.626897,18.9696552 165.811724,17.7917241 166.181724,16.6386207 C166.552759,15.4855172 167.111379,14.4593103 167.857931,13.5603448 C168.604483,12.662069 169.53931,11.9396552 170.662414,11.3931034 C171.785517,10.8472414 173.100345,10.5737931 174.605862,10.5737931 L174.605862,10.5737931 Z" id="Fill-6" sketch:type="MSShapeGroup"></path>
                <path d="M186.971724,11.0293103 L190.267931,11.0293103 L196.314828,26.6010345 L202.525517,11.0293103 L205.712759,11.0293103 L197.443793,31.0265517 C197.116207,31.8275862 196.721379,32.5862069 196.26,33.3031034 C195.798276,34.0196552 195.27,34.66 194.675172,35.2244828 C194.08069,35.7893103 193.422069,36.2686207 192.698966,36.6634483 C191.977241,37.057931 191.184483,37.3341379 190.322759,37.4924138 L188.647241,35.4337931 C189.666552,35.1668966 190.51069,34.8382759 191.178276,34.4503448 C191.845862,34.0617241 192.393103,33.6489655 192.817931,33.2117241 C193.242414,32.7748276 193.573793,32.3231034 193.81,31.8555172 C194.047586,31.387931 194.244483,30.9355172 194.402414,30.4986207 L194.712069,29.6062069 L186.971724,11.0293103" id="Fill-7" sketch:type="MSShapeGroup"></path>
                <path d="M3.97931034,20.0172414 C3.97931034,10.6410345 11.6068966,3.01344828 20.9831034,3.01344828 C30.3589655,3.01344828 37.9865517,10.6410345 37.9865517,20.0172414 C37.9865517,23.7272414 36.7889655,27.1610345 34.7644828,29.9593103 C34.2389655,30.5593103 33.7303448,31.2206897 33.1875862,31.8389655 C32.6024138,32.4431034 31.9737931,33.0041379 31.3051724,33.5165517 C30.817931,33.8137931 30.2844828,34.0310345 29.6831034,34.1255172 C25.8182759,34.7324138 22.0313793,32.1758621 20.4141379,28.6137931 C20.1837931,28.1065517 19.5862069,28.0241379 19.7662069,28.78 C20.322069,31.1117241 21.7231034,33.0734483 23.5882759,34.2975862 C19.9762069,33.0444828 17.382069,29.6137931 17.382069,25.5748276 C17.382069,22.1755172 20.137931,19.4196552 23.5375862,19.4196552 C25.8037931,19.4196552 27.6410345,21.2568966 27.6410345,23.5231034 C27.6410345,25.0341379 26.4151724,26.2051724 24.9051724,26.2589655 C24.1293103,26.2865517 23.9724138,27.2489655 25.1313793,27.2172414 C27.5593103,27.1513793 29.5289655,25.2486207 29.5289655,22.82 C29.5289655,19.1768966 26.5755172,16.2237931 22.9327586,16.2237931 L22.8896552,16.2237931 C20.2789655,16.2351724 17.86,17.6313793 16.5075862,19.8648276 C15.4434483,21.6217241 14.8562069,23.6996552 14.9258621,25.9193103 C15.0806897,30.8648276 18.5482759,35.0237931 23.1724138,36.2313793 C18.152069,35.3510345 13.8903448,31.6448276 13.7389655,26.4906897 C13.6658621,24.0044828 14.4875862,21.7451724 15.737931,19.8203448 C16.1172414,19.2368966 15.7589655,18.7893103 15.3089655,19.2 C13.5848276,20.7734483 12.6593103,22.0572414 12.0806897,24.6893103 C11.3810345,27.8710345 11.7372414,30.2006897 8.77,31.8306897 C5.80758621,28.7689655 3.97931034,24.6037931 3.97931034,20.0172414 L3.97931034,20.0172414 Z M20.9831034,0.034137931 C9.9637931,0.034137931 1,8.99793103 1,20.0172414 C1,31.0362069 9.9637931,40 20.9831034,40 C32.002069,40 40.9658621,31.0362069 40.9658621,20.0172414 C40.9658621,8.99793103 32.002069,0.034137931 20.9831034,0.034137931 L20.9831034,0.034137931 Z" id="Fill-8" sketch:type="MSShapeGroup"></path>
            </g>
        </g>
    </g>
</svg>