<?xml version="1.0" encoding="UTF-8" standalone="no"?>
<svg width="363px" height="268px" viewBox="0 0 363 268" version="1.1" xmlns="http://www.w3.org/2000/svg" xmlns:xlink="http://www.w3.org/1999/xlink" xmlns:sketch="http://www.bohemiancoding.com/sketch/ns">
    <!-- Generator: Sketch 3.3.3 (12072) - http://www.bohemiancoding.com/sketch -->
    <title>teambay_thumb</title>
    <desc>Created with Sketch.</desc>
    <defs></defs>
    <g id="Page-1" stroke="none" stroke-width="1" fill="none" fill-rule="evenodd" sketch:type="MSPage">
        <g id="Desktop-Portfolio_Detail_Teambay" sketch:type="MSArtboardGroup" transform="translate(-136.000000, -1131.000000)">
            <g id="teambay_thumb" sketch:type="MSLayerGroup" transform="translate(136.000000, 1131.000000)">
                <rect id="Rectangle-242" fill="#E3EEF5" sketch:type="MSShapeGroup" x="0" y="0" width="363" height="268"></rect>
                <g id="Logo-teambay-Copy" transform="translate(54.000000, 109.000000)" sketch:type="MSShapeGroup">
                    <path d="M67.2286199,16.377188 L62.6267834,16.377188 L62.6267834,13.9498402 L67.2286199,13.9498402 L67.3419381,7.77816562 L70.9702679,6.7124693 L70.9702679,13.9498402 L78.3136331,13.9498402 L78.3136331,16.377188 L70.9702679,16.377188 L70.9702679,30.2840739 C70.9702679,30.7990961 70.9844327,31.3244272 71.0153377,31.8604969 C71.0453842,32.3987144 71.147113,32.8901116 71.3213828,33.3359773 C71.4943648,33.781843 71.7630663,34.1448069 72.1257706,34.424869 C72.4880455,34.704931 73.0018407,34.8445325 73.6671561,34.8445325 C74.1517633,34.8445325 74.657403,34.7801011 75.1866507,34.6516677 C75.7154691,34.5232343 76.2975128,34.3454035 76.9319232,34.1181752 L76.9091737,36.9084869 C76.3799261,37.2117443 75.8051794,37.4260863 75.1866507,37.5553788 C74.5672635,37.6838121 73.8637461,37.7482436 73.0786739,37.7482436 C71.8085653,37.7482436 70.7925643,37.532613 70.0289539,37.1022108 C69.2657728,36.6705201 68.6760028,36.0927847 68.2605026,35.3659978 C67.844144,34.6396405 67.5690038,33.7938702 67.4333653,32.8256802 C67.2977269,31.8574901 67.2286199,30.8368958 67.2286199,29.7626087 L67.2286199,16.377188" id="Fill-1" fill="#2A2C2C"></path>
                    <path d="M101.439138,34.6177338 C100.183624,35.707055 98.7933291,36.5008506 97.2669668,36.9999796 C95.7406045,37.4991086 94.009926,37.7482436 92.0757897,37.7482436 C90.2463869,37.7482436 88.6144326,37.4497112 87.1790683,36.8522168 C85.7437039,36.2547224 84.5298252,35.423127 83.5400076,34.3565716 C82.5506192,33.2900162 81.794735,32.0164211 81.2736428,30.5336384 C80.7521214,29.0517149 80.4911461,27.4254649 80.4911461,25.6566066 C80.4911461,23.9770933 80.747829,22.3968044 81.2616242,20.9148808 C81.7754194,19.4325278 82.5231481,18.1318714 83.506098,17.0129117 C84.4886186,15.893093 85.6866156,15.0082343 87.0996596,14.3583357 C88.5122745,13.7075779 90.1262009,13.3824138 91.9397219,13.3824138 C93.7231965,13.3824138 95.2714498,13.6745031 96.5870574,14.2561044 C97.9022357,14.8385648 98.9821929,15.6400921 99.8299335,16.6606864 C100.675099,17.6817103 101.306504,18.8955989 101.722863,20.3023524 C102.138363,21.7078173 102.346113,23.2369906 102.346113,24.8851473 C102.346113,25.05181 102.341392,25.2438157 102.334524,25.4628827 C102.326369,25.6828087 102.315208,25.8829758 102.300185,26.0651021 L84.4813216,26.0651021 L84.5487116,27.0856964 C84.6392803,28.2205491 84.8697799,29.2561774 85.2393519,30.1934403 C85.6093531,31.1315624 86.1184267,31.9408215 86.7678604,32.6212177 C87.4168649,33.3016139 88.2058002,33.826945 89.1333786,34.1976407 C90.0609571,34.5683364 91.1215986,34.7530399 92.313157,34.7530399 C93.9137772,34.7530399 95.3779003,34.4738369 96.7050972,33.9137127 C98.0335819,33.3544477 99.2259988,32.5533499 100.282777,31.5091307 L101.439138,34.6177338 L101.439138,34.6177338 Z M98.4233279,23.4100964 L98.4010077,23.091805 C98.3250329,22.1094401 98.1331646,21.2091178 97.8241148,20.392986 C97.5137774,19.5759951 97.0879755,18.8724036 96.5449923,18.2835001 C96.0020091,17.6928784 95.340986,17.2358446 94.5640693,16.9098214 C93.7862941,16.5855164 92.9080778,16.42229 91.9277033,16.42229 C90.8713542,16.42229 89.9210262,16.6082822 89.0762903,16.9781188 C88.2302666,17.3488144 87.5014243,17.8518093 86.8919095,18.486674 C86.2802486,19.1223977 85.7861983,19.863789 85.4097585,20.7099888 C85.0316018,21.5579068 84.7757773,22.4569404 84.6401388,23.4100964 L98.4233279,23.4100964 L98.4233279,23.4100964 Z" id="Fill-2" fill="#2A2C2C"></path>
                    <path d="M117.670259,13.3824138 C118.622733,13.3824138 119.491506,13.4696111 120.278295,13.643576 C121.063367,13.817541 121.788776,14.0632396 122.454091,14.3806719 C123.118977,14.6981042 123.731926,15.0915657 124.290791,15.5606267 C124.849227,16.0296877 125.371177,16.5584552 125.854497,17.1486473 L125.990994,13.9498402 L129.686714,13.9498402 L129.595286,19.688965 L129.595286,37.2267783 L125.854497,37.2267783 L125.899137,33.9596738 C125.537721,34.4437689 125.080156,34.9166958 124.529017,35.3771659 C123.97702,35.8389247 123.35334,36.2435543 122.658408,36.5914841 C121.963475,36.9389845 121.195572,37.2190465 120.356845,37.4308113 C119.518548,37.642576 118.637756,37.7482436 117.716187,37.7482436 C116.415174,37.7482436 115.237351,37.577715 114.179285,37.2379464 C113.120789,36.8973188 112.1769,36.4286873 111.345899,35.8316225 C110.51404,35.2341281 109.792495,34.5352615 109.180405,33.7328751 C108.568744,32.9313478 108.065251,32.0692549 107.672929,31.1457373 C107.280178,30.2243674 106.984435,29.2673455 106.788274,28.2768192 C106.592543,27.2858634 106.494248,26.3065053 106.494248,25.3383152 C106.494248,23.8409281 106.72346,22.3736091 107.185747,20.9372171 C107.646746,19.5008251 108.342108,18.222505 109.270545,17.1026862 C110.200698,15.9837266 111.364357,15.0838339 112.762807,14.4030081 C114.160398,13.7230415 115.797074,13.3824138 117.670259,13.3824138 L117.670259,13.3824138 Z M118.101641,34.7530399 C119.159278,34.7530399 120.152958,34.5382683 121.082254,34.1074367 C122.011978,33.6757459 122.827526,33.0408813 123.531044,32.2011246 C124.233703,31.362227 124.792568,30.3188669 125.208497,29.0706148 C125.624856,27.8232218 125.839903,26.3825344 125.854497,24.7485526 C125.854497,23.5234958 125.669926,22.4036771 125.299495,21.3912441 C124.928635,20.3775225 124.404109,19.5008251 123.723771,18.7590043 C123.04429,18.018472 122.216295,17.4437434 121.240213,17.035248 C120.266706,16.6271821 119.174301,16.42229 117.964285,16.42229 C117.043575,16.42229 116.212574,16.5468575 115.471713,16.7972811 C114.730423,17.0464161 114.073693,17.3904801 113.499804,17.8294731 C112.924628,18.267607 112.425857,18.7826291 112.003489,19.3715326 C111.579833,19.9617248 111.232581,20.5935826 110.960446,21.2658175 C110.687881,21.939341 110.486999,22.6386371 110.359516,23.3645649 C110.230745,24.0900631 110.166789,24.8091182 110.166789,25.5200119 C110.166789,26.2158717 110.215722,26.9302018 110.314017,27.6642908 C110.412741,28.3975208 110.574992,29.1045487 110.801199,29.7853744 C111.028694,30.4657706 111.338173,31.1092261 111.732212,31.7140228 C112.123675,32.3183898 112.611286,32.8441505 113.192901,33.2900162 C113.774944,33.736741 114.470306,34.0924026 115.279416,34.3565716 C116.087237,34.6215997 117.027693,34.7530399 118.101641,34.7530399 L118.101641,34.7530399 Z" id="Fill-3" fill="#2A2C2C"></path>
                    <path d="M140.159637,13.9498402 L140.251064,17.08035 C141.157181,15.8097616 142.234133,14.875935 143.481492,14.2784407 C144.727564,13.6813758 146.151768,13.3824138 147.754534,13.3824138 C148.631463,13.3824138 149.459458,13.4919473 150.237234,13.7114438 C151.015009,13.9309403 151.724965,14.2363454 152.36796,14.630666 C153.009667,15.0236979 153.573254,15.5043565 154.057003,16.0709238 C154.540751,16.6383502 154.926205,17.2693489 155.213364,17.9652087 C156.089434,16.377188 157.215748,15.2161331 158.591449,14.4829032 C159.965862,13.7496732 161.651041,13.3824138 163.646129,13.3824138 C165.293965,13.3824138 166.653784,13.6513078 167.727732,14.1878071 C168.799963,14.7251654 169.650708,15.4321933 170.277821,16.3088907 C170.904506,17.1860176 171.343185,18.1890006 171.593,19.314833 C171.841957,20.4419539 171.966435,21.6038679 171.966435,22.7979976 L171.966435,37.2267783 L168.226504,37.2267783 L168.226504,24.567715 C168.226504,23.5995249 168.169415,22.6317644 168.056097,21.6640039 C167.942779,20.6953843 167.692964,19.8221233 167.30751,19.0429322 C166.922056,18.2637411 166.352031,17.6327424 165.596147,17.1486473 C164.840263,16.6645523 163.820399,16.42229 162.535267,16.42229 C161.523558,16.42229 160.620017,16.6306184 159.827219,17.0464161 C159.033133,17.4622138 158.360949,18.018472 157.808952,18.7134727 C157.256955,19.409762 156.838021,20.207853 156.550433,21.1077457 C156.263274,22.0076384 156.11948,22.9418945 156.11948,23.9092255 L156.11948,37.2267783 L152.37912,37.2267783 L152.37912,22.8194747 C152.37912,21.9436365 152.273528,21.1150479 152.061915,20.3362863 C151.850302,19.5570952 151.513781,18.8801354 151.052352,18.3058363 C150.591782,17.7311077 149.998579,17.2740739 149.273599,16.9325872 C148.547332,16.5923891 147.671262,16.42229 146.644101,16.42229 C145.615652,16.42229 144.705243,16.6233162 143.911586,17.0240799 C143.118359,17.4248435 142.44918,17.9652087 141.905339,18.6460344 C141.361926,19.3264306 140.94943,20.1206557 140.669569,21.0282802 C140.389278,21.9354751 140.251064,22.8959334 140.251064,23.9092255 L140.251064,37.2267783 L136.510274,37.2267783 L136.510274,19.9617248 C136.510274,18.9634667 136.498256,17.9501747 136.475506,16.9218486 C136.453186,15.893093 136.418847,14.9029963 136.373777,13.9498402 L140.159637,13.9498402" id="Fill-4" fill="#2A2C2C"></path>
                    <path d="M182.984487,37.2267783 L179.175449,37.2267783 C179.191331,36.1984522 179.213651,35.2676324 179.244556,34.4360371 C179.25958,34.0730732 179.269881,33.7135457 179.278037,33.3583136 C179.285763,33.003511 179.292631,32.6740515 179.301645,32.3716532 C179.308083,32.0692549 179.314951,31.8042268 179.323106,31.5774281 C179.331262,31.3506293 179.334267,31.1916984 179.334267,31.1010648 L179.334267,3.37706749 L183.075485,3.37706749 L183.075485,17.2392809 C184.027959,15.923161 185.225098,14.9519642 186.668618,14.3235427 C188.111708,13.6959803 189.679707,13.3824138 191.371754,13.3824138 C193.17111,13.3824138 194.712066,13.7075779 195.997628,14.3583357 C197.28233,15.0082343 198.333099,15.878059 199.148218,16.9669506 C199.965054,18.0558423 200.565984,19.3229943 200.951437,20.7666885 C201.336891,22.2116713 201.528759,23.7275288 201.528759,25.315979 C201.528759,27.0096672 201.305986,28.6092856 200.860439,30.1139749 C200.414893,31.6195233 199.750006,32.9390795 198.865781,34.0730732 C197.981555,35.207926 196.873698,36.1039528 195.543925,36.7611536 C194.214153,37.4187841 192.672338,37.7482436 190.919339,37.7482436 C189.271933,37.7482436 187.791499,37.4419794 186.475891,36.829451 C185.161142,36.2173521 184.027959,35.3135936 183.075485,34.1181752 L182.984487,37.2267783 L182.984487,37.2267783 Z M197.743759,24.7485526 C197.743759,23.5995249 197.577215,22.5179355 197.244128,21.5046435 C196.912758,20.4904923 196.432014,19.6103586 195.804901,18.8612355 C195.177358,18.1129715 194.41804,17.519343 193.526517,17.08035 C192.634565,16.6417865 191.629725,16.42229 190.511565,16.42229 C189.287385,16.42229 188.210003,16.6688478 187.280708,17.1598155 C186.351413,17.6516423 185.572779,18.3165749 184.945665,19.1563316 C184.318981,19.9960882 183.850256,20.9672851 183.540348,22.0720698 C183.23001,23.1751364 183.075485,24.3327549 183.075485,25.5432072 C183.075485,26.8580385 183.199964,28.0461546 183.44892,29.1045487 C183.699165,30.1633723 184.115094,31.0671309 184.696709,31.816254 C185.277894,32.564518 186.03807,33.1422534 186.974663,33.5511784 C187.911255,33.9596738 189.067616,34.1637068 190.443317,34.1637068 C191.803565,34.1637068 192.951771,33.8952424 193.889651,33.3583136 C194.826243,32.8218143 195.578264,32.1139273 196.144855,31.23723 C196.711447,30.3601031 197.11965,29.3579791 197.369465,28.2308581 C197.61928,27.1050258 197.743759,25.9431118 197.743759,24.7485526 L197.743759,24.7485526 Z" id="Fill-5" fill="#2A2C2C"></path>
                    <path d="M216.446848,13.3824138 C217.398463,13.3824138 218.267237,13.4696111 219.053597,13.643576 C219.838239,13.817541 220.564506,14.0632396 221.230251,14.3806719 C221.894708,14.6981042 222.507657,15.0915657 223.066092,15.5606267 C223.624099,16.0296877 224.146908,16.5584552 224.629798,17.1486473 L224.765866,13.9498402 L228.462444,13.9498402 L228.371446,19.688965 L228.371446,37.2267783 L224.629798,37.2267783 L224.675726,33.9596738 C224.313451,34.4437689 223.855886,34.9166958 223.304747,35.3771659 C222.75275,35.8389247 222.128641,36.2435543 221.434138,36.5914841 C220.738776,36.9389845 219.971732,37.2190465 219.131717,37.4308113 C218.293849,37.642576 217.413487,37.7482436 216.491918,37.7482436 C215.191333,37.7482436 214.013081,37.577715 212.955015,37.2379464 C211.89652,36.8973188 210.95263,36.4286873 210.121201,35.8316225 C209.289771,35.2341281 208.568226,34.5352615 207.956136,33.7328751 C207.344045,32.9313478 206.840981,32.0692549 206.44866,31.1457373 C206.055909,30.2243674 205.759307,29.2673455 205.564434,28.2768192 C205.367844,27.2858634 205.269978,26.3065053 205.269978,25.3383152 C205.269978,23.8409281 205.500049,22.3736091 205.960619,20.9372171 C206.422476,19.5008251 207.117838,18.222505 208.047133,17.1026862 C208.976,15.9837266 210.140087,15.0838339 211.538108,14.4030081 C212.936129,13.7230415 214.572375,13.3824138 216.446848,13.3824138 L216.446848,13.3824138 Z M216.877371,34.7530399 C217.935008,34.7530399 218.929118,34.5382683 219.857984,34.1074367 C220.787709,33.6757459 221.603686,33.0408813 222.307204,32.2011246 C223.009004,31.362227 223.568727,30.3188669 223.984228,29.0706148 C224.399728,27.8232218 224.615633,26.3825344 224.629798,24.7485526 C224.629798,23.5234958 224.445656,22.4036771 224.074796,21.3912441 C223.704366,20.3775225 223.178552,19.5008251 222.499072,18.7590043 C221.819592,18.018472 220.991596,17.4437434 220.016802,17.035248 C219.042436,16.6271821 217.950031,16.42229 216.740874,16.42229 C215.818447,16.42229 214.987446,16.5468575 214.247015,16.7972811 C213.506154,17.0464161 212.849852,17.3904801 212.275535,17.8294731 C211.700359,18.267607 211.201587,18.7826291 210.779219,19.3715326 C210.355563,19.9617248 210.007453,20.5935826 209.736176,21.2658175 C209.463611,21.939341 209.263588,22.6386371 209.135246,23.3645649 C209.006046,24.0900631 208.942519,24.8091182 208.942519,25.5200119 C208.942519,26.2158717 208.991023,26.9302018 209.089318,27.6642908 C209.188471,28.3975208 209.350293,29.1045487 209.57693,29.7853744 C209.803566,30.4657706 210.113904,31.1092261 210.507084,31.7140228 C210.898976,32.3183898 211.386588,32.8441505 211.968631,33.2900162 C212.550675,33.736741 213.246037,34.0924026 214.055146,34.3565716 C214.862968,34.6215997 215.803423,34.7530399 216.877371,34.7530399 L216.877371,34.7530399 Z" id="Fill-6" fill="#2A2C2C"></path>
                    <path d="M231.839671,13.9498402 L235.942736,13.9498402 L243.469814,33.3471455 L251.200349,13.9498402 L255.167775,13.9498402 L244.875131,38.859901 C244.466928,39.8581591 243.975883,40.8027242 243.401565,41.6961738 C242.826818,42.5883347 242.169229,43.3864257 241.428798,44.0895877 C240.688795,44.7927497 239.868955,45.3902441 238.968848,45.8816413 C238.070457,46.3734681 237.083644,46.7171025 236.010984,46.9142628 L233.925328,44.3498908 C235.194148,44.0174245 236.244918,43.6084995 237.075918,43.124834 C237.906918,42.640739 238.588115,42.1270055 239.116505,41.5819153 C239.645323,41.0376843 240.057819,40.4749829 240.351845,39.8925225 C240.647589,39.3100621 240.892682,38.7465016 241.089272,38.2022706 L241.474726,37.0906132 L231.839671,13.9498402" id="Fill-7" fill="#2A2C2C"></path>
                    <path d="M25.2197464,50.0383294 C11.5030888,50.0383294 0.345105542,38.8719282 0.345105542,25.1458799 C0.345105542,11.4198316 11.5030888,0.253430402 25.2197464,0.253430402 C38.9359748,0.253430402 50.093958,11.4198316 50.093958,25.1458799 C50.093958,38.8719282 38.9359748,50.0383294 25.2197464,50.0383294 L25.2197464,50.0383294 Z M25.2197464,3.96468239 C13.5483972,3.96468239 4.05370241,13.4661747 4.05370241,25.1458799 C4.05370241,36.8255851 13.5483972,46.3270775 25.2197464,46.3270775 C36.8906664,46.3270775 46.3853612,36.8255851 46.3853612,25.1458799 C46.3853612,13.4661747 36.8906664,3.96468239 25.2197464,3.96468239 L25.2197464,3.96468239 Z" id="Fill-8" fill="#34A2DB"></path>
                    <path d="M40.9357841,40.9766892 C38.3359032,44.4783242 34.9084557,45.7665238 30.1735562,45.5843975 C23.0083238,45.3082013 16.4126873,40.3826311 16.2023618,33.2101212 C16.1113638,30.1126863 17.1342326,27.2983202 18.6906414,24.9006108 C19.1628008,24.173824 18.7168248,23.6162771 18.1566722,24.1278629 C16.0104934,26.0878678 14.8584247,27.6870566 14.1377379,30.9657588 C13.1526418,35.4501882 13.854013,38.575973 8.33790442,40.6180207 C8.33790442,40.6180207 10.074163,44.0556538 18.0420662,46.8571336 L20.1539061,47.3871897 C20.3732456,47.579625 20.5960189,47.7677649 20.8243723,47.9498911 C22.1498523,48.1874284 23.5143928,48.3115664 24.9081213,48.3115664 C32.9674517,48.3115664 40.057997,44.1656168 44.1696462,37.8899928 C43.2304784,39.0536249 42.1423658,40.0909714 40.9357841,40.9766892" id="Fill-9" fill="#34A2DB"></path>
                    <path d="M17.6797913,32.4983684 C17.9038523,39.6614283 23.7015396,45.5053616 30.8581872,45.7776919 C35.5900821,45.9576704 39.8137619,43.7377919 42.4127843,40.2378751 C39.5592251,42.3318975 36.0399212,43.5702701 32.2304539,43.5702701 C25.8829156,43.5702701 20.7372375,38.420908 20.7372375,32.0692549 C20.7372375,27.8343899 24.1676896,24.4014818 28.3990956,24.4014818 C31.2204622,24.4014818 33.5074302,26.6900872 33.5074302,29.5134737 C33.5074302,31.3953018 31.9814972,32.85403 30.1018738,32.9210387 C29.1360934,32.9554022 28.9407911,34.1542568 30.3834525,34.1151684 C33.4057014,34.0331257 35.857496,31.6624776 35.857496,28.6372059 C35.857496,24.099513 32.1810918,20.4204768 27.6466453,20.4204768 C27.6286174,20.4204768 27.6110188,20.4204768 27.5929909,20.4209063 C24.343247,20.4346517 21.3321582,22.1743011 19.6486956,24.9560219 C18.3240741,27.1445438 17.5930856,29.7329702 17.6797913,32.4983684" id="Fill-10" fill="#34A2DB"></path>
                    <path d="M23.7049735,36.061428 C24.9789452,41.4096686 29.8155736,45.2025337 35.2715892,44.556501 C38.8797449,44.1295352 40.8589509,40.4483512 42.4127843,37.4862223 C40.5833816,39.5643516 38.936404,42.266607 36.0489351,42.7202044 C31.2384901,43.4762002 26.5246231,40.2919975 24.5115074,35.8548178 C24.2247779,35.2225304 23.4809124,35.1198696 23.7049735,36.061428" id="Fill-11" fill="#34A2DB"></path>
                </g>
            </g>
        </g>
    </g>
</svg>