<?xml version="1.0" encoding="UTF-8" standalone="no"?>
<svg width="82px" height="82px" viewBox="0 0 82 82" version="1.1" xmlns="http://www.w3.org/2000/svg" xmlns:xlink="http://www.w3.org/1999/xlink" xmlns:sketch="http://www.bohemiancoding.com/sketch/ns">
    <!-- Generator: Sketch 3.1.1 (8761) - http://www.bohemiancoding.com/sketch -->
    <title>twitter L</title>
    <desc>Created with Sketch.</desc>
    <defs></defs>
    <g id="Page-1" stroke="none" stroke-width="1" fill="none" fill-rule="evenodd" sketch:type="MSPage">
        <g id="Desktop-HD" sketch:type="MSArtboardGroup" transform="translate(-792.000000, -3749.000000)">
            <rect id="Rectangle-19" fill="#1ABC9C" sketch:type="MSShapeGroup" x="0" y="3552" width="1440" height="488"></rect>
            <g id="linkedin-L-+-email-L-+-twitter-L" sketch:type="MSLayerGroup" transform="translate(566.000000, 3749.000000)" fill="#F6F4F4">
                <path d="M267.042553,82 C289.662728,82 308,63.6436759 308,41 C308,18.3563241 289.662728,0 267.042553,0 C244.422379,0 226.085106,18.3563241 226.085106,41 C226.085106,63.6436759 244.422379,82 267.042553,82 Z M267.042553,78.72 C287.853114,78.72 304.723404,61.8321818 304.723404,41 C304.723404,20.1678182 287.853114,3.28 267.042553,3.28 C246.231993,3.28 229.361702,20.1678182 229.361702,41 C229.361702,61.8321818 246.231993,78.72 267.042553,78.72 Z M255.002903,30.4989267 C262.877653,34.4786593 269.532725,34.2490593 269.532725,34.2490593 C269.532725,34.2490593 267.009746,25.447727 274.808043,21.5445283 C282.606339,17.6413291 287.972688,24.2219967 287.972688,24.2219967 C287.972688,24.2219967 289.332744,23.84826 290.34612,23.4745233 C291.359495,23.1007866 292.826222,22.4333996 292.826222,22.4333996 L290.42321,26.7270979 L294.123485,26.3344605 C294.123485,26.3344605 293.667416,27.0019804 292.186505,28.3615895 C290.705593,29.7211987 290.095237,30.4235892 290.095237,30.4235892 C290.095237,30.4235892 290.624258,41.0177424 285.04928,49.1742524 C279.474301,57.330762 272.271103,62.2260871 261.807299,63.2563831 C251.343494,64.2866791 244.52872,60.0419837 244.52872,60.0419837 C244.52872,60.0419837 249.105059,59.7805382 252.021201,58.664384 C254.937343,57.54823 259.131412,54.6081181 259.131412,54.6081181 C259.131412,54.6081181 253.168009,52.7713184 251.027301,50.7049188 C248.886592,48.6385192 248.351414,47.4139861 248.351414,47.4139861 L254.238364,47.3374527 C254.238364,47.3374527 248.045599,44.04652 246.28716,41.4443872 C244.52872,38.8422544 244.299358,36.3166548 244.299358,36.3166548 L248.825298,38.1462119 C248.825298,38.1462119 245.063898,33.025722 244.52872,29.0459895 C243.993543,25.0662569 245.216805,22.9233239 245.216805,22.9233239 C245.216805,22.9233239 247.128152,26.5191941 255.002903,30.4989267 Z" id="twitter-L" sketch:type="MSShapeGroup"></path>
            </g>
        </g>
    </g>
</svg>