<?xml version="1.0" encoding="UTF-8" standalone="no"?>
<svg width="172px" height="173px" viewBox="0 0 172 173" version="1.1" xmlns="http://www.w3.org/2000/svg" xmlns:xlink="http://www.w3.org/1999/xlink" xmlns:sketch="http://www.bohemiancoding.com/sketch/ns">
    <!-- Generator: Sketch 3.1.1 (8761) - http://www.bohemiancoding.com/sketch -->
    <title>Responsive</title>
    <desc>Created with Sketch.</desc>
    <defs></defs>
    <g id="Page-1" stroke="none" stroke-width="1" fill="none" fill-rule="evenodd" sketch:type="MSPage">
        <g id="Desktop-HD" sketch:type="MSArtboardGroup" transform="translate(-192.000000, -1864.000000)">
            <rect id="Rectangle-10" fill="#16A085" sketch:type="MSShapeGroup" x="0" y="1731" width="1440" height="401"></rect>
            <g id="Responsive" sketch:type="MSLayerGroup" transform="translate(193.000000, 1865.000000)">
                <path d="M103.18352,123.382071 C103.18352,125.95404 101.11024,128.038131 98.54944,128.038131 L82.324,128.038131 C79.7632,128.038131 77.68816,125.95404 77.68816,123.382071 L77.68816,103.011364 C77.68816,100.441162 79.7632,98.3570707 82.324,98.3570707 L98.54944,98.3570707 C101.11024,98.3570707 103.18352,100.441162 103.18352,103.011364 L103.18352,123.382071" id="Fill-1" fill="#F6F4F4" sketch:type="MSShapeGroup"></path>
                <path d="M170.40144,96.6972222 C170.40144,99.2674242 168.3264,101.353283 165.7656,101.353283 L15.10608,101.353283 C12.54528,101.353283 10.47024,99.2674242 10.47024,96.6972222 L10.47024,4.65606061 C10.47024,2.08585859 12.54528,0.00176767677 15.10608,0.00176767677 L165.7656,0.00176767677 C168.3264,0.00176767677 170.40144,2.08585859 170.40144,4.65606061 L170.40144,96.6972222 L170.40144,96.6972222 Z" id="Fill-2" fill="#F6F4F4" sketch:type="MSShapeGroup"></path>
                <path d="M170.40144,96.6972222 C170.40144,99.2674242 168.3264,101.353283 165.7656,101.353283 L15.10608,101.353283 C12.54528,101.353283 10.47024,99.2674242 10.47024,96.6972222 L10.47024,4.65606061 C10.47024,2.08585859 12.54528,0.00176767677 15.10608,0.00176767677 L165.7656,0.00176767677 C168.3264,0.00176767677 170.40144,2.08585859 170.40144,4.65606061 L170.40144,96.6972222 L170.40144,96.6972222 Z" id="Stroke-3" stroke="#16A085" stroke-width="2" sketch:type="MSShapeGroup"></path>
                <path d="M20.94048,11.1964646 L159.3944,11.1964646 L159.3944,71.8878788 L20.94048,71.8878788 L20.94048,11.1964646 Z" id="Fill-4" fill="#F6F4F4" sketch:type="MSShapeGroup"></path>
                <path d="M20.94048,11.1964646 L159.3944,11.1964646 L159.3944,71.8878788 L20.94048,71.8878788 L20.94048,11.1964646 Z" id="Stroke-5" stroke="#16A085" sketch:type="MSShapeGroup"></path>
                <path d="M122.88672,126.562121 C122.88672,127.686364 121.98032,128.598485 120.8592,128.598485 L60.016,128.598485 C58.89488,128.598485 57.98672,127.686364 57.98672,126.562121 C57.98672,125.436111 58.89488,124.52399 60.016,124.52399 L120.8592,124.52399 C121.98032,124.52399 122.88672,125.436111 122.88672,126.562121" id="Fill-6" fill="#F6F4F4" sketch:type="MSShapeGroup"></path>
                <path d="M80.08176,158.795707 C80.08176,160.74899 78.5048,162.331061 76.56176,162.331061 L3.22784,162.331061 C1.2848,162.331061 -0.29216,160.74899 -0.29216,158.795707 L-0.29216,64.520202 C-0.29216,62.5686869 1.2848,60.9848485 3.22784,60.9848485 L76.56176,60.9848485 C78.5048,60.9848485 80.08176,62.5686869 80.08176,64.520202 L80.08176,158.795707 L80.08176,158.795707 Z" id="Fill-7" fill="#F6F4F4" sketch:type="MSShapeGroup"></path>
                <path d="M80.08176,158.795707 C80.08176,160.74899 78.5048,162.331061 76.56176,162.331061 L3.22784,162.331061 C1.2848,162.331061 -0.29216,160.74899 -0.29216,158.795707 L-0.29216,64.520202 C-0.29216,62.5686869 1.2848,60.9848485 3.22784,60.9848485 L76.56176,60.9848485 C78.5048,60.9848485 80.08176,62.5686869 80.08176,64.520202 L80.08176,158.795707 L80.08176,158.795707 Z" id="Stroke-8" stroke="#16A085" stroke-width="2" sketch:type="MSShapeGroup"></path>
                <path d="M4.98784,75.1262626 L74.8,75.1262626 L74.8,148.191414 L4.98784,148.191414 L4.98784,75.1262626 Z" id="Fill-9" fill="#F6F4F4" sketch:type="MSShapeGroup"></path>
                <path d="M4.98784,75.1262626 L74.8,75.1262626 L74.8,148.191414 L4.98784,148.191414 L4.98784,75.1262626 Z" id="Stroke-10" stroke="#16A085" sketch:type="MSShapeGroup"></path>
                <path d="M92.22752,167.047222 C92.22752,169.000505 90.65408,170.582576 88.70752,170.582576 L56.67024,170.582576 C54.72896,170.582576 53.15024,169.000505 53.15024,167.047222 L53.15024,99.8737374 C53.15024,97.9222222 54.72896,96.3383838 56.67024,96.3383838 L88.70752,96.3383838 C90.65408,96.3383838 92.22752,97.9222222 92.22752,99.8737374 L92.22752,167.047222 L92.22752,167.047222 Z" id="Fill-11" fill="#F6F4F4" sketch:type="MSShapeGroup"></path>
                <path d="M92.22752,167.047222 C92.22752,169.000505 90.65408,170.582576 88.70752,170.582576 L56.67024,170.582576 C54.72896,170.582576 53.15024,169.000505 53.15024,167.047222 L53.15024,99.8737374 C53.15024,97.9222222 54.72896,96.3383838 56.67024,96.3383838 L88.70752,96.3383838 C90.65408,96.3383838 92.22752,97.9222222 92.22752,99.8737374 L92.22752,167.047222 L92.22752,167.047222 Z" id="Stroke-12" stroke="#16A085" stroke-width="2" sketch:type="MSShapeGroup"></path>
                <path d="M58.3176,109.300758 L87.06544,109.300758 L87.06544,157.618434 L58.3176,157.618434 L58.3176,109.300758 Z" id="Fill-13" fill="#F6F4F4" sketch:type="MSShapeGroup"></path>
                <path d="M58.3176,109.300758 L87.06544,109.300758 L87.06544,157.618434 L58.3176,157.618434 L58.3176,109.300758 Z" id="Stroke-14" stroke="#16A085" sketch:type="MSShapeGroup"></path>
            </g>
        </g>
    </g>
</svg>