<?xml version="1.0" encoding="UTF-8" standalone="no"?>
<svg width="134px" height="134px" viewBox="0 0 134 134" version="1.1" xmlns="http://www.w3.org/2000/svg" xmlns:xlink="http://www.w3.org/1999/xlink" xmlns:sketch="http://www.bohemiancoding.com/sketch/ns">
    <!-- Generator: Sketch 3.1 (8751) - http://www.bohemiancoding.com/sketch -->
    <title>world</title>
    <desc>Created with Sketch.</desc>
    <defs></defs>
    <g id="Page-1" stroke="none" stroke-width="1" fill="none" fill-rule="evenodd" sketch:type="MSPage">
        <g id="Desktop-HD" sketch:type="MSArtboardGroup" transform="translate(-904.000000, -360.000000)">
            <g id="world" sketch:type="MSLayerGroup" transform="translate(905.000000, 361.000000)">
                <ellipse id="Oval-3" stroke="#1ABC9C" stroke-width="2" sketch:type="MSShapeGroup" cx="65.6382542" cy="65.6382542" rx="65.6382542" ry="65.6382542"></ellipse>
                <path d="M39.0071866,126.556986 L39.0034921,126.542261 C38.8834227,126.488884 38.7652005,126.433667 38.6432838,126.378449 C38.4659505,126.293783 37.747381,125.964319 37.6328532,125.898058 C37.5774366,125.859406 37.4056449,125.761855 37.7658532,125.923826 C38.0687977,126.054507 38.3828255,126.15758 38.4474782,126.177826 C38.5084366,126.198072 37.8231171,125.80787 38.1445338,125.890696 C38.4142282,125.93487 39.0182699,126.187029 38.811381,126.008493 C38.5490755,125.794986 37.2855755,125.263058 37.5460338,125.325638 C37.747381,125.356928 38.8557144,125.752652 38.9499227,125.702957 C38.9850199,125.621971 38.5564644,125.163667 38.8187699,125.207841 C39.0829227,125.250174 41.2755755,125.866768 41.2626449,125.728725 C41.3125199,125.607246 41.6690338,125.246493 41.6690338,125.246493 C41.6690338,125.246493 40.623506,124.618855 40.8433255,124.593087 C41.0631449,124.561797 42.1345338,124.767942 42.2638394,124.790029 C42.3340338,124.788188 43.0618394,124.817638 43.3222977,124.66487 C43.5846032,124.504739 43.6898949,124.236014 43.8875477,124.057478 C44.0907421,123.867899 44.4121588,123.709609 44.5876449,123.589971 C44.8222421,123.483217 44.8517977,123.050681 44.962631,122.921841 C45.0753116,122.793 45.6553394,122.778275 45.6996727,122.651275 C45.6922838,122.502188 45.6738116,122.369667 45.6387144,122.12487 C45.544506,121.856145 45.2009227,120.932174 45.6497977,120.899043 C46.0968255,120.858551 46.4348671,120.422333 46.8431032,120.308217 C47.1940755,120.168333 47.655881,120.392884 48.1066032,120.297174 C48.503756,120.175696 49.3072977,120.059739 49.700756,120.116797 C50.0406449,120.155449 50.2198255,120.328464 50.5042977,120.149928 C50.7352005,119.952986 50.7185755,120.019246 50.9605616,119.763406 C51.2043949,119.505725 50.798006,118.92042 51.2450338,118.738203 C51.6920616,118.548623 52.0559644,118.434507 52.0097838,118.197072 C51.961756,117.957797 51.9340477,117.245493 52.0966032,117.054072 C52.2037421,116.846087 51.7862699,113.665565 52.0522699,113.628754 C52.2739366,113.577217 52.6840199,113.560652 52.8465755,113.347145 C53.0516171,113.146522 53.2788255,112.485754 53.574381,112.489435 C53.823756,112.480232 54.1710338,112.084507 54.2966449,111.974072 C54.4665894,111.874681 54.9062282,111.633565 55.0835616,111.495522 C55.2608949,111.355638 55.3754227,111.473435 55.3107699,110.740884 C55.2572005,109.99913 55.2498116,109.454319 55.0909505,109.189275 C54.9283949,108.924232 53.9715338,108.60213 53.4598532,108.333406 C52.9481727,108.064681 52.8281032,108.162232 52.294256,107.687362 C51.7271588,107.201449 51.3503255,106.722899 50.6668532,106.590377 C49.9852282,106.456014 48.0123949,106.557246 47.6447977,106.306928 C47.2790477,106.058449 46.7267282,105.590942 46.5660199,105.828377 C46.4034644,106.06213 46.2224366,106.227783 46.1577838,105.957217 C46.0968255,105.688493 45.9527421,105.103188 45.7975755,105.033246 C45.6738116,104.98171 44.4620338,104.041174 44.1129088,104.216029 C43.8025755,104.40929 42.5815616,106.051087 42.319256,105.690333 C42.0551032,105.32958 42.9861032,104.573101 42.6536032,104.265725 C42.286006,103.936261 41.6006866,104.269406 41.3734782,104.458986 C41.105631,104.619116 40.3057838,104.759 40.1469227,104.585986 C40.025006,104.438739 40.3094782,103.936261 40.5865616,103.849754 C40.8285477,103.735638 41.4529088,103.194507 41.4455199,102.888971 C41.4067282,102.559507 40.6844644,102.150899 40.5366866,101.907942 C40.3519644,101.641058 39.7719366,99.7194928 39.3212144,100.083928 C38.8741866,100.439159 38.6026449,102.226362 38.2017977,102.009174 C37.8027977,101.791986 36.9900199,101.081522 36.6796866,101.309754 C36.3730477,101.536145 36.4561727,102.224522 36.0368532,101.93371 C35.5824366,101.611609 34.8398532,99.8336087 34.8324644,99.3145652 C34.7973671,98.7642319 34.9950199,98.2396667 34.4685616,97.6451594 C33.9421032,97.0524928 31.2100616,95.1456522 31.6644782,94.8235507 C32.1558394,94.5308986 32.311006,93.2351304 31.8750616,93.4725652 C31.4705199,93.7394493 30.5709227,94.2787391 30.0019782,93.814913 C29.4533532,93.3805362 28.8733255,92.7455362 28.5592977,93.1357391 C28.2526588,93.525942 27.2089782,93.0657971 27.4010894,93.0492319 C27.5876588,93.0308261 27.1664921,92.4768116 27.0150199,92.4123913 C26.8875616,92.3847826 24.2940616,91.9522464 24.2940616,91.9522464 C24.2940616,91.9522464 24.2331032,92.7933913 24.081631,92.5982899 C23.9338532,92.4013478 23.499756,91.4626522 23.499756,91.4626522 C23.499756,91.4626522 22.5558255,92.4841739 22.1512838,92.3148406 C21.7467421,92.1399855 21.0041588,91.9191159 20.7843394,93.0602754 C20.5959227,94.2124783 19.8459505,94.1701449 19.6538394,93.9124638 C19.4875894,93.6989565 18.7265338,93.2701014 18.3312282,93.1191739 C17.9377699,92.9664058 18.3995755,93.894058 17.514756,93.2608986 C16.6631866,92.6553478 15.8374782,92.1436667 15.7617421,91.6798406 C15.6897005,91.2196957 15.7063255,89.195058 15.6065755,88.8803188 C15.5049782,88.5655797 13.6041866,87.6232029 13.1017421,87.0967971 C12.6085338,86.5611884 12.0987005,85.4807681 12.2760338,85.477087 C12.4385894,85.420029 13.0223116,82.822971 12.6731866,82.4106812 C12.327756,81.9928696 10.5950616,82.0167971 10.6024505,82.4898261 C10.6135338,82.9646957 10.5082421,84.750058 10.1443394,84.6837971 C9.78782547,84.6156957 7.97939491,84.5015797 7.49172824,81.8253768 C7.0557838,79.0957971 7.11304769,78.9632754 7.19986713,78.6393333 C7.28668658,78.3190725 7.46032547,78.1626232 7.34025602,77.9454348 C7.22942269,77.7853043 6.94310324,76.6294203 7.07425602,76.2465797 C7.20356158,75.8655797 7.81683936,75.4735362 7.8704088,75.4661739 C7.92213102,75.456971 8.06251991,74.7888406 8.33221436,74.983942 C8.61483936,75.2342609 8.90300602,74.9600145 9.23550602,75.1403913 C9.56246436,75.2637101 10.0187282,75.7625072 10.3641588,75.7054493 C10.7169782,75.6465507 10.8573671,75.399913 10.9164782,75.2784348 C10.9737421,75.1569565 11.0790338,74.5274783 11.4687977,74.7483478 C11.8677977,75.0170725 11.9472282,74.5661304 12.2298532,75.1790435 C12.5143255,75.7882754 13.2790755,75.6023768 13.5598532,75.7146522 C13.8461727,75.825087 13.9459227,75.6465507 14.1602005,75.9815362 C14.3763255,76.3128406 14.7439227,76.5594783 14.8011866,77.0233043 C14.8529088,77.4355942 14.7660894,77.6675072 15.0468671,78.2951449 C15.3313394,78.920942 15.7247977,79.5669855 15.819006,79.7013478 C15.9279921,79.8854058 16.3103671,80.1007536 16.4212005,80.0179275 C16.5227977,79.8854058 16.5874505,79.0810725 16.5597421,78.5693913 C16.5191032,78.0080145 16.334381,77.3785362 16.2531032,76.8815797 C16.1588949,76.3349275 15.569631,75.7256957 15.5456171,75.0078696 C15.5345338,74.3415797 15.5917977,73.1102319 15.8337838,72.9261739 C16.0831588,72.7439565 17.331881,71.0266957 17.8250894,70.7911014 C18.3256866,70.5094928 19.2289782,69.8284783 19.2899366,69.545029 C19.3508949,69.2174058 18.9371171,68.6781159 18.9685199,68.3026377 C18.9980755,67.929 19.3047144,67.5038261 19.3841449,67.0860145 C19.4635755,66.6700435 19.6944782,66.2485507 19.8736588,65.8859565 C20.058381,65.5233623 20.324381,64.4871159 20.5959227,64.2754493 C20.8656171,64.0637826 22.169756,63.5705072 22.3784921,63.2392029 C22.5909227,62.9078986 23.4960616,63.1987101 23.5034505,62.7330435 C23.5108394,62.2655362 22.3895755,62.4992899 22.6426449,61.96 C22.8975616,61.382058 23.5145338,60.5998116 23.915381,60.0605217 C24.3236171,59.489942 27.1775755,57.6180725 26.9780755,57.9769855 C26.7878116,58.3009275 26.0729366,58.807087 26.1302005,59.4328841 C26.1837699,60.0918116 26.0969505,60.6034928 26.6178671,60.4028696 C27.1443255,60.2096087 27.1554088,59.7365797 28.2563532,59.0813333 C29.3739227,58.3966377 29.9945894,58.0855797 30.4268394,57.7782029 C30.8572421,57.4781884 31.9175477,57.3585507 31.6644782,56.7769275 C31.4021727,56.2542029 31.1417144,54.8056667 30.7852005,55.1866667 C30.4268394,55.5731884 29.5789644,56.6425652 29.5789644,56.6425652 C28.6812144,56.1953043 28.6812144,56.1953043 27.8000894,55.7443623 C27.8000894,55.7443623 27.2496171,56.4934783 27.2810199,55.7204348 C27.306881,54.9786812 27.7040338,54.5166957 27.7040338,54.5166957 C27.7040338,54.5166957 28.1658394,55.0743913 28.2341866,54.3952174 C28.2914505,53.7491739 28.2803671,53.1583478 28.370881,52.8969855 C28.4613949,52.6337826 25.7201171,53.0018986 25.8715894,52.5178261 C26.0230616,52.0355942 28.2914505,51.4944638 28.3597977,51.7392609 C28.4152144,52.019029 28.7070755,52.2601449 29.0100199,52.5877681 C29.3055755,52.9503623 30.2716727,53.3111159 30.116506,52.7644638 C29.9521032,52.2472609 28.5759227,51.2202174 29.1393255,51.3693043 C29.7230477,51.4852609 30.6762144,51.927 31.1066171,51.5331159 C31.5314782,51.1465942 33.5006171,48.901087 33.6206866,49.5029565 C33.7259782,50.126913 31.7476032,53.9037826 32.0320755,54.2387681 C32.3073116,54.6050435 35.0338116,54.6749855 34.8804921,54.9326667 C34.7345616,55.1608986 33.2383116,55.194029 33.9772005,55.806942 C34.7179366,56.4364203 35.0855338,56.7934928 35.4457421,56.1713768 C35.8096449,55.5566232 36.0368532,54.9639565 36.2326588,55.2418841 C36.4266171,55.517971 36.9290616,55.771971 36.9290616,55.771971 C36.9290616,55.771971 37.4204227,55.7646087 37.6864227,55.2842174 C37.9394921,54.8351159 38.0946588,54.4430725 37.913631,53.6258551 C37.7436866,52.7902319 35.9371032,51.8257681 35.3441449,51.5699275 C34.7530338,51.3177681 34.4353116,50.8484203 34.6920755,50.5484058 C34.9340616,50.2815217 35.4457421,49.4900725 35.5251727,49.2563188 C35.619381,48.9894348 35.1077005,47.8169855 35.1003116,47.7286377 C35.1132421,47.6108406 35.9555755,46.4420725 35.4180338,45.9874493 C34.9008116,45.5052174 34.1656171,44.7689855 33.7038116,45.103971 C33.2604782,45.4131884 31.1601866,46.8433188 31.7088116,46.2893043 C32.2315755,45.7757826 34.0935755,45.0432319 33.5301727,44.329087 C32.959381,43.6443913 32.061631,43.8063623 31.8307282,43.3038841 C31.6109088,42.7995652 30.6872977,41.3123768 30.6872977,41.3123768 C30.6872977,41.3123768 31.1952838,40.6700145 30.9680755,40.3368696 C30.748256,40.0037246 30.0093671,37.4158696 30.0093671,37.4158696 C30.0093671,37.4158696 29.2944921,35.2863188 28.9841588,36.0243913 C28.6812144,36.7624638 26.9503671,39.8951304 26.3647977,39.5491014 C25.8161727,39.1717826 25.2712421,38.5588696 25.3802282,38.153942 C25.4892144,37.7471739 25.827256,36.0777681 25.5206171,35.8403333 C25.2139782,35.6084203 23.8784366,35.5035072 23.8969088,35.0617681 C23.9227699,34.620029 23.4129366,33.7586377 23.2614644,33.6408406 C23.1099921,33.5248841 22.4006588,33.454942 22.3378532,33.6831739 C22.2805894,33.9114058 22.3415477,34.2261449 22.0681588,34.1598841 C21.7966171,34.0936232 21.5195338,33.8874783 21.2923255,33.9942319 C21.1020616,34.0604928 20.4869366,34.0255217 20.2467977,34.5353623 C20.0048116,35.0452029 20.0953255,36.2378986 19.7812977,36.6851594 C19.4635755,37.1342609 19.4949782,37.1545072 19.6150477,37.4876522 C19.709256,37.8668116 19.7739088,38.0987246 19.5854921,38.4907681 C19.4026171,38.8846522 18.2407144,38.9564348 19.1199921,40.150971 C20.0805477,41.3528696 19.9364644,42.1019855 19.6113532,43.0425217 C19.2751588,44.0272319 18.3090616,45.288029 18.030131,45.5641159 C17.7530477,45.8402029 17.4242421,46.0389855 17.4796588,46.3463623 C17.514756,46.6997536 17.4020755,47.6053188 17.3522005,47.8648406 C17.3244921,48.0746667 17.5369227,48.7059855 17.4833532,49.0685797 C17.4501032,49.3814783 17.3669782,50.7527101 16.8589921,50.6422754 C16.3454644,50.5833768 16.2383255,50.0017536 16.0111171,49.5379275 C15.7912977,49.0704203 15.4015338,49.0464928 15.5123671,48.6912609 C15.6065755,48.3857246 15.9667838,48.348913 15.8079227,48.1206812 C15.6490616,47.8906087 15.4975894,47.8353913 15.6416727,47.3734058 C15.769131,46.9647971 16.1866032,47.0715507 15.985256,46.4733623 C15.769131,45.9211884 15.7118671,45.3690145 15.2389782,45.4647246 C14.7734782,45.5677971 13.9182144,41.617913 13.6836171,41.3123768 C13.4305477,41.0602174 12.3924088,40.8816812 11.9416866,41.3878406 C11.496506,41.9032029 11.2692977,43.3554203 11.0993532,43.0903768 C10.9349505,42.8253333 10.3419921,45.1499855 10.0612144,44.9788116 C9.76935324,44.8646957 9.78967269,42.3946377 10.0316588,41.570058 C10.2847282,40.7473188 10.6024505,39.4736377 11.1898671,38.6048841 C11.7902144,37.7434928 13.5062838,35.3581014 13.5062838,35.3581014 C13.5062838,35.3581014 13.4342421,35.1004203 13.7630477,34.7304638 C14.090006,34.3623478 14.1269505,34.2408696 14.3153671,34.0715362 C14.4982421,33.9022029 15.1189088,33.5083188 15.2592977,33.2414348 C15.4052282,32.9727101 16.0646866,31.8849275 16.0794644,32.1904638 C16.0997838,32.4978406 15.1743255,33.9758261 15.2556032,34.1009855 C15.3719782,34.1746087 16.0425199,33.8285797 16.0942421,34.216942 C16.1219505,34.6568406 15.9963394,34.9274058 16.5043255,34.274 C17.0141588,33.6242754 17.381756,32.2272754 17.6329782,32.6248406 C17.8657282,33.073942 19.0479505,33.2027826 19.1458532,32.9193333 C19.2142005,32.6818986 19.0996727,32.3137826 18.7025199,31.7321594 C18.3700199,31.1155652 17.2949366,31.0621884 17.5941866,30.6867101 C17.8583394,30.359087 18.3700199,30.2247246 18.5750616,29.6265362 C18.7930338,29.032029 19.0516449,28.3915072 19.3878394,28.1982464 C19.7221866,28.0086667 20.0362144,26.123913 20.0362144,26.123913 C20.0362144,26.123913 21.0614227,24.5741449 20.8009644,24.4140145 C20.5054088,24.3054203 19.5503949,24.0974348 19.7018671,23.9814783 C19.8533394,23.8655217 22.0977144,22.2163623 21.9166866,22.739087 C21.7005616,23.3096667 22.3452421,23.3427971 22.5114921,22.901058 C22.6814366,22.4593188 23.4110894,21.5224638 23.6272144,22.0212609 C23.865506,22.5421449 25.3506727,25.279087 25.0551171,25.8791159 C24.8057421,26.4423333 25.178881,26.5674928 25.178881,26.5674928 C25.178881,26.5674928 27.5913532,26.1386377 27.1627977,26.6558406 C26.7360894,27.1730435 26.2742838,27.8835072 26.0914088,27.5466812 C25.8752838,27.2558696 25.5243116,26.7515507 25.012631,26.803087 C24.4566171,26.9024783 24.1758394,27.0294783 23.9338532,27.8246087 C23.6697005,28.6602319 24.4713949,28.7007246 23.5976588,28.8995072 C22.7313116,29.1185362 21.8723532,28.8314058 21.5084505,29.8805362 C21.1297699,30.9756812 20.2782005,31.7616087 20.5275755,31.9511884 C20.8083532,32.0965942 22.9954644,29.8713333 23.2152838,30.4271884 C23.449881,30.9904058 23.8784366,30.9204638 23.7934644,31.3511594 C23.7103394,31.7800145 24.3365477,31.5977971 24.3993532,31.8591594 C24.4917144,32.080029 24.730006,33.1052319 25.0662005,33.1751739 C25.4023949,33.2487971 25.9029921,32.9211739 26.1449782,33.1898986 C26.3869644,33.4623043 28.670131,33.3702754 28.5075755,33.292971 C28.3487144,33.2156667 26.3537144,30.9388696 26.8044366,30.9186232 C27.257006,30.9038986 29.5253949,33.4126087 29.717506,32.8512319 C29.8782144,32.3229855 29.3166588,31.5757101 29.5032282,31.4763188 C29.6916449,31.3769275 30.7556449,30.8781304 30.615256,30.5173768 C30.4748671,30.1584638 29.1042282,29.1903188 28.8659366,28.7964348 C28.5943949,28.4430435 28.2951449,25.9177681 28.7643394,26.1828116 C29.2760199,26.422087 30.316006,26.5325217 30.2107144,27.1343913 C30.1534505,27.6994493 30.1386727,27.7657101 30.3769644,27.946087 C30.615256,28.1264638 31.0438116,29.0541159 31.346756,28.4761739 C31.6607838,27.8963913 31.7919366,26.5362029 32.2131032,26.1386377 C32.5954782,25.7778841 33.2771032,25.3637536 33.0351171,24.9735507 C32.8023671,24.5888696 31.5314782,24.2906957 31.3375199,24.0514203 C31.1029227,23.8489565 29.1781171,22.6544203 28.9952421,22.4335507 C28.8105199,22.2163623 28.6959921,21.8022319 29.0377282,21.3034348 C29.3887005,20.8046377 30.615256,20.4825362 30.1349782,20.2395797 C29.6620894,20.0113478 28.8677838,20.719971 28.8677838,20.719971 C28.8677838,20.719971 27.9201588,21.2353333 28.337631,20.7181304 C28.8068255,20.1659565 29.4958394,20.1806812 29.1504088,19.9322029 C28.8142144,19.6947681 28.038381,19.8788261 27.8444227,20.0205507 C27.6486171,20.1622754 26.6862144,20.1328261 27.273631,19.7021304 C27.8665894,19.2751159 28.1732282,19.2751159 28.121506,19.0137536 C28.121506,18.7192609 27.955256,17.8063333 27.3789227,18.7652754 C26.8266032,19.7371014 26.5993949,19.5567246 26.4479227,19.4702174 C26.3463255,19.3468986 26.0008949,19.415 26.0951032,19.0468841 C26.1486727,18.722942 26.5569088,18.3345797 26.3223116,18.2462319 C26.1412838,18.1247536 26.076631,17.8468261 25.9288532,17.8633913 C25.7810755,17.8799565 25.9325477,17.6682899 26.159756,17.4492609 C26.3906588,17.2320725 26.425756,16.6633333 25.9972005,16.8381884 C25.5667977,17.0185652 24.4122838,17.5284058 24.4233671,17.6443623 C24.4418394,17.764 25.2638532,17.8523478 25.2638532,17.8523478 C25.2638532,17.8523478 25.9898116,17.5394493 25.7662977,17.7658406 C25.5427838,17.9922319 25.0662005,18.306971 24.8537699,18.6419565 C24.646881,18.9806232 24.2515755,19.6745217 24.0631588,19.4628551 C23.8396449,19.3027246 23.998506,18.9088406 23.7343532,19.2806377 C23.4757421,19.6524348 22.8624644,20.2947971 22.934506,20.0923333 C23.0065477,19.8917101 23.7712977,18.9364493 23.7232699,18.7892029 C23.6807838,18.6437971 24.1001032,17.5596957 24.0243671,17.567058 C23.8969088,17.6167536 21.4142421,19.773913 21.4585755,19.9137971 C21.4585755,20.1033768 21.6488394,20.304 21.4807421,20.4935797 C21.3107977,20.685 21.0577282,20.8837826 21.0577282,20.9758116 C21.0115477,21.1120145 21.0170894,21.2997536 20.9321171,21.4856522 C20.8046588,21.7175652 20.4296727,22.4133043 20.3613255,22.4390725 C20.3391588,22.4169855 19.9179921,22.4482754 20.0509921,22.1353768 C20.1876866,21.8243188 20.2209366,21.2242899 20.3040616,21.0328696 C20.3871866,20.8451304 20.6421032,20.6445072 20.7215338,20.5395942 C20.7547838,20.4806957 20.523881,20.431 20.8009644,20.1622754 C21.0835894,19.8953913 22.8255199,18.1597246 22.6925199,18.202058 C22.6057005,18.2038986 21.0281727,19.2695942 20.7252282,19.6137826 C20.3797977,20.0058261 19.2714644,21.1985217 18.9260338,21.7654203 C18.5935338,22.3415217 18.2074644,23.0391014 18.3478532,23.0795942 C18.4919366,23.1256087 19.5467005,22.624971 19.1957282,22.9084203 C18.8502977,23.1937101 17.8435616,23.8360725 18.0098116,23.8139855 C18.1354227,23.8397536 19.4044644,24.2207536 19.4044644,24.2207536 C19.4044644,24.2207536 18.8392144,25.3103768 18.9149505,25.3784783 C18.9500477,25.4925942 19.2068116,25.3876812 19.077506,25.603029 C18.9482005,25.8202174 18.3921866,26.0815797 18.2074644,26.4128841 C17.9839505,26.7938841 17.9876449,27.1196667 17.6274366,27.5466812 C17.2690755,27.9736957 17.1859505,28.3013188 16.9956866,28.4651304 C16.7684782,28.6804783 16.5154088,27.9313623 16.8867005,27.4270435 C17.2579921,26.9227246 17.464881,26.5251594 17.5332282,26.2564348 C17.647756,25.9398551 17.0178532,25.9877101 16.9384227,26.0871014 C16.8589921,26.1883333 16.2531032,27.7252174 16.0905477,27.6773623 C15.9316866,27.6331884 15.7580477,27.819087 15.985256,27.3552609 C16.2198532,26.8895942 16.5726727,26.2803623 16.4858532,26.1257536 C16.3990338,25.9748261 15.5844088,26.4662609 15.9889505,25.8846377 C16.3565477,25.3545507 16.5800616,25.037971 16.5689782,24.9441014 C16.5597421,24.8520725 16.2235477,24.3091014 16.9347282,23.4642754 C17.6588394,22.6268116 17.7955338,22.5734348 17.7604366,22.4537971 C17.7789088,22.2918261 17.1249921,22.7574928 17.8657282,22.1059275 C18.6692699,21.4285942 18.2554921,21.8427246 18.3700199,21.862971 C18.5362699,21.8427246 18.9149505,21.3015942 18.9869921,21.1911594 C19.0590338,21.0807246 19.8127005,20.1714783 19.9530894,20.0371159 C20.1452005,19.8567391 20.8803949,19.2106957 20.8194366,19.1481159 C20.7658671,19.091058 20.0362144,19.7463043 19.9106032,19.8052029 C19.7406588,19.9119565 19.543006,20.084971 19.3989227,20.2193333 C19.2548394,20.3536957 18.528881,21.0199855 18.3589366,21.2224493 C18.1502005,21.4746087 18.3515477,21.3034348 18.0559921,21.6568261 C17.764131,22.012058 17.4537977,22.4372319 17.3337282,22.5955217 C17.2192005,22.7556522 17.215506,22.9286667 16.9402699,23.294942 C16.6705755,23.663058 16.2457144,24.1581739 16.1293394,24.3164638 C16.0536032,24.425058 15.7839088,24.622 15.5603949,25.0269275 C15.3830616,25.3876812 15.6324366,25.1723333 15.3313394,25.5975072 C15.0320894,26.0245217 15.0228532,26.0153188 14.888006,26.2417101 C14.8011866,26.4202464 15.436631,26.5104348 15.2629921,26.7846812 C15.0948949,27.0607681 14.6183116,28.2295362 14.2599505,28.6786377 C13.9440755,29.0798841 13.4157699,29.5676377 13.3658949,29.7664203 C13.3511171,29.9136667 13.4194644,30.2707391 13.2218116,30.3664493 C13.026006,30.464 12.8542144,30.3443623 12.9613532,30.1087681 C13.0333949,29.9247101 13.5598532,29.1995217 13.4194644,29.0982899 C13.2513671,29.0541159 13.3843671,28.8332464 13.558006,28.7191304 C13.7297977,28.6068551 14.123256,28.016029 14.3190616,27.600058 C14.5204088,27.184087 14.6977421,26.422087 14.2137699,27.0313188 C13.7334921,27.6460725 13.6947005,27.6957681 13.6947005,27.6957681 C13.6947005,27.6957681 12.7193671,28.6767971 12.8283532,28.9123913 C12.9299505,29.2234493 13.2033394,28.8626957 13.1497699,28.9823333 C13.092506,29.101971 13.4601032,28.8074783 13.2033394,29.101971 C12.9502699,29.3946232 12.5512699,29.7443333 12.4755338,29.9283913 C12.4034921,30.1142899 12.3166727,30.5228986 12.2409366,30.4713623 C12.1688949,30.4216667 10.9700477,31.3401159 10.9127838,31.226 C10.8666032,31.1174058 10.8222699,30.7805797 10.4805338,31.3364348 C10.1738949,31.8407536 9.75457547,32.4278986 9.72132547,32.5604203 C9.68992269,32.6947826 9.61049213,33.0279275 9.50520047,33.1935797 C9.36481158,33.4144493 8.84943658,34.3973188 8.94549213,34.077058 C9.01938102,33.8156957 9.2669088,33.2046232 9.22072824,33.1770145 C9.2170338,33.0978696 9.17085324,33.1457246 9.17085324,33.1457246 C8.99351991,33.4236522 8.99351991,33.4236522 8.85313102,33.6445217 C8.85313102,33.6445217 8.63331158,33.9739855 8.46336713,34.2537536 L8.45967269,34.2537536 C4.5620338,41.0841449 1.86324213,48.6765362 0.644075466,56.753 L0.647769911,56.7566812 C0.623756022,56.9517826 0.597894911,57.1468841 0.557256022,57.4726667 C0.450117133,58.4500145 0.409478244,59.039 0.276478244,60.343971 C0.165644911,61.7152029 0.0492699106,62.7588116 0.00678379946,63.6754203 C-0.0190773117,64.5276087 0.0344921328,66.0350435 0.0751310217,67.0952174 C0.139783799,68.0744058 0.258006022,69.4437971 0.348519911,69.7658986 C0.457506022,70.1524203 0.666242133,70.2702174 0.741978244,70.723 C0.825103244,71.2365217 1.00243658,72.0666232 1.04122824,72.3887246 C1.07817269,72.7108261 1.13543658,73.355029 1.24072824,73.7986087 C1.3367838,74.1777681 1.48086713,74.0967826 1.54367269,74.4796232 C1.60463102,74.8606232 1.62125602,75.1827246 1.62125602,75.1827246 C1.62125602,75.1827246 1.53258936,75.3262899 1.60832547,75.641029 C1.67667269,75.8931884 1.86693658,75.9944203 1.97592269,76.3036377 C2.07751991,76.5484348 2.26039491,77.1024493 2.31211713,77.5497101 C2.36199213,77.996971 2.34721436,78.0006522 2.4672838,78.238087 C2.6002838,78.539942 2.69818658,78.3908551 2.82749213,78.6927101 C2.95679769,78.9927246 2.97896436,78.7276812 3.02145047,79.1086812 C3.06947824,79.4896812 3.10826991,79.613 3.15260324,79.6663768 C3.18770047,79.6608551 3.37242269,79.6203623 3.29299213,79.2485652 C3.22464491,78.9393478 3.13782547,78.7626522 2.93832547,78.2822609 C2.75175602,77.8626087 2.5504088,77.1208551 2.50607547,76.8686957 C2.46358936,76.6183768 2.37676991,76.4361594 2.3509088,76.3754203 C2.32320047,76.3165217 1.62125602,74.0802174 1.61201991,74.0176377 C1.58985324,73.8906377 1.36633936,73.0071594 1.43468658,72.8709565 C1.49933936,72.6703333 1.53997824,72.4733913 1.63972824,72.8507101 C1.74871436,73.2906087 1.69145047,73.2961304 1.81336713,73.6716087 C1.93343658,73.9789855 1.83922824,74.4428116 2.05535324,74.8679855 C2.28256158,75.2876377 2.75914491,76.7637826 2.83118658,77.0085797 C2.90692269,77.2533768 3.14151991,77.5994058 3.41121436,78.193913 C3.67906158,78.7203188 3.84531158,78.9448696 4.0466588,79.5448986 C4.2627838,80.2038261 4.59897824,80.5148841 4.57681158,80.9695072 C4.56572824,81.4241304 4.45858936,81.5143188 4.53801991,81.7535942 C4.61745047,81.9928696 5.02383936,82.7953623 5.43576991,83.3953913 C5.86432547,83.9862174 6.89692269,84.8365652 7.33656158,85.2764638 C7.78543658,85.709 8.72567269,86.9863623 8.81988102,86.6348116 C8.91408936,86.2832609 9.2502838,85.7255652 9.42207547,85.9169855 C9.5994088,86.1084058 9.6492838,86.5943188 10.0464366,86.702913 C10.4509782,86.8059855 10.9275616,87.6287246 11.1824782,87.9692319 C11.4429366,88.3078986 12.3055894,88.9576232 12.4847699,89.1324783 C12.6879644,89.3588696 12.8616032,88.4772319 13.4342421,89.7822029 C13.9976449,91.0337971 14.1195616,91.1644783 14.5130199,91.7976377 C14.8843116,92.3755797 16.3824088,93.6934348 16.4969366,93.8885362 C16.6096171,94.0817971 17.4427144,94.8971739 17.9765616,94.7775362 C18.4919366,94.6008406 18.4494505,93.9897681 19.0479505,94.5235362 C19.6464505,95.0462609 19.9364644,94.7425652 20.0325199,95.3149855 C20.1341171,95.891087 20.9930755,96.5518551 20.490631,97.415087 C19.9937282,98.224942 19.0331727,99.5133478 19.0239366,100.012145 C18.9832977,100.466768 19.6612282,102.053348 19.6612282,102.053348 C19.6612282,102.053348 19.0664227,102.809826 19.4635755,103.549739 C19.8718116,104.287812 21.321881,105.384797 22.2768949,107.315565 C23.2651588,109.191116 23.3261171,109.215043 24.3882699,110.365406 C25.5169227,111.547058 28.5592977,112.955101 28.6590477,113.597464 C28.7791171,114.228783 28.9915477,114.843536 29.2150616,115.250304 C29.4459644,115.658913 29.4921449,115.697565 29.4866032,115.808 C29.4829088,115.920275 29.4644366,116.25342 29.5715755,116.527667 C29.6805616,116.798232 29.7895477,117.177391 29.7526032,117.232609 C29.7636866,117.319116 30.1349782,118.430826 30.1349782,118.430826 C30.1349782,118.430826 29.2834088,117.99829 29.4829088,118.265174 C29.7378255,118.563348 30.183006,118.69771 30.2901449,118.872565 C30.4563949,119.082391 30.498881,119.362159 30.5284366,119.432101 C30.5579921,119.502043 30.3621866,119.562783 30.3474088,119.588551 C30.3843532,119.647449 30.6374227,120.078145 30.8202977,120.265884 C30.9514505,120.414971 31.047506,120.505159 31.0124088,120.562217 C30.9754644,120.617435 31.1915894,120.875116 31.2026727,120.976348 C31.2174505,121.075739 31.2710199,121.353667 31.2359227,121.528522 C31.2100616,121.692333 31.1232421,121.710739 31.2784088,121.834058 C31.3763116,121.920565 31.6109088,122.040203 31.5850477,122.075174 C31.5684227,122.111986 31.4021727,122.007072 31.5536449,122.134072 C31.7051171,122.257391 31.9674227,122.458014 32.1188949,122.585014 C32.2167977,122.677043 31.9027699,122.562928 32.0006727,122.653116 C32.1004227,122.743304 32.1484505,122.789319 32.4015199,123.006507 C32.660131,123.216333 32.9852421,123.442725 32.9168949,123.428 C32.909506,123.442725 32.5049644,123.216333 32.959381,123.485058 C33.0184921,123.518188 33.0720616,123.551319 33.1293255,123.584449 L33.1367144,123.593652 C35.0338116,124.675913 36.9937144,125.664304 39.0071866,126.556986 L39.0071866,126.556986 Z M65.7420338,1 C67.439631,1 69.1261449,1.06442029 70.7923394,1.18957971 L70.7923394,1.19142029 C70.7923394,1.19326087 70.7239921,1.18957971 70.7239921,1.18957971 C70.1975338,1.17301449 69.9370755,1.1546087 69.9370755,1.1546087 C69.9370755,1.1546087 69.2111171,1.10307246 68.753006,1.0993913 C68.2912005,1.11043478 67.7647421,1.06442029 67.5024366,1.05521739 C67.306631,1.04785507 66.9094782,1.06810145 66.7118255,1.08466667 C66.5160199,1.10307246 66.9759782,1.11411594 67.4377838,1.08282609 C67.8293949,1.06257971 67.9642421,1.1085942 68.8139644,1.12884058 C69.6692282,1.16197101 69.6692282,1.18221739 69.9296866,1.21534783 C70.1938394,1.254 69.9296866,1.24295652 69.3995338,1.30737681 C68.8047282,1.3994058 68.2228532,1.17301449 67.8922005,1.20614493 C67.5633949,1.24663768 67.4987421,1.25768116 67.3638949,1.33866667 C67.1662421,1.43069565 67.2955477,1.40308696 67.8848116,1.42149275 C68.4759227,1.44542029 68.2819644,1.34602899 68.2819644,1.34602899 C68.2819644,1.34602899 68.869381,1.37915942 68.869381,1.40308696 C68.869381,1.42517391 67.8164644,1.57794203 67.8164644,1.57794203 C67.8164644,1.57794203 68.1304921,1.92213043 68.1304921,1.96814493 C68.1267977,2.01231884 66.957506,2.16508696 66.6970477,2.24055072 C66.5030894,2.31969565 66.758006,2.43381159 67.0110755,2.66756522 C67.3251032,2.92156522 66.8780755,2.91052174 66.5566588,2.97862319 C66.2352421,3.04856522 66.2998949,3.17004348 66.2352421,3.35410145 C66.1705894,3.54552174 66.741381,3.51791304 66.9316449,3.48294203 C67.123756,3.44797101 67.8848116,3.35226087 67.9494644,3.38355072 C68.0104227,3.41668116 67.3675894,3.71117391 67.2382838,3.84185507 C67.0480199,3.97253623 68.1157144,3.99278261 68.2413255,3.97437681 C68.3669366,3.95781159 68.8730755,3.9302029 68.8730755,3.9302029 C68.8730755,3.9302029 68.9488116,4.93147826 68.8804644,5.02350725 C68.8139644,5.11553623 68.0898532,4.7106087 67.6594505,4.52286957 C67.2272005,4.33881159 66.408881,4.73085507 65.9747838,5.05663768 C65.5425338,5.39714493 66.5234088,5.48181159 66.708131,5.51678261 C66.8928532,5.5535942 68.3096727,6.76653623 68.3022838,6.99108696 C68.2912005,7.223 66.6896588,6.64873913 66.3904088,6.54566667 C66.0911588,6.44443478 66.8596032,7.2414058 67.3287977,7.48988406 C67.855256,7.7494058 68.4223532,8.27213043 68.2487144,8.2574058 C68.071381,8.24452174 66.6619505,8.5114058 66.1336449,8.70098551 C65.610881,8.89608696 67.1625477,9.4004058 67.2770755,9.43537681 C67.389756,9.47034783 67.5984921,10.1624058 67.5984921,10.1624058 C67.5984921,10.1624058 66.3479227,10.432971 66.0117282,10.1035072 C65.6145755,9.77772464 65.5037421,10.6225507 65.5037421,10.6225507 C65.5037421,10.6225507 65.2820755,11.3054058 65.0585616,11.0587681 C64.8313532,10.8176522 63.2224227,11.1268696 63.2224227,11.1268696 C63.2224227,11.1268696 64.6872699,11.9091159 65.128756,12.2643478 C65.6219644,12.6251014 66.6323949,13.6411014 67.0480199,14.1362174 C67.4507144,14.6386957 66.242631,15.4835217 65.6792282,15.7135942 C65.1213671,15.9473478 64.5394921,15.0859565 64.5394921,15.0859565 C64.5394921,15.0859565 63.9834782,13.919029 63.4459366,13.7607391 C62.9083949,13.6061304 62.9416449,14.2613768 63.3738949,14.4767246 C63.748881,14.6957536 62.4576727,14.9405507 62.0568255,15.1761449 C61.6652144,15.4117391 61.9718532,16.1001159 62.9231727,15.7927391 C63.8837282,15.4927246 65.8307005,16.2988986 65.8307005,16.2988986 C65.8307005,16.2988986 59.6646727,19.6432319 58.7373671,19.865942 C57.8156032,20.0904928 57.082256,18.9751014 57.082256,18.9751014 C57.082256,18.9751014 57.0379227,19.5438406 57.4221449,20.0389565 C57.797131,20.5432754 54.8785199,22.9820435 54.3520616,23.282058 C53.8274505,23.5820725 53.8754782,24.402971 53.4284505,23.802942 C52.9721866,23.2121159 51.4389921,25.1557681 50.9162282,25.2625217 C50.432256,25.3563913 49.7617144,26.8748696 49.867006,27.5890145 C49.9815338,28.3105217 48.6829366,29.263942 47.9643671,30.0461884 C47.2328671,30.845 46.0395616,35.3673043 46.0395616,35.3673043 C46.0635755,35.4114783 45.6128532,35.5955362 45.6128532,35.5955362 C45.6128532,35.5955362 45.0974782,35.0102319 44.912756,34.378913 C44.7391171,33.7512754 44.3105616,34.3733913 44.1055199,33.9206087 C43.8672282,33.4917536 42.5760199,34.4157246 42.4097699,33.9114058 C42.2509088,33.4107681 42.8715755,33.7991304 43.1154088,33.0187246 C43.3463116,32.2567246 40.4997421,29.6173333 40.191256,29.0007391 C39.8864644,28.3896667 40.0674921,28.1614348 41.5064782,27.6718406 C42.9713255,27.1804058 40.889506,27.0368406 40.5939505,26.7386667 C40.3390338,26.422087 39.4154227,25.5128406 39.4542144,25.1207971 C39.5003949,24.7287536 38.8335477,23.2783768 39.0570616,22.8642464 C39.2879644,22.4519565 39.6130755,21.5703188 40.3057838,21.0991304 C40.9541588,20.6537101 41.5286449,20.1696377 41.6579505,19.4978261 C41.7521588,18.8591449 42.2897005,18.618029 42.3617421,18.1578841 C42.4448671,17.7014203 42.2970894,17.7732029 41.521256,17.6682899 C40.7860616,17.5541739 41.3919505,18.5075942 41.3919505,18.5075942 C40.7749782,19.1886087 40.7749782,19.1886087 40.1210616,19.8972319 C40.1210616,19.8972319 39.0866171,18.6953333 39.1180199,18.2996087 C39.1069366,17.9314928 40.6438255,18.0032754 40.6087282,17.6922174 C40.6272005,17.3590725 39.2085338,17.5357681 39.4874644,17.2247101 C39.7682421,16.9136522 40.424006,16.3467536 41.1241032,16.8657971 C41.8722282,17.3922029 42.2582977,17.1786957 42.3506588,16.7314348 C42.4485616,16.2896957 42.0052282,15.9970435 42.1345338,15.2037536 C42.2287421,14.4509565 41.421506,15.0215362 40.8211588,15.224 C40.2189644,15.4301449 39.3784782,16.170058 39.2528671,15.8037826 C39.1808255,15.4154203 39.3175199,15.3031449 39.6167699,14.9994493 C39.8698394,14.7233623 40.4221588,14.6663043 40.191256,14.3276377 C39.9123255,14.023942 40.2725338,14.0957246 40.6659921,13.6981594 C41.0132699,13.3245217 40.590256,13.6723913 40.2799227,13.157029 C39.9769782,12.6655942 39.2196171,13.1533478 39.7349921,12.7079275 C40.2559088,12.2698696 39.6463255,11.9698551 39.6500199,11.8354928 C39.7109782,11.6772029 39.493006,11.3661449 39.4246588,11.2188986 C39.3563116,11.0753333 39.4283532,10.6483188 39.6241588,10.1881739 C39.8328949,9.74091304 39.1660477,9.93969565 38.7688949,9.69121739 C38.3255616,9.49611594 37.4019505,9.63415942 37.1063949,9.61391304 C36.7554227,9.63047826 35.7597699,10.3483043 34.5978671,10.7587536 C33.5560338,11.1342319 33.1182421,11.1489565 32.909506,11.0477246 C32.7081588,10.9612174 32.9704644,10.8949565 32.9279782,10.6943333 C32.8947282,10.5102754 32.5308255,10.6648841 32.7118532,10.4568986 C32.8947282,10.2562754 33.4285755,10.1329565 33.6317699,9.96362319 C33.8940755,9.76668116 33.8940755,9.89552174 34.4205338,9.4997971 C34.8971171,9.1464058 35.2111449,9.18321739 35.6618671,8.92369565 C36.1790894,8.6384058 35.4457421,8.93105797 35.3737005,8.93105797 C35.3016588,8.93473913 34.2838394,9.52188406 33.9384088,9.70594203 C33.5338671,9.92313043 33.2660199,9.98018841 33.6096032,9.78876812 C34.0104505,9.56973913 33.9531866,9.60102899 34.0030616,9.42249275 C34.1249782,9.2365942 33.4692144,9.54397101 33.5560338,9.42801449 C33.7112005,9.30101449 35.453131,8.37704348 35.8613671,8.16721739 C36.2141866,7.98868116 36.1495338,8.0034058 36.683381,7.74756522 C37.1599644,7.52669565 37.9357977,7.16778261 38.2886171,6.99292754 C38.6469782,6.8235942 38.9462282,6.68555072 39.3673949,6.49781159 C39.5484227,6.41866667 39.5447282,6.41498551 39.4874644,6.4425942 L39.476381,6.43523188 C47.2864366,3.04488406 55.8834088,1.11963768 64.9218671,1.01104348 C64.7851727,1.01472464 64.6078394,1.02208696 64.4101866,1.03681159 C63.8837282,1.08282609 65.0012977,1.04785507 65.2654505,1.0276087 C65.4520199,1.0184058 65.5794782,1.00552174 65.6478255,1 L65.7420338,1 L65.7420338,1 Z M89.9720477,5.58856522 C90.4541727,5.77998551 90.9381449,5.97692754 91.4147282,6.1793913 L91.4258116,6.1977971 C91.4867699,6.22356522 91.5477282,6.24933333 91.6049921,6.27510145 C92.028006,6.46284058 92.6228116,6.7426087 92.6228116,6.7426087 C92.6228116,6.7426087 92.4510199,6.64873913 92.5119782,6.66898551 L92.5156727,6.65794203 C93.0495199,6.89537681 93.5796727,7.13833333 94.106131,7.38865217 L94.0654921,7.38313043 C94.0654921,7.38313043 94.0654921,7.38313043 94.0082282,7.35368116 C93.4097282,7.07575362 93.1677421,6.97268116 93.0458255,6.93034783 C92.9737838,6.92298551 93.9287977,7.36288406 94.4016866,7.59847826 C94.8099227,7.80830435 95.4305894,8.18746377 95.7150616,8.34575362 C96.0032282,8.50404348 95.9274921,8.5114058 96.0290894,8.59975362 C96.1306866,8.68994203 96.6793116,8.91265217 97.0247421,9.10223188 C97.3683255,9.29365217 97.2057699,9.31573913 97.2888949,9.43353623 C97.3720199,9.55685507 97.0893949,9.65808696 96.8363255,9.58078261 C96.5851032,9.50347826 96.8197005,9.34334783 96.7402699,9.21450725 C96.6571449,9.09302899 95.9385755,9.05437681 95.4342838,8.75436232 C94.9835616,8.48747826 95.1886032,8.51508696 95.2569505,8.38256522 C95.3105199,8.27213043 94.6750755,8.08255072 94.6935477,8.04205797 C94.654756,7.97763768 94.1449227,7.67394203 93.9287977,7.51565217 C93.7699366,7.39049275 94.0193116,8.52797101 94.0839644,8.69362319 C94.2040338,8.8924058 94.0377838,9.08014493 93.5870616,8.83534783 C93.1326449,8.5923913 91.5403394,7.57455072 91.1579644,7.3223913 C90.7718949,7.07391304 91.7139782,7.34447826 91.7749366,7.19907246 C91.8358949,7.06655072 90.9750894,6.93034783 90.7257144,6.67450725 C90.415381,6.40762319 90.9067421,6.58431884 90.9270616,6.53646377 C91.0064921,6.51621739 91.5735894,6.68923188 91.4258116,6.53462319 C91.2743394,6.38921739 90.4948116,6.38553623 90.2454366,6.3063913 C89.9960616,6.22724638 89.534256,5.96956522 89.3735477,5.85176812 C89.2072977,5.73765217 89.2867282,5.89226087 89.3735477,6.03030435 C89.3938671,6.14994203 88.6752977,5.65850725 88.3557282,5.39162319 C88.3557282,5.39162319 88.1747005,5.31984058 88.1174366,5.29223188 C88.0564782,5.26278261 87.7461449,5.16155072 87.8255755,5.13578261 C87.9622699,5.13578261 88.5496866,5.4357971 88.5072005,5.36217391 C88.4628671,5.29223188 88.0527838,5.0824058 87.6944227,4.91491304 C87.3342144,4.75294203 87.1605755,4.64802899 86.9222838,4.53023188 C86.7431032,4.44372464 88.2966171,4.97933333 88.7344088,5.13578261 C89.1629644,5.29775362 89.9572699,5.61801449 89.8353532,5.56647826 C89.7152838,5.51678261 89.8372005,5.55727536 89.9646588,5.60144928 L89.9720477,5.58856522 L89.9720477,5.58856522 Z M114.20945,22.2163623 C114.702659,22.7482899 115.186631,23.2875797 115.65952,23.837913 L115.663214,23.8415942 L115.702006,23.8931304 C115.868256,24.0992754 115.95877,24.2778116 116.464909,24.9698696 C116.983978,25.7281884 118.384173,27.2982029 118.304742,27.3571014 C118.149575,27.3920725 117.373742,26.5030725 117.373742,26.5030725 C117.070798,26.1625652 116.749381,25.580942 116.367006,25.1336812 C115.977242,24.6901014 115.136756,23.8618406 115.230964,23.8692029 C115.27345,23.8305507 115.443395,23.8581594 115.295617,23.6372899 C115.144145,23.421942 114.746992,22.8992174 114.80795,22.9323478 C114.909548,23.0188551 115.009298,23.1016812 114.793173,22.8587246 C114.645395,22.6967536 114.392325,22.4188261 114.20945,22.2163623 L114.20945,22.2163623 Z M121.832937,32.2530435 C122.545964,33.407087 123.225742,34.5832174 123.866728,35.7832754 L123.859339,35.7832754 C123.827937,35.7262174 123.700478,35.4943043 123.824242,35.7262174 C123.91845,35.9010725 124.165978,36.363058 124.165978,36.363058 L124.195534,36.4219565 L124.202923,36.4219565 C128.911492,45.4555217 131.573339,55.7185942 131.573339,66.5982609 C131.573339,73.6053478 130.465006,80.3565942 128.423825,86.6881884 L128.416437,86.6716232 C128.514339,86.3587246 128.612242,86.0439855 128.684284,85.7918261 C128.854228,85.1586667 129.160867,83.9494058 129.181187,83.7543043 C129.199659,83.5555217 129.160867,83.5426377 129.260617,83.0972174 C129.343742,82.7125362 129.642992,81.0376087 129.683631,80.8461884 C129.729812,80.5885072 129.975492,79.4381449 129.90345,79.6240435 C129.831409,79.8081014 129.539548,80.0142464 129.539548,80.0142464 C129.539548,80.0142464 129.484131,79.1436522 129.49152,78.9467101 C129.506298,78.6853478 129.229214,77.4558406 129.022325,77.4208696 C128.795117,77.4466377 128.170756,78.0448261 128.082089,77.9656812 C127.987881,77.8846957 126.940506,78.2620145 126.86477,77.869971 C126.772409,77.5386667 126.469464,76.4876957 126.3457,76.7159275 C126.227478,76.9441594 125.978103,77.3951014 125.769367,77.1723913 C125.566173,76.8926232 123.914756,74.9434493 123.820548,74.7538696 C123.730034,74.5053913 123.391992,74.3415797 123.283006,74.5017101 C123.181409,74.6047826 123.162937,74.8955942 123.203575,75.0170725 C123.238673,75.1385507 123.404923,75.6925652 123.460339,75.8784638 C123.502825,76.1232609 123.93877,77.3895797 124.021895,77.5846812 C124.108714,77.7816232 124.476312,77.3693333 124.552048,77.8073913 C124.611159,78.3061884 124.311909,78.793942 124.4837,79.2577681 C124.664728,79.6645362 124.823589,79.0847536 125.021242,79.0645072 C125.213353,79.0424203 125.558784,78.8049855 125.664075,78.5767536 C125.758284,78.4092609 126.209006,77.3141159 126.295825,77.5147391 C126.382645,77.7190435 126.504562,77.615971 126.500867,77.9914493 C126.493478,78.365087 126.462075,78.7368841 126.519339,78.7479275 C126.572909,78.758971 126.936812,79.0221739 127.053187,79.2356812 C127.154784,79.5117681 127.333964,79.6148406 127.33027,79.8062609 C127.326575,79.9995217 126.800117,81.9394928 126.685589,81.9744638 C126.56552,82.0075942 126.277353,81.8713913 126.277353,82.257913 C126.292131,82.5818551 126.425131,82.7475072 126.240409,83.0217536 C126.039062,83.3548986 125.689937,83.6457101 125.471964,84.1003333 C125.266923,84.4923768 124.505867,85.0979275 123.71895,86.0642319 C122.882159,87.0599855 121.402534,88.4293768 121.201187,88.5416522 C120.996145,88.652087 119.732645,89.5355652 119.690159,89.0091594 C119.634742,88.4845942 119.209881,86.2280435 119.209881,86.2280435 C119.209881,86.2280435 117.715478,84.4518841 117.918673,83.5389565 C118.116325,82.6278696 118.195756,81.7977681 117.82077,81.2952899 C117.431006,80.7964928 116.560964,78.0816377 116.416881,77.6785507 C116.272798,77.2773043 116.121325,75.733058 115.962464,75.3428551 C115.803603,74.9563333 115.652131,76.3165217 115.663214,76.6294203 C115.677992,76.9441594 115.27345,76.7048841 115.186631,76.4324783 C115.088728,76.2079275 114.630617,75.5618841 114.619534,75.710971 C114.617687,75.8140435 114.977895,76.6956812 115.049937,76.8134783 C115.110895,76.9791304 115.277145,77.0141014 115.367659,77.5000145 C115.458173,77.9877681 115.644742,78.9246232 115.753728,79.2706522 C115.857173,79.6148406 116.348534,81.645 116.402103,81.7167826 C116.453825,81.7867246 116.583131,82.7143768 116.666256,83.3567391 C116.741992,84.0046232 117.05602,85.5525507 117.192714,85.7771014 C117.303548,86.055029 118.555964,86.5262174 118.45252,86.909058 C118.347228,87.290058 118.195756,87.7152319 118.437742,87.937942 C118.676034,88.156971 118.694506,89.2171449 118.805339,89.703058 C118.929103,90.1374348 118.990062,90.8037246 119.51652,90.5902174 C120.057756,90.3141304 123.325492,88.2600435 123.011464,89.1269565 C122.6882,89.9883478 121.533687,92.9737681 121.020159,93.7504928 C120.504784,94.5216957 119.244978,96.0015217 118.544881,96.9346957 C117.835548,97.8549855 115.424923,100.831203 114.944645,101.598725 C114.46252,102.366246 114.532714,103.174261 114.266714,103.737478 C113.993325,104.300696 113.838159,104.565739 113.873256,104.674333 C113.9102,104.781087 114.085687,105.631435 113.919437,106.058449 C113.7107,106.533319 112.452742,109.010739 112.177506,109.272101 C111.904117,109.533464 110.080909,111.101638 109.746562,111.475275 C109.451006,111.802899 108.747214,112.336667 108.713964,112.579623 C108.630839,112.861232 109.039075,112.743435 108.782312,113.117072 C108.569881,113.448377 107.762645,114.644754 107.461548,114.88587 C107.112423,115.163797 106.597048,115.445406 106.427103,115.739899 C106.257159,116.032551 106.1962,116.163232 105.882173,116.485333 C105.560756,116.803754 105.366798,116.969406 104.856964,117.468203 C104.295409,117.99829 103.695062,118.600159 103.259117,118.984841 C102.869353,119.329029 101.567062,120.28613 100.708103,120.746275 C99.8454505,121.191696 98.860881,121.55429 98.1829505,121.924246 C97.4514505,122.321812 96.9563949,122.491145 96.732881,122.619986 C96.5130616,122.750667 95.9311866,122.890551 95.8813116,122.798522 C95.8887005,122.673362 95.5709782,122.487464 95.5709782,122.487464 C95.6171588,122.303406 96.0697282,121.811971 95.8776171,121.591101 C95.6762699,121.357348 95.4915477,120.507 95.2310894,120.162812 C94.9650894,119.802058 94.9355338,119.126565 95.1276449,118.607522 C95.3068255,118.077435 95.5284921,117.749812 95.4841588,117.55471 C95.4379782,117.359609 95.1054782,117.138739 95.1350338,116.958362 C95.1664366,116.777986 95.0980894,116.209246 94.9281449,116.03071 C94.7563532,115.852174 93.9583532,115.500623 94.1486171,115.160116 C94.3407282,114.817768 95.2421727,112.483913 95.4010338,112.323783 C95.5137144,112.196783 96.9416171,111.193667 96.9139088,110.775855 C96.8806588,110.356203 96.6202005,109.90158 96.5407699,109.789304 C96.5056727,109.645739 96.3394227,109.23529 96.4724227,109.058594 C96.5592421,108.911348 96.7642838,108.657348 96.6571449,108.515623 C96.5093671,108.401507 96.1953394,107.801478 96.2064227,107.643188 C96.1731727,107.516188 96.1583949,106.317971 95.6079227,105.841261 C95.0482144,105.346145 93.3229088,105.033246 93.773631,104.210507 C94.2114227,103.391449 94.6362838,102.217159 94.6695338,101.895058 C94.6972421,101.572957 95.5284921,100.383942 95.0685338,100.131783 C94.5753255,99.9035507 94.1781727,99.5133478 93.7089782,99.6311449 C93.208381,99.771029 92.6154227,100.001101 92.3198671,99.7691884 C92.0243116,99.5354348 91.3094366,98.5746522 90.9122838,98.5323188 C90.5169782,98.4881449 89.3587699,98.4182029 89.3587699,98.4182029 C89.3587699,98.4182029 88.4628671,98.663 87.921631,99.0605652 C87.4173394,99.4342029 86.3348671,100.234855 85.5183949,100.094971 C84.6816032,99.9642899 83.5788116,99.9385217 83.0560477,100.164913 C82.5314366,100.387623 80.7968949,100.85329 80.0321449,100.963725 C79.2341449,101.085203 74.8654644,98.005913 74.4461449,97.3727536 C74.039756,96.7303913 73.1992699,94.9045362 72.7873394,94.5861159 C72.4086588,94.2566522 70.897631,93.7817826 71.030631,93.0289855 C71.1710199,92.2706667 71.8249366,90.2681159 71.961631,90.0104348 C72.1167977,89.7472319 72.5859921,86.852 72.4160477,86.1544203 C72.2387144,85.4568406 71.8988255,83.9604493 72.1260338,83.7800725 C72.3550894,83.6033768 74.3777977,79.8872464 75.2053532,79.162058 C76.0273671,78.4313478 78.1165755,76.8797391 78.1165755,76.8797391 C78.1165755,76.8797391 77.9355477,76.4840145 78.3936588,75.618942 C78.8517699,74.7538696 78.9496727,73.805971 79.5333949,73.2188261 C80.1226588,72.6243188 80.9779227,71.9856377 81.5616449,71.3027826 C82.1453671,70.6162464 82.5536032,69.9757246 82.5997838,69.741971 C82.6441171,69.522942 82.867631,68.9321159 83.1779644,69.383058 C83.4846032,69.834 84.147756,69.7843043 84.5024227,69.7879855 C84.8552421,69.7898261 86.8724088,69.7162029 87.439506,69.4898116 C88.0010616,69.2726232 89.0004088,68.3615362 89.4732977,68.3265652 C89.9461866,68.2658261 91.6918116,67.8664203 93.0384366,67.767029 C94.3739782,67.6823623 96.4299366,67.0860145 97.0395199,67.4081159 C97.6417144,67.709971 98.3639782,68.0283913 98.1644782,68.2455797 C97.963131,68.4627681 97.3960338,68.9357971 97.8338255,69.741971 C98.2697699,70.5058116 98.3344227,71.5733478 98.5653255,72.0445362 C98.7962282,72.523087 98.9920338,72.6961014 99.7013671,72.720029 C100.408853,72.7421159 100.961173,72.3335072 101.483937,73.078942 C102.014089,73.7746812 103.547284,74.4299275 104.655617,74.66 C105.756562,74.8458986 106.299645,71.6764203 107.297145,72.2635652 C108.270631,72.8727971 108.948562,73.5464493 109.929437,73.793087 C110.901075,73.9973913 112.5137,73.7838841 112.5137,73.7838841 C112.5137,73.7838841 112.925631,72.8875217 113.627575,73.5648551 C114.320284,74.2108986 114.407103,74.3728696 114.850437,74.0434058 C115.284534,73.7544348 115.844242,73.2261884 115.844242,73.2261884 C115.844242,73.2261884 115.799909,71.704029 116.056673,70.9714783 C116.302353,70.2831014 116.579437,69.5395072 116.640395,69.3388841 C116.701353,69.1382609 116.88977,68.1277826 116.39102,68.2639855 C115.886728,68.3965072 115.338103,69.1198551 115.068409,68.8603333 C114.793173,68.6523478 114.274103,68.0486377 113.865867,68.3725797 C113.455784,68.6431449 112.877603,68.9486812 112.654089,68.8897826 C112.423187,68.8787391 110.701575,69.5137391 110.701575,69.5137391 C110.701575,69.5137391 110.031034,68.6725942 110.103075,68.1461884 C110.175117,67.6602754 110.515006,67.3565797 110.450353,66.8651449 C110.382006,66.3755507 109.97377,65.8491449 110.208367,65.3558696 C110.442964,64.858913 110.768075,63.7674493 110.969423,63.6643768 C111.163381,63.5152899 109.619103,64.1907826 109.447312,64.2441594 C109.277367,64.3398696 109.316159,65.4258116 109.148062,65.4294928 C108.974423,65.4331739 107.842075,64.1613333 107.703534,64.5055217 C107.563145,64.846029 107.603784,65.4294928 107.816214,66.1362754 C108.028645,66.808087 107.210325,67.5903333 107.210325,67.5903333 C107.210325,67.5903333 106.094603,66.7178986 106.094603,66.4767826 C106.094603,66.1951739 105.128506,63.6883043 105.163603,63.4876812 C105.200548,63.287058 104.746131,62.5011304 104.515228,62.2121594 C104.28802,61.9655217 101.762867,60.2887536 101.249339,59.7549855 C100.737659,59.2377826 99.7493949,57.2554783 99.5646727,57.5610145 C99.3781032,57.861029 98.993881,58.4536957 98.993881,58.4536957 C98.993881,58.4536957 99.3226866,59.1844058 99.6053116,59.4052754 C99.8823949,59.6316667 99.8602282,60.3752609 101.003659,61.1795942 C102.134159,61.9673623 104.160562,63.6054783 104.312034,63.8245072 C104.463506,64.0472174 104.247381,65.0245652 104.247381,65.0245652 C104.247381,65.0245652 102.996812,63.957029 103.002353,64.3674783 C103.002353,64.7392754 103.68952,65.5012754 103.497409,65.6945362 C103.308992,65.9246087 102.089825,67.2866377 101.899562,67.1025797 C101.70745,66.8853913 101.509798,67.132029 101.544895,67.3124058 C101.585534,67.490942 101.524575,68.0247101 101.234562,68.0836087 C100.9427,68.1425072 98.8461032,67.0602464 99.1065616,66.8964348 C99.3633255,66.7326232 100.521534,66.5283188 100.848492,66.4933478 C101.180992,66.4565362 101.624325,67.0271159 101.66127,66.7050145 C101.700062,66.4178841 101.8737,65.8417826 101.949437,65.6963768 C102.025173,65.5491304 102.274548,65.2509565 101.945742,64.9012464 C101.616937,64.557058 98.5265338,62.2931449 98.2402144,61.867971 C97.9557421,61.417029 96.3468116,59.0371594 96.2267421,59.0353188 C96.1048255,59.0334783 95.4804644,59.4715362 95.253256,59.6500725 C95.037131,59.8562174 93.9010894,61.1722319 93.3155199,60.9127101 C92.7317977,60.6403043 91.5809782,59.7200145 91.2337005,60.3550145 C90.880881,60.9697681 90.8365477,61.1096522 91.1413394,61.3875797 C91.4368949,61.6471014 91.2743394,62.0207391 91.1875199,62.1146087 C91.1043949,62.2324058 90.5742421,62.248971 90.2195755,62.8121884 C89.8593671,63.357 89.2165338,63.6349275 88.9819366,63.8281884 C88.7491866,63.9956812 88.220881,64.5312899 88.1820894,65.2988116 C88.1396032,66.0626522 88.3557282,65.6503623 88.0527838,66.1988551 C87.7479921,66.7068551 87.2252282,67.6897246 86.4863394,68.0044638 C85.7400616,68.3357681 84.2752144,68.1351449 83.964881,68.3836232 C83.6545477,68.6228986 83.0412699,69.0278261 82.9396727,68.9597246 C82.8380755,68.8768986 82.0733255,68.1811594 81.9846588,68.0412754 C81.8941449,67.9050725 81.1423255,67.5958551 80.9188116,67.7044493 C80.6916032,67.8075217 79.6165199,67.1927681 79.592506,67.0123913 C79.5703394,66.8320145 78.6929088,64.7650435 78.9422838,64.1631739 C79.1842699,63.5447391 79.675631,62.3943768 79.6497699,61.9581594 C79.6276032,61.5311449 79.2914088,60.8077971 79.2914088,60.8077971 C79.2914088,60.8077971 78.9034921,60.1323043 79.3671449,59.9040725 C79.8234088,59.6629565 80.1152699,59.1770435 80.4754782,59.3224493 C80.8356866,59.4604928 81.1367838,59.4696957 81.5283949,59.477058 C81.9181588,59.4752174 82.651506,59.2341014 82.8934921,59.3721449 C83.1243949,59.4973043 83.6139088,59.7292174 84.1920894,59.6776812 C84.7573394,59.6151014 86.4438532,59.6924058 86.5288255,59.5727681 C86.6156449,59.4715362 87.3046588,57.838942 87.0349644,57.1211159 C86.7597282,56.4014493 86.7098532,55.5326957 86.309006,55.2934203 C85.9155477,55.0615072 83.4476588,52.6742754 83.4476588,52.6742754 C83.4476588,52.6742754 83.9279366,52.3576957 84.181006,52.308 C84.447006,52.2785507 86.4863394,53.2025217 86.2221866,52.873058 C85.9451032,52.5251884 85.8010199,51.5901739 85.9875894,51.5441594 C86.1797005,51.4981449 87.0885338,51.5073478 87.2917282,51.5257536 C87.4782977,51.523913 88.7658116,51.1686812 88.9283671,50.8925942 C89.0872282,50.6128261 89.7189782,49.6133913 89.9277144,49.4274928 C90.1549227,49.2673623 90.249131,48.7906522 90.8439366,48.4354203 C91.4221171,48.0581014 92.2404366,45.6358986 92.2404366,45.6358986 C92.2404366,45.6358986 93.0642977,44.0345942 93.1825199,44.2131304 C93.3229088,44.4174348 92.9774782,45.796029 93.3155199,45.6230145 C93.6775755,45.4812899 93.9140199,45.0782029 94.0636449,44.8757391 C94.2280477,44.7027246 94.6288949,43.4640145 94.4090755,42.7811594 C94.1818671,42.090942 94.3407282,40.6792174 94.6104227,40.5411739 C94.8524088,40.3755217 96.0217005,39.1018406 96.1768671,39.5122899 C96.3283394,39.9208986 97.1503532,41.6988986 97.5087144,41.4172899 C97.8873949,41.166971 97.7894921,41.0381304 97.7100616,40.8356667 C97.6601866,40.6663333 97.2242421,39.9595507 97.1078671,39.6227246 C96.9933394,39.2858986 96.6017282,37.5447101 96.5370755,37.4876522 C96.4761171,37.4324348 96.151006,37.2741449 95.9311866,37.4858116 C95.7372282,37.7306087 95.1959921,38.4760435 94.6695338,38.7576522 C94.1707838,39.0742319 93.4596032,38.9435507 93.3118255,38.9269855 C93.1640477,38.9085797 90.9418394,36.2231739 91.0101866,35.7648696 C91.0711449,35.3084058 91.4516727,35.3544203 91.2226171,35.1188261 C91.0286588,34.909 90.8088394,34.4672609 90.8125338,34.2592754 C90.8162282,34.054971 90.6795338,33.2782464 90.8347005,33.2119855 C90.9529227,33.1217971 91.2337005,31.8886087 91.4572144,31.6585362 C91.645631,31.4045362 92.5193671,29.9854493 92.925756,29.6615072 C93.3709366,29.3725362 94.2908532,28.4559275 94.5605477,28.4927391 C94.8320894,28.5313913 94.9170616,28.4945797 95.1165616,27.9184783 C95.2643394,27.3147681 95.9071727,27.8503768 95.8203532,27.2393043 C95.718756,26.6245507 95.5894505,25.7024203 95.7224505,25.6067101 C95.8997838,25.5404493 96.0401727,24.6459275 96.3578949,24.4747536 C96.6719227,24.3072609 97.0930894,23.640971 97.1799088,23.5213333 C97.2667282,23.4053768 97.5733671,22.8936957 97.464381,22.7648551 C97.3997282,22.6673043 97.2020755,22.2918261 97.0173532,22.3654493 C96.8769644,22.4722029 96.6017282,22.5789565 96.4945894,22.6396957 C96.3856032,22.7004348 96.0327838,22.4611594 96.0623394,22.7924638 C96.0900477,23.1274493 96.3615894,23.2931014 96.2932421,23.3004638 C96.1805616,23.2746957 95.9274921,23.2654928 95.8055755,23.1642609 C95.6393255,23.0317391 95.3770199,22.5715942 95.6577977,22.3452029 C95.8923949,22.0948841 96.4299366,21.7819855 96.5592421,21.6917971 C96.6386727,21.574 96.6349782,21.0972899 96.9065199,20.8893043 C97.1799088,20.6868406 97.5585894,20.3352899 97.6675755,20.3721014 C97.7784088,20.4107536 98.0499505,20.5138261 98.3270338,20.4162754 C98.5542421,20.2911159 98.9366171,19.9469275 99.110256,19.9064348 C99.2802005,19.8641014 99.1416588,19.6597971 99.2691171,19.4831014 C99.3947282,19.3064058 99.5720616,19.0579275 99.8214366,19.2106957 C100.022784,19.3303333 100.4772,19.3045652 100.704409,19.4886232 C100.889131,19.6395507 100.935312,19.5751304 101.0757,19.4867826 C101.214242,19.3984348 101.339853,19.1333913 101.502409,19.1168261 C101.66127,19.1002609 103.558367,19.2088551 103.829909,19.4518116 C104.103298,19.6947681 105.239339,19.9469275 105.239339,19.9469275 C105.239339,19.9469275 105.61802,20.0684058 105.932048,20.3592174 C106.203589,20.6095362 107.555756,21.3126377 107.101339,21.5335072 C106.632145,21.7783043 106.835339,22.0046957 106.835339,22.0046957 C106.835339,22.0046957 107.238034,22.5495072 107.574228,22.370971 C107.903034,22.2034783 108.137631,22.4004203 108.520006,22.7077971 C108.858048,22.9765217 109.777964,23.3612029 110.223145,23.7918986 C110.61845,24.1821014 111.610409,24.945942 112.123937,25.4870725 C112.631923,26.0300435 113.169464,26.7920435 113.426228,27.0607681 C113.686687,27.3294928 114.032117,27.5264348 114.305506,27.9424058 C114.612145,28.409913 114.497617,28.6602319 114.532714,28.9418406 C114.569659,29.2271304 114.20945,29.6523043 114.081992,29.6743913 C113.952687,29.6964783 113.699617,29.8161159 113.548145,29.702 C113.396673,29.5897246 112.873909,29.3136377 112.539562,29.0430725 C112.203367,28.7743478 110.598131,27.8687826 110.598131,27.8687826 C110.598131,27.8687826 110.071673,27.6203043 110.409714,28.108058 C110.749603,28.593971 111.3832,28.9860145 111.3832,28.9860145 C111.3832,28.9860145 111.957687,29.0504348 111.852395,29.517942 C111.734173,29.990971 111.632575,29.921029 111.824687,30.2173623 C112.051895,30.5615507 112.123937,30.949913 112.232923,31.1615797 C112.303117,31.3272319 112.491534,31.5517826 112.755687,31.791058 C113.058631,32.0781884 113.350492,32.1536522 113.433617,32.4536667 C113.516742,32.7555217 113.718089,32.8273043 113.801214,32.842029 C113.917589,32.9046087 114.046895,32.2346377 113.902812,32.1205217 C113.755034,32.0064058 113.452089,31.7892174 113.115895,31.5241739 C112.776006,31.260971 112.820339,31.0824348 112.768617,30.8265942 C112.751992,30.6167681 112.683645,30.1455797 113.271062,30.7437681 C113.854784,31.3474783 114.057978,31.4211014 114.233464,31.6622174 C114.407103,31.9051739 114.638006,32.5456957 114.804256,32.3542754 C114.933562,32.1186812 114.94095,31.8186667 114.833812,31.5296957 C114.717437,31.2370435 114.331367,30.9977681 114.331367,30.775058 C114.323978,30.5541884 114.819034,30.1106087 114.952034,30.0112174 C115.085034,29.9136667 115.225423,29.1903188 115.201409,29.0541159 C115.208798,28.9694493 115.40645,28.8976667 115.587478,29.4608841 C115.724173,29.978087 115.670603,29.9412754 115.853478,30.1124493 C116.034506,30.2873043 116.250631,30.7437681 116.318978,30.7695362 C116.355923,30.7456087 116.378089,30.1952754 116.235853,29.9118261 C116.095464,29.6302174 116.019728,29.4516812 115.799909,29.2271304 C115.576395,29.0044203 115.341798,28.870058 115.387978,28.5976522 C115.391673,28.2792319 115.436006,28.085971 115.436006,28.085971 C115.436006,28.085971 115.291923,27.8025217 115.099812,27.4712174 C114.909548,27.139913 114.7747,26.9245652 114.617687,26.7294638 C114.414492,26.4865072 114.959423,26.7773188 115.144145,26.9540145 C115.367659,27.1804058 115.764812,27.4307246 116.008645,27.7233768 C116.250631,28.016029 116.477839,28.3234058 116.533256,28.5221884 C116.546187,28.6694348 116.511089,28.6952029 116.363312,28.8056377 C116.211839,28.9197536 116.019728,28.7485797 116.167506,28.9510435 C116.355923,29.2050435 116.427964,29.228971 116.681034,29.5897246 C116.928562,29.9523188 117.329409,29.9762464 117.333103,29.5842029 C117.325714,29.1995217 117.174242,29.1516667 117.4347,29.0412319 C117.676687,28.9455217 117.918673,28.3731014 118.011034,28.3841449 C118.062756,28.3454928 118.380478,28.5166667 118.524562,28.6528696 C118.668645,28.7890725 118.646478,28.962087 118.805339,29.1682319 C118.960506,29.3762174 118.873687,29.4369565 118.823812,29.4719275 C118.809034,29.5602754 118.711131,29.470087 118.766548,29.5915652 C118.816423,29.7130435 119.21727,29.9872899 119.206187,29.9173478 C119.152617,29.7958696 119.123062,29.736971 119.161853,29.632058 C119.160006,29.4756087 119.235742,29.5013768 119.235742,29.5013768 C119.039937,29.2400145 119.039937,29.2400145 118.88477,29.0338696 C118.88477,29.0338696 118.8312,28.7522609 119.076881,29.0559565 C119.324409,29.3614928 119.448173,29.5142609 119.573784,29.6633478 C119.6957,29.8161159 119.78252,29.8363623 119.959853,30.0314638 C120.096548,30.175029 120.083617,30.1087681 119.985714,29.9375942 C119.921062,29.8216377 119.937687,29.7314493 119.937687,29.7314493 C120.072534,29.9578406 120.072534,29.9578406 120.205534,30.1823913 C120.205534,30.1823913 120.421659,30.5100145 120.54727,30.660942 C120.637784,30.7584928 120.937034,31.191029 120.569437,30.5707536 C120.190756,29.956 120.299742,30.1198116 119.847173,29.4756087 C119.390909,28.8369275 119.475881,28.9363188 119.154464,28.5203478 C118.8312,28.108058 118.866298,28.0013043 118.866298,28.0013043 C118.866298,28.0013043 119.278228,28.5921304 119.51652,28.9068696 C119.754812,29.2216087 120.089159,29.6283768 120.432742,30.1087681 C120.772631,30.5946812 120.876075,30.7603333 121.238131,31.3106667 C121.554006,31.8076232 121.337881,31.4781594 121.795992,32.1978261 L121.832937,32.2493623 L121.832937,32.2530435 L121.832937,32.2530435 Z M9.25582547,32.8935652 C10.6744921,30.533942 12.2372421,28.270029 13.9366866,26.1183913 C13.7297977,26.3926377 13.3363394,26.9466522 13.2328949,27.104942 C13.092506,27.3276522 13.142381,27.7730725 13.0666449,27.958971 C12.9502699,28.200087 12.427506,28.6252609 12.2224644,28.882942 C12.0211171,29.1387826 12.1023949,29.2768261 12.0525199,29.4811304 C12.0525199,29.4811304 11.7717421,29.8418841 11.7107838,29.8786957 C11.612881,29.9688841 11.2766866,30.2173623 11.2342005,30.1069275 C11.2046449,30.0093768 10.9626588,30.3995797 10.5913671,30.9407101 C10.2237699,31.4855217 9.90974213,31.9051739 9.72501991,32.1794203 C9.58463102,32.4002899 9.39806158,32.6708551 9.25951991,32.8935652 L9.25582547,32.8935652 L9.25582547,32.8935652 Z M15.2666866,24.4894783 L15.436631,24.2888551 C15.4754227,24.2538841 15.5493116,24.1894638 15.5271449,24.2354783 C15.5456171,24.2483623 15.9630894,23.7440435 16.0425199,23.6391304 C16.1108671,23.5544638 16.1662838,23.456913 16.2549505,23.3391159 C16.5449644,23.0133333 16.833131,22.6893913 17.1249921,22.3672899 C17.1176032,22.3838551 17.049256,22.4666812 17.0307838,22.497971 C17.0104644,22.5642319 17.647756,21.8151159 17.9654782,21.4838116 C18.2868949,21.1525072 17.8066171,21.6936377 17.7234921,21.7948696 C17.6403671,21.8961014 17.0418671,22.5936812 16.7795616,22.8881739 C16.4803116,23.2342029 16.8035755,22.9967681 16.7315338,23.1955507 C16.666881,23.4016957 15.8836588,24.3643188 15.7654366,24.5207681 C15.6065755,24.7287536 15.0080755,25.418971 14.8602977,25.5514928 C14.755006,25.6343188 15.0006866,25.2441159 15.1226032,25.0066812 C15.2463671,24.7821304 15.0985894,24.7250725 15.2666866,24.4894783 L15.2666866,24.4894783 Z M19.2825477,20.1254638 C19.7184921,19.691087 20.1636727,19.265913 20.6143949,18.8444203 C20.6365616,18.8352174 20.690131,18.8002464 20.5922282,18.907 C20.4185894,19.1076232 20.141506,19.3855507 19.9401588,19.5548841 C19.7406588,19.726058 19.2714644,20.1880435 19.3010199,20.1236232 C19.2973255,20.1181014 19.2825477,20.1291449 19.2825477,20.1254638 L19.2825477,20.1254638 Z M21.8113949,17.7474348 C22.1143394,17.4768696 22.4135894,17.2081449 22.7239227,16.944942 C22.6130894,17.0388116 22.5373532,17.1161159 22.5872282,17.0977101 C22.6666588,17.0885072 22.7387005,17.071942 22.7387005,17.071942 C22.7387005,17.071942 22.8864782,16.9412609 23.2374505,16.643087 C23.6364505,16.3044203 23.3741449,16.6025942 23.3741449,16.6025942 C23.3741449,16.6025942 23.8027005,16.2988986 24.2829782,15.951029 C24.7669505,15.6123623 24.8205199,15.4706377 25.0772838,15.2681739 C25.3340477,15.0638696 25.2398394,15.1558986 25.2250616,15.2405652 C25.2102838,15.3325942 25.9140755,14.7436087 26.1338949,14.6018841 C26.3574088,14.4601594 26.5957005,14.5613913 26.6566588,14.6423768 C26.7767282,14.6920725 26.4941032,14.8577246 26.0914088,15.1853478 C25.6868671,15.5148116 26.1154227,15.3233913 26.2207144,15.3546812 C26.2742838,15.4264638 25.4190199,16.1185217 25.1714921,16.2215942 C24.9258116,16.3283478 24.2404921,16.7203913 24.2331032,16.6099565 C24.2294088,16.5032029 23.4646588,17.2118261 23.4073949,17.1474058 C23.3556727,17.0848261 23.0416449,17.5173623 22.3969644,17.868913 C21.7652144,18.2443913 21.8631171,18.1560435 21.7689088,18.1468406 C21.7245755,18.1026667 21.1186866,18.7026957 21.0909782,18.6695652 C21.0614227,18.6382754 20.773256,18.9088406 20.640256,18.9548551 C20.5608255,18.9677391 21.155631,18.3548261 21.2479921,18.2627971 C21.3292699,18.1873333 21.6322144,17.9112464 21.7947699,17.764 L21.804006,17.7547971 L21.8113949,17.7474348 L21.8113949,17.7474348 Z M23.882131,15.9675942 C24.8057421,15.2074348 25.7552144,14.4730435 26.725006,13.7644203 L26.7360894,13.7552174 L26.7360894,13.7533768 C26.8801727,13.6521449 27.057506,13.5214638 27.2126727,13.4091884 L27.2274505,13.3981449 L27.2514644,13.3797391 L27.2625477,13.3705362 L27.2773255,13.3613333 L27.2884088,13.353971 L27.2957977,13.3502899 L27.3142699,13.3355652 L27.3253532,13.3263623 L27.3290477,13.3245217 L27.3419782,13.3134783 L27.3493671,13.3097971 L27.3604505,13.3024348 L27.3715338,13.2932319 L27.3826171,13.2858696 L27.3937005,13.2785072 L27.4251032,13.2527391 L27.4287977,13.2508986 C27.4879088,13.2104058 27.6356866,13.1054928 27.7834644,13.0005797 L27.7908532,12.9932174 C29.1725755,12.0232319 30.5893949,11.1047826 32.0431588,10.2397101 L32.0505477,10.2397101 C32.1059644,10.2065797 32.3368671,10.0758986 32.1706171,10.1844928 C31.8990755,10.3740725 31.6607838,10.4845072 31.3227421,10.686971 C30.9828532,10.8912754 31.3910894,10.6777681 31.1084644,10.8471014 C30.831381,11.0164348 30.3769644,11.2851594 30.1534505,11.4213623 C29.8708255,11.5962174 30.1571449,11.4305652 30.2217977,11.4066377 C30.2864505,11.3863913 29.9724227,11.6275072 29.3591449,12.0103478 C28.7495616,12.3987101 28.9158116,12.2937971 28.6886032,12.4263188 C28.5186588,12.5257101 28.5149644,12.5238696 28.5112699,12.5146667 C28.503881,12.5091449 27.9700338,12.8919855 27.6486171,13.1202174 C27.3308949,13.3521304 27.7686866,13.0613188 27.9848116,12.9103913 C28.2009366,12.7613043 28.321006,12.7042464 28.5001866,12.6195797 C28.6886032,12.5404348 29.1430199,12.2790725 29.2797144,12.245942 C29.4755199,12.1870435 28.9804644,12.5036232 28.7218532,12.7042464 C28.5149644,12.868058 28.4613949,12.9067101 27.9995894,13.2748261 C27.5950477,13.607971 27.4879088,13.5674783 27.2274505,13.6539855 C27.0261032,13.7147246 26.7545616,13.9006232 26.542131,14.0533913 C26.3297005,14.2061594 26.3333949,14.2098406 26.2207144,14.2816232 C26.1634505,14.3147536 26.1024921,14.3405217 26.0840199,14.3184348 C26.0193671,14.3405217 25.8198671,14.5153768 25.6720894,14.6442174 C25.4707421,14.8135507 25.0403394,15.1135652 25.1197699,15.0031304 C25.2102838,14.9074203 24.6043949,15.4135797 24.2903671,15.6528551 C24.0668532,15.8295507 23.9190755,15.9436667 23.882131,15.9675942 L23.882131,15.9675942 Z M32.2500477,10.1182319 C32.4477005,10.0022754 32.6416588,9.88447826 32.8411588,9.77036232 L32.8448532,9.77588406 C32.7284782,9.84030435 32.560381,9.93969565 32.3313255,10.0722174 C32.311006,10.0851014 32.2814505,10.1016667 32.2500477,10.1182319 L32.2500477,10.1182319 Z M20.3761032,32.9027681 C20.4592282,33.1052319 20.5423532,33.1641304 20.7289227,32.9543043 C20.9173394,32.7463188 21.2239782,32.2015072 21.0004644,32.311942 C20.773256,32.4242174 20.6827421,32.426058 20.640256,32.4647101 C20.5645199,32.5493768 20.4444505,32.6708551 20.4185894,32.7223913 C20.3945755,32.7739275 20.3761032,32.9027681 20.3761032,32.9027681 L20.3761032,32.9027681 Z M18.661881,35.3544203 C18.5972282,35.648913 18.6193949,35.9305217 18.7874921,35.7722319 C18.9869921,35.5679275 19.3398116,35.3341739 19.2825477,35.0249565 C19.2289782,34.7157391 19.3915338,34.3494638 19.127381,34.6457971 C18.828131,34.9881449 18.661881,35.3544203 18.661881,35.3544203 L18.661881,35.3544203 Z M16.3380755,35.3525797 C16.3861032,36.1366667 16.8903949,35.6323478 17.1139088,35.3654638 C17.3743671,35.0525652 18.2517977,34.251913 17.8694227,34.204058 C17.4611866,34.2077391 17.1176032,34.2592754 16.9550477,34.6402754 C16.7961866,35.0212754 16.3380755,35.3525797 16.3380755,35.3525797 L16.3380755,35.3525797 Z M22.8144366,25.4079275 C22.6278671,25.799971 22.2805894,26.2914058 22.7830338,26.3521449 C23.283631,26.4239275 23.8100894,26.0392464 24.0243671,25.5938261 C24.2404921,25.1484058 24.2109366,24.4489855 23.8581171,24.6808986 C23.5440894,24.8723188 23.2448394,24.9956377 23.1284644,25.2109855 C22.9696032,25.4723478 23.0748949,25.2422754 23.0416449,25.2128261 C23.0102421,25.1833768 22.9437421,25.2017826 22.9123394,25.2533188 C22.8790894,25.3030145 22.8144366,25.4079275 22.8144366,25.4079275 L22.8144366,25.4079275 Z M22.0792421,85.3813768 C21.8520338,85.582 20.3225338,85.6022464 20.7769505,86.2096377 C21.2479921,86.8538406 21.7005616,86.5943188 22.1106449,86.829913 C22.5447421,87.1004783 23.2947144,87.4262609 23.3261171,87.2514058 C23.3593671,87.0783913 23.3353532,86.6237681 23.6807838,86.7691739 C24.0058949,86.8685652 25.3765338,86.7544493 25.2601588,86.6108841 C25.1271588,86.4249855 23.965256,85.2654203 23.4461866,85.2451739 C22.9123394,85.1752319 22.7830338,85.1292174 22.6057005,85.4089855 C22.4135894,85.6482609 22.0792421,85.3813768 22.0792421,85.3813768 L22.0792421,85.3813768 Z M14.1989921,82.1235507 C14.3264505,81.9744638 15.4144644,80.7762464 15.8300894,81.3081739 C16.2586449,81.8805942 17.1933394,81.8032899 17.5221449,81.9652609 C17.8509505,82.1253913 19.4635755,83.0953768 19.759131,83.6125797 C20.0546866,84.127942 20.7049088,84.6028116 20.2634227,84.7795072 C19.8459505,85.0003768 18.7062144,84.969087 18.1926866,84.3543333 C17.6994782,83.7782319 16.9919921,83.0512029 16.5615894,82.9775797 C16.1219505,82.8487391 15.1521588,82.4456522 15.054256,82.5855362 C14.9563532,82.7272609 15.3387282,83.0512029 14.9175616,82.9076377 C14.4982421,82.7603913 14.2359366,82.5616087 14.1491171,82.476942 C14.0586032,82.3922754 14.2137699,82.175087 14.1989921,82.1235507 L14.1989921,82.1235507 Z M90.0976588,64.7981739 C90.0976588,64.7981739 89.1389505,65.4552609 89.0761449,65.620913 C89.0114921,65.7626377 89.2239227,66.2927246 89.3753949,66.173087 C89.5250199,66.0295217 89.866756,65.4423768 89.9923671,65.389 C90.1235199,65.3337826 90.2712977,65.227029 90.7183255,65.3779565 C91.1653532,65.5086377 91.2059921,65.0981884 91.4368949,64.9049275 C91.6714921,64.7079855 92.5119782,64.8349855 91.9855199,64.2644058 C91.4535199,63.6901449 91.1154782,63.5999565 90.9270616,63.9018116 C90.7367977,64.1999855 90.3137838,64.8073768 90.3137838,64.8073768 C90.2066449,64.8147391 90.2066449,64.8147391 90.0976588,64.7981739 L90.0976588,64.7981739 Z M95.9459644,60.6531884 C95.6282421,61.2090435 95.5303394,61.5329855 95.8055755,62.0096957 C96.0715755,62.4624783 96.1380755,62.883971 95.851756,63.0404203 C95.5672838,63.2244783 94.8099227,63.1342899 95.037131,63.5502609 C95.2680338,63.9717536 95.7797144,64.2883333 95.5968394,64.6914203 C95.4158116,65.1184348 95.7834088,65.8491449 95.7834088,65.8491449 C95.7834088,65.8491449 96.9637838,66.5043913 96.8843532,65.6043478 C96.7975338,64.7374348 96.9933394,63.6938261 96.8732699,63.5152899 C96.7513532,63.3109855 96.3819088,63.2263188 96.616506,62.4183043 C96.8547977,61.6268551 96.7624366,61.1004493 96.5814088,60.8777391 C96.3929921,60.6292609 95.968131,60.7102464 95.9459644,60.6531884 L95.9459644,60.6531884 Z M116.030812,26.6521594 C116.311589,27.2466667 116.795562,27.7638696 116.950728,27.8871884 C117.067103,27.958971 117.460562,27.9884203 117.124367,27.5117101 C116.788173,27.0386812 116.302353,26.5177971 116.250631,26.5582899 C116.200756,26.5987826 116.030812,26.6521594 116.030812,26.6521594 L116.030812,26.6521594 Z M64.9181727,26.1349565 C65.4889644,26.4257681 66.6656449,26.1018261 66.3331449,26.6429565 C65.9692421,27.1914493 65.7309505,27.2650725 65.9286032,27.5577246 C66.159506,27.854058 67.2604505,27.5264348 67.4045338,27.8963913 C67.5412282,28.270029 70.5836032,28.1172609 70.5836032,28.1172609 C70.5836032,28.1172609 73.1807977,26.7147391 73.5188394,26.250913 C73.9030616,25.7981304 74.8617699,25.3361449 73.9455477,24.495 C73.0367144,23.6685797 72.1260338,22.6433768 71.4093116,22.9691594 C70.6630338,23.2931014 69.4364782,23.7882174 68.653256,23.8489565 C67.8293949,23.9096957 66.6434782,23.3464783 66.6434782,23.3464783 C66.6434782,23.3464783 66.8928532,22.0875217 65.9064366,22.7630145 C64.9070894,23.4495507 64.2587144,24.6385652 64.430506,24.8502319 C64.5653532,25.0637391 66.0228116,25.2385942 66.0228116,25.2385942 C66.0228116,25.2385942 64.0056449,25.707942 64.1829782,26.0318841 C64.3584644,26.3558261 64.9181727,26.1349565 64.9181727,26.1349565 L64.9181727,26.1349565 Z M81.4822144,47.2703333 C81.3085755,47.5224928 79.2138255,49.0428116 78.8166727,48.647087 C78.3936588,48.2384783 77.0562699,47.4341449 77.6787838,47.2740145 C78.295756,47.1102029 79.2230616,46.869087 78.9348949,46.2083188 C78.6541171,45.554913 77.7508255,44.8867826 77.9614088,44.503942 C78.1738394,44.122942 80.0062838,43.4032754 80.0062838,43.4032754 C80.0062838,43.4032754 81.3344366,42.5547681 81.388006,42.8934348 C81.4600477,43.2449855 82.0049782,43.2505072 82.0234505,43.7180145 C82.0548532,44.1965652 81.720506,45.2015217 81.720506,45.2015217 C81.720506,45.2015217 81.6262977,45.9395942 81.6835616,46.4549565 C81.7315894,46.9666377 81.4822144,47.2703333 81.4822144,47.2703333 L81.4822144,47.2703333 Z M83.5418671,46.2432899 C83.4402699,47.3126667 83.4956866,47.3678841 83.200131,47.5777101 C82.8990338,47.7875362 83.1631866,47.8795652 83.2961866,48.1832609 C83.4310338,48.4851159 84.3583394,48.393087 83.8448116,48.856913 C83.3368255,49.3225797 81.3196588,50.2263043 82.0807144,50.5539275 C82.8380755,50.8833913 85.8305755,50.2097391 85.8305755,50.2097391 C85.8305755,50.2097391 88.3335616,50.253913 88.6069505,49.7753623 C88.8932699,49.3152174 88.2356588,48.6912609 88.6069505,48.3213043 C88.9800894,47.9495072 89.1241727,47.6402899 89.068756,47.2556087 C89.0077977,46.869087 88.6475894,45.2052029 87.8643671,44.745058 C87.0885338,44.2959565 84.2105616,41.027087 84.4765616,40.9258551 C84.7222421,40.8098986 86.5509921,40.0331739 85.7511449,39.4128986 C84.9716171,38.8147101 83.6471588,38.7484493 83.7579921,38.3895362 C83.8669782,38.0287826 84.4082144,37.4986957 84.4082144,37.4986957 C83.9427144,37.2686232 83.9427144,37.2686232 83.4735199,37.0385507 C83.4735199,37.0385507 82.6108671,37.2907101 82.3227005,37.5207826 C82.0086727,37.737971 81.7556032,37.8502464 81.388006,37.7655797 C80.9945477,37.6661884 80.274131,38.0048551 80.274131,38.0048551 C80.274131,38.0048551 81.3676866,38.8128696 81.2513116,39.0171739 C81.1367838,39.2214783 80.2593532,39.9761159 80.2593532,39.9761159 C80.6694366,40.173058 80.6694366,40.173058 81.0850616,40.3718406 C81.0167144,40.6037536 81.0167144,40.6037536 80.922506,40.820942 C80.922506,40.820942 82.136131,40.4141739 81.8608949,40.9092899 C81.5579505,41.3896812 81.171881,41.0510145 81.2291449,41.4706667 C81.2808671,41.8866377 81.720506,41.9068841 81.5967421,42.1516812 C81.471131,42.3983188 82.6736727,42.1866522 82.6939921,42.5694928 C82.7124644,42.9504928 83.3756171,42.3835942 83.2204505,43.0443623 C83.0800616,43.7198551 82.8306866,44.0934928 83.0874505,44.2223333 C83.3479088,44.3530145 84.6502005,44.0345942 84.6852977,44.4008696 C84.7647282,44.8021159 83.6970338,45.7297681 83.6970338,45.7297681 C83.6212977,45.9874493 83.6212977,45.9874493 83.5418671,46.2432899 L83.5418671,46.2432899 Z M113.296923,110.037783 C113.555534,109.665986 113.618339,109.032826 114.335062,108.300275 C115.046242,107.560362 116.983978,105.17313 117.163159,104.908087 C117.344187,104.643043 117.839242,103.971232 117.824464,104.197623 C117.763506,104.47187 117.405145,105.246754 117.120673,105.843101 C116.788173,106.483623 116.117631,107.440725 115.849784,107.807 C115.580089,108.173275 114.547492,109.684391 114.292575,110.067232 C113.989631,110.494246 112.934867,111.742159 112.798173,111.882043 C112.661478,112.021928 111.867173,112.796812 111.756339,112.870435 C111.597478,112.988232 111.080256,113.302971 111.405367,112.98087 C111.680603,112.704783 111.771117,112.609072 111.820992,112.476551 C111.820992,112.384522 112.170117,111.727435 112.170117,111.637246 C112.170117,111.548899 112.711353,110.726159 112.9792,110.446391 C113.2452,110.166623 113.296923,110.037783 113.296923,110.037783 L113.296923,110.037783 Z" id="Imported-Layers" fill="#1ABC9C" sketch:type="MSShapeGroup"></path>
            </g>
        </g>
    </g>
</svg>