<?xml version="1.0" encoding="utf-8"?>
<!-- Generator: Adobe Illustrator 16.0.0, SVG Export Plug-In . SVG Version: 6.00 Build 0)  -->
<!DOCTYPE svg PUBLIC "-//W3C//DTD SVG 1.1//EN" "http://www.w3.org/Graphics/SVG/1.1/DTD/svg11.dtd">
<svg version="1.1" id="Layer_1" xmlns="http://www.w3.org/2000/svg" xmlns:xlink="http://www.w3.org/1999/xlink" x="0px" y="0px"
	 width="320px" height="317px" viewBox="0 0 320 317" enable-background="new 0 0 320 317" xml:space="preserve">
<path fill="none" stroke="#444444" stroke-width="4" stroke-linecap="round" stroke-miterlimit="10" d="M110.83,149.258
	c-6.917,2.185,0.583,22.816,6.667,22.364"/>
<path fill="none" stroke="#444444" stroke-width="4" stroke-linecap="round" stroke-miterlimit="10" d="M120.83,170.492
	c-1.333,0-2,0.603-3.333,1.205"/>
<path fill="none" stroke="#444444" stroke-width="4" stroke-linecap="round" stroke-miterlimit="10" d="M121.038,166.129
	c1.333,1.808,2.667,3.014,4,3.617"/>
<path fill="none" stroke="#444444" stroke-width="4" stroke-linecap="round" stroke-miterlimit="10" d="M125.33,186.871
	c0,8.542,9.528,7.906,16.167,7.292c4.5-0.417,19.25,0.083,31.75-11.167"/>
<path fill="none" stroke="#444444" stroke-width="4" stroke-linecap="round" stroke-miterlimit="10" d="M149.496,113.997
	c3.833,0.5,9.167-4.667,6.667-10"/>
<path fill="none" stroke="#444444" stroke-width="4" stroke-linecap="round" stroke-miterlimit="10" d="M162.83,113.997
	c5.333-2.667,10-0.667,11.333,4.667"/>
<path fill="none" stroke="#444444" stroke-width="4" stroke-linecap="round" stroke-miterlimit="10" d="M180.163,128.663
	c1.333,0.667,2,0.667,2.667,1.333"/>
<path fill="none" stroke="#444444" stroke-width="4" stroke-linecap="round" stroke-miterlimit="10" d="M184.83,139.997
	c0,1.333,0,2.667,1.333,3.333"/>
<path fill="none" stroke="#444444" stroke-width="4" stroke-linecap="round" stroke-miterlimit="10" d="M186.163,155.997"/>
<path fill="none" stroke="#444444" stroke-width="4" stroke-linecap="round" stroke-linejoin="round" stroke-miterlimit="10" d="
	M157.496,192.746C157.496,214.08,125,243,133,295"/>
<path fill="none" stroke="#444444" stroke-width="4" stroke-linecap="round" stroke-miterlimit="10" d="M117.496,171.622
	c0.667,4.822-2.667,8.464,3,10.875c8.667,1.808,16.417,0.277,19.75-5.75"/>
<path fill="none" stroke="#444444" stroke-width="4" stroke-linecap="round" stroke-miterlimit="10" d="M210.496,89.663
	c2.667-10,22.093-43.113,31-39.667c3.932,1.521-4.875,28-5.333,46.667"/>
<path fill="none" stroke="#444444" stroke-width="4" stroke-linecap="round" stroke-miterlimit="10" d="M225.884,60.353
	c-6.737-2.246-14.046-3.488-21.721-3.69c-23.333,0-47.333,9.333-62,28c-13.167,0.333-15.167,12.5-10,18
	c-3.167,11.958,9.833,16.708,17.333,11.333c0,6.63-0.514,13.157-3.417,19.364c-4.467,9.551-25.25,14.089-35.25,15.897"/>
<path fill="none" stroke="#444444" stroke-width="4" stroke-linecap="round" stroke-miterlimit="10" d="M268.191,116.08
	c-1.578-8.947-3.984-17.353-7.361-24.75c-4.551-10.011-11.447-17.951-20-23.694"/>
<path fill="none" stroke="#444444" stroke-width="4" stroke-linecap="round" stroke-miterlimit="10" d="M268.191,116.08"/>
<path fill="none" stroke="#444444" stroke-width="4" stroke-linecap="round" stroke-linejoin="round" stroke-miterlimit="10" d="
	M250.5,264.5c0-23.333,5.663-39.837,12.33-62.504c5.536-18.984,8.727-43.602,7.482-66.89"/>
<circle fill="#444444" stroke="#444444" stroke-width="4" stroke-miterlimit="10" cx="161.996" cy="134.164" r="4.5"/>
<circle fill="#1ABC9C" cx="163" cy="136.5" r="3.115"/>
<path fill="none" stroke="#444444" stroke-width="4" stroke-linecap="round" stroke-miterlimit="10" d="M167.316,201.805
	c1.773,2.219,4.417,3.268,6.749,2.422c1.633-0.594,2.78-2.003,3.302-3.768c1.534,1.018,3.318,1.361,4.951,0.769
	c3.107-1.129,4.48-5.2,3.065-9.094"/>
<path fill="none" stroke="#444444" stroke-width="4" stroke-linecap="round" stroke-miterlimit="10" d="M269.635,135.52
	c2.52-1.315,4.055-3.709,3.67-6.16c-0.27-1.716-1.432-3.112-3.063-3.963c1.292-1.31,1.972-2.995,1.702-4.712
	c-0.512-3.266-4.245-5.394-8.338-4.751"/>
<path fill="none" stroke="#444444" stroke-width="4" stroke-linecap="round" stroke-miterlimit="10" d="M238.061,106.61
	c2.026-1.992,2.797-4.73,1.715-6.962c-0.758-1.563-2.277-2.56-4.086-2.898c0.854-1.63,1.014-3.44,0.256-5.003
	c-1.443-2.975-5.634-3.922-9.361-2.115"/>
<path fill="none" stroke="#444444" stroke-width="4" stroke-linecap="round" stroke-miterlimit="10" d="M219.496,89.663
	c2.667-10,7.041-23.667,19.375-31"/>
<path fill="none" stroke="#444444" stroke-width="4" stroke-linecap="round" stroke-miterlimit="10" d="M181.144,59.19
	c-5.737-9.019-12.881-17.399-17.14-15.751c-2.162,0.836,0.296,10.722,2.33,21.819"/>
<path fill="none" stroke="#444444" stroke-width="4" stroke-linecap="round" stroke-miterlimit="10" d="M176.297,60.995
	c-2.393-3.988-5.617-7.665-10.106-10.334"/>
<path fill="none" stroke="#444444" stroke-width="4" stroke-linecap="round" stroke-miterlimit="10" d="M113.163,225.33v-27.5
	l16.333-14.667l-5.5-0.083l-16,13.416v29.668c0,0,0,0.646,0.583,0.666C109.746,226.871,113.455,227.871,113.163,225.33z"/>
<path fill="none" stroke="#444444" stroke-width="4" stroke-linecap="round" stroke-miterlimit="10" d="M107.679,223.055
	c-8.359,0.297-14.926,1.693-15.808,3.109"/>
<path fill="none" stroke="#444444" stroke-width="4" stroke-linecap="round" stroke-miterlimit="10" d="M130.038,226.164
	c-0.635-1.511-7.697-2.92-16.662-3.139"/>
<path fill="none" stroke="#444444" stroke-width="4" stroke-linecap="round" stroke-miterlimit="10" d="M107.996,201.33
	c0,0,0.292,2.625,5.125,3.291"/>
<path fill="none" stroke="#444444" stroke-width="4" stroke-linecap="round" stroke-miterlimit="10" d="M108.059,211.684
	c0,0,0.104,2.146,4.938,2.646"/>
<path fill="none" stroke="#444444" stroke-width="4" stroke-linecap="round" stroke-linejoin="round" stroke-miterlimit="10" d="
	M96.388,269.809c0.317,1.982,0.621,3.5,0.9,4.355c0,0,10.958,5.582,27.333,0c0,0,3.625-23.334,5.417-48c0,0-0.597,0.484-1.833,0.832
	c-5.333,1.502-17.25,5.043-34.542,0.543c-0.843-0.22-1.417-0.709-1.792-1.375c0,0,0.447,5.826,1.125,13.27"/>
<circle fill="none" stroke="#444444" stroke-width="4" stroke-linecap="round" stroke-miterlimit="10" cx="92.121" cy="244.621" r="5.125"/>
<circle fill="none" stroke="#444444" stroke-width="4" stroke-linecap="round" stroke-miterlimit="10" cx="93.121" cy="254.621" r="5.125"/>
<circle fill="none" stroke="#444444" stroke-width="4" stroke-linecap="round" stroke-miterlimit="10" cx="95.121" cy="264.621" r="5.125"/>
<path fill="none" stroke="#444444" stroke-width="4" stroke-linecap="round" stroke-miterlimit="10" d="M79.718,261.438
	c-1.048,2.641-0.647,5.457,1.245,7.061c1.325,1.123,3.118,1.42,4.909,0.998c-0.122,1.838,0.463,3.559,1.788,4.682
	c2.522,2.139,6.471,1.541,9.149-1.619"/>
<path fill="none" stroke="#444444" stroke-width="4" stroke-linecap="round" stroke-miterlimit="10" d="M92.062,234.954
	c-2.251-1.733-5.069-2.122-7.132-0.743c-1.444,0.965-2.222,2.607-2.309,4.445c-1.732-0.622-3.547-0.531-4.991,0.434
	c-2.749,1.838-3.082,6.67-0.78,10.113c0.316,0.604,0.747,1.166,1.271,1.668c-1.606,0.898-2.729,2.328-2.948,4.051
	c-0.418,3.279,2.575,6.363,6.684,6.887"/>
<path fill="none" stroke="#444444" stroke-width="4" stroke-linecap="round" stroke-miterlimit="10" d="M129.441,232.4
	c2.149,0.609,3.722,2.586,3.722,4.93c0,2.591-1.922,4.732-4.418,5.076"/>
<text transform="matrix(0.6833 -0.7301 0.7301 0.6833 105.8696 263.3711)" fill="#444444" font-family="'Impact'" font-size="10.3866">coffee</text>
<path fill="none" stroke="#444444" stroke-width="4" stroke-linecap="round" stroke-miterlimit="10" d="M132.629,263.396
	c1.554-1.614,2.101-3.811,1.194-5.58c-0.635-1.237-1.858-2.015-3.294-2.263c0.636-1.312,0.721-2.76,0.085-3.999
	c-0.484-0.944-1.378-1.628-2.462-2.014"/>
<path fill="none" stroke="#444444" stroke-width="4" stroke-linecap="round" stroke-miterlimit="10" d="M82.667,269.129
	c-0.06,1.097,0.339,2.187,1.074,3.11c-1.348,0.556-2.375,1.581-2.725,2.928"/>
<circle fill="none" stroke="#1ABC9C" stroke-width="15" stroke-miterlimit="10" cx="160" cy="159" r="149"/>
</svg>
